<svg width="1134" height="607" viewBox="0 0 1134 607" fill="none" xmlns="http://www.w3.org/2000/svg">
<path d="M825.774 315.53C825.774 315.53 819.451 294.674 813.675 289.875C807.898 285.076 799.175 280.43 792.779 288.116C786.38 295.803 793.412 303.382 798.747 307.812C804.079 312.243 825.774 315.53 825.774 315.53Z" fill="#00062C"/>
<path d="M810.305 337.972C810.277 337.972 810.249 337.972 810.221 337.972C805.863 337.923 802.483 337.377 799.885 336.307C795.976 334.695 794.018 331.939 794.059 328.127C794.101 324.284 796.049 321.493 799.843 319.832C802.538 318.654 806.103 318.088 810.447 318.13C817.33 318.206 833.148 327.429 833.815 327.821C834.09 327.981 834.254 328.28 834.243 328.596C834.233 328.912 834.052 329.201 833.767 329.343C833.074 329.694 816.718 337.972 810.305 337.972ZM809.957 319.86C806.124 319.86 802.876 320.399 800.539 321.42C797.384 322.803 795.833 325 795.798 328.144C795.763 331.223 797.318 333.367 800.549 334.702C802.938 335.689 806.107 336.189 810.242 336.238C810.266 336.238 810.291 336.238 810.312 336.238C815.247 336.238 827.332 330.56 831.523 328.516C827.465 326.244 815.72 319.926 810.426 319.867C810.27 319.86 810.113 319.86 809.957 319.86Z" fill="#00062C"/>
<path d="M836.029 330.858C836.029 330.858 849.409 317.681 851.228 311.204C853.047 304.727 853.892 295.966 846.414 293.871C838.937 291.775 835.455 300.334 833.775 306.311C832.099 312.292 836.029 330.858 836.029 330.858Z" fill="#00062C"/>
<path d="M847.529 354.749C847.007 354.766 846.503 354.467 846.283 353.956C830.821 317.945 814.728 304.744 800.858 295.198C800.264 294.788 800.114 293.975 800.525 293.381C800.935 292.787 801.749 292.637 802.343 293.047C816.516 302.801 832.953 316.277 848.69 352.928C848.975 353.592 848.669 354.36 848.005 354.644C847.849 354.71 847.689 354.745 847.529 354.749Z" fill="#696E7C"/>
<path d="M836.076 332.165C835.989 332.169 835.902 332.162 835.815 332.148C835.102 332.029 834.622 331.355 834.741 330.643C837.314 315.27 841.745 305.158 841.933 304.734C842.225 304.073 842.997 303.771 843.658 304.066C844.319 304.358 844.618 305.13 844.326 305.79C844.281 305.891 839.836 316.048 837.321 331.074C837.217 331.699 836.685 332.148 836.076 332.165Z" fill="#696E7C"/>
<path d="M192.092 307.792C192.092 307.792 187.605 286.466 182.267 281.184C176.928 275.902 168.644 270.519 161.601 277.622C154.558 284.725 160.909 292.884 165.837 297.759C170.762 302.638 192.092 307.792 192.092 307.792Z" fill="#00062C"/>
<path d="M175.521 328.839C175.212 328.839 174.916 328.826 174.645 328.801C170.308 328.374 166.986 327.54 164.493 326.247C160.74 324.301 159.025 321.389 159.397 317.591C159.773 313.765 161.954 311.155 165.877 309.828C168.663 308.886 172.266 308.622 176.589 309.05C183.44 309.724 198.395 320.281 199.028 320.729C199.289 320.913 199.425 321.222 199.39 321.539C199.355 321.855 199.147 322.122 198.851 322.244C198.155 322.522 182.418 328.839 175.521 328.839ZM172.829 310.592C170.336 310.592 168.165 310.888 166.437 311.472C163.174 312.573 161.439 314.63 161.129 317.758C160.827 320.819 162.19 323.092 165.293 324.701C167.584 325.889 170.701 326.664 174.815 327.067C179.684 327.547 192.316 322.901 196.688 321.219C192.841 318.602 181.687 311.291 176.418 310.773C175.163 310.655 173.963 310.592 172.829 310.592Z" fill="#00062C"/>
<path d="M200.978 323.95C200.978 323.95 215.453 311.982 217.825 305.686C220.197 299.393 221.8 290.737 214.531 288.002C207.262 285.267 203.054 293.492 200.863 299.302C198.672 305.112 200.978 323.95 200.978 323.95Z" fill="#00062C"/>
<path d="M210.358 348.748C209.837 348.72 209.36 348.376 209.186 347.851C196.906 310.638 182.02 296.091 169.03 285.378C168.474 284.919 168.394 284.096 168.853 283.536C169.312 282.98 170.136 282.9 170.696 283.359C183.968 294.305 199.173 309.154 211.67 347.031C211.896 347.716 211.524 348.456 210.835 348.682C210.678 348.734 210.515 348.755 210.358 348.748Z" fill="#696E7C"/>
<path d="M200.91 325.257C200.823 325.253 200.736 325.239 200.653 325.219C199.954 325.038 199.533 324.326 199.714 323.627C203.613 308.535 208.902 298.844 209.129 298.437C209.476 297.805 210.273 297.572 210.906 297.923C211.539 298.27 211.768 299.066 211.42 299.698C211.368 299.796 206.058 309.529 202.249 324.28C202.089 324.892 201.519 325.288 200.91 325.257Z" fill="#696E7C"/>
<path d="M168.599 486.269C162.638 486.269 151.171 483.107 134.7 470.979C119.098 459.491 118.274 447.232 117.477 435.375C117.265 432.241 117.049 429.002 116.549 425.867C114.966 415.978 109.69 410.828 104.108 405.372C101.493 402.814 98.7868 400.174 96.314 396.935C89.9947 388.657 88.76 373.701 87.7688 361.685C87.508 358.54 87.2645 355.569 86.9515 352.949C86.6698 350.607 86.2107 348.205 85.762 345.881C83.7796 335.57 81.7311 324.909 95.1559 317.41C98.6651 315.45 102.446 315.103 106.4 316.375C120.833 321.017 133.823 345.915 138.741 356.403C143.217 365.952 147.342 370.237 152.562 375.661C157.734 381.033 164.172 387.719 172.953 401.838C180.692 414.278 181.975 430.923 181.69 442.697C181.335 457.267 178.549 470.625 176.059 478.266C173.858 485.022 172.543 485.553 172.112 485.731C171.315 486.057 170.14 486.269 168.599 486.269ZM101.837 317.369C99.8163 317.369 97.8617 317.89 96.0045 318.929C83.6753 325.816 85.5186 335.404 87.4697 345.554C87.9218 347.907 88.3879 350.339 88.6765 352.744C88.993 355.395 89.24 358.38 89.5008 361.542C90.4746 373.333 91.6849 388.011 97.6983 395.882C100.095 399.02 102.752 401.616 105.325 404.128C111.12 409.789 116.594 415.137 118.267 425.589C118.781 428.8 119 432.081 119.216 435.253C119.988 446.714 120.785 458.567 135.736 469.576C154.388 483.312 167.319 485.797 171.461 484.122C172.056 483.806 173.705 480.723 175.565 473.818C180.069 457.104 184.278 423.331 171.479 402.755C162.791 388.793 156.426 382.177 151.31 376.863C145.979 371.324 141.763 366.946 137.166 357.136C133.406 349.112 120.037 322.584 105.868 318.025C104.498 317.587 103.152 317.369 101.837 317.369Z" fill="#00062C"/>
<path d="M181.356 502.772C181.802 503.005 182.351 503.022 182.831 502.772C183.61 502.365 183.913 501.406 183.506 500.628C183.127 499.898 145.363 427.487 139.674 406.47C133.89 385.099 104.741 332.731 103.503 330.511C103.072 329.739 102.105 329.468 101.34 329.896C100.575 330.323 100.297 331.293 100.724 332.057C101.027 332.599 130.923 386.305 136.603 407.301C142.379 428.647 179.124 499.109 180.685 502.098C180.842 502.397 181.078 502.626 181.356 502.772Z" fill="#00062C"/>
<path d="M116.775 361.598C117.527 361.991 118.462 361.723 118.887 360.983C119.328 360.222 119.067 359.249 118.306 358.811L96.0957 346.006C95.348 345.561 94.3603 345.825 93.922 346.586C93.4803 347.347 93.7412 348.32 94.5028 348.758L116.713 361.563C116.737 361.577 116.755 361.584 116.775 361.598Z" fill="#00062C"/>
<path d="M96.3141 365.056C96.3349 365.066 96.3523 365.076 96.3732 365.083L125.316 378.723C126.109 379.098 127.059 378.757 127.434 377.962C127.81 377.169 127.494 376.182 126.676 375.845L97.733 362.206C96.9401 361.831 95.9906 362.171 95.615 362.964C95.2463 363.745 95.5628 364.663 96.3141 365.056Z" fill="#00062C"/>
<path d="M122.501 373.006C122.654 373.086 122.821 373.142 122.999 373.17C123.868 373.302 124.678 372.704 124.811 371.839L128.817 345.589C128.949 344.72 128.351 343.914 127.485 343.778C126.616 343.646 125.805 344.241 125.673 345.109L121.667 371.359C121.562 372.047 121.917 372.7 122.501 373.006Z" fill="#00062C"/>
<path d="M98.6344 390.19C98.6761 390.211 98.7179 390.232 98.7631 390.249L136.846 406.022C137.657 406.359 138.589 405.973 138.926 405.164C139.26 404.354 138.888 403.426 138.067 403.089L99.9838 387.316C99.1735 386.979 98.2414 387.365 97.904 388.174C97.5841 388.939 97.911 389.811 98.6344 390.19Z" fill="#00062C"/>
<path d="M149.08 427.918C149.091 427.872 149.098 427.824 149.101 427.775L153.594 386.83C153.692 385.957 153.059 385.172 152.186 385.078C151.316 384.981 150.527 385.6 150.433 386.486L145.94 427.431C145.842 428.303 146.475 429.089 147.348 429.183C148.172 429.273 148.92 428.717 149.08 427.918Z" fill="#00062C"/>
<path d="M147.602 434.072C148.381 434.478 149.341 434.18 149.748 433.401C150.154 432.623 149.855 431.664 149.076 431.257L124.167 418.243C123.388 417.837 122.428 418.136 122.022 418.914C121.615 419.692 121.914 420.652 122.693 421.058L147.602 434.072Z" fill="#00062C"/>
<path d="M161.359 465.197C162.139 465.604 163.098 465.305 163.505 464.526C163.912 463.748 163.613 462.789 162.834 462.382L137.925 449.369C137.146 448.962 136.186 449.261 135.779 450.039C135.372 450.818 135.672 451.777 136.451 452.183L161.359 465.197Z" fill="#00062C"/>
<path d="M157.495 454.668C157.269 455.516 157.777 456.385 158.625 456.611C159.474 456.836 160.344 456.329 160.57 455.481L167.772 428.335C167.998 427.487 167.491 426.618 166.642 426.392C165.793 426.166 164.924 426.674 164.698 427.522L157.495 454.668Z" fill="#00062C"/>
<path d="M135.013 582.797C129.288 582.797 122.865 581.184 117.196 578.252C109.162 574.096 103.392 567.656 100.954 560.116C95.6743 543.797 59.9665 521.745 42.8065 511.15C27.6289 501.778 27.3819 487.176 27.1141 471.716C27.0307 466.75 26.9402 461.618 26.3386 456.597C25.4413 449.129 19.8766 440.553 13.9815 431.476C9.09156 423.942 4.03466 416.155 1.56186 408.68C-1.29351 400.052 -0.239693 393.036 4.77199 387.229C12.3643 378.438 27.2011 379.06 48.8685 389.081C61.0725 394.728 75.4781 403.43 90.5201 414.254C101.479 422.139 112.56 442.217 121.467 458.351C124.993 464.742 128.325 470.774 131.219 475.299C135.135 481.418 140.703 487.079 146.598 493.07C155.971 502.598 166.596 513.395 172.908 528.678C177.2 539.064 176.289 550.441 170.342 560.71C163.591 572.358 151.109 580.941 138.54 582.578C137.409 582.724 136.227 582.797 135.013 582.797ZM20.1131 382.813C14.3502 382.813 9.47761 384.442 6.09012 388.362C-4.19757 400.278 5.78406 415.654 15.4388 430.531C21.4451 439.785 27.1176 448.521 28.0636 456.392C28.6792 461.5 28.7661 466.681 28.8531 471.688C29.1105 486.658 29.3504 500.802 43.7177 509.673C62.3837 521.2 97.1281 542.658 102.606 559.584C107.788 575.6 127.014 582.331 138.321 580.858C150.372 579.287 162.353 571.038 168.843 559.841C174.515 550.052 175.392 539.221 171.309 529.345C165.121 514.378 154.625 503.707 145.363 494.293C139.402 488.233 133.771 482.513 129.758 476.241C126.833 471.671 123.487 465.611 119.947 459.196C111.127 443.214 100.147 423.324 89.508 415.668C73.9373 404.458 41.1197 382.813 20.1131 382.813Z" fill="#00062C"/>
<path d="M164.798 584.493C155.008 566.67 143.489 545.483 134.067 527.538C113.217 487.823 30.5363 407.301 27.0271 403.892C26.3454 403.231 25.2534 403.245 24.5891 403.926C23.9248 404.608 23.9422 405.699 24.6239 406.362C25.4794 407.193 110.417 489.904 131.013 529.136C140.31 546.848 151.644 567.702 161.351 585.379C162.429 584.857 163.605 584.541 164.798 584.493Z" fill="#00062C"/>
<path d="M76.6053 459.63C76.5566 459.616 76.5114 459.602 76.4627 459.581L31.2428 442.45C30.3525 442.113 29.9038 441.119 30.2412 440.229C30.5785 439.34 31.5697 438.871 32.4636 439.229L74.5116 455.158L63.9839 416.819C63.73 415.901 64.2726 414.952 65.1908 414.702C66.1089 414.449 67.0584 414.991 67.3088 415.908L78.7373 457.517C78.9112 458.143 78.7164 458.81 78.233 459.248C77.7913 459.651 77.1757 459.793 76.6053 459.63Z" fill="#00062C"/>
<path d="M100.413 486.526C99.7731 486.346 99.2688 485.8 99.1715 485.098L91.9339 431.657C91.8052 430.711 92.4695 429.846 93.412 429.718C94.358 429.589 95.224 430.253 95.3527 431.195L102.59 484.636C102.719 485.578 102.055 486.446 101.112 486.575C100.869 486.606 100.632 486.589 100.413 486.526Z" fill="#00062C"/>
<path d="M53.3224 491.655C52.4112 491.398 51.8756 490.453 52.1295 489.539C52.3834 488.622 53.3328 488.083 54.251 488.333L119.817 506.365C119.82 506.365 119.824 506.368 119.827 506.368C120.738 506.626 121.274 507.571 121.02 508.485C120.766 509.402 119.817 509.941 118.902 509.69L53.3328 491.659C53.3294 491.659 53.3259 491.659 53.3224 491.655Z" fill="#00062C"/>
<path d="M135.397 536.305L75.9042 519.514C74.986 519.257 74.4539 518.305 74.7147 517.388C74.9721 516.47 75.925 515.938 76.8432 516.199L136.336 532.99C137.251 533.247 137.787 534.199 137.526 535.117C137.269 536.031 136.316 536.562 135.397 536.305Z" fill="#00062C"/>
<path d="M994.863 558.486C991.455 558.486 988.22 558.066 985.281 557.086C978.858 554.941 973.756 549.156 970.118 539.884C966.681 531.124 965.537 521.769 965.162 516.971C964.007 502.181 968.295 488.365 976.931 479.062C980.638 475.069 985.132 471.897 989.476 468.828C993.541 465.958 997.75 462.987 1001.23 459.383C1010.57 449.72 1014.14 436.779 1017.93 423.077C1020.8 412.652 1023.78 401.869 1029.55 392.741C1035.34 383.574 1043.73 376.127 1055.21 369.976C1064.14 365.191 1074.62 361.33 1088.19 357.828C1099.71 354.853 1112.84 352.716 1122.88 359.423C1135.64 367.95 1136.53 387.073 1130.04 399.896C1123.64 412.537 1112.2 421.121 1099.01 430.249C1096.47 432.008 1093.59 433.999 1091.96 436.782C1090.53 439.222 1090.16 442.982 1092.29 445.15C1093.29 446.175 1094.68 446.724 1096.16 447.301C1097.09 447.669 1098.06 448.048 1098.96 448.569C1101.55 450.067 1103.33 452.524 1104.11 455.679C1105.35 460.697 1104.01 467.324 1100.71 472.571C1092.51 485.571 1078.37 493.171 1063.37 500.44C1060.56 501.802 1057.95 503.231 1056.95 505.698C1055.8 508.537 1057.13 511.546 1058.54 514.736C1059.23 516.296 1059.94 517.909 1060.37 519.542C1062.18 526.475 1058.6 533.157 1054.63 537.098C1050.01 541.698 1043.92 544.294 1038.58 546.369C1037.36 546.841 1036.07 547.352 1034.72 547.887C1023.6 552.297 1007.95 558.486 994.863 558.486ZM966.897 516.838C968.149 532.865 973.783 551.418 985.831 555.438C999.447 559.98 1020.29 551.734 1034.09 546.278C1035.44 545.743 1036.73 545.232 1037.95 544.756C1043.13 542.748 1049.02 540.235 1053.41 535.871C1057.96 531.346 1060.03 525.112 1058.69 519.983C1058.29 518.486 1057.61 516.936 1056.95 515.438C1055.46 512.06 1053.91 508.565 1055.34 505.044C1056.58 502.007 1059.49 500.395 1062.61 498.876C1077.38 491.721 1091.28 484.254 1099.24 471.643C1102.26 466.855 1103.54 460.607 1102.42 456.096C1101.75 453.372 1100.29 451.346 1098.09 450.07C1097.3 449.615 1096.44 449.275 1095.52 448.917C1093.95 448.298 1092.31 447.655 1091.05 446.363C1088.29 443.551 1088.67 438.975 1090.46 435.907C1092.28 432.79 1095.33 430.68 1098.02 428.821C1111.02 419.828 1122.28 411.387 1128.5 399.11C1134.65 386.948 1133.89 368.868 1121.91 360.865C1112.45 354.537 1099.77 356.629 1088.62 359.506C1068.59 364.68 1043.93 373.236 1031.02 393.665C1025.39 402.578 1022.45 413.232 1019.6 423.536C1015.93 436.841 1012.13 450.602 1002.48 460.586C998.887 464.307 994.613 467.324 990.481 470.243C986.207 473.259 981.79 476.379 978.207 480.24C969.902 489.192 965.781 502.532 966.897 516.838Z" fill="#00062C"/>
<path d="M1110.34 370.115C1109.69 369.476 1108.64 369.493 1108.01 370.15C1104.76 373.545 1028.18 453.743 1009.47 492.74C995.426 522.002 976.113 560.098 967.387 577.216C968.559 577.272 969.714 577.449 970.833 577.741C979.793 560.157 998.65 522.934 1012.44 494.199C1030.93 455.679 1109.59 373.298 1110.38 372.471C1111.01 371.811 1111 370.758 1110.34 370.115Z" fill="#00062C"/>
<path d="M1062.32 425.454C1062.37 425.44 1062.41 425.423 1062.46 425.405L1105.16 407.565C1106.01 407.214 1106.4 406.237 1106.05 405.389C1105.7 404.538 1104.74 404.114 1103.9 404.486L1064.19 421.075L1073.07 383.702C1073.29 382.809 1072.74 381.906 1071.86 381.69C1070.97 381.471 1070.08 382.02 1069.87 382.917L1060.22 423.477C1060.08 424.085 1060.28 424.728 1060.75 425.138C1061.19 425.502 1061.78 425.624 1062.32 425.454Z" fill="#00062C"/>
<path d="M1040.39 452.131C1040.99 451.937 1041.46 451.398 1041.53 450.717L1046.81 398.832C1046.9 397.915 1046.24 397.095 1045.34 397.001C1044.43 396.904 1043.62 397.567 1043.53 398.485L1038.25 450.369C1038.15 451.287 1038.81 452.107 1039.72 452.201C1039.95 452.225 1040.18 452.197 1040.39 452.131Z" fill="#00062C"/>
<path d="M986.898 542.838C987.506 542.644 987.972 542.105 988.039 541.424L993.321 489.539C993.415 488.622 992.755 487.802 991.85 487.708C990.939 487.611 990.136 488.274 990.042 489.188L984.759 541.073C984.665 541.99 985.326 542.81 986.23 542.904C986.463 542.932 986.689 542.904 986.898 542.838Z" fill="#00062C"/>
<path d="M1085.56 455.766C1086.42 455.491 1086.91 454.564 1086.64 453.688C1086.37 452.805 1085.44 452.312 1084.58 452.583L1022.45 471.869C1022.44 471.869 1022.44 471.872 1022.44 471.872C1021.57 472.147 1021.09 473.075 1021.36 473.95C1021.63 474.833 1022.55 475.327 1023.42 475.055L1085.55 455.769C1085.55 455.769 1085.56 455.769 1085.56 455.766Z" fill="#00062C"/>
<path d="M1008.46 501.257L1064.82 483.343C1065.69 483.069 1066.17 482.134 1065.9 481.255C1065.62 480.376 1064.69 479.889 1063.83 480.164L1007.47 498.077C1006.6 498.352 1006.12 499.286 1006.39 500.166C1006.67 501.045 1007.59 501.531 1008.46 501.257Z" fill="#00062C"/>
<path d="M567.47 607C867.568 607 1110.85 598.67 1110.85 588.395C1110.85 578.12 867.568 569.79 567.47 569.79C267.371 569.79 24.0938 578.12 24.0938 588.395C24.0938 598.67 267.371 607 567.47 607Z" fill="#D1D7ED"/>
<path d="M1014.69 372.773C1014.69 372.773 1018.6 349.915 1024.06 344.081C1029.52 338.246 1038.11 332.189 1045.89 339.459C1053.67 346.729 1047.24 355.659 1042.2 361.045C1037.16 366.432 1014.69 372.773 1014.69 372.773Z" fill="#00062C"/>
<path d="M1002.35 391.66C1002.35 391.66 1020.8 380.071 1028.6 379.744C1036.4 379.414 1046.52 380.79 1046.9 389.783C1047.28 398.777 1036.68 400.424 1029.48 400.726C1022.28 401.032 1002.35 391.66 1002.35 391.66Z" fill="#00062C"/>
<path d="M1001.97 391.469C1001.77 391.469 1001.56 391.392 1001.4 391.25C1000.76 390.687 985.819 377.416 983.409 370.317C979.74 359.517 981.44 352.306 988.191 350.016C994.785 347.782 1000.04 352.285 1003.81 363.398C1006.04 369.952 1002.96 389.884 1002.83 390.732C1002.78 391.045 1002.57 391.309 1002.27 391.417C1002.17 391.451 1002.07 391.469 1001.97 391.469ZM991.248 351.229C990.441 351.229 989.61 351.375 988.755 351.663C981.461 354.134 982.72 362.87 985.057 369.761C986.942 375.31 997.71 385.52 1001.35 388.863C1002.04 383.939 1003.91 369.087 1002.17 363.961C999.296 355.496 995.63 351.229 991.248 351.229Z" fill="#00062C"/>
<path d="M987.434 415.008C987.434 415.008 1006.73 403.697 1014.75 403.607C1022.77 403.517 1033.11 405.247 1033.22 414.491C1033.32 423.734 1022.39 425.089 1015 425.173C1007.6 425.256 987.434 415.008 987.434 415.008Z" fill="#00062C"/>
<path d="M987.527 413.156C987.527 413.156 973.181 400.08 971.045 393.463C968.91 386.847 967.685 377.833 975.326 375.369C982.967 372.906 986.901 381.607 988.873 387.716C990.848 393.825 987.527 413.156 987.527 413.156Z" fill="#FF94BF"/>
<path d="M979.613 433.592C979.978 433.533 980.308 433.294 980.465 432.925C994.627 399.784 1006.81 384.668 1015.71 373.628C1017.28 371.682 1018.76 369.844 1020.12 368.075C1029.09 356.365 1034.69 349.696 1040.45 345.756C1040.96 345.405 1041.09 344.706 1040.74 344.195C1040.39 343.685 1039.69 343.553 1039.18 343.904C1033.17 348.014 1027.45 354.811 1018.34 366.71C1017 368.458 1015.53 370.285 1013.96 372.218C1004.98 383.358 992.683 398.613 978.399 432.039C978.156 432.609 978.42 433.269 978.99 433.512C979.192 433.603 979.408 433.624 979.613 433.592Z" fill="#696E7C"/>
<path d="M1000.53 393.599C1001.1 393.505 1001.51 392.994 1001.46 392.414C1000.25 375.348 992.631 361.747 992.308 361.174C992.002 360.635 991.316 360.444 990.777 360.75C990.238 361.056 990.047 361.74 990.353 362.279C990.429 362.415 998.05 376.029 999.222 392.57C999.267 393.189 999.803 393.654 1000.42 393.609C1000.46 393.609 1000.49 393.606 1000.53 393.599Z" fill="#696E7C"/>
<path d="M1037.17 390.371C1037.63 390.294 1038.01 389.936 1038.09 389.45C1038.2 388.838 1037.78 388.261 1037.17 388.157C1036.16 387.987 1012.14 384.043 1000.66 391.219C1000.14 391.545 999.978 392.24 1000.31 392.765C1000.64 393.29 1001.33 393.45 1001.86 393.119C1012.61 386.392 1036.56 390.326 1036.8 390.367C1036.92 390.392 1037.05 390.392 1037.17 390.371Z" fill="#696E7C"/>
<path d="M1020.07 414.24C1020.55 414.16 1020.94 413.764 1021 413.253C1021.06 412.638 1020.62 412.082 1020 412.016C1018.99 411.909 995.057 409.41 986.849 414.372C986.321 414.695 986.15 415.384 986.47 415.912C986.79 416.44 987.482 416.61 988.011 416.29C995.572 411.714 1019.52 414.223 1019.76 414.247C1019.87 414.261 1019.97 414.258 1020.07 414.24Z" fill="#696E7C"/>
<path d="M579.539 24.7696L558.699 31.0905L574.927 54.0635L560.974 58.4281L602.284 93.9283L587.322 67.0877L598.605 63.5606L579.539 24.7696Z" fill="#B68C5A"/>
<path d="M565.752 96.8334C565.989 96.9481 566.253 97.0072 566.535 97.0002L583.42 96.5902C584.362 96.5658 585.114 95.784 585.089 94.8388C585.065 93.8936 584.276 93.15 583.337 93.1708L566.451 93.5809C565.509 93.6052 564.757 94.387 564.782 95.3322C564.799 95.9959 565.192 96.5624 565.752 96.8334Z" fill="#EBF0FA"/>
<path d="M552 78.3848C552.083 78.4265 552.174 78.4613 552.268 78.4856L576.787 85.5745C577.695 85.8386 578.644 85.3139 578.909 84.4069C579.173 83.5 578.651 82.5548 577.74 82.2872L553.221 75.1983C552.313 74.9342 551.364 75.4589 551.099 76.3659C550.863 77.1825 551.263 78.0304 552 78.3848Z" fill="#EBF0FA"/>
<path d="M605.104 73.7874C605.243 73.8534 605.396 73.9021 605.552 73.9299C606.484 74.0897 607.371 73.4677 607.531 72.5364L612.654 43.0513C612.818 42.12 612.185 41.2339 611.26 41.0741C610.327 40.9142 609.441 41.5363 609.281 42.4675L604.158 71.9526C604.025 72.7241 604.432 73.4642 605.104 73.7874Z" fill="#EBF0FA"/>
<path d="M696.342 180.973C696.053 180.973 695.775 180.827 695.611 180.577L687.591 168.209C683.039 168.039 678.528 167.302 674.163 166.013L662.762 175.131C662.474 175.361 662.074 175.385 661.761 175.19L648.573 167.045C648.26 166.85 648.103 166.482 648.18 166.124L651.233 151.863C648.047 148.444 645.435 144.833 643.265 140.847L628.62 139.218C628.255 139.176 627.955 138.912 627.869 138.554L624.331 123.587C624.248 123.229 624.398 122.857 624.704 122.659L637.057 114.66C637.262 109.878 637.986 105.483 639.269 101.25L630.213 89.9425C629.983 89.6576 629.959 89.2545 630.15 88.9452L638.33 75.6917C638.521 75.3789 638.89 75.2226 639.252 75.299L653.424 78.3327C656.853 75.1461 660.467 72.5399 664.442 70.3819L666.087 55.7176C666.129 55.3527 666.393 55.0539 666.752 54.9705L681.717 51.4364C682.075 51.353 682.447 51.5025 682.646 51.8083L690.659 64.1652C693.546 64.4432 701.34 65.7185 704.094 66.3684L715.481 57.2605C715.769 57.0311 716.169 57.0068 716.482 57.1979L729.685 65.3467C729.998 65.5413 730.154 65.9097 730.078 66.2676L727.027 80.501C730.293 84.0559 732.902 87.6699 734.985 91.5341L749.634 93.1638C749.999 93.2055 750.298 93.4696 750.385 93.8275L753.926 108.794C754.009 109.152 753.86 109.524 753.554 109.722L741.214 117.714C740.908 120.512 739.666 128.32 738.998 131.145L748.055 142.446C748.284 142.731 748.309 143.13 748.117 143.443L740 156.707C739.809 157.02 739.437 157.18 739.075 157.103L724.836 154.056C721.421 157.232 717.811 159.838 713.818 162.01L712.173 176.674C712.132 177.039 711.867 177.338 711.509 177.421L696.543 180.955C696.474 180.962 696.408 180.973 696.342 180.973ZM673.975 164.182C674.059 164.182 674.146 164.196 674.229 164.22C678.792 165.61 683.331 166.35 688.099 166.489C688.384 166.496 688.649 166.645 688.805 166.885L696.738 179.121L710.511 175.868L712.138 161.36C712.17 161.075 712.34 160.825 712.594 160.689C716.74 158.483 720.461 155.797 723.974 152.475C724.182 152.28 724.471 152.197 724.753 152.256L738.835 155.268L746.312 143.05L737.371 131.889C737.197 131.673 737.138 131.388 737.211 131.121C737.847 128.768 739.318 119.473 739.527 117.131C739.551 116.863 739.698 116.623 739.92 116.477L752.096 108.593L748.837 94.8179L734.342 93.2055C734.056 93.1742 733.802 93.0005 733.67 92.7468C731.559 88.7471 728.871 85.0185 725.452 81.3489C725.257 81.1404 725.177 80.852 725.24 80.574L728.255 66.5004L716.096 58.9945L704.852 67.9877C704.637 68.1614 704.351 68.2205 704.084 68.1475C701.826 67.5429 692.554 66.0243 690.109 65.8541C689.835 65.8367 689.588 65.6907 689.438 65.4614L681.526 53.2608L667.75 56.5134L666.122 71.0213C666.091 71.3063 665.92 71.5565 665.667 71.692C661.538 73.8847 657.817 76.5709 654.287 79.8999C654.078 80.098 653.786 80.1779 653.508 80.1188L639.492 77.1164L631.955 89.3275L640.918 100.517C641.099 100.743 641.154 101.042 641.067 101.32C639.704 105.674 638.956 110.205 638.779 115.171C638.768 115.456 638.622 115.716 638.382 115.869L626.164 123.782L629.423 137.557L643.916 139.169C644.201 139.2 644.451 139.37 644.587 139.624C646.792 143.763 649.484 147.484 652.812 151.005C653.01 151.213 653.09 151.505 653.031 151.783L650.009 165.888L662.154 173.39L673.433 164.369C673.589 164.244 673.781 164.182 673.975 164.182ZM689.052 142.668C684.239 142.668 679.477 141.313 675.227 138.682C669.127 134.905 664.891 129.008 663.305 122.079C661.743 115.265 662.954 108.203 666.71 102.195C670.473 96.1766 676.312 91.9893 683.157 90.4047C690.012 88.8166 697.117 90.0259 703.158 93.8032C709.2 97.5805 713.387 103.439 714.956 110.299C716.531 117.183 715.293 124.306 711.471 130.353C707.701 136.316 701.886 140.437 695.1 141.952C693.097 142.428 691.069 142.668 689.052 142.668ZM689.09 91.4576C687.244 91.4576 685.386 91.6661 683.547 92.0935C670.285 95.1654 661.966 108.44 664.999 121.69C666.48 128.16 670.438 133.671 676.142 137.202C681.78 140.694 688.37 141.779 694.7 140.257C694.704 140.257 694.711 140.253 694.714 140.253C701.051 138.842 706.48 134.992 710.003 129.422C713.575 123.768 714.733 117.113 713.262 110.685C711.798 104.277 707.882 98.8037 702.237 95.2766C698.209 92.7573 693.678 91.4576 689.09 91.4576Z" fill="#A0A7BF"/>
<path d="M573.434 310.585C573.431 310.585 573.424 310.585 573.42 310.585L550.612 310.203C550.244 310.196 549.917 309.96 549.802 309.609L542.996 289.169C536.325 287.206 530.253 284.548 524.455 281.052L504.499 289.972C504.161 290.121 503.768 290.045 503.514 289.781L487.916 273.518C487.662 273.254 487.603 272.858 487.766 272.528L497.532 253.019C494.294 247.063 491.832 240.714 490.204 234.14L469.998 226.457C469.653 226.325 469.431 225.994 469.438 225.626L469.925 202.921C469.932 202.552 470.171 202.233 470.519 202.114L491.022 195.297C492.99 188.618 495.654 182.543 499.153 176.758L490.232 156.863C490.083 156.53 490.159 156.134 490.423 155.88L506.714 140.277C506.978 140.024 507.375 139.965 507.705 140.128L527.195 149.861C533.494 146.491 539.685 144.103 546.094 142.564L553.728 122.52C553.861 122.176 554.174 121.954 554.56 121.961L577.403 122.423C577.771 122.43 578.095 122.67 578.21 123.017L584.981 143.363C591.676 145.337 597.748 147.999 603.518 151.484L623.475 142.567C623.812 142.418 624.205 142.494 624.459 142.759L640.061 159.021C640.315 159.285 640.374 159.682 640.21 160.012L630.462 179.492C632.197 183.158 636.645 194.629 637.79 198.403L657.962 206.069C658.306 206.201 658.529 206.531 658.522 206.899L658.038 229.622C658.031 229.991 657.791 230.31 657.443 230.428L636.983 237.232C634.896 244.12 632.222 250.198 628.827 255.775L637.751 275.672C637.901 276.006 637.825 276.402 637.56 276.656L621.27 292.259C621.005 292.512 620.609 292.571 620.278 292.408L600.823 282.692C597.189 284.349 585.833 288.815 581.879 290.003L574.255 310.026C574.116 310.363 573.793 310.585 573.434 310.585ZM551.256 308.476L572.836 308.838L580.397 288.982C580.494 288.721 580.714 288.526 580.978 288.453C584.442 287.501 597.331 282.428 600.454 280.944C600.694 280.829 600.976 280.833 601.216 280.951L620.501 290.584L635.908 275.829L627.046 256.07C626.928 255.806 626.949 255.504 627.099 255.257C630.601 249.586 633.331 243.387 635.439 236.305C635.519 236.034 635.727 235.818 635.999 235.728L656.306 228.976L656.765 207.476L636.764 199.873C636.506 199.776 636.308 199.56 636.235 199.293C635.317 195.981 630.323 183.096 628.709 179.875C628.587 179.631 628.587 179.343 628.709 179.096L638.378 159.779L623.624 144.399L603.81 153.253C603.55 153.371 603.247 153.35 603 153.201C597.122 149.604 590.925 146.887 584.056 144.899C583.781 144.819 583.562 144.611 583.472 144.34L576.749 124.143L555.13 123.705L547.552 143.606C547.447 143.878 547.218 144.079 546.936 144.145C540.384 145.671 534.064 148.11 527.62 151.599C527.369 151.734 527.07 151.738 526.816 151.613L507.469 141.949L492.061 156.704L500.92 176.455C501.038 176.716 501.017 177.018 500.868 177.265C497.254 183.162 494.538 189.361 492.559 196.21C492.479 196.485 492.27 196.704 491.999 196.794L471.646 203.563L471.184 225.046L491.244 232.673C491.512 232.774 491.714 233.003 491.78 233.281C493.425 240.11 495.877 246.42 499.268 252.578C499.407 252.828 499.41 253.13 499.285 253.384L489.592 272.754L504.342 288.13L524.156 279.276C524.417 279.158 524.719 279.179 524.963 279.328C530.868 282.935 537.066 285.649 543.91 287.623C544.185 287.703 544.404 287.911 544.495 288.182L551.256 308.476ZM563.971 254.614C563.554 254.614 563.136 254.607 562.719 254.593C552.48 254.274 543.048 250.045 536.158 242.681C529.129 235.412 525.383 225.744 525.616 215.455C525.853 205.051 530.113 195.422 537.612 188.343C544.988 181.379 554.713 177.692 564.997 177.96C575.299 178.228 584.838 182.443 591.857 189.82C598.889 197.211 602.607 206.972 602.325 217.303C602.047 227.628 597.801 237.173 590.372 244.182C583.218 250.941 573.883 254.614 563.971 254.614ZM563.971 179.635C554.925 179.635 545.868 182.943 538.805 189.612C531.647 196.37 527.578 205.565 527.352 215.5C527.129 225.324 530.701 234.55 537.41 241.482C537.414 241.486 537.417 241.489 537.421 241.493C543.994 248.519 552.998 252.554 562.771 252.859C572.68 253.165 582.063 249.642 589.179 242.924C596.267 236.235 600.319 227.12 600.586 217.262C600.854 207.396 597.303 198.077 590.594 191.022C583.395 183.454 573.688 179.635 563.971 179.635Z" fill="#A0A7BF"/>
<path d="M268.144 523.1H104.125V449.111L268.144 254.315H346.616V453.309H387.29V523.1H346.616V583.617H268.144V523.1ZM268.144 453.309V351.413L181.481 453.309H268.144Z" fill="#B68C5A"/>
<path d="M439.41 420.401C439.41 358.856 450.498 315.791 472.676 291.199C494.855 266.61 528.636 254.315 574.026 254.315C595.833 254.315 613.737 257.005 627.739 262.377C641.738 267.753 653.16 274.745 662 283.359C670.841 291.973 677.804 301.029 682.889 310.526C687.973 320.023 692.063 331.105 695.155 343.764C701.196 367.915 704.219 393.092 704.219 419.3C704.219 478.047 694.272 521.043 674.378 548.283C654.485 575.524 620.22 589.142 571.592 589.142C544.328 589.142 522.299 584.798 505.498 576.111C488.699 567.424 474.916 554.688 464.162 537.904C456.351 525.978 450.272 509.673 445.924 488.983C441.584 468.293 439.41 445.435 439.41 420.401ZM528.716 420.624C528.716 461.851 532.364 490.012 539.658 505.104C546.951 520.199 557.524 527.743 571.376 527.743C580.513 527.743 588.432 524.539 595.137 518.135C601.843 511.73 606.778 501.608 609.946 487.767C613.115 473.93 614.697 452.357 614.697 423.056C614.697 380.064 611.049 351.166 603.756 336.37C596.462 321.573 585.521 314.172 570.931 314.172C556.046 314.172 545.288 321.719 538.659 336.811C532.031 351.899 528.716 379.838 528.716 420.624Z" fill="#B68C5A"/>
<path d="M911.972 523.1H747.957V449.111L911.972 254.315H990.444V453.309H1031.12V523.1H990.444V583.617H911.972V523.1ZM911.972 453.309V351.413L825.309 453.309H911.972Z" fill="#B68C5A"/>
<path d="M423.161 52.0237C423.161 32.7064 408.32 18.9073 390.016 18.9073C384.521 18.9073 379.346 20.2521 374.783 22.6151C368.839 13.7261 358.708 7.86731 347.206 7.86731C331.514 7.86731 318.374 18.7683 314.945 33.4048C310.584 30.3642 305.287 28.5642 299.562 28.5642C284.691 28.5642 272.633 38.2246 272.633 57.5419C272.633 76.8593 283.053 83.7049 295.789 83.7049C295.789 83.7049 396.621 84.6362 399.678 83.7049C411.572 83.1629 423.161 71.341 423.161 52.0237Z" fill="#EBF0FA"/>
<path d="M1021.35 30.465C1021.35 17.1385 1011.11 7.61712 998.486 7.61712C994.695 7.61712 991.124 8.54495 987.976 10.1747C983.876 4.04139 976.885 0 968.948 0C958.122 0 949.058 7.5233 946.69 17.6181C943.681 15.5192 940.026 14.2786 936.075 14.2786C925.815 14.2786 917.496 20.9436 917.496 34.2701C917.496 47.5966 924.685 52.3226 933.474 52.3226C933.474 52.3226 1003.04 52.9654 1005.15 52.3226C1013.36 51.9507 1021.35 43.795 1021.35 30.465Z" fill="#EBF0FA"/>
<path d="M148.02 107.995C148.02 95.0333 158.627 74.3573 182.138 74.3573C205.649 74.3573 218.336 85.6822 220.638 95.5025C223.567 93.4627 227.121 92.2569 230.961 92.2569C240.943 92.2569 249.032 98.7377 249.032 111.703C249.032 124.664 242.038 129.258 233.493 129.258C233.493 129.258 165.826 129.88 163.775 129.258C155.796 128.893 148.02 120.96 148.02 107.995Z" fill="#EBF0FA"/>
<path d="M683.575 486.71C683.575 486.71 687.049 481.481 689.606 483.117C692.162 484.754 689.766 489.258 687.853 491.106C685.94 492.955 683.168 492.382 683.168 492.382L683.575 486.71Z" fill="#FFBFA3"/>
<path d="M686.839 487.673C686.839 487.673 688.651 482.276 688.105 477.252C687.559 472.223 684.885 467.609 684.885 467.609L679.191 470.521L686.839 487.673Z" fill="#111214"/>
<path d="M640.975 524.101C640.464 517.089 648.936 511.164 655.169 511.164C661.401 511.164 671.212 511.164 671.212 511.164C671.212 511.164 676.784 511.164 683.886 511.164C690.988 511.164 700.715 517.092 700.204 524.101L693.666 562.43H647.514L640.975 524.101Z" fill="#A0A7BF"/>
<path d="M643.022 517.659C643.022 517.659 625.169 547.251 631.899 555.796C638.625 564.341 650.962 564.397 650.962 564.397L658.811 551.751L649.842 540.003L656.568 529.321L643.022 517.659Z" fill="url(#paint0_linear_376_9)"/>
<path d="M697.412 517.221C699.182 518.916 717.121 546.237 709.271 554.782C701.422 563.327 690.209 565.405 690.209 565.405L682.359 551.748L691.329 539.999L684.599 529.317C684.603 529.32 695.641 515.528 697.412 517.221Z" fill="url(#paint1_linear_376_9)"/>
<path d="M674.509 560.293L696.935 562.43C696.935 562.43 723.847 546.41 729.453 559.226C735.06 572.042 703.665 586.995 695.815 589.132C687.965 591.269 653.207 593.402 641.994 589.132C630.781 584.861 606.112 573.112 612.839 560.293C619.565 547.477 647.601 562.43 647.601 562.43L674.509 560.293Z" fill="#111214"/>
<path d="M695.514 534.373H645.654C643.641 534.373 641.992 536.02 641.992 538.032V564.105C641.992 566.117 643.641 567.764 645.654 567.764H695.514C697.528 567.764 699.176 566.117 699.176 564.105V538.032C699.176 536.02 697.528 534.373 695.514 534.373Z" fill="#CACCE8"/>
<path d="M698.893 567.09H642.273C641.539 567.09 640.938 567.691 640.938 568.424V570.03C640.938 570.763 641.539 571.364 642.273 571.364H698.89C699.624 571.364 700.226 570.763 700.226 570.03V568.424C700.226 567.691 699.624 567.09 698.893 567.09Z" fill="#9DA1CC"/>
<path d="M673.779 551.998C673.779 553.68 672.346 555.042 670.583 555.042C668.816 555.042 667.387 553.68 667.387 551.998C667.387 550.316 668.816 548.954 670.583 548.954C672.346 548.954 673.779 550.316 673.779 551.998Z" fill="white"/>
<path d="M702.753 561.259C692.921 565.582 660.945 579.645 660.945 579.645L662.486 589.396C662.486 589.396 681.069 589.125 694.264 585.274C707.459 581.424 718.804 576.347 724.72 570.349C730.632 564.348 712.582 556.933 702.753 561.259Z" fill="url(#paint2_linear_376_9)"/>
<path d="M682.235 582.519C682.235 582.519 691.007 579.676 699.002 581.181C706.998 582.686 709.488 585.702 708.626 588.986C707.763 592.27 700.108 595.022 694.436 594.403C688.763 593.785 678.246 590.848 678.246 590.848L682.235 582.519Z" fill="#111214"/>
<path d="M659.67 581.758C659.67 581.758 650.877 578.978 642.896 580.541C634.914 582.105 632.444 585.139 633.331 588.416C634.218 591.693 641.89 594.389 647.559 593.732C653.228 593.072 662.49 589.396 662.49 589.396L659.67 581.758Z" fill="#111214"/>
<path d="M660.773 582.018C660.773 582.018 649.251 581.74 651.278 587.241C653.31 592.742 663.389 588.986 663.389 588.986L660.773 582.018Z" fill="#FFBFA3"/>
<path d="M681.131 582.783C681.131 582.783 693.043 582.387 691.054 587.905C689.064 593.42 678.359 590.327 678.359 590.327L681.131 582.783Z" fill="#FFBFA3"/>
<path d="M640.353 564.432C650.491 568.383 682.293 582.512 682.293 582.512L681.006 591.074C681.006 591.074 663.422 591.227 647.423 587.453C631.428 583.679 622.504 578.717 616.546 572.761C610.585 566.808 630.214 560.481 640.353 564.432Z" fill="url(#paint3_linear_376_9)"/>
<path d="M664.204 500.861V509.273L657.996 510.955C657.996 510.955 660.271 516.633 669.87 516.633C679.469 516.633 682.627 511.164 682.627 511.164L676.523 508.745L676.419 499.491L664.204 500.861Z" fill="#FFBFA3"/>
<path d="M657.31 486.533C657.595 497.198 664.731 505.663 673.249 505.434C681.766 505.208 687.268 494.189 686.983 483.524C686.698 472.859 680.733 466.58 672.216 466.809C663.699 467.039 657.024 475.869 657.31 486.533Z" fill="#FFD1BD"/>
<path d="M659.185 484.897C659.185 484.897 656.239 479.351 653.537 480.73C650.831 482.11 652.775 486.825 654.497 488.855C656.222 490.884 659.032 490.582 659.032 490.582L659.185 484.897Z" fill="#FFD1BD"/>
<path d="M660.08 488.861C660.08 488.861 660.267 481.828 661.342 478.857C662.417 475.886 665.418 471.65 665.418 471.65C665.418 471.65 673.403 473.262 677.118 473.037C680.832 472.811 685.145 471.608 686.644 469.492C688.143 467.372 690.358 460.523 690.358 460.523L682.47 460.85L684.001 457.382L675.668 459.029L675.146 456.77L671.48 458.063L670.388 455.669C670.388 455.669 655.892 462.591 654.616 469.843C653.339 477.095 653.534 480.734 653.534 480.734C653.534 480.734 655.186 480.588 657.541 482.495C659.895 484.407 657.92 491.325 657.92 491.325C657.92 491.325 659.22 499.717 663.443 503.005C667.665 506.292 673.421 507.362 678.151 506.532C682.884 505.698 685.875 492.493 685.875 492.493L682.161 496.666C682.161 496.666 680.262 501.754 678.363 502.588C676.464 503.422 674.464 501.257 674.464 501.257C674.464 501.257 671.518 502.504 669.887 502.198C668.639 501.966 664.698 500.551 662.264 495.273C661.495 491.301 660.24 491.106 660.08 488.861Z" fill="#111214"/>
<path d="M974.11 163.219C974.11 163.219 984.826 155.665 984.464 147.186C984.102 138.707 978.868 128.494 968.852 128.508C958.835 128.518 952.867 134.655 952.867 134.655L974.11 163.219Z" fill="#111214"/>
<path d="M944.93 192.624L936.524 219.871L925.276 224.816C925.276 224.816 922.07 223.312 916.613 222.506C909.737 221.491 902.249 227.923 903.237 230.241C904.221 232.559 923.186 232.058 923.186 232.058C923.186 232.058 937.605 231.384 942.29 229.879C946.975 228.375 954.762 198.368 954.762 198.368L944.93 192.624Z" fill="#FFBFA3"/>
<path d="M935.613 293.728C935.613 293.728 939.589 306.885 938.889 310.096C938.19 313.306 937.404 317.004 937.404 317.004C937.404 317.004 944.419 318.564 949.341 313.348C954.262 308.132 950.982 306.012 950.982 306.012L942.813 289.777L935.613 293.728Z" fill="#FFD1BD"/>
<path d="M950.998 305.613C950.998 305.613 953.05 306.044 955.126 308.904C957.202 311.763 958.082 313.55 956.25 315.183C954.417 316.816 951.488 317.191 950.128 318.727C948.769 320.263 945.583 323.69 941.169 326.362C936.756 329.034 929.216 331.522 928.266 329.385C927.317 327.251 937.403 317 937.403 317C937.403 317 945.186 316.754 948.115 312.987C951.047 309.22 950.998 305.613 950.998 305.613Z" fill="#111214"/>
<path d="M905.238 293.774C905.238 293.774 905.641 307.51 904.125 310.426C902.612 313.341 900.887 316.705 900.887 316.705C900.887 316.705 907.251 320.041 913.366 316.288C919.48 312.535 916.864 309.633 916.864 309.633L913.216 291.828L905.238 293.774Z" fill="#FFD1BD"/>
<path d="M916.982 309.255C916.982 309.255 918.85 310.207 920.109 313.508C921.368 316.809 921.75 318.766 919.552 319.864C917.358 320.965 914.433 320.562 912.718 321.688C911.004 322.814 907.032 325.295 902.076 326.72C897.12 328.148 889.19 328.582 888.832 326.275C888.474 323.968 900.886 316.701 900.886 316.701C900.886 316.701 908.465 318.491 912.276 315.621C916.088 312.75 916.982 309.255 916.982 309.255Z" fill="#111214"/>
<path d="M908.213 241.103C900.892 246.031 903.748 298.85 903.748 298.85H915.579C915.579 298.85 921.485 260.668 920.188 255.448C920.188 255.448 959.982 251.782 963.38 250.253C966.778 248.721 969.007 241.972 966.903 235.436C964.799 228.899 943.837 233.99 943.837 233.99C943.837 233.99 915.534 236.176 908.213 241.103Z" fill="url(#paint4_linear_376_9)"/>
<path d="M926.551 242.671C919.546 248.071 932.592 290.931 935.618 299.935L948.309 297.669C948.309 297.669 945.422 258.909 943.812 253.787C943.812 253.787 979.777 255.274 983.077 253.523C986.375 251.772 989.059 240.62 986.559 234.233C984.058 227.85 955.842 234.897 955.842 234.897C955.842 234.897 933.555 237.271 926.551 242.671Z" fill="url(#paint5_linear_376_9)"/>
<path d="M961.555 177.619C961.555 177.619 954.011 182.821 951.333 187.464C948.655 192.106 948.589 198.264 948.836 200.356C949.083 202.448 950.561 206.413 950.561 206.413C950.561 206.413 952.655 211.09 951.545 217.609C950.436 224.132 947.98 228.938 947.98 232.381C947.98 235.825 958.195 238.501 967.186 237.761C976.176 237.024 986.554 236.079 986.554 233.33C986.554 230.581 982.332 223.882 982.21 218.593C982.088 213.3 984.425 199.15 984.425 199.15L982.332 180.076L976.419 175.771L961.555 177.619Z" fill="url(#paint6_linear_376_9)"/>
<path d="M959.92 175.774C959.92 175.774 955.486 176.511 952.161 178.849C948.836 181.188 942.746 194.654 942.746 194.654L949.452 199.154C949.452 199.154 948.342 193.125 951.298 189.188C954.254 185.25 959.478 180.615 959.478 180.615L959.92 175.774Z" fill="url(#paint7_linear_376_9)"/>
<path d="M976.069 199.195L969.311 217.477L942.315 226.731C942.315 226.731 939.109 225.226 933.652 224.42C926.776 223.405 919.288 229.838 920.276 232.155C921.26 234.473 940.225 233.973 940.225 233.973C940.225 233.973 967.596 230.161 972.281 228.656C976.966 227.151 985.549 204.734 985.549 204.734L976.069 199.195Z" fill="#FFD1BD"/>
<path d="M979.789 174.954C979.789 174.954 984.304 174.912 988.985 178.606C993.666 182.297 992.188 190.543 990.463 194.48C988.738 198.417 985.977 205.555 985.977 205.555L974.02 200.019C974.02 200.019 980.732 189.438 980.795 187.037C980.857 184.635 976.791 177.539 976.791 177.539L979.789 174.954Z" fill="url(#paint8_linear_376_9)"/>
<path d="M974.368 158.709C974.368 158.709 973.356 169.578 975.161 171.424C976.966 173.269 978.351 174.457 979.787 174.951C981.223 175.444 974.041 181.515 964.515 181.678C954.993 181.841 959.918 175.771 959.918 175.771C959.918 175.771 964.265 174.03 964.515 171.67C964.766 169.311 964.515 164.453 964.515 164.453L974.368 158.709Z" fill="#FFBFA3"/>
<path d="M951.385 138.203C951.385 138.203 948.759 151.985 950.728 158.219C952.7 164.453 956.64 170.197 961.402 170.197C966.163 170.197 971.578 164.689 973.877 161.572C976.176 158.455 974.705 138.206 974.705 138.206H951.385V138.203Z" fill="#FFD1BD"/>
<path d="M973.395 152.62C973.395 152.62 976.219 147.304 978.813 148.624C981.408 149.948 979.544 154.469 977.892 156.412C976.24 158.358 973.544 158.069 973.544 158.069L973.395 152.62Z" fill="#FFD1BD"/>
<path d="M966.182 237.886H899.086L898.418 234.015H965.935L966.182 237.886Z" fill="#9DA1CC"/>
<path d="M935.853 234.164H898.42L892.713 205.311C892.143 202.465 894.299 199.8 897.207 199.762L926.035 199.369C928.33 199.338 930.302 200.985 930.681 203.244L935.853 234.164Z" fill="#CACCE8"/>
<path d="M909.533 219.454C909.835 221.091 911.272 222.196 912.743 221.925C914.214 221.654 915.16 220.108 914.858 218.471C914.555 216.834 913.119 215.729 911.648 216C910.176 216.275 909.23 217.821 909.533 219.454Z" fill="white"/>
<path d="M956.734 139.85C956.734 139.85 962.414 147.381 967.06 149.542C971.707 151.7 974.663 151.321 974.663 151.321L978.916 142.37L974.023 132.365C974.023 132.365 962.407 127.302 957.68 129.231C952.954 131.16 949.625 134.534 947.98 138.996C946.335 143.457 949.99 151.881 949.99 151.881C950.971 151.895 956.842 144.708 956.734 139.85Z" fill="#111214"/>
<path d="M979.969 137.306C979.969 137.306 983.495 130.617 991.397 130.374C999.299 130.134 1004.37 138.429 1003.28 146.004C1002.2 153.58 995.8 160.39 994.534 165.877C993.268 171.361 996.343 173.773 996.343 173.773C996.343 173.773 986.225 172.188 986.549 163.911C986.872 155.63 987.293 149.597 986.267 148.364C985.241 147.13 981.019 145.563 981.019 145.563L979.969 137.306Z" fill="#111214"/>
<path d="M355.584 563.056C355.584 563.056 351.845 571.024 352.068 574.262C352.294 577.501 352.531 581.23 352.531 581.23C352.531 581.23 345.446 581.754 341.38 575.944C337.315 570.134 340.827 568.536 340.827 568.536L349.112 558.156L355.584 563.056Z" fill="#FFD1BD"/>
<path d="M340.869 568.143C340.869 568.143 337.231 568.424 334.789 570.923C332.348 573.421 331.37 575.013 332.928 576.872C334.487 578.735 338.942 580.764 340.051 582.46C341.161 584.155 343.571 586.595 347.504 589.841C351.438 593.086 362.338 592.461 363.572 590.508C364.15 589.594 359.458 587.283 356.721 584.677C353.608 581.713 352.353 578.484 352.353 578.484C352.353 578.484 346.76 577.279 344.093 574.151C341.422 571.024 340.869 568.143 340.869 568.143Z" fill="#111214"/>
<path d="M381.572 568.185C381.572 568.185 383.12 576.893 385.381 579.228C387.641 581.56 390.225 584.26 390.225 584.26C390.225 584.26 385.144 589.219 378.289 587.394C371.434 585.57 373.09 582.084 373.09 582.084L373.462 568.605L381.572 568.185Z" fill="#FFD1BD"/>
<path d="M372.871 581.758C372.871 581.758 370.273 584.315 370.015 587.797C369.758 591.279 370.036 593.124 372.429 593.545C374.822 593.965 379.538 592.652 381.482 593.236C383.426 593.819 386.842 594.132 391.94 594.084C397.039 594.031 404.673 592.204 404.356 589.917C404.04 587.63 388.323 582.279 388.323 582.279C388.323 582.279 383.27 584.958 379.211 584.281C375.149 583.603 372.871 581.758 372.871 581.758Z" fill="#111214"/>
<path d="M380.91 462.042C380.91 462.042 392.377 483.302 394.651 508.023C396.495 528.052 354.669 567.191 354.669 567.191L345.164 561.346L367.534 512.179L364.63 485.779L365.889 460.558L380.91 462.042Z" fill="url(#paint9_linear_376_9)"/>
<path d="M348.434 460.746C348.434 460.746 346.132 468.964 346.546 482.082C346.96 495.196 372.293 576.24 372.293 576.24L384.452 576.059C384.452 576.059 382.466 534.238 381.075 514.465C380.417 505.131 377.774 487.371 378.372 482.27C378.974 477.168 380.911 462.042 380.911 462.042L348.434 460.746Z" fill="url(#paint10_linear_376_9)"/>
<path d="M364.233 394.766C355.611 396.368 371.738 428.088 377.731 435.034C383.727 441.981 407.498 430.034 407.498 430.034L405.137 421.955L388.154 422.319C388.154 422.319 382.45 411.557 379.337 404.281C376.228 397.008 370.18 393.661 364.233 394.766Z" fill="url(#paint11_linear_376_9)"/>
<path d="M364.099 392.4C376.925 396.129 379.405 401.928 381.923 411.908C384.441 421.889 385.224 454.032 383.596 462.15C381.968 470.271 351.258 468.154 348.34 466.577C345.422 464.999 347.134 454.254 346.455 441.418C345.781 428.578 342.821 419.578 345.402 408.02C347.986 396.459 353.87 389.425 364.099 392.4Z" fill="url(#paint12_linear_376_9)"/>
<path d="M413.516 425.749C414.915 426.218 416.441 425.457 416.911 424.06L427.244 393.237C427.713 391.841 426.952 390.315 425.554 389.846C424.155 389.377 422.629 390.138 422.159 391.535L411.826 422.358C411.357 423.758 412.118 425.284 413.516 425.749Z" fill="#9DA1CC"/>
<path d="M420.457 413.576C418.773 412.451 413.4 414.334 408.412 418.167C403.425 421.996 403.557 425.162 403.557 425.162L397.457 427.487L400.511 435.486L408.332 432.505C408.332 432.505 412.6 432.421 417.093 429.169C421.587 425.916 418.519 418.82 418.519 418.82C418.519 418.82 422.14 414.706 420.457 413.576Z" fill="#FFD1BD"/>
<path d="M349.775 400.424C341.153 402.026 354.039 440.41 360.034 447.36C366.03 454.306 402.597 435.368 402.597 435.368L398.017 426.833L367.815 434.767C367.815 434.767 366.375 418.834 363.262 411.557C360.153 404.274 355.722 399.319 349.775 400.424Z" fill="url(#paint13_linear_376_9)"/>
<path d="M370.495 383.414L367.886 392.539L371.757 395.746C371.757 395.746 373.987 399.868 364.593 399.263C355.199 398.658 354.402 392.97 354.402 392.97L357.157 391.152L358.812 380.099L370.495 383.414Z" fill="#FFBFA3"/>
<path d="M356.363 370.254C354.791 381.965 363.003 390.468 370.279 392.334C377.554 394.2 383.543 383.15 384.841 372.634C385.407 368.037 385.891 363.155 384.308 360.097C382.27 356.16 378.643 353.672 373.916 353.091C365.521 352.052 357.772 359.753 356.363 370.254Z" fill="#FFD1BD"/>
<path d="M358.826 368.548C358.826 368.548 356.753 362.668 353.894 363.624C351.035 364.579 352.246 369.497 353.637 371.741C355.028 373.986 357.835 374.108 357.835 374.108L358.826 368.548Z" fill="#FFD1BD"/>
<path d="M358.377 369.184C358.923 369.18 359.462 369.219 359.994 369.295C360.429 367.147 361.062 364.552 361.803 363.082C363.225 360.26 366.707 356.41 366.707 356.41C366.707 356.41 374.445 358.96 378.16 359.176C381.874 359.391 386.298 358.714 388.04 356.789C389.783 354.863 392.795 348.324 392.795 348.324L384.924 347.708L386.854 344.446L378.386 345.092L378.139 342.788L374.344 343.636L373.544 341.13C373.544 341.13 358.329 346.28 356.197 353.331C354.068 360.382 353.828 363.638 353.828 363.638C353.828 363.638 355.487 364.069 357.595 366.244C358.242 366.908 358.429 367.995 358.377 369.184Z" fill="#111214"/>
<path d="M233.905 534.269C233.766 534.269 233.623 534.234 233.495 534.168C232.726 533.758 214.641 524.07 211.146 518.208C208.749 514.187 207.428 510.743 207.104 507.675C206.624 503.126 208.391 499.624 212.352 497.264C216.349 494.887 220.317 494.877 224.15 497.24C226.911 498.943 229.523 501.837 231.912 505.84C235.7 512.189 234.813 532.573 234.775 533.438C234.761 533.737 234.594 534.005 234.336 534.154C234.204 534.231 234.055 534.269 233.905 534.269ZM218.331 497.208C216.662 497.208 214.975 497.723 213.246 498.755C209.873 500.763 208.429 503.623 208.836 507.491C209.132 510.302 210.377 513.517 212.641 517.315C215.396 521.929 228.907 529.651 233.084 531.958C233.217 527.208 233.401 511.727 230.42 506.726C228.208 503.019 225.725 500.249 223.238 498.717C221.607 497.712 219.98 497.208 218.331 497.208Z" fill="#00062C"/>
<path d="M236.611 547.637C236.611 547.637 224.97 533.849 218.898 531.628C212.822 529.408 204.485 527.945 201.922 534.947C199.355 541.949 207.306 545.917 212.912 547.967C218.519 550.018 236.611 547.637 236.611 547.637Z" fill="#00062C"/>
<path d="M238.281 550.567C238.281 550.567 254.627 542.908 258.349 537.622C262.07 532.337 265.646 524.671 259.542 520.38C253.438 516.088 247.543 522.729 244.107 527.607C240.671 532.49 238.281 550.567 238.281 550.567Z" fill="#00062C"/>
<path d="M241.042 575.889C240.562 575.736 240.2 575.305 240.165 574.773C237.696 537.202 227.346 520.095 217.841 507.011C217.434 506.448 217.559 505.663 218.119 505.256C218.682 504.85 219.468 504.975 219.875 505.535C229.589 518.903 240.162 536.371 242.673 574.61C242.718 575.301 242.193 575.899 241.501 575.944C241.344 575.951 241.188 575.934 241.042 575.889Z" fill="#696E7C"/>
<path d="M237.906 551.765C237.826 551.741 237.749 551.706 237.676 551.665C237.067 551.328 236.848 550.563 237.186 549.958C244.444 536.854 251.699 529.109 252.005 528.785C252.482 528.282 253.278 528.254 253.782 528.733C254.287 529.209 254.311 530.005 253.835 530.509C253.761 530.585 246.482 538.369 239.387 551.175C239.088 551.706 238.462 551.943 237.906 551.765Z" fill="#696E7C"/>
<defs>
<linearGradient id="paint0_linear_376_9" x1="650.862" y1="527.078" x2="642.216" y2="557.983" gradientUnits="userSpaceOnUse">
<stop stop-color="#A0A7BF"/>
<stop offset="1" stop-color="#717687"/>
</linearGradient>
<linearGradient id="paint1_linear_376_9" x1="691.837" y1="525.523" x2="699.494" y2="562.112" gradientUnits="userSpaceOnUse">
<stop stop-color="#A0A7BF"/>
<stop offset="1" stop-color="#717687"/>
</linearGradient>
<linearGradient id="paint2_linear_376_9" x1="713.31" y1="567.911" x2="655.591" y2="589.698" gradientUnits="userSpaceOnUse">
<stop stop-color="#111214"/>
<stop offset="1" stop-color="#454852"/>
</linearGradient>
<linearGradient id="paint3_linear_376_9" x1="623.397" y1="570.212" x2="681.451" y2="586.553" gradientUnits="userSpaceOnUse">
<stop stop-color="#111214"/>
<stop offset="1" stop-color="#454852"/>
</linearGradient>
<linearGradient id="paint4_linear_376_9" x1="936.151" y1="245.668" x2="893.854" y2="316.585" gradientUnits="userSpaceOnUse">
<stop stop-color="#111214"/>
<stop offset="1" stop-color="#454852"/>
</linearGradient>
<linearGradient id="paint5_linear_376_9" x1="972.069" y1="225.672" x2="914.939" y2="300.583" gradientUnits="userSpaceOnUse">
<stop stop-color="#111214"/>
<stop offset="1" stop-color="#454852"/>
</linearGradient>
<linearGradient id="paint6_linear_376_9" x1="964.971" y1="241.565" x2="970.757" y2="184.62" gradientUnits="userSpaceOnUse">
<stop stop-color="#717687"/>
<stop offset="1" stop-color="#A0A7BF"/>
</linearGradient>
<linearGradient id="paint7_linear_376_9" x1="945.686" y1="240.941" x2="951.588" y2="182.86" gradientUnits="userSpaceOnUse">
<stop stop-color="#717687"/>
<stop offset="1" stop-color="#A0A7BF"/>
</linearGradient>
<linearGradient id="paint8_linear_376_9" x1="977.961" y1="243.915" x2="983.836" y2="186.089" gradientUnits="userSpaceOnUse">
<stop stop-color="#717687"/>
<stop offset="1" stop-color="#A0A7BF"/>
</linearGradient>
<linearGradient id="paint9_linear_376_9" x1="369.302" y1="511.082" x2="321.551" y2="525.874" gradientUnits="userSpaceOnUse">
<stop stop-color="#111214"/>
<stop offset="1" stop-color="#454852"/>
</linearGradient>
<linearGradient id="paint10_linear_376_9" x1="363.821" y1="473.373" x2="370.632" y2="565.401" gradientUnits="userSpaceOnUse">
<stop stop-color="#111214"/>
<stop offset="1" stop-color="#454852"/>
</linearGradient>
<linearGradient id="paint11_linear_376_9" x1="359.478" y1="399.671" x2="398.9" y2="435.323" gradientUnits="userSpaceOnUse">
<stop stop-color="#A0A7BF"/>
<stop offset="1" stop-color="#717687"/>
</linearGradient>
<linearGradient id="paint12_linear_376_9" x1="365.847" y1="397.176" x2="362.665" y2="478.061" gradientUnits="userSpaceOnUse">
<stop stop-color="#A0A7BF"/>
<stop offset="1" stop-color="#717687"/>
</linearGradient>
<linearGradient id="paint13_linear_376_9" x1="355.683" y1="423.637" x2="438.904" y2="458.986" gradientUnits="userSpaceOnUse">
<stop stop-color="#A0A7BF"/>
<stop offset="1" stop-color="#717687"/>
</linearGradient>
</defs>
</svg>
