<svg width="40" height="40" viewBox="0 0 40 40" fill="none" xmlns="http://www.w3.org/2000/svg">
<path fill-rule="evenodd" clip-rule="evenodd" d="M18.4583 0.0178166C17.1398 0.165624 15.4808 0.604818 14.2089 1.1429C6.73917 4.30276 2.91308 12.9116 5.46 20.8285C5.77383 21.8041 6.56367 23.5597 6.98125 24.2097L7.23067 24.598L3.61533 28.3537C0.3275 31.7692 0 32.135 0 32.3915C0 32.5759 0.0708333 32.7469 0.204583 32.8853L0.409083 33.0971H3.53792H6.66667V36.3367V39.5764L6.87125 39.7882C7.00508 39.9268 7.17 40 7.3485 40C7.59742 40 7.99292 39.6154 11.8809 35.5924L16.1406 31.185L16.5078 31.2878C18.3277 31.7975 21.0317 31.8319 23.1335 31.372L23.875 31.2098L28.1269 35.605C32.0068 39.6154 32.4027 40 32.6515 40C32.83 40 32.9949 39.9268 33.1288 39.7882L33.3333 39.5764V36.3367V33.0971H36.4621H39.5909L39.7954 32.8853C39.9292 32.7469 40 32.5759 40 32.3915C40 32.135 39.6725 31.7692 36.3847 28.3537L32.7693 24.598L33.0188 24.2097C33.3853 23.6391 34.2009 21.8614 34.4867 21.0103C35.5705 17.7827 35.5898 14.1033 34.5403 10.8509C32.7727 5.37365 28.4909 1.44593 23 0.264766C22.143 0.0804602 21.6777 0.0353326 20.375 0.0105687C19.5042 -0.00599818 18.6417 -0.00271936 18.4583 0.0178166ZM21.7782 1.47346C27.4946 2.24934 32.112 6.4675 33.5481 12.2256C35.3757 19.5536 31.4372 27.0931 24.4918 29.5624C20.8422 30.8598 16.6891 30.4839 13.3134 28.5506C10.3943 26.8787 8.2775 24.415 7.01525 21.22C5.777 18.0859 5.68233 14.4164 6.75558 11.1585C7.81358 7.94712 9.92158 5.23758 12.7502 3.45328C15.4482 1.75138 18.6511 1.04902 21.7782 1.47346ZM18.7917 2.77542C15.4099 3.27769 13.2564 4.34591 11.0778 6.60176C9.14625 8.60169 8.02558 10.7977 7.53017 13.5534C7.31575 14.7461 7.316 16.9372 7.53083 18.1266C8.02783 20.8789 9.15425 23.0866 11.0778 25.0783C13.0013 27.07 15.1335 28.2363 17.7917 28.7509C18.9136 28.9681 21.1395 28.9694 22.2083 28.7534C24.8182 28.2262 26.9212 27.1056 28.7803 25.2515C30.7093 23.3278 31.9387 20.9548 32.4716 18.1266C32.6802 17.0199 32.6789 14.7151 32.4692 13.5534C31.9722 10.8011 30.8458 8.5934 28.9222 6.60176C27.0411 4.65394 24.9961 3.51213 22.4252 2.97414C21.6551 2.81295 19.3775 2.68836 18.7917 2.77542ZM22.2917 4.3497C25.6945 5.10962 28.5876 7.4156 30.1383 10.604C30.5899 11.5325 31.0589 13.0999 31.2144 14.2006C31.3769 15.3504 31.3412 16.9113 31.1259 18.0646C30.253 22.7424 26.6746 26.4282 22.0833 27.3784C21.0697 27.5882 18.882 27.5819 17.875 27.3662C14.3467 26.6107 11.4367 24.322 9.8505 21.0546C9.49617 20.3246 9.052 18.9612 8.86867 18.0403C8.6575 16.9799 8.65175 14.7242 8.85742 13.6672C9.81733 8.73543 13.5119 5.04352 18.2955 4.23606C19.2988 4.06668 21.2763 4.12294 22.2917 4.3497ZM19.6081 9.06694C19.476 9.1628 19.237 9.79502 18.6949 11.4829L17.9607 13.7692H15.5182H13.0758L12.8713 13.981C12.6716 14.1877 12.6145 14.4771 12.7182 14.7569C12.7465 14.8333 13.6465 15.5189 14.7182 16.2802C15.7898 17.0416 16.6667 17.6918 16.6667 17.7251C16.6667 17.7583 16.3667 18.7156 16 19.8523C15.6333 20.989 15.3333 22.0092 15.3333 22.1192C15.3333 22.3964 15.6902 22.743 15.9754 22.7426C16.1391 22.7424 16.7535 22.3545 18.0417 21.4381C19.05 20.7208 19.9125 20.1188 19.9583 20.1005C20.0042 20.0822 20.8854 20.6692 21.9167 21.4049C23.2393 22.3485 23.8603 22.7427 24.0246 22.7428C24.3098 22.7429 24.6667 22.3963 24.6667 22.1192C24.6667 22.0092 24.3667 20.989 24 19.8523C23.6333 18.7156 23.3333 17.7588 23.3333 17.7263C23.3333 17.6937 24.1677 17.0779 25.1875 16.3576C26.2073 15.6375 27.1073 14.9697 27.1875 14.8737C27.3973 14.6226 27.3717 14.2324 27.1288 13.981L26.9243 13.7692H24.4818H22.0393L21.3051 11.4829C20.5368 9.0905 20.4581 8.93717 20 8.93717C19.8829 8.93717 19.7066 8.99558 19.6081 9.06694ZM20.4883 13.3593C20.8033 14.3571 20.9903 14.8174 21.1368 14.9556C21.3352 15.1427 21.4003 15.1497 22.9341 15.1497H24.5256L23.2859 16.0342C22.6042 16.5206 21.9895 17.0241 21.9201 17.1531C21.8007 17.3748 21.8181 17.4637 22.2382 18.7771C22.4826 19.5413 22.6687 20.1811 22.6517 20.1987C22.6346 20.2163 22.0795 19.8446 21.4181 19.3728C20.6658 18.8362 20.1358 18.5149 20.0029 18.5149C19.8698 18.5149 19.3408 18.8362 18.5871 19.3751C17.9253 19.8482 17.3688 20.2198 17.3506 20.2009C17.3323 20.1821 17.5174 19.5413 17.7618 18.7771C18.1816 17.4647 18.1993 17.3746 18.0803 17.1531C18.0111 17.0241 17.4118 16.5303 16.7488 16.0557L15.5432 15.1929L17.1542 15.1497C18.7075 15.1081 18.7707 15.0995 18.9193 14.9093C19.0041 14.8007 19.2717 14.092 19.5139 13.3345C19.7562 12.577 19.9749 11.9572 20 11.9572C20.0251 11.9572 20.2448 12.5882 20.4883 13.3593ZM9.37058 27.2566C10.7366 28.6145 12.2243 29.6322 14.0579 30.4629L14.6575 30.7346L11.3288 34.1805L8 37.6264V34.8833V32.1402L7.79542 31.9284L7.59092 31.7166H4.94175H2.29258L5.16375 28.7427L8.03492 25.7689L8.45058 26.262C8.67917 26.5332 9.09317 26.9808 9.37058 27.2566ZM34.9931 31.7166L32.3184 31.7597L32.1593 31.9634C32.01 32.1543 32 32.3384 32 34.8967V37.6264L28.6731 34.1824L25.3461 30.7384L25.9525 30.4653C27.8757 29.5997 29.2465 28.6217 30.7917 27.0129L31.9583 25.7982L34.8131 28.7358L37.6678 31.6734L34.9931 31.7166Z" fill="#B68C5A"/>
</svg>
