<svg width="167" height="133" viewBox="0 0 167 133" fill="none" xmlns="http://www.w3.org/2000/svg">
<path d="M82.3227 132.14C126.522 132.14 162.352 130.048 162.352 127.468C162.352 124.887 126.522 122.795 82.3227 122.795C38.1236 122.795 2.29321 124.887 2.29321 127.468C2.29321 130.048 38.1236 132.14 82.3227 132.14Z" fill="#F5F5F5"/>
<path d="M7.07275 87.0464C7.07275 87.0464 7.10208 87.0422 7.10627 87.0422C7.08532 87.0464 7.07275 87.0548 7.07275 87.0548V87.0464Z" fill="#00062C"/>
<path d="M14.2177 2.36511C14.2177 2.36511 14.2177 27.081 14.2177 48.3916V78.6921C14.2177 84.7597 7.79108 86.8358 7.12654 87.034C7.12242 87.0381 7.11003 87.0381 7.10591 87.0381C10.2016 83.1417 8.69502 78.1308 8.69502 78.1308C8.6909 78.1308 8.69089 78.1308 8.69089 78.1267C3.83687 76.1165 0.992976 70.0573 0.0807832 65.9049C-0.464056 63.4243 1.83913 56.6055 4.22074 50.3522C5.83049 46.105 7.48565 42.1177 8.29878 39.9384C10.0571 35.2123 6.17308 29.7144 6.51154 23.1433C6.56107 22.2022 6.69728 21.2364 6.95319 20.2457C8.95919 12.3745 14.2177 2.36511 14.2177 2.36511Z" fill="#00062C"/>
<path opacity="0.2" d="M7.07275 87.0464C7.07275 87.0464 7.10208 87.0422 7.10627 87.0422C7.08532 87.0464 7.07275 87.0548 7.07275 87.0548V87.0464Z" fill="#00062C"/>
<path opacity="0.2" d="M7.1266 87.0959C7.12247 87.1 7.11008 87.0711 7.10596 87.0711C10.2016 83.1747 8.69507 78.2092 8.69507 78.2092C8.69095 78.2092 8.69095 78.2505 8.69095 78.2505H8.70746C12.1994 78.6633 15.2125 81.1935 7.1266 87.0959Z" fill="#00062C"/>
<path opacity="0.2" d="M14.2177 48.3916V66.425C11.8649 63.3376 7.84056 57.6085 4.21655 50.3481C5.82631 46.1008 7.48146 42.1136 8.29459 39.9342C10.0529 35.2082 6.16889 29.7103 6.50735 23.1392C7.33287 28.4761 8.60003 34.8615 10.1891 37.3174C11.6132 39.5174 13.0248 43.9091 14.2177 48.3916Z" fill="#00062C"/>
<path d="M15.4971 1.20117H13.6521V124.892H15.4971V1.20117Z" fill="#B68C5A"/>
<path opacity="0.2" d="M15.4971 1.20117H13.6521V124.892H15.4971V1.20117Z" fill="white"/>
<path d="M11.9969 123.464H17.1522C18.3038 124.958 19.959 125.982 21.804 126.353L23.6738 126.729V127.571H5.47119V126.729L7.34098 126.353C9.19426 125.982 10.8453 124.954 11.9969 123.464Z" fill="#B68C5A"/>
<path opacity="0.1" d="M11.9969 123.464H17.1522C18.3038 124.958 19.959 125.982 21.804 126.353L23.6738 126.729H5.47119L7.34098 126.353C9.19426 125.982 10.8453 124.954 11.9969 123.464Z" fill="white"/>
<path d="M15.7738 1.20112C15.7738 1.86566 15.2372 2.40225 14.5727 2.40225C13.9082 2.40225 13.3716 1.86566 13.3716 1.20112C13.3716 0.540713 13.9082 0 14.5727 0C15.2372 0.00412757 15.7738 0.540713 15.7738 1.20112Z" fill="#B68C5A"/>
<path opacity="0.3" d="M15.7738 1.20112C15.7738 1.86566 15.2372 2.40225 14.5727 2.40225C13.9082 2.40225 13.3716 1.86566 13.3716 1.20112C13.3716 0.540713 13.9082 0 14.5727 0C15.2372 0.00412757 15.7738 0.540713 15.7738 1.20112Z" fill="white"/>
<path d="M48.2704 21.6201C51.7417 22.8378 59.1713 34.2918 58.2426 39.348C57.3139 44.4043 47.5852 45.9521 47.5852 45.9521L48.2704 21.6201Z" fill="#B68C5A"/>
<path opacity="0.3" d="M48.2704 21.6201C51.7417 22.8378 59.1713 34.2918 58.2426 39.348C57.3139 44.4043 47.5852 45.9521 47.5852 45.9521L48.2704 21.6201Z" fill="#00062C"/>
<path d="M46.2766 124.492L49.6282 124.842L49.8016 122.828L49.7396 122.791L50.1276 117.644V117.623L46.8462 117.268L46.8669 117.31L46.4128 122.791V122.828L46.2766 124.492Z" fill="#E0E0E0"/>
<path d="M29.5725 124.067H32.8168L32.854 123.076L32.8581 122.985L33.0067 118.808L33.0108 118.717L33.0851 116.637H29.9027V116.736L29.8408 116.819L29.49 122.775V122.87L29.5725 124.067Z" fill="#E0E0E0"/>
<path d="M33.2667 123.872H29.3249C29.1928 123.872 29.0772 123.967 29.0483 124.095L28.4086 126.985C28.3549 127.245 28.52 127.496 28.7759 127.55C28.8089 127.558 28.8461 127.563 28.8832 127.563C30.1586 127.542 31.0874 127.463 32.6888 127.463C33.6753 127.463 36.6513 127.567 38.0134 127.567C39.3755 127.567 39.553 126.221 38.9958 126.097C36.4945 125.552 34.6123 124.797 33.8115 124.079C33.663 123.943 33.469 123.868 33.2667 123.872Z" fill="#B68C5A"/>
<path d="M49.9833 123.769H46.0414C45.9093 123.769 45.7938 123.864 45.7649 123.992L45.1251 126.882C45.0715 127.142 45.2366 127.393 45.4925 127.447C45.5255 127.455 45.5626 127.459 45.5998 127.459C46.8752 127.439 47.8039 127.36 49.4054 127.36C50.3919 127.36 53.3679 127.464 54.73 127.464C56.0921 127.464 56.2695 126.118 55.7123 125.994C53.211 125.449 51.3288 124.694 50.5281 123.976C50.3795 123.839 50.1855 123.765 49.9833 123.769Z" fill="#B68C5A"/>
<path opacity="0.2" d="M46.4253 122.828H49.8058L50.2557 117.644L46.9082 117.297L46.9041 117.31L46.4294 122.791L46.4253 122.828Z" fill="#00062C"/>
<path opacity="0.2" d="M29.6797 122.952L32.8538 123.241H32.8579L33.0106 118.895L33.0065 118.849L29.9645 116.839L29.6879 122.824L29.6797 122.952Z" fill="#00062C"/>
<path d="M28.8667 122.209L33.8446 122.791C33.8446 122.791 37.5222 98.1743 39.0701 87.5623C39.0948 87.3931 39.1155 87.228 39.1402 87.067C39.7511 82.8775 40.4528 74.998 41.0472 67.5931C41.3856 68.5012 41.6952 69.5042 41.9841 70.598C42.046 70.825 42.1079 71.0562 42.1657 71.2914C42.2359 71.568 42.3019 71.8486 42.368 72.1334C42.4299 72.4059 42.4918 72.6783 42.5537 72.959C42.661 73.4625 42.7684 73.9826 42.8715 74.5109C46.2149 91.6527 46.2809 121.933 46.2809 121.933L50.9863 122.217C54.4122 95.9536 50.6314 64.4108 48.774 52.9856C48.774 52.998 48.7698 53.0311 48.7657 53.0393C48.7327 52.8247 48.6955 52.6059 48.6625 52.3995C48.6625 52.383 48.6584 52.3706 48.6543 52.3541C48.5635 51.7969 48.4768 51.4213 48.3984 51.0085H31.207C31.207 51.0085 31.1905 51.1571 31.1864 51.2603C31.1823 51.3759 31.1781 51.5039 31.1781 51.6483C31.1781 51.7515 31.174 51.8629 31.1699 51.9868C31.1699 52.0569 31.1658 52.1271 31.1658 52.2014C31.1616 52.2757 31.1616 52.3541 31.1616 52.4367C31.1575 52.8082 31.1534 53.2416 31.1451 53.7286C31.141 53.902 31.141 54.0836 31.1369 54.2735C31.1369 54.3808 31.1369 54.4881 31.1327 54.5954C31.1327 54.7481 31.1286 54.9008 31.1245 55.0618C31.0708 59.437 30.9594 66.6314 30.7901 73.6276C30.7819 73.9042 30.7778 74.1807 30.7695 74.4573C30.7654 74.676 30.7571 74.8948 30.753 75.1136C30.6911 77.5777 30.6209 79.9923 30.5384 82.2254C30.4558 84.4501 30.3691 86.4891 30.2742 88.2103C30.2659 88.3672 30.2577 88.5323 30.2494 88.6974C30.2371 88.9327 30.2247 89.1762 30.2082 89.428C29.6509 100.135 28.8667 122.209 28.8667 122.209Z" fill="#B68C5A"/>
<path opacity="0.3" d="M28.8667 122.209L33.8446 122.791C33.8446 122.791 37.5222 98.1743 39.0701 87.5623C39.0948 87.3931 39.1155 87.228 39.1402 87.067C39.7511 82.8775 40.4528 74.998 41.0472 67.5931C41.3856 68.5012 41.6952 69.5042 41.9841 70.598C42.046 70.825 42.1079 71.0562 42.1657 71.2914C42.2359 71.568 42.3019 71.8486 42.368 72.1334C42.4299 72.4059 42.4918 72.6783 42.5537 72.959C42.661 73.4625 42.7684 73.9826 42.8715 74.5109C46.2149 91.6527 46.2809 121.933 46.2809 121.933L50.9863 122.217C54.4122 95.9536 50.6314 64.4108 48.774 52.9856C48.774 52.9691 48.7698 52.9526 48.7657 52.9361C48.7327 52.7504 48.6955 52.5729 48.6625 52.3995C48.6625 52.383 48.6584 52.3706 48.6543 52.3541C48.5593 51.8506 48.4727 51.4213 48.3984 51.0085H31.1781C31.1781 51.0085 31.1781 51.1571 31.174 51.2603C31.174 51.3676 31.1616 51.4997 31.1575 51.6483C31.1575 51.7515 31.141 51.8629 31.141 51.9868V52.2014C31.141 52.2757 31.1492 52.3541 31.1492 52.4367C31.1451 52.8082 31.1492 53.2416 31.141 53.7286C31.1369 53.902 31.141 54.0836 31.1369 54.2735C31.1369 54.3808 31.1369 54.4881 31.1327 54.5954C31.1327 54.7481 31.1286 54.9008 31.1245 55.0618C31.0708 59.437 30.9594 66.6314 30.7901 73.6276C30.7819 73.9042 30.7778 74.1807 30.7695 74.4573C30.7654 74.676 30.7571 74.8948 30.753 75.1136C30.6911 77.5777 30.6209 79.9923 30.5384 82.2254C30.4599 84.4914 30.3733 86.5676 30.2742 88.3135C30.2659 88.4374 30.2618 88.5653 30.2494 88.6974C30.2371 88.9327 30.2247 89.1762 30.2082 89.428C29.6509 100.135 28.8667 122.209 28.8667 122.209Z" fill="#00062C"/>
<path d="M26.2539 105.996C26.2539 105.996 39.2351 109.385 55.3409 105.996C55.3409 105.996 54.6144 78.6054 52.0058 51.0002C51.428 44.8707 50.7552 38.7248 49.9751 32.8719C49.455 28.9631 48.8895 25.1822 48.2704 21.6201C48.2704 21.6201 38.8017 18.6153 28.1939 22.5323C28.1939 22.5323 28.5199 30.9154 28.6809 42.7781C28.7098 44.8295 28.7346 46.9841 28.747 49.2212C28.879 67.4939 28.5117 91.0376 26.2539 105.996Z" fill="#B68C5A"/>
<path d="M43.602 6.84351C44.3573 8.42437 43.5483 11.7471 41.7694 12.4157C39.0245 13.4435 39.396 5.81162 39.396 5.81162C39.396 5.81162 42.6898 4.93245 43.602 6.84351Z" fill="#B68C5A"/>
<path d="M33.9395 21.3931C35.5203 22.8295 39.392 22.297 39.392 22.297C39.392 22.297 41.8107 21.6366 41.303 20.8813C39.879 20.646 39.1897 19.9815 38.9049 19.1312C38.7398 18.6359 38.7151 18.0787 38.7605 17.5049C38.7811 17.2036 38.8265 16.8982 38.8802 16.5969L34.0922 13.0513C34.7196 15.3916 35.4873 19.6967 33.9395 21.3931Z" fill="#E0E0E0"/>
<path opacity="0.2" d="M35.1982 15.3051C35.3881 18.1778 37.7491 18.9703 38.9048 19.1313C38.7397 18.636 38.7149 18.0788 38.7603 17.505L35.1982 15.3051Z" fill="#00062C"/>
<path d="M34.8764 15.9695C36.028 17.6247 37.906 18.0581 39.5364 17.5421C40.5848 17.2119 41.53 16.4855 42.1161 15.4412C42.1945 15.305 42.2647 15.1605 42.3308 15.0119C43.4989 12.2795 43.8703 7.49977 40.981 5.7084C38.9296 4.41647 36.2137 5.03148 34.9218 7.08701C34.5503 7.669 34.3274 8.33354 34.2614 9.02284C33.9064 12.2176 33.5473 14.0791 34.8764 15.9695Z" fill="#E0E0E0"/>
<path d="M38.9173 10.7317C38.8554 10.9834 38.9709 11.2228 39.1443 11.2517C39.3177 11.2806 39.4828 11.0908 39.5282 10.8349C39.5736 10.5789 39.4704 10.3437 39.3012 10.3148C39.1361 10.2859 38.9668 10.4675 38.9173 10.7317Z" fill="#B68C5A"/>
<path d="M41.8354 11.227C41.7735 11.4787 41.8932 11.7181 42.0624 11.747C42.2316 11.7759 42.4009 11.5861 42.4463 11.3302C42.4917 11.0742 42.3885 10.839 42.2193 10.8101C42.0542 10.7853 41.8767 10.9834 41.8354 11.227Z" fill="#B68C5A"/>
<path d="M40.8861 11.198C41.0594 12.04 41.3484 12.8532 41.7405 13.6168C41.336 13.8108 40.8696 13.819 40.4609 13.6374L40.8861 11.198Z" fill="#00062C"/>
<path d="M38.1742 9.62959C38.2278 9.6461 38.2898 9.63372 38.331 9.59657C38.6076 9.32415 38.9997 9.1962 39.3877 9.25398C39.4702 9.27462 39.5528 9.22509 39.5734 9.14254C39.5941 9.05999 39.5445 8.97744 39.462 8.9568C38.9749 8.87012 38.4755 9.02284 38.1247 9.36955C38.0627 9.42734 38.0545 9.52228 38.1123 9.58419C38.1123 9.58419 38.1123 9.58419 38.1164 9.58832C38.1329 9.60895 38.1535 9.62134 38.1742 9.62959Z" fill="#B68C5A"/>
<path d="M39.817 14.8964C39.0493 14.884 38.3352 14.4919 37.9059 13.8563C37.8853 13.8191 37.8977 13.7696 37.9348 13.7448C37.972 13.7201 38.0215 13.7324 38.0421 13.7696L38.0463 13.7737C38.4549 14.3557 39.1153 14.7107 39.8253 14.7313C39.8665 14.7313 39.9037 14.7643 39.9037 14.8097C39.9037 14.8139 39.9037 14.8139 39.9037 14.818C39.9037 14.8593 39.8707 14.8964 39.8253 14.8964C39.8211 14.8964 39.817 14.8964 39.817 14.8964Z" fill="#B68C5A"/>
<path d="M43.2595 10.4345C43.2843 10.451 43.3173 10.4593 43.3462 10.4552C43.4288 10.4345 43.4742 10.3479 43.4535 10.2694V10.2653C43.3256 9.7865 42.9747 9.39851 42.5083 9.22928C42.4258 9.20452 42.3432 9.24992 42.3184 9.33247C42.2978 9.41502 42.3432 9.49758 42.4216 9.52234C42.7849 9.66681 43.0573 9.97637 43.1563 10.3561C43.177 10.3974 43.2141 10.4263 43.2595 10.4345Z" fill="#B68C5A"/>
<path d="M35.3718 3.54144C32.7426 4.23075 32.3959 7.87539 32.7674 11.1981C33.0893 14.0956 34.6124 15.4454 34.6124 15.4454C33.9231 14.0709 34.1294 11.388 34.5794 11.3178C35.0251 11.2476 34.9921 11.7636 34.9921 11.7636C35.991 11.1444 37.4356 10.1456 36.3253 7.15307C36.1932 6.7981 36.0942 5.96846 36.573 5.65476C37.5017 5.05214 38.8019 5.62999 38.8019 5.62999C38.8019 5.62999 42.0255 9.67914 43.5733 6.32755C44.3411 4.66414 38.2611 2.7861 35.3718 3.54144Z" fill="#B68C5A"/>
<path opacity="0.2" d="M39.5364 17.5421C40.5848 17.2119 41.53 16.4854 42.1161 15.4412C41.336 15.4453 40.2009 15.4866 39.9037 15.6682C39.6065 15.8457 39.5405 16.8445 39.5364 17.5421Z" fill="#00062C"/>
<path d="M32.433 11.3839C32.66 12.1599 33.1883 12.8162 33.9024 13.2041C34.8476 13.7118 35.5534 12.9235 35.4874 11.9081C35.4214 11.0083 34.86 9.62967 33.8157 9.55125C32.7715 9.46869 32.1647 10.4263 32.433 11.3839Z" fill="#E0E0E0"/>
<path d="M33.9147 20.7657C33.9147 20.7657 40.7954 39.6576 37.7822 104.048L31.6198 103.169C31.6198 103.169 37.0517 56.3702 29.6592 21.616L33.9147 20.7657Z" fill="#00062C"/>
<path d="M40.6467 20.093C40.6467 20.093 47.5893 38.9354 50.7097 103.429L54.5277 102.81C54.5277 102.81 50.4002 31.093 44.2707 20.1921L40.6467 20.093Z" fill="#00062C"/>
<path d="M46.1323 27.4442L42.2482 21.1207C42.2482 21.1207 41.2452 20.9391 40.6467 20.093C40.0482 19.2468 39.6767 15.9736 39.9574 15.825C40.2422 15.6764 43.2512 16.0314 43.4617 16.4359C43.6722 16.8404 44.2666 20.192 44.2666 20.192L48.7409 25.4382L46.1323 27.4442Z" fill="#E0E0E0"/>
<path opacity="0.2" d="M44.9312 28.6165C44.9312 28.6165 47.4242 48.243 52.0058 51.0003C51.4279 44.8708 50.7552 38.7249 49.975 32.872L44.9312 28.6165Z" fill="#00062C"/>
<path d="M34.7692 19.3252C33.015 20.0929 31.9294 21.4922 31.9294 21.4922L33.9396 24.6457L35.1985 24.2164L35.3347 35.3237C35.3347 35.3237 41.6045 36.3886 45.7568 34.3867L42.1163 23.717L43.2018 23.8078C43.2018 23.8078 42.9666 20.1755 38.905 19.1312C38.905 19.1312 39.8626 21.0051 39.7223 21.2652L36.057 21.4922L34.7692 19.3252Z" fill="#00062C"/>
<path opacity="0.6" d="M34.7692 19.3252C33.015 20.0929 31.9294 21.4922 31.9294 21.4922L33.9396 24.6457L35.1985 24.2164L35.3347 35.3237C35.3347 35.3237 41.6045 36.3886 45.7568 34.3867L42.1163 23.717L43.2018 23.8078C43.2018 23.8078 42.9666 20.1755 38.905 19.1312C38.905 19.1312 39.8626 21.0051 39.7223 21.2652L36.057 21.4922L34.7692 19.3252Z" fill="white"/>
<path opacity="0.2" d="M35.1984 24.2165L35.4914 22.1486L33.9395 24.6457L35.1984 24.2165Z" fill="#00062C"/>
<path opacity="0.2" d="M42.1161 23.7169L40.4651 21.4922L43.2017 23.8078L42.1161 23.7169Z" fill="#00062C"/>
<path opacity="0.2" d="M28.6809 42.7781C28.7098 44.8295 28.7346 46.9841 28.7469 49.2212C36.3747 49.9312 40.6467 45.9522 40.6467 45.9522L28.6809 42.7781Z" fill="#00062C"/>
<path d="M58.2921 37.7342C58.2013 35.7777 48.2084 23.8077 48.2084 23.8077L44.9312 28.6164L51.4032 44.9739C51.4032 44.9739 58.5975 44.2186 58.2921 37.7342Z" fill="#B68C5A"/>
<path d="M51.2174 41.6761L58.3086 34.4446L57.4005 33.5571L50.3094 40.7886C50.2103 40.8918 50.2103 41.0528 50.3135 41.1519L50.8542 41.6802C50.9533 41.7792 51.1184 41.7751 51.2174 41.6761Z" fill="#00062C"/>
<path d="M59.2662 37.0037C60.0133 36.2442 60.7604 35.4806 61.5075 34.7211C60.5004 32.971 59.0557 31.5553 57.285 30.5812C56.5379 31.3406 55.7908 32.1042 55.0437 32.8637C56.0508 34.6138 57.4955 36.0296 59.2662 37.0037Z" fill="#00062C"/>
<path opacity="0.2" d="M59.2662 37.0037C60.0133 36.2442 60.7604 35.4806 61.5075 34.7211C60.5004 32.971 59.0557 31.5553 57.285 30.5812C56.5379 31.3406 55.7908 32.1042 55.0437 32.8637C56.0508 34.6138 57.4955 36.0296 59.2662 37.0037Z" fill="#00062C"/>
<path d="M55.1635 33.3838L57.8051 30.6926C57.8835 30.61 57.8835 30.4821 57.801 30.3995L57.38 29.9868C57.2974 29.9084 57.1695 29.9084 57.0869 29.9909L54.4453 32.6821C54.3669 32.7646 54.3668 32.8926 54.4494 32.9751L54.8704 33.3879C54.953 33.4663 55.085 33.4622 55.1635 33.3838Z" fill="#00062C"/>
<path d="M59.4601 37.598L62.1017 34.9068C62.1802 34.8243 62.1802 34.6963 62.0976 34.6138L61.6766 34.201C61.5941 34.1226 61.4661 34.1226 61.3836 34.2051L58.7419 36.8963C58.6635 36.9789 58.6635 37.1068 58.746 37.1894L59.167 37.6021C59.2496 37.6806 59.3817 37.6764 59.4601 37.598Z" fill="#00062C"/>
<path d="M42.6611 37.6516L50.066 37.1398C50.066 37.1398 50.6934 36.3349 51.717 36.1946C52.7407 36.0584 55.8198 37.243 55.8198 37.5608C55.8198 37.8786 54.111 40.3841 53.657 40.3841C53.2029 40.3841 49.9545 39.3604 49.9545 39.3604L43.2349 40.9L42.6611 37.6516Z" fill="#E0E0E0"/>
<path d="M28.1938 22.5323C24.3964 24.4888 20.0625 37.5939 23.2613 43.1661C26.4602 48.7383 43.4617 47.5991 43.4617 47.5991L47.098 36.983C47.098 36.983 33.6834 38.7289 30.8973 36.7147C29.1803 35.4764 29.0936 29.995 28.8666 26.2637C28.7262 23.944 28.1938 22.5323 28.1938 22.5323Z" fill="#B68C5A"/>
<path opacity="0.3" d="M28.1938 22.5323C24.3964 24.4888 20.0625 37.5939 23.2613 43.1661C26.4602 48.7383 43.4617 47.5991 43.4617 47.5991L47.098 36.983C47.098 36.983 33.6834 38.7289 30.8973 36.7147C29.1803 35.4764 29.0936 29.995 28.8666 26.2637C28.7262 23.944 28.1938 22.5323 28.1938 22.5323Z" fill="#00062C"/>
<path d="M40.2712 12.2506C40.2712 12.6922 39.9121 13.0513 39.4704 13.0513C39.0288 13.0513 38.6697 12.6922 38.6697 12.2506C38.6697 11.8089 39.0288 11.4498 39.4704 11.4498C39.9121 11.4498 40.2712 11.8089 40.2712 12.2506Z" stroke="#B68C5A" stroke-width="0.5" stroke-miterlimit="10"/>
<path d="M43.111 12.651C43.111 13.0926 42.7519 13.4517 42.3103 13.4517C41.8686 13.4517 41.5095 13.0926 41.5095 12.651C41.5095 12.2093 41.8686 11.8502 42.3103 11.8502C42.7519 11.8502 43.111 12.2093 43.111 12.651Z" stroke="#B68C5A" stroke-width="0.5" stroke-miterlimit="10"/>
<path d="M35.4915 10.4592L38.6738 12.1061" stroke="#B68C5A" stroke-width="0.5" stroke-miterlimit="10"/>
<path d="M40.2712 12.4157C40.2712 12.4157 41.1009 11.9493 41.5136 12.651" stroke="#B68C5A" stroke-width="0.5" stroke-miterlimit="10"/>
<path d="M115.735 34.9688H113.969V37.8209H115.735V34.9688Z" fill="#00062C"/>
<path opacity="0.2" d="M115.735 34.9688H113.969V37.8209H115.735V34.9688Z" fill="#00062C"/>
<path d="M113.566 123.528H116.138L116.138 58.816H113.566L113.566 123.528Z" fill="#B68C5A"/>
<path d="M121.109 111.387C121.109 109.17 119.954 107.317 118.216 106.207L118.014 102.603H111.69L111.488 106.207C109.75 107.317 108.591 109.216 108.591 111.432C108.591 113.405 109.507 115.139 110.935 116.286L110.737 119.935H118.959L118.761 116.261C120.193 115.118 121.109 113.364 121.109 111.387Z" fill="#00062C"/>
<path opacity="0.1" d="M118.212 106.318L118.014 102.603H111.69L111.488 106.318H118.212Z" fill="white"/>
<path opacity="0.2" d="M110.939 116.55L110.741 120.294H118.963L118.765 116.542L110.939 116.55Z" fill="#00062C"/>
<path d="M109.028 118.3H120.672C123.272 121.673 127.008 123.988 131.181 124.822L135.403 125.668V127.567H94.2966V125.668L98.5191 124.822C102.696 123.984 106.428 121.668 109.028 118.3Z" fill="#B68C5A"/>
<path opacity="0.1" d="M109.028 118.3H120.672C123.272 121.673 127.008 123.988 131.181 124.822L135.403 125.668H94.2966L98.5191 124.822C102.696 123.984 106.428 121.668 109.028 118.3Z" fill="white"/>
<path d="M116.796 46.4393H112.908V60.6341H116.796V46.4393Z" fill="#00062C"/>
<path opacity="0.2" d="M116.796 46.4393H112.908V60.6341H116.796V46.4393Z" fill="#00062C"/>
<path d="M115.797 35.5467C115.872 35.4022 115.913 35.2412 115.913 35.072C115.913 34.4859 115.438 34.0071 114.848 34.0071C114.262 34.0071 113.783 34.4818 113.783 35.072C113.783 35.2454 113.828 35.4022 113.899 35.5467H115.797Z" fill="#00062C"/>
<path d="M164.552 93.3656C164.408 92.9735 164.531 92.569 164.825 92.4576C165.118 92.3502 165.473 92.5814 165.617 92.9735C165.762 93.3656 165.638 93.7701 165.345 93.8816C165.052 93.9889 164.697 93.7577 164.552 93.3656Z" stroke="#B68C5A" stroke-miterlimit="10"/>
<path d="M164.919 92.7175L164.354 91.1697" stroke="#B68C5A" stroke-miterlimit="10" stroke-linecap="round" stroke-linejoin="round"/>
<path d="M163.702 91.0376C163.557 90.6455 163.681 90.241 163.974 90.1295C164.267 90.0222 164.622 90.2534 164.767 90.6455C164.911 91.0376 164.787 91.4421 164.494 91.5536C164.201 91.665 163.846 91.4339 163.702 91.0376Z" stroke="#B68C5A" stroke-miterlimit="10"/>
<path d="M164.069 90.3938L163.504 88.8418" stroke="#B68C5A" stroke-miterlimit="10" stroke-linecap="round" stroke-linejoin="round"/>
<path d="M162.851 88.7139C162.707 88.3218 162.831 87.9173 163.124 87.8058C163.417 87.6985 163.772 87.9296 163.916 88.3218C164.061 88.7139 163.937 89.1184 163.644 89.2298C163.351 89.3372 162.996 89.106 162.851 88.7139Z" stroke="#B68C5A" stroke-miterlimit="10"/>
<path d="M163.219 88.0658L162.653 86.5179" stroke="#B68C5A" stroke-miterlimit="10" stroke-linecap="round" stroke-linejoin="round"/>
<path d="M162.001 86.3859C161.857 85.9938 161.981 85.5893 162.274 85.4778C162.567 85.3705 162.922 85.6016 163.066 85.9938C163.211 86.3859 163.087 86.7904 162.794 86.9018C162.501 87.0133 162.146 86.7821 162.001 86.3859Z" stroke="#B68C5A" stroke-miterlimit="10"/>
<path d="M162.369 85.742L161.803 84.1901" stroke="#B68C5A" stroke-miterlimit="10" stroke-linecap="round" stroke-linejoin="round"/>
<path d="M161.151 84.062C161.007 83.6699 161.13 83.2654 161.423 83.1581C161.716 83.0508 162.071 83.2819 162.216 83.6741C162.36 84.0662 162.237 84.4707 161.943 84.5821C161.65 84.6853 161.295 84.4542 161.151 84.062Z" stroke="#B68C5A" stroke-miterlimit="10"/>
<path d="M161.518 83.414L160.953 81.8621" stroke="#B68C5A" stroke-miterlimit="10" stroke-linecap="round" stroke-linejoin="round"/>
<path d="M160.301 81.734C160.156 81.3419 160.28 80.9374 160.573 80.8301C160.866 80.7228 161.221 80.9539 161.366 81.3461C161.51 81.7382 161.386 82.1427 161.093 82.2541C160.8 82.3573 160.445 82.1262 160.301 81.734Z" stroke="#B68C5A" stroke-miterlimit="10"/>
<path d="M160.668 81.0902L160.103 79.5382" stroke="#B68C5A" stroke-miterlimit="10" stroke-linecap="round" stroke-linejoin="round"/>
<path d="M159.45 79.4103C159.306 79.0182 159.43 78.6137 159.723 78.5064C160.016 78.3991 160.371 78.6302 160.515 79.0223C160.66 79.4144 160.536 79.819 160.243 79.9304C159.95 80.0336 159.595 79.8024 159.45 79.4103Z" stroke="#B68C5A" stroke-miterlimit="10"/>
<path d="M159.818 78.7623L159.252 77.2103" stroke="#B68C5A" stroke-miterlimit="10" stroke-linecap="round" stroke-linejoin="round"/>
<path d="M158.6 77.0823C158.456 76.6902 158.58 76.2857 158.873 76.1784C159.166 76.0711 159.521 76.3022 159.665 76.6943C159.81 77.0864 159.686 77.4909 159.393 77.6024C159.1 77.7056 158.745 77.4744 158.6 77.0823Z" stroke="#B68C5A" stroke-miterlimit="10"/>
<path d="M158.968 76.4384L158.402 74.8865" stroke="#B68C5A" stroke-miterlimit="10" stroke-linecap="round" stroke-linejoin="round"/>
<path d="M157.75 74.7586C157.605 74.3664 157.729 73.9619 158.022 73.8505C158.315 73.7432 158.67 73.9743 158.815 74.3664C158.959 74.7586 158.835 75.1631 158.542 75.2745C158.249 75.3818 157.894 75.1507 157.75 74.7586Z" stroke="#B68C5A" stroke-miterlimit="10"/>
<path d="M158.117 74.1104L157.552 72.5585" stroke="#B68C5A" stroke-miterlimit="10" stroke-linecap="round" stroke-linejoin="round"/>
<path d="M156.9 72.4305C156.755 72.0384 156.879 71.6339 157.172 71.5225C157.465 71.4152 157.82 71.6463 157.964 72.0384C158.109 72.4306 157.985 72.8351 157.692 72.9465C157.399 73.0538 157.044 72.8227 156.9 72.4305Z" stroke="#B68C5A" stroke-miterlimit="10"/>
<path d="M157.271 71.7826L156.701 70.2347" stroke="#B68C5A" stroke-miterlimit="10" stroke-linecap="round" stroke-linejoin="round"/>
<path d="M156.049 70.1067C155.905 69.7146 156.029 69.3101 156.322 69.1986C156.615 69.0913 156.97 69.3225 157.114 69.7146C157.259 70.1067 157.135 70.5112 156.842 70.6226C156.549 70.73 156.194 70.4988 156.049 70.1067Z" stroke="#B68C5A" stroke-miterlimit="10"/>
<path d="M156.421 69.4587L155.851 67.9067" stroke="#B68C5A" stroke-miterlimit="10" stroke-linecap="round" stroke-linejoin="round"/>
<path d="M155.203 67.7788C155.059 67.3867 155.183 66.9822 155.476 66.8708C155.769 66.7634 156.124 66.9946 156.268 67.3867C156.413 67.7788 156.289 68.1833 155.996 68.2948C155.699 68.4021 155.344 68.1709 155.203 67.7788Z" stroke="#B68C5A" stroke-miterlimit="10"/>
<path d="M155.57 67.1307L155.001 65.5829" stroke="#B68C5A" stroke-miterlimit="10" stroke-linecap="round" stroke-linejoin="round"/>
<path d="M154.353 65.4508C154.208 65.0587 154.332 64.6542 154.625 64.5428C154.918 64.4354 155.273 64.6666 155.418 65.0587C155.562 65.4508 155.438 65.8553 155.145 65.9668C154.848 66.0782 154.493 65.8471 154.353 65.4508Z" stroke="#B68C5A" stroke-miterlimit="10"/>
<path d="M154.72 64.807L154.151 63.255" stroke="#B68C5A" stroke-miterlimit="10" stroke-linecap="round" stroke-linejoin="round"/>
<path d="M153.503 63.127C153.358 62.7348 153.482 62.3303 153.775 62.2189C154.068 62.1116 154.423 62.3427 154.567 62.7348C154.712 63.127 154.588 63.5315 154.295 63.6429C153.998 63.7502 153.643 63.5191 153.503 63.127Z" stroke="#B68C5A" stroke-miterlimit="10"/>
<path d="M153.87 62.479L153.304 60.9312" stroke="#B68C5A" stroke-miterlimit="10" stroke-linecap="round" stroke-linejoin="round"/>
<path d="M152.652 60.7991C152.508 60.407 152.632 60.0025 152.925 59.8952C153.218 59.7879 153.573 60.019 153.717 60.4111C153.862 60.8032 153.738 61.2077 153.445 61.3192C153.152 61.4224 152.793 61.1912 152.652 60.7991Z" stroke="#B68C5A" stroke-miterlimit="10"/>
<path d="M153.02 60.1552L152.454 58.6033" stroke="#B68C5A" stroke-miterlimit="10" stroke-linecap="round" stroke-linejoin="round"/>
<path d="M151.802 58.4752C151.658 58.0831 151.781 57.6786 152.075 57.5672C152.368 57.4599 152.723 57.691 152.867 58.0831C153.012 58.4752 152.888 58.8797 152.595 58.9912C152.302 59.0985 151.947 58.8674 151.802 58.4752Z" stroke="#B68C5A" stroke-miterlimit="10"/>
<path d="M152.169 57.8272L151.604 56.2753" stroke="#B68C5A" stroke-miterlimit="10" stroke-linecap="round" stroke-linejoin="round"/>
<path d="M150.952 56.1473C150.807 55.7551 150.931 55.3506 151.224 55.2433C151.517 55.136 151.872 55.3671 152.017 55.7593C152.161 56.1514 152.037 56.5559 151.744 56.6673C151.451 56.7705 151.096 56.5394 150.952 56.1473Z" stroke="#B68C5A" stroke-miterlimit="10"/>
<path d="M151.319 55.5034L150.754 53.9514" stroke="#B68C5A" stroke-miterlimit="10" stroke-linecap="round" stroke-linejoin="round"/>
<path d="M150.101 53.8235C149.957 53.4314 150.081 53.0269 150.374 52.9196C150.667 52.8123 151.022 53.0434 151.166 53.4355C151.311 53.8277 151.187 54.2322 150.894 54.3436C150.601 54.4468 150.246 54.2156 150.101 53.8235Z" stroke="#B68C5A" stroke-miterlimit="10"/>
<path d="M150.469 53.1755L149.903 51.6235" stroke="#B68C5A" stroke-miterlimit="10" stroke-linecap="round" stroke-linejoin="round"/>
<path d="M135.065 93.3656C135.209 92.9735 135.085 92.569 134.792 92.4576C134.499 92.3502 134.144 92.5814 134 92.9735C133.855 93.3656 133.979 93.7701 134.272 93.8816C134.565 93.9889 134.92 93.7577 135.065 93.3656Z" stroke="#B68C5A" stroke-miterlimit="10"/>
<path d="M134.697 92.7175L135.263 91.1697" stroke="#B68C5A" stroke-miterlimit="10" stroke-linecap="round" stroke-linejoin="round"/>
<path d="M135.915 91.0376C136.059 90.6455 135.936 90.241 135.642 90.1295C135.349 90.0222 134.994 90.2534 134.85 90.6455C134.706 91.0376 134.829 91.4421 135.122 91.5536C135.415 91.665 135.77 91.4339 135.915 91.0376Z" stroke="#B68C5A" stroke-miterlimit="10"/>
<path d="M135.548 90.3938L136.113 88.8418" stroke="#B68C5A" stroke-miterlimit="10" stroke-linecap="round" stroke-linejoin="round"/>
<path d="M136.765 88.7139C136.91 88.3218 136.786 87.9173 136.493 87.8058C136.2 87.6985 135.845 87.9296 135.7 88.3218C135.556 88.7139 135.68 89.1184 135.973 89.2298C136.266 89.3372 136.621 89.106 136.765 88.7139Z" stroke="#B68C5A" stroke-miterlimit="10"/>
<path d="M136.398 88.0658L136.963 86.5179" stroke="#B68C5A" stroke-miterlimit="10" stroke-linecap="round" stroke-linejoin="round"/>
<path d="M137.616 86.3859C137.76 85.9938 137.636 85.5893 137.343 85.4778C137.05 85.3705 136.695 85.6016 136.551 85.9938C136.406 86.3859 136.53 86.7904 136.823 86.9018C137.116 87.0133 137.471 86.7821 137.616 86.3859Z" stroke="#B68C5A" stroke-miterlimit="10"/>
<path d="M137.248 85.742L137.814 84.1901" stroke="#B68C5A" stroke-miterlimit="10" stroke-linecap="round" stroke-linejoin="round"/>
<path d="M138.466 84.062C138.61 83.6699 138.487 83.2654 138.193 83.1581C137.9 83.0508 137.545 83.2819 137.401 83.6741C137.257 84.0662 137.38 84.4707 137.673 84.5821C137.966 84.6853 138.321 84.4542 138.466 84.062Z" stroke="#B68C5A" stroke-miterlimit="10"/>
<path d="M138.098 83.414L138.664 81.8621" stroke="#B68C5A" stroke-miterlimit="10" stroke-linecap="round" stroke-linejoin="round"/>
<path d="M139.316 81.734C139.46 81.3419 139.337 80.9374 139.044 80.8301C138.751 80.7228 138.396 80.9539 138.251 81.3461C138.107 81.7382 138.23 82.1427 138.524 82.2541C138.817 82.3573 139.172 82.1262 139.316 81.734Z" stroke="#B68C5A" stroke-miterlimit="10"/>
<path d="M138.949 81.0902L139.514 79.5382" stroke="#B68C5A" stroke-miterlimit="10" stroke-linecap="round" stroke-linejoin="round"/>
<path d="M140.166 79.4103C140.311 79.0182 140.187 78.6137 139.894 78.5064C139.601 78.3991 139.246 78.6302 139.101 79.0223C138.957 79.4144 139.081 79.819 139.374 79.9304C139.667 80.0336 140.022 79.8024 140.166 79.4103Z" stroke="#B68C5A" stroke-miterlimit="10"/>
<path d="M139.799 78.7623L140.365 77.2103" stroke="#B68C5A" stroke-miterlimit="10" stroke-linecap="round" stroke-linejoin="round"/>
<path d="M141.017 77.0823C141.161 76.6902 141.037 76.2857 140.744 76.1784C140.451 76.0711 140.096 76.3022 139.952 76.6943C139.807 77.0864 139.931 77.4909 140.224 77.6024C140.517 77.7056 140.872 77.4744 141.017 77.0823Z" stroke="#B68C5A" stroke-miterlimit="10"/>
<path d="M140.649 76.4384L141.215 74.8865" stroke="#B68C5A" stroke-miterlimit="10" stroke-linecap="round" stroke-linejoin="round"/>
<path d="M141.867 74.7586C142.011 74.3664 141.887 73.9619 141.594 73.8505C141.301 73.7432 140.946 73.9743 140.802 74.3664C140.657 74.7586 140.781 75.1631 141.074 75.2745C141.367 75.3818 141.722 75.1507 141.867 74.7586Z" stroke="#B68C5A" stroke-miterlimit="10"/>
<path d="M141.495 74.1104L142.065 72.5585" stroke="#B68C5A" stroke-miterlimit="10" stroke-linecap="round" stroke-linejoin="round"/>
<path d="M142.717 72.4305C142.862 72.0384 142.738 71.6339 142.445 71.5225C142.152 71.4152 141.797 71.6463 141.652 72.0384C141.508 72.4306 141.632 72.8351 141.925 72.9465C142.218 73.0538 142.573 72.8227 142.717 72.4305Z" stroke="#B68C5A" stroke-miterlimit="10"/>
<path d="M142.346 71.7826L142.915 70.2347" stroke="#B68C5A" stroke-miterlimit="10" stroke-linecap="round" stroke-linejoin="round"/>
<path d="M143.567 70.1067C143.712 69.7146 143.588 69.3101 143.295 69.1986C143.002 69.0913 142.647 69.3225 142.503 69.7146C142.358 70.1067 142.482 70.5112 142.775 70.6226C143.068 70.73 143.423 70.4988 143.567 70.1067Z" stroke="#B68C5A" stroke-miterlimit="10"/>
<path d="M143.196 69.4587L143.766 67.9067" stroke="#B68C5A" stroke-miterlimit="10" stroke-linecap="round" stroke-linejoin="round"/>
<path d="M144.414 67.7788C144.558 67.3867 144.434 66.9822 144.141 66.8708C143.848 66.7634 143.493 66.9946 143.349 67.3867C143.204 67.7788 143.328 68.1833 143.621 68.2948C143.918 68.4021 144.273 68.1709 144.414 67.7788Z" stroke="#B68C5A" stroke-miterlimit="10"/>
<path d="M144.046 67.1307L144.616 65.5829" stroke="#B68C5A" stroke-miterlimit="10" stroke-linecap="round" stroke-linejoin="round"/>
<path d="M145.264 65.4508C145.408 65.0587 145.285 64.6542 144.992 64.5428C144.699 64.4354 144.344 64.6666 144.199 65.0587C144.055 65.4508 144.178 65.8553 144.472 65.9668C144.769 66.0782 145.124 65.8471 145.264 65.4508Z" stroke="#B68C5A" stroke-miterlimit="10"/>
<path d="M144.896 64.807L145.466 63.255" stroke="#B68C5A" stroke-miterlimit="10" stroke-linecap="round" stroke-linejoin="round"/>
<path d="M146.114 63.127C146.259 62.7348 146.135 62.3303 145.842 62.2189C145.549 62.1116 145.194 62.3427 145.049 62.7348C144.905 63.127 145.029 63.5315 145.322 63.6429C145.619 63.7502 145.974 63.5191 146.114 63.127Z" stroke="#B68C5A" stroke-miterlimit="10"/>
<path d="M145.747 62.479L146.312 60.9312" stroke="#B68C5A" stroke-miterlimit="10" stroke-linecap="round" stroke-linejoin="round"/>
<path d="M146.964 60.7991C147.109 60.407 146.985 60.0025 146.692 59.8952C146.399 59.7879 146.044 60.019 145.9 60.4111C145.755 60.8032 145.879 61.2077 146.172 61.3192C146.465 61.4224 146.82 61.1912 146.964 60.7991Z" stroke="#B68C5A" stroke-miterlimit="10"/>
<path d="M146.597 60.1552L147.163 58.6033" stroke="#B68C5A" stroke-miterlimit="10" stroke-linecap="round" stroke-linejoin="round"/>
<path d="M147.815 58.4752C147.959 58.0831 147.835 57.6786 147.542 57.5672C147.249 57.4599 146.894 57.691 146.75 58.0831C146.605 58.4752 146.729 58.8797 147.022 58.9912C147.315 59.0985 147.67 58.8674 147.815 58.4752Z" stroke="#B68C5A" stroke-miterlimit="10"/>
<path d="M147.447 57.8272L148.013 56.2753" stroke="#B68C5A" stroke-miterlimit="10" stroke-linecap="round" stroke-linejoin="round"/>
<path d="M148.665 56.1473C148.809 55.7551 148.686 55.3506 148.392 55.2433C148.099 55.136 147.744 55.3671 147.6 55.7593C147.456 56.1514 147.579 56.5559 147.872 56.6673C148.165 56.7705 148.52 56.5394 148.665 56.1473Z" stroke="#B68C5A" stroke-miterlimit="10"/>
<path d="M148.298 55.5034L148.863 53.9514" stroke="#B68C5A" stroke-miterlimit="10" stroke-linecap="round" stroke-linejoin="round"/>
<path d="M149.515 53.8235C149.66 53.4314 149.536 53.0269 149.243 52.9196C148.95 52.8123 148.595 53.0434 148.45 53.4355C148.306 53.8277 148.43 54.2322 148.723 54.3436C149.016 54.4468 149.371 54.2156 149.515 53.8235Z" stroke="#B68C5A" stroke-miterlimit="10"/>
<path d="M149.148 53.1755L149.713 51.6235" stroke="#B68C5A" stroke-miterlimit="10" stroke-linecap="round" stroke-linejoin="round"/>
<path d="M149.239 94.8309C149.239 94.414 149.495 94.0756 149.808 94.0756C150.122 94.0756 150.378 94.414 150.378 94.8309C150.378 95.2478 150.122 95.5863 149.808 95.5863C149.495 95.5863 149.239 95.2478 149.239 94.8309Z" stroke="#B68C5A" stroke-miterlimit="10"/>
<path d="M149.808 94.3479V92.6969" stroke="#B68C5A" stroke-miterlimit="10" stroke-linecap="round" stroke-linejoin="round"/>
<path d="M149.239 92.3544C149.239 91.9375 149.495 91.599 149.808 91.599C150.122 91.599 150.378 91.9375 150.378 92.3544C150.378 92.7712 150.122 93.1097 149.808 93.1097C149.495 93.1097 149.239 92.7712 149.239 92.3544Z" stroke="#B68C5A" stroke-miterlimit="10"/>
<path d="M149.808 91.8715V90.2205" stroke="#B68C5A" stroke-miterlimit="10" stroke-linecap="round" stroke-linejoin="round"/>
<path d="M149.239 89.8778C149.239 89.4609 149.495 89.1224 149.808 89.1224C150.122 89.1224 150.378 89.4609 150.378 89.8778C150.378 90.2947 150.122 90.6331 149.808 90.6331C149.495 90.6331 149.239 90.2947 149.239 89.8778Z" stroke="#B68C5A" stroke-miterlimit="10"/>
<path d="M149.808 89.3949V87.7439" stroke="#B68C5A" stroke-miterlimit="10" stroke-linecap="round" stroke-linejoin="round"/>
<path d="M149.239 87.4012C149.239 86.9843 149.495 86.6459 149.808 86.6459C150.122 86.6459 150.378 86.9843 150.378 87.4012C150.378 87.8181 150.122 88.1566 149.808 88.1566C149.495 88.1566 149.239 87.8181 149.239 87.4012Z" stroke="#B68C5A" stroke-miterlimit="10"/>
<path d="M149.808 86.9184V85.2673" stroke="#B68C5A" stroke-miterlimit="10" stroke-linecap="round" stroke-linejoin="round"/>
<path d="M149.239 84.9248C149.239 84.5079 149.495 84.1694 149.808 84.1694C150.122 84.1694 150.378 84.5079 150.378 84.9248C150.378 85.3417 150.122 85.6801 149.808 85.6801C149.495 85.6801 149.239 85.3417 149.239 84.9248Z" stroke="#B68C5A" stroke-miterlimit="10"/>
<path d="M149.808 84.4418V82.7908" stroke="#B68C5A" stroke-miterlimit="10" stroke-linecap="round" stroke-linejoin="round"/>
<path d="M149.239 82.4482C149.239 82.0313 149.495 81.6929 149.808 81.6929C150.122 81.6929 150.378 82.0313 150.378 82.4482C150.378 82.8651 150.122 83.2036 149.808 83.2036C149.495 83.2036 149.239 82.8651 149.239 82.4482Z" stroke="#B68C5A" stroke-miterlimit="10"/>
<path d="M149.808 81.9652V80.3142" stroke="#B68C5A" stroke-miterlimit="10" stroke-linecap="round" stroke-linejoin="round"/>
<path d="M149.239 79.9717C149.239 79.5548 149.495 79.2163 149.808 79.2163C150.122 79.2163 150.378 79.5548 150.378 79.9717C150.378 80.3885 150.122 80.727 149.808 80.727C149.495 80.727 149.239 80.3885 149.239 79.9717Z" stroke="#B68C5A" stroke-miterlimit="10"/>
<path d="M149.808 79.4887V77.8376" stroke="#B68C5A" stroke-miterlimit="10" stroke-linecap="round" stroke-linejoin="round"/>
<path d="M149.239 77.4951C149.239 77.0782 149.495 76.7397 149.808 76.7397C150.122 76.7397 150.378 77.0782 150.378 77.4951C150.378 77.912 150.122 78.2504 149.808 78.2504C149.495 78.2504 149.239 77.912 149.239 77.4951Z" stroke="#B68C5A" stroke-miterlimit="10"/>
<path d="M149.808 77.0122V75.3612" stroke="#B68C5A" stroke-miterlimit="10" stroke-linecap="round" stroke-linejoin="round"/>
<path d="M149.239 75.0185C149.239 74.6017 149.495 74.2632 149.808 74.2632C150.122 74.2632 150.378 74.6017 150.378 75.0185C150.378 75.4354 150.122 75.7739 149.808 75.7739C149.495 75.7739 149.239 75.4354 149.239 75.0185Z" stroke="#B68C5A" stroke-miterlimit="10"/>
<path d="M149.808 74.5357V72.8846" stroke="#B68C5A" stroke-miterlimit="10" stroke-linecap="round" stroke-linejoin="round"/>
<path d="M149.239 72.542C149.239 72.1251 149.495 71.7866 149.808 71.7866C150.122 71.7866 150.378 72.1251 150.378 72.542C150.378 72.9589 150.122 73.2973 149.808 73.2973C149.495 73.2973 149.239 72.9589 149.239 72.542Z" stroke="#B68C5A" stroke-miterlimit="10"/>
<path d="M149.808 72.0591V70.4081" stroke="#B68C5A" stroke-miterlimit="10" stroke-linecap="round" stroke-linejoin="round"/>
<path d="M149.239 70.0655C149.239 69.6486 149.495 69.3102 149.808 69.3102C150.122 69.3102 150.378 69.6486 150.378 70.0655C150.378 70.4824 150.122 70.8209 149.808 70.8209C149.495 70.8209 149.239 70.4824 149.239 70.0655Z" stroke="#B68C5A" stroke-miterlimit="10"/>
<path d="M149.808 69.5825V67.9315" stroke="#B68C5A" stroke-miterlimit="10" stroke-linecap="round" stroke-linejoin="round"/>
<path d="M149.239 67.589C149.239 67.1721 149.495 66.8336 149.808 66.8336C150.122 66.8336 150.378 67.1721 150.378 67.589C150.378 68.0059 150.122 68.3443 149.808 68.3443C149.495 68.3443 149.239 68.0059 149.239 67.589Z" stroke="#B68C5A" stroke-miterlimit="10"/>
<path d="M149.808 67.106V65.455" stroke="#B68C5A" stroke-miterlimit="10" stroke-linecap="round" stroke-linejoin="round"/>
<path d="M149.239 65.1124C149.239 64.6955 149.495 64.3571 149.808 64.3571C150.122 64.3571 150.378 64.6955 150.378 65.1124C150.378 65.5293 150.122 65.8677 149.808 65.8677C149.495 65.8677 149.239 65.5293 149.239 65.1124Z" stroke="#B68C5A" stroke-miterlimit="10"/>
<path d="M149.808 64.6294V62.9784" stroke="#B68C5A" stroke-miterlimit="10" stroke-linecap="round" stroke-linejoin="round"/>
<path d="M149.239 62.6358C149.239 62.219 149.495 61.8805 149.808 61.8805C150.122 61.8805 150.378 62.219 150.378 62.6358C150.378 63.0527 150.122 63.3912 149.808 63.3912C149.495 63.3912 149.239 63.0527 149.239 62.6358Z" stroke="#B68C5A" stroke-miterlimit="10"/>
<path d="M149.808 62.153V60.502" stroke="#B68C5A" stroke-miterlimit="10" stroke-linecap="round" stroke-linejoin="round"/>
<path d="M149.239 60.1593C149.239 59.7424 149.495 59.4039 149.808 59.4039C150.122 59.4039 150.378 59.7424 150.378 60.1593C150.378 60.5762 150.122 60.9146 149.808 60.9146C149.495 60.9146 149.239 60.5762 149.239 60.1593Z" stroke="#B68C5A" stroke-miterlimit="10"/>
<path d="M149.808 59.6764V58.0254" stroke="#B68C5A" stroke-miterlimit="10" stroke-linecap="round" stroke-linejoin="round"/>
<path d="M149.239 57.6827C149.239 57.2658 149.495 56.9274 149.808 56.9274C150.122 56.9274 150.378 57.2658 150.378 57.6827C150.378 58.0996 150.122 58.4381 149.808 58.4381C149.495 58.4381 149.239 58.0996 149.239 57.6827Z" stroke="#B68C5A" stroke-miterlimit="10"/>
<path d="M149.808 57.1999V55.5488" stroke="#B68C5A" stroke-miterlimit="10" stroke-linecap="round" stroke-linejoin="round"/>
<path d="M149.239 55.2063C149.239 54.7894 149.495 54.4509 149.808 54.4509C150.122 54.4509 150.378 54.7894 150.378 55.2063C150.378 55.6232 150.122 55.9616 149.808 55.9616C149.495 55.9616 149.239 55.6232 149.239 55.2063Z" stroke="#B68C5A" stroke-miterlimit="10"/>
<path d="M149.808 54.7233V53.0723" stroke="#B68C5A" stroke-miterlimit="10" stroke-linecap="round" stroke-linejoin="round"/>
<path d="M149.239 52.7297C149.239 52.3128 149.495 51.9744 149.808 51.9744C150.122 51.9744 150.378 52.3128 150.378 52.7297C150.378 53.1466 150.122 53.4851 149.808 53.4851C149.495 53.4851 149.239 53.1466 149.239 52.7297Z" stroke="#B68C5A" stroke-miterlimit="10"/>
<path d="M149.808 52.2467V50.5957" stroke="#B68C5A" stroke-miterlimit="10" stroke-linecap="round" stroke-linejoin="round"/>
<path d="M149.239 50.2531C149.239 49.8363 149.495 49.4978 149.808 49.4978C150.122 49.4978 150.378 49.8363 150.378 50.2531C150.378 50.67 150.122 51.0085 149.808 51.0085C149.495 51.0085 149.239 50.67 149.239 50.2531Z" stroke="#B68C5A" stroke-miterlimit="10"/>
<path d="M149.808 49.7702V48.1191" stroke="#B68C5A" stroke-miterlimit="10" stroke-linecap="round" stroke-linejoin="round"/>
<path d="M132.803 93.1097C132.803 94.348 140.418 96.2549 149.808 96.2549C159.199 96.2549 166.814 94.348 166.814 93.1097H132.803Z" fill="#00062C"/>
<path opacity="0.2" d="M166.814 93.1097C166.814 94.348 159.199 96.2549 149.808 96.2549C140.418 96.2549 132.803 94.348 132.803 93.1097H166.814Z" fill="#00062C"/>
<path d="M94.796 93.3656C94.6516 92.9735 94.7754 92.569 95.0685 92.4576C95.3615 92.3502 95.7165 92.5814 95.8609 92.9735C96.0054 93.3656 95.8816 93.7701 95.5885 93.8816C95.2955 93.9889 94.9405 93.7577 94.796 93.3656Z" stroke="#B68C5A" stroke-miterlimit="10"/>
<path d="M95.1636 92.7175L94.5981 91.1697" stroke="#B68C5A" stroke-miterlimit="10" stroke-linecap="round" stroke-linejoin="round"/>
<path d="M93.9459 91.0376C93.8015 90.6455 93.9253 90.241 94.2184 90.1295C94.5114 90.0222 94.8664 90.2534 95.0108 90.6455C95.1553 91.0376 95.0315 91.4421 94.7384 91.5536C94.4454 91.665 94.0904 91.4339 93.9459 91.0376Z" stroke="#B68C5A" stroke-miterlimit="10"/>
<path d="M94.3133 90.3938L93.7478 88.8418" stroke="#B68C5A" stroke-miterlimit="10" stroke-linecap="round" stroke-linejoin="round"/>
<path d="M93.0956 88.7139C92.9511 88.3218 93.075 87.9173 93.368 87.8058C93.6611 87.6985 94.016 87.9296 94.1605 88.3218C94.305 88.7139 94.1811 89.1184 93.8881 89.2298C93.595 89.3372 93.2401 89.106 93.0956 88.7139Z" stroke="#B68C5A" stroke-miterlimit="10"/>
<path d="M93.4629 88.0658L92.8975 86.5179" stroke="#B68C5A" stroke-miterlimit="10" stroke-linecap="round" stroke-linejoin="round"/>
<path d="M92.2452 86.3859C92.1008 85.9938 92.2246 85.5893 92.5177 85.4778C92.8107 85.3705 93.1657 85.6016 93.3102 85.9938C93.4546 86.3859 93.3308 86.7904 93.0377 86.9018C92.7447 87.0133 92.3897 86.7821 92.2452 86.3859Z" stroke="#B68C5A" stroke-miterlimit="10"/>
<path d="M92.6126 85.742L92.0471 84.1901" stroke="#B68C5A" stroke-miterlimit="10" stroke-linecap="round" stroke-linejoin="round"/>
<path d="M91.3949 84.062C91.2504 83.6699 91.3743 83.2654 91.6673 83.1581C91.9604 83.0508 92.3154 83.2819 92.4598 83.6741C92.6043 84.0662 92.4805 84.4707 92.1874 84.5821C91.8943 84.6853 91.5394 84.4542 91.3949 84.062Z" stroke="#B68C5A" stroke-miterlimit="10"/>
<path d="M91.7625 83.414L91.197 81.8621" stroke="#B68C5A" stroke-miterlimit="10" stroke-linecap="round" stroke-linejoin="round"/>
<path d="M90.5448 81.734C90.4003 81.3419 90.5242 80.9374 90.8172 80.8301C91.1103 80.7228 91.4653 80.9539 91.6097 81.3461C91.7542 81.7382 91.6304 82.1427 91.3373 82.2541C91.0442 82.3573 90.6893 82.1262 90.5448 81.734Z" stroke="#B68C5A" stroke-miterlimit="10"/>
<path d="M90.9122 81.0902L90.3467 79.5382" stroke="#B68C5A" stroke-miterlimit="10" stroke-linecap="round" stroke-linejoin="round"/>
<path d="M89.6945 79.4103C89.55 79.0182 89.6738 78.6137 89.9669 78.5064C90.2599 78.3991 90.6149 78.6302 90.7594 79.0223C90.9039 79.4144 90.78 79.819 90.487 79.9304C90.1939 80.0336 89.8389 79.8024 89.6945 79.4103Z" stroke="#B68C5A" stroke-miterlimit="10"/>
<path d="M90.0618 78.7623L89.4963 77.2103" stroke="#B68C5A" stroke-miterlimit="10" stroke-linecap="round" stroke-linejoin="round"/>
<path d="M88.8441 77.0823C88.6997 76.6902 88.8235 76.2857 89.1165 76.1784C89.4096 76.0711 89.7646 76.3022 89.909 76.6943C90.0535 77.0864 89.9297 77.4909 89.6366 77.6024C89.3436 77.7056 88.9886 77.4744 88.8441 77.0823Z" stroke="#B68C5A" stroke-miterlimit="10"/>
<path d="M89.2117 76.4384L88.6462 74.8865" stroke="#B68C5A" stroke-miterlimit="10" stroke-linecap="round" stroke-linejoin="round"/>
<path d="M87.9938 74.7586C87.8493 74.3664 87.9731 73.9619 88.2662 73.8505C88.5593 73.7432 88.9142 73.9743 89.0587 74.3664C89.2032 74.7586 89.0793 75.1631 88.7863 75.2745C88.4932 75.3818 88.1382 75.1507 87.9938 74.7586Z" stroke="#B68C5A" stroke-miterlimit="10"/>
<path d="M88.3614 74.1104L87.7959 72.5585" stroke="#B68C5A" stroke-miterlimit="10" stroke-linecap="round" stroke-linejoin="round"/>
<path d="M87.1437 72.4305C86.9992 72.0384 87.1231 71.6339 87.4161 71.5225C87.7092 71.4152 88.0641 71.6463 88.2086 72.0384C88.3531 72.4306 88.2292 72.8351 87.9362 72.9465C87.6431 73.0538 87.2882 72.8227 87.1437 72.4305Z" stroke="#B68C5A" stroke-miterlimit="10"/>
<path d="M87.5152 71.7826L86.9456 70.2347" stroke="#B68C5A" stroke-miterlimit="10" stroke-linecap="round" stroke-linejoin="round"/>
<path d="M86.2933 70.1067C86.1489 69.7146 86.2727 69.3101 86.5658 69.1986C86.8588 69.0913 87.2138 69.3225 87.3583 69.7146C87.5027 70.1067 87.3789 70.5112 87.0858 70.6226C86.7928 70.73 86.4378 70.4988 86.2933 70.1067Z" stroke="#B68C5A" stroke-miterlimit="10"/>
<path d="M86.6648 69.4587L86.0952 67.9067" stroke="#B68C5A" stroke-miterlimit="10" stroke-linecap="round" stroke-linejoin="round"/>
<path d="M85.4472 67.7788C85.3027 67.3867 85.4265 66.9822 85.7196 66.8708C86.0126 66.7634 86.3676 66.9946 86.5121 67.3867C86.6565 67.7788 86.5327 68.1833 86.2396 68.2948C85.9425 68.4021 85.5875 68.1709 85.4472 67.7788Z" stroke="#B68C5A" stroke-miterlimit="10"/>
<path d="M85.8147 67.1307L85.2451 65.5829" stroke="#B68C5A" stroke-miterlimit="10" stroke-linecap="round" stroke-linejoin="round"/>
<path d="M84.5968 65.4508C84.4523 65.0587 84.5762 64.6542 84.8692 64.5428C85.1623 64.4354 85.5173 64.6666 85.6617 65.0587C85.8062 65.4508 85.6824 65.8553 85.3893 65.9668C85.0921 66.0782 84.7371 65.8471 84.5968 65.4508Z" stroke="#B68C5A" stroke-miterlimit="10"/>
<path d="M84.9644 64.807L84.3948 63.255" stroke="#B68C5A" stroke-miterlimit="10" stroke-linecap="round" stroke-linejoin="round"/>
<path d="M83.7467 63.127C83.6022 62.7348 83.7261 62.3303 84.0191 62.2189C84.3122 62.1116 84.6672 62.3427 84.8116 62.7348C84.9561 63.127 84.8323 63.5315 84.5392 63.6429C84.242 63.7502 83.8871 63.5191 83.7467 63.127Z" stroke="#B68C5A" stroke-miterlimit="10"/>
<path d="M84.1141 62.479L83.5486 60.9312" stroke="#B68C5A" stroke-miterlimit="10" stroke-linecap="round" stroke-linejoin="round"/>
<path d="M82.8964 60.7991C82.7519 60.407 82.8757 60.0025 83.1688 59.8952C83.4619 59.7879 83.8168 60.019 83.9613 60.4111C84.1058 60.8032 83.9819 61.2077 83.6889 61.3192C83.3958 61.4224 83.0367 61.1912 82.8964 60.7991Z" stroke="#B68C5A" stroke-miterlimit="10"/>
<path d="M83.2637 60.1552L82.6982 58.6033" stroke="#B68C5A" stroke-miterlimit="10" stroke-linecap="round" stroke-linejoin="round"/>
<path d="M82.046 58.4752C81.9016 58.0831 82.0254 57.6786 82.3185 57.5672C82.6115 57.4599 82.9665 57.691 83.1109 58.0831C83.2554 58.4752 83.1316 58.8797 82.8385 58.9912C82.5455 59.0985 82.1905 58.8674 82.046 58.4752Z" stroke="#B68C5A" stroke-miterlimit="10"/>
<path d="M82.4136 57.8272L81.8481 56.2753" stroke="#B68C5A" stroke-miterlimit="10" stroke-linecap="round" stroke-linejoin="round"/>
<path d="M81.1957 56.1473C81.0512 55.7551 81.175 55.3506 81.4681 55.2433C81.7612 55.136 82.1161 55.3671 82.2606 55.7593C82.4051 56.1514 82.2812 56.5559 81.9882 56.6673C81.6951 56.7705 81.3402 56.5394 81.1957 56.1473Z" stroke="#B68C5A" stroke-miterlimit="10"/>
<path d="M81.5633 55.5034L80.9978 53.9514" stroke="#B68C5A" stroke-miterlimit="10" stroke-linecap="round" stroke-linejoin="round"/>
<path d="M80.3456 53.8235C80.2011 53.4314 80.3249 53.0269 80.618 52.9196C80.9111 52.8123 81.266 53.0434 81.4105 53.4355C81.555 53.8277 81.4311 54.2322 81.1381 54.3436C80.845 54.4468 80.4901 54.2156 80.3456 53.8235Z" stroke="#B68C5A" stroke-miterlimit="10"/>
<path d="M80.7129 53.1755L80.1475 51.6235" stroke="#B68C5A" stroke-miterlimit="10" stroke-linecap="round" stroke-linejoin="round"/>
<path d="M65.3087 93.3656C65.4532 92.9735 65.3293 92.569 65.0363 92.4576C64.7432 92.3502 64.3882 92.5814 64.2438 92.9735C64.0993 93.3656 64.2231 93.7701 64.5162 93.8816C64.8093 93.9889 65.1642 93.7577 65.3087 93.3656Z" stroke="#B68C5A" stroke-miterlimit="10"/>
<path d="M64.9414 92.7175L65.5069 91.1697" stroke="#B68C5A" stroke-miterlimit="10" stroke-linecap="round" stroke-linejoin="round"/>
<path d="M66.159 91.0376C66.3035 90.6455 66.1797 90.241 65.8866 90.1295C65.5936 90.0222 65.2386 90.2534 65.0941 90.6455C64.9497 91.0376 65.0735 91.4421 65.3665 91.5536C65.6596 91.665 66.0146 91.4339 66.159 91.0376Z" stroke="#B68C5A" stroke-miterlimit="10"/>
<path d="M65.7917 90.3938L66.3572 88.8418" stroke="#B68C5A" stroke-miterlimit="10" stroke-linecap="round" stroke-linejoin="round"/>
<path d="M67.0094 88.7139C67.1538 88.3218 67.03 87.9173 66.737 87.8058C66.4439 87.6985 66.0889 87.9296 65.9445 88.3218C65.8 88.7139 65.9238 89.1184 66.2169 89.2298C66.5099 89.3372 66.8649 89.106 67.0094 88.7139Z" stroke="#B68C5A" stroke-miterlimit="10"/>
<path d="M66.6421 88.0658L67.2076 86.5179" stroke="#B68C5A" stroke-miterlimit="10" stroke-linecap="round" stroke-linejoin="round"/>
<path d="M67.8595 86.3859C68.0039 85.9938 67.8801 85.5893 67.5871 85.4778C67.294 85.3705 66.939 85.6016 66.7946 85.9938C66.6501 86.3859 66.7739 86.7904 67.067 86.9018C67.36 87.0133 67.715 86.7821 67.8595 86.3859Z" stroke="#B68C5A" stroke-miterlimit="10"/>
<path d="M67.4922 85.742L68.0577 84.1901" stroke="#B68C5A" stroke-miterlimit="10" stroke-linecap="round" stroke-linejoin="round"/>
<path d="M68.7098 84.062C68.8543 83.6699 68.7305 83.2654 68.4374 83.1581C68.1443 83.0508 67.7894 83.2819 67.6449 83.6741C67.5004 84.0662 67.6243 84.4707 67.9173 84.5821C68.2104 84.6853 68.5654 84.4542 68.7098 84.062Z" stroke="#B68C5A" stroke-miterlimit="10"/>
<path d="M68.3425 83.414L68.908 81.8621" stroke="#B68C5A" stroke-miterlimit="10" stroke-linecap="round" stroke-linejoin="round"/>
<path d="M69.5602 81.734C69.7046 81.3419 69.5808 80.9374 69.2877 80.8301C68.9947 80.7228 68.6397 80.9539 68.4952 81.3461C68.3508 81.7382 68.4746 82.1427 68.7677 82.2541C69.0607 82.3573 69.4157 82.1262 69.5602 81.734Z" stroke="#B68C5A" stroke-miterlimit="10"/>
<path d="M69.1929 81.0902L69.7583 79.5382" stroke="#B68C5A" stroke-miterlimit="10" stroke-linecap="round" stroke-linejoin="round"/>
<path d="M70.4105 79.4103C70.555 79.0182 70.4311 78.6137 70.1381 78.5064C69.845 78.3991 69.4901 78.6302 69.3456 79.0223C69.2011 79.4144 69.325 79.819 69.618 79.9304C69.9111 80.0336 70.266 79.8024 70.4105 79.4103Z" stroke="#B68C5A" stroke-miterlimit="10"/>
<path d="M70.0432 78.7623L70.6087 77.2103" stroke="#B68C5A" stroke-miterlimit="10" stroke-linecap="round" stroke-linejoin="round"/>
<path d="M71.2606 77.0823C71.4051 76.6902 71.2812 76.2857 70.9882 76.1784C70.6951 76.0711 70.3402 76.3022 70.1957 76.6943C70.0512 77.0864 70.1751 77.4909 70.4681 77.6024C70.7612 77.7056 71.1161 77.4744 71.2606 77.0823Z" stroke="#B68C5A" stroke-miterlimit="10"/>
<path d="M70.8933 76.4384L71.4588 74.8865" stroke="#B68C5A" stroke-miterlimit="10" stroke-linecap="round" stroke-linejoin="round"/>
<path d="M72.1109 74.7586C72.2554 74.3664 72.1316 73.9619 71.8385 73.8505C71.5455 73.7432 71.1905 73.9743 71.046 74.3664C70.9016 74.7586 71.0254 75.1631 71.3185 75.2745C71.6115 75.3818 71.9665 75.1507 72.1109 74.7586Z" stroke="#B68C5A" stroke-miterlimit="10"/>
<path d="M71.7395 74.1104L72.3091 72.5585" stroke="#B68C5A" stroke-miterlimit="10" stroke-linecap="round" stroke-linejoin="round"/>
<path d="M72.9613 72.4305C73.1058 72.0384 72.9819 71.6339 72.6889 71.5225C72.3958 71.4152 72.0408 71.6463 71.8964 72.0384C71.7519 72.4306 71.8757 72.8351 72.1688 72.9465C72.4618 73.0538 72.8168 72.8227 72.9613 72.4305Z" stroke="#B68C5A" stroke-miterlimit="10"/>
<path d="M72.5898 71.7826L73.1595 70.2347" stroke="#B68C5A" stroke-miterlimit="10" stroke-linecap="round" stroke-linejoin="round"/>
<path d="M73.8116 70.1067C73.9561 69.7146 73.8323 69.3101 73.5392 69.1986C73.2461 69.0913 72.8912 69.3225 72.7467 69.7146C72.6022 70.1067 72.7261 70.5112 73.0191 70.6226C73.3122 70.73 73.6672 70.4988 73.8116 70.1067Z" stroke="#B68C5A" stroke-miterlimit="10"/>
<path d="M73.4402 69.4587L74.0098 67.9067" stroke="#B68C5A" stroke-miterlimit="10" stroke-linecap="round" stroke-linejoin="round"/>
<path d="M74.6576 67.7788C74.802 67.3867 74.6782 66.9822 74.3852 66.8708C74.0921 66.7634 73.7371 66.9946 73.5927 67.3867C73.4482 67.7788 73.572 68.1833 73.8651 68.2948C74.1623 68.4021 74.5172 68.1709 74.6576 67.7788Z" stroke="#B68C5A" stroke-miterlimit="10"/>
<path d="M74.2903 67.1307L74.8599 65.5829" stroke="#B68C5A" stroke-miterlimit="10" stroke-linecap="round" stroke-linejoin="round"/>
<path d="M75.5079 65.4508C75.6524 65.0587 75.5286 64.6542 75.2355 64.5428C74.9424 64.4354 74.5875 64.6666 74.443 65.0587C74.2985 65.4508 74.4224 65.8553 74.7154 65.9668C75.0126 66.0782 75.3676 65.8471 75.5079 65.4508Z" stroke="#B68C5A" stroke-miterlimit="10"/>
<path d="M75.1406 64.807L75.7102 63.255" stroke="#B68C5A" stroke-miterlimit="10" stroke-linecap="round" stroke-linejoin="round"/>
<path d="M76.3583 63.127C76.5027 62.7348 76.3789 62.3303 76.0858 62.2189C75.7928 62.1116 75.4378 62.3427 75.2933 62.7348C75.1489 63.127 75.2727 63.5315 75.5658 63.6429C75.863 63.7502 76.2179 63.5191 76.3583 63.127Z" stroke="#B68C5A" stroke-miterlimit="10"/>
<path d="M75.991 62.479L76.5564 60.9312" stroke="#B68C5A" stroke-miterlimit="10" stroke-linecap="round" stroke-linejoin="round"/>
<path d="M77.2086 60.7991C77.3531 60.407 77.2292 60.0025 76.9362 59.8952C76.6431 59.7879 76.2882 60.019 76.1437 60.4111C75.9992 60.8032 76.1231 61.2077 76.4161 61.3192C76.7092 61.4224 77.0641 61.1912 77.2086 60.7991Z" stroke="#B68C5A" stroke-miterlimit="10"/>
<path d="M76.8413 60.1552L77.4068 58.6033" stroke="#B68C5A" stroke-miterlimit="10" stroke-linecap="round" stroke-linejoin="round"/>
<path d="M78.0587 58.4752C78.2032 58.0831 78.0793 57.6786 77.7863 57.5672C77.4932 57.4599 77.1382 57.691 76.9938 58.0831C76.8493 58.4752 76.9731 58.8797 77.2662 58.9912C77.5593 59.0985 77.9142 58.8674 78.0587 58.4752Z" stroke="#B68C5A" stroke-miterlimit="10"/>
<path d="M77.6914 57.8272L78.2569 56.2753" stroke="#B68C5A" stroke-miterlimit="10" stroke-linecap="round" stroke-linejoin="round"/>
<path d="M78.909 56.1473C79.0535 55.7551 78.9297 55.3506 78.6366 55.2433C78.3436 55.136 77.9886 55.3671 77.8441 55.7593C77.6997 56.1514 77.8235 56.5559 78.1165 56.6673C78.4096 56.7705 78.7646 56.5394 78.909 56.1473Z" stroke="#B68C5A" stroke-miterlimit="10"/>
<path d="M78.5417 55.5034L79.1072 53.9514" stroke="#B68C5A" stroke-miterlimit="10" stroke-linecap="round" stroke-linejoin="round"/>
<path d="M79.7594 53.8235C79.9038 53.4314 79.78 53.0269 79.487 52.9196C79.1939 52.8123 78.8389 53.0434 78.6945 53.4355C78.55 53.8277 78.6738 54.2322 78.9669 54.3436C79.2599 54.4468 79.6149 54.2156 79.7594 53.8235Z" stroke="#B68C5A" stroke-miterlimit="10"/>
<path d="M79.3921 53.1755L79.9576 51.6235" stroke="#B68C5A" stroke-miterlimit="10" stroke-linecap="round" stroke-linejoin="round"/>
<path d="M79.4829 94.8309C79.4829 94.414 79.7388 94.0756 80.0525 94.0756C80.3662 94.0756 80.6221 94.414 80.6221 94.8309C80.6221 95.2478 80.3662 95.5863 80.0525 95.5863C79.7388 95.5863 79.4829 95.2478 79.4829 94.8309Z" stroke="#B68C5A" stroke-miterlimit="10"/>
<path d="M80.0525 94.3479V92.6969" stroke="#B68C5A" stroke-miterlimit="10" stroke-linecap="round" stroke-linejoin="round"/>
<path d="M79.4829 92.3544C79.4829 91.9375 79.7388 91.599 80.0525 91.599C80.3662 91.599 80.6221 91.9375 80.6221 92.3544C80.6221 92.7712 80.3662 93.1097 80.0525 93.1097C79.7388 93.1097 79.4829 92.7712 79.4829 92.3544Z" stroke="#B68C5A" stroke-miterlimit="10"/>
<path d="M80.0525 91.8715V90.2205" stroke="#B68C5A" stroke-miterlimit="10" stroke-linecap="round" stroke-linejoin="round"/>
<path d="M79.4829 89.8778C79.4829 89.4609 79.7388 89.1224 80.0525 89.1224C80.3662 89.1224 80.6221 89.4609 80.6221 89.8778C80.6221 90.2947 80.3662 90.6331 80.0525 90.6331C79.7388 90.6331 79.4829 90.2947 79.4829 89.8778Z" stroke="#B68C5A" stroke-miterlimit="10"/>
<path d="M80.0525 89.3949V87.7439" stroke="#B68C5A" stroke-miterlimit="10" stroke-linecap="round" stroke-linejoin="round"/>
<path d="M79.4829 87.4012C79.4829 86.9843 79.7388 86.6459 80.0525 86.6459C80.3662 86.6459 80.6221 86.9843 80.6221 87.4012C80.6221 87.8181 80.3662 88.1566 80.0525 88.1566C79.7388 88.1566 79.4829 87.8181 79.4829 87.4012Z" stroke="#B68C5A" stroke-miterlimit="10"/>
<path d="M80.0525 86.9184V85.2673" stroke="#B68C5A" stroke-miterlimit="10" stroke-linecap="round" stroke-linejoin="round"/>
<path d="M79.4829 84.9248C79.4829 84.5079 79.7388 84.1694 80.0525 84.1694C80.3662 84.1694 80.6221 84.5079 80.6221 84.9248C80.6221 85.3417 80.3662 85.6801 80.0525 85.6801C79.7388 85.6801 79.4829 85.3417 79.4829 84.9248Z" stroke="#B68C5A" stroke-miterlimit="10"/>
<path d="M80.0525 84.4418V82.7908" stroke="#B68C5A" stroke-miterlimit="10" stroke-linecap="round" stroke-linejoin="round"/>
<path d="M79.4829 82.4482C79.4829 82.0313 79.7388 81.6929 80.0525 81.6929C80.3662 81.6929 80.6221 82.0313 80.6221 82.4482C80.6221 82.8651 80.3662 83.2036 80.0525 83.2036C79.7388 83.2036 79.4829 82.8651 79.4829 82.4482Z" stroke="#B68C5A" stroke-miterlimit="10"/>
<path d="M80.0525 81.9652V80.3142" stroke="#B68C5A" stroke-miterlimit="10" stroke-linecap="round" stroke-linejoin="round"/>
<path d="M79.4829 79.9717C79.4829 79.5548 79.7388 79.2163 80.0525 79.2163C80.3662 79.2163 80.6221 79.5548 80.6221 79.9717C80.6221 80.3885 80.3662 80.727 80.0525 80.727C79.7388 80.727 79.4829 80.3885 79.4829 79.9717Z" stroke="#B68C5A" stroke-miterlimit="10"/>
<path d="M80.0525 79.4887V77.8376" stroke="#B68C5A" stroke-miterlimit="10" stroke-linecap="round" stroke-linejoin="round"/>
<path d="M79.4829 77.4951C79.4829 77.0782 79.7388 76.7397 80.0525 76.7397C80.3662 76.7397 80.6221 77.0782 80.6221 77.4951C80.6221 77.912 80.3662 78.2504 80.0525 78.2504C79.7388 78.2504 79.4829 77.912 79.4829 77.4951Z" stroke="#B68C5A" stroke-miterlimit="10"/>
<path d="M80.0525 77.0122V75.3612" stroke="#B68C5A" stroke-miterlimit="10" stroke-linecap="round" stroke-linejoin="round"/>
<path d="M79.4829 75.0185C79.4829 74.6017 79.7388 74.2632 80.0525 74.2632C80.3662 74.2632 80.6221 74.6017 80.6221 75.0185C80.6221 75.4354 80.3662 75.7739 80.0525 75.7739C79.7388 75.7739 79.4829 75.4354 79.4829 75.0185Z" stroke="#B68C5A" stroke-miterlimit="10"/>
<path d="M80.0525 74.5357V72.8846" stroke="#B68C5A" stroke-miterlimit="10" stroke-linecap="round" stroke-linejoin="round"/>
<path d="M79.4829 72.542C79.4829 72.1251 79.7388 71.7866 80.0525 71.7866C80.3662 71.7866 80.6221 72.1251 80.6221 72.542C80.6221 72.9589 80.3662 73.2973 80.0525 73.2973C79.7388 73.2973 79.4829 72.9589 79.4829 72.542Z" stroke="#B68C5A" stroke-miterlimit="10"/>
<path d="M80.0525 72.0591V70.4081" stroke="#B68C5A" stroke-miterlimit="10" stroke-linecap="round" stroke-linejoin="round"/>
<path d="M79.4829 70.0655C79.4829 69.6486 79.7388 69.3102 80.0525 69.3102C80.3662 69.3102 80.6221 69.6486 80.6221 70.0655C80.6221 70.4824 80.3662 70.8209 80.0525 70.8209C79.7388 70.8209 79.4829 70.4824 79.4829 70.0655Z" stroke="#B68C5A" stroke-miterlimit="10"/>
<path d="M80.0525 69.5825V67.9315" stroke="#B68C5A" stroke-miterlimit="10" stroke-linecap="round" stroke-linejoin="round"/>
<path d="M79.4829 67.589C79.4829 67.1721 79.7388 66.8336 80.0525 66.8336C80.3662 66.8336 80.6221 67.1721 80.6221 67.589C80.6221 68.0059 80.3662 68.3443 80.0525 68.3443C79.7388 68.3443 79.4829 68.0059 79.4829 67.589Z" stroke="#B68C5A" stroke-miterlimit="10"/>
<path d="M80.0525 67.106V65.455" stroke="#B68C5A" stroke-miterlimit="10" stroke-linecap="round" stroke-linejoin="round"/>
<path d="M79.4829 65.1124C79.4829 64.6955 79.7388 64.3571 80.0525 64.3571C80.3662 64.3571 80.6221 64.6955 80.6221 65.1124C80.6221 65.5293 80.3662 65.8677 80.0525 65.8677C79.7388 65.8677 79.4829 65.5293 79.4829 65.1124Z" stroke="#B68C5A" stroke-miterlimit="10"/>
<path d="M80.0525 64.6294V62.9784" stroke="#B68C5A" stroke-miterlimit="10" stroke-linecap="round" stroke-linejoin="round"/>
<path d="M79.4829 62.6358C79.4829 62.219 79.7388 61.8805 80.0525 61.8805C80.3662 61.8805 80.6221 62.219 80.6221 62.6358C80.6221 63.0527 80.3662 63.3912 80.0525 63.3912C79.7388 63.3912 79.4829 63.0527 79.4829 62.6358Z" stroke="#B68C5A" stroke-miterlimit="10"/>
<path d="M80.0525 62.153V60.502" stroke="#B68C5A" stroke-miterlimit="10" stroke-linecap="round" stroke-linejoin="round"/>
<path d="M79.4829 60.1593C79.4829 59.7424 79.7388 59.4039 80.0525 59.4039C80.3662 59.4039 80.6221 59.7424 80.6221 60.1593C80.6221 60.5762 80.3662 60.9146 80.0525 60.9146C79.7388 60.9146 79.4829 60.5762 79.4829 60.1593Z" stroke="#B68C5A" stroke-miterlimit="10"/>
<path d="M80.0525 59.6764V58.0254" stroke="#B68C5A" stroke-miterlimit="10" stroke-linecap="round" stroke-linejoin="round"/>
<path d="M79.4829 57.6827C79.4829 57.2658 79.7388 56.9274 80.0525 56.9274C80.3662 56.9274 80.6221 57.2658 80.6221 57.6827C80.6221 58.0996 80.3662 58.4381 80.0525 58.4381C79.7388 58.4381 79.4829 58.0996 79.4829 57.6827Z" stroke="#B68C5A" stroke-miterlimit="10"/>
<path d="M80.0525 57.1999V55.5488" stroke="#B68C5A" stroke-miterlimit="10" stroke-linecap="round" stroke-linejoin="round"/>
<path d="M79.4829 55.2063C79.4829 54.7894 79.7388 54.4509 80.0525 54.4509C80.3662 54.4509 80.6221 54.7894 80.6221 55.2063C80.6221 55.6232 80.3662 55.9616 80.0525 55.9616C79.7388 55.9616 79.4829 55.6232 79.4829 55.2063Z" stroke="#B68C5A" stroke-miterlimit="10"/>
<path d="M80.0525 54.7233V53.0723" stroke="#B68C5A" stroke-miterlimit="10" stroke-linecap="round" stroke-linejoin="round"/>
<path d="M79.4829 52.7297C79.4829 52.3128 79.7388 51.9744 80.0525 51.9744C80.3662 51.9744 80.6221 52.3128 80.6221 52.7297C80.6221 53.1466 80.3662 53.4851 80.0525 53.4851C79.7388 53.4851 79.4829 53.1466 79.4829 52.7297Z" stroke="#B68C5A" stroke-miterlimit="10"/>
<path d="M80.0525 52.2467V50.5957" stroke="#B68C5A" stroke-miterlimit="10" stroke-linecap="round" stroke-linejoin="round"/>
<path d="M79.4829 50.2531C79.4829 49.8363 79.7388 49.4978 80.0525 49.4978C80.3662 49.4978 80.6221 49.8363 80.6221 50.2531C80.6221 50.67 80.3662 51.0085 80.0525 51.0085C79.7388 51.0085 79.4829 50.67 79.4829 50.2531Z" stroke="#B68C5A" stroke-miterlimit="10"/>
<path d="M80.0525 49.7702V48.1191" stroke="#B68C5A" stroke-miterlimit="10" stroke-linecap="round" stroke-linejoin="round"/>
<path d="M63.0469 93.1097C63.0469 94.348 70.6622 96.2549 80.0525 96.2549C89.4427 96.2549 97.0581 94.348 97.0581 93.1097H63.0469Z" fill="#00062C"/>
<path opacity="0.2" d="M97.0581 93.1097C97.0581 94.348 89.4427 96.2549 80.0525 96.2549C70.6622 96.2549 63.0469 94.348 63.0469 93.1097H97.0581Z" fill="#00062C"/>
<path d="M114.798 41.4738C114.798 41.4738 115.38 41.5027 116.404 41.5481C116.651 41.5522 116.953 41.5852 117.279 41.6182C117.601 41.6512 117.952 41.6884 118.327 41.7255C118.703 41.7544 119.087 41.8329 119.495 41.8906C119.904 41.9608 120.337 42.0062 120.779 42.1135C121.221 42.2085 121.683 42.3075 122.162 42.4107C122.632 42.5345 123.123 42.6666 123.623 42.7987C124.122 42.9432 124.626 43.1124 125.146 43.2775C125.658 43.455 126.178 43.6531 126.706 43.843C127.75 44.2599 128.815 44.7139 129.868 45.2257C130.929 45.7252 131.969 46.27 133.013 46.8024C134.049 47.339 135.077 47.8674 136.096 48.3462C137.112 48.8167 138.14 49.213 139.13 49.4812C140.141 49.7537 141.144 49.9435 142.098 50.0096C143.051 50.0797 143.959 50.0674 144.781 49.96C144.987 49.9394 145.181 49.8899 145.375 49.861C145.474 49.8445 145.569 49.828 145.664 49.8115C145.755 49.7867 145.846 49.7619 145.937 49.7372C146.114 49.6876 146.292 49.6422 146.461 49.5927C146.626 49.5308 146.783 49.4689 146.94 49.4111C147.018 49.3822 147.092 49.3533 147.167 49.3244C147.237 49.2872 147.307 49.2542 147.373 49.2212C147.509 49.151 147.641 49.085 147.769 49.0231C148.009 48.8786 148.219 48.73 148.417 48.6021C148.595 48.4535 148.752 48.3173 148.888 48.2017C149.032 48.0903 149.115 47.9582 149.201 47.8715C149.367 47.6857 149.457 47.5867 149.457 47.5867L150.312 48.2223C150.312 48.2223 150.213 48.3462 150.023 48.5773C149.924 48.6888 149.821 48.8456 149.66 48.9901C149.499 49.1387 149.317 49.3038 149.111 49.4936C148.884 49.6546 148.64 49.8403 148.359 50.022C148.215 50.1045 148.062 50.1871 147.905 50.2737C147.827 50.3191 147.744 50.3604 147.666 50.4058C147.583 50.4471 147.497 50.4801 147.406 50.5173C147.228 50.5916 147.047 50.67 146.861 50.7484C146.671 50.8144 146.473 50.8722 146.271 50.9383C146.168 50.9713 146.064 51.0002 145.961 51.0332C145.854 51.058 145.747 51.0827 145.639 51.1034C145.421 51.1488 145.202 51.2066 144.971 51.2437C144.058 51.4006 143.06 51.4542 142.011 51.4212C140.963 51.3882 139.865 51.2313 138.75 50.9754C137.615 50.7195 136.509 50.3357 135.42 49.8816C134.338 49.4235 133.265 48.9281 132.208 48.4328C131.152 47.9417 130.103 47.4464 129.059 47.0088C128.023 46.5589 126.987 46.1668 125.984 45.8077C125.476 45.6467 124.981 45.4816 124.49 45.333C123.999 45.201 123.516 45.0606 123.045 44.945C122.57 44.8377 122.112 44.7345 121.666 44.6355C121.217 44.5571 120.783 44.4828 120.366 44.4126C119.953 44.33 119.545 44.3053 119.165 44.2557C118.785 44.2145 118.418 44.1567 118.084 44.1443C117.749 44.1237 117.436 44.103 117.143 44.0865C116.854 44.0659 116.59 44.0494 116.325 44.0535C115.302 44.0452 114.72 44.0411 114.72 44.0411L114.798 41.4738Z" fill="#00062C"/>
<path d="M115.153 41.4738C115.153 41.4738 114.571 41.5027 113.548 41.5481C113.3 41.5522 112.999 41.5852 112.673 41.6182C112.351 41.6512 112 41.6884 111.624 41.7255C111.249 41.7544 110.865 41.8329 110.456 41.8906C110.047 41.9608 109.614 42.0062 109.172 42.1135C108.731 42.2085 108.268 42.3075 107.79 42.4107C107.319 42.5345 106.828 42.6666 106.329 42.7987C105.829 42.9432 105.326 43.1124 104.805 43.2775C104.294 43.455 103.774 43.6531 103.245 43.843C102.201 44.2599 101.136 44.7139 100.084 45.2257C99.0227 45.7252 97.9826 46.27 96.9383 46.8024C95.9023 47.339 94.8745 47.8674 93.855 48.3462C92.8396 48.8167 91.8119 49.213 90.8212 49.4812C89.81 49.7537 88.807 49.9435 87.8535 50.0096C86.9 50.0797 85.992 50.0674 85.1706 49.96C84.9642 49.9394 84.7702 49.8899 84.5762 49.861C84.4772 49.8445 84.3822 49.828 84.2873 49.8115C84.1965 49.7867 84.1057 49.7619 84.0149 49.7372C83.8374 49.6876 83.6599 49.6422 83.4907 49.5927C83.3256 49.5308 83.1687 49.4689 83.0119 49.4111C82.9334 49.3822 82.8592 49.3533 82.7849 49.3244C82.7147 49.2872 82.6445 49.2542 82.5785 49.2212C82.4423 49.151 82.3102 49.085 82.1822 49.0231C81.9428 48.8786 81.7323 48.73 81.5342 48.6021C81.3567 48.4535 81.1999 48.3173 81.0637 48.2017C80.9192 48.0903 80.8366 47.9582 80.75 47.8715C80.5849 47.6857 80.4941 47.5867 80.4941 47.5867L79.6396 48.2223C79.6396 48.2223 79.7387 48.3462 79.9286 48.5773C80.0276 48.6888 80.1308 48.8456 80.2918 48.9901C80.4528 49.1387 80.6344 49.3038 80.8408 49.4936C81.0678 49.6546 81.3113 49.8403 81.592 50.022C81.7365 50.1045 81.8892 50.1871 82.046 50.2737C82.1244 50.3191 82.207 50.3604 82.2854 50.4058C82.368 50.4471 82.4546 50.4801 82.5455 50.5173C82.7229 50.5916 82.9046 50.67 83.0903 50.7484C83.2802 50.8144 83.4783 50.8722 83.6805 50.9383C83.7837 50.9713 83.8869 51.0002 83.9901 51.0332C84.0974 51.058 84.2047 51.0827 84.3121 51.1034C84.5308 51.1488 84.7496 51.2066 84.9807 51.2437C85.8929 51.4006 86.8918 51.4542 87.9402 51.4212C88.9886 51.3882 90.0865 51.2313 91.201 50.9754C92.3361 50.7195 93.4422 50.3357 94.5319 49.8816C95.6133 49.4235 96.6865 48.9281 97.7432 48.4328C98.7998 47.9417 99.8482 47.4464 100.893 47.0088C101.933 46.5589 102.965 46.1668 103.968 45.8077C104.475 45.6467 104.971 45.4816 105.462 45.333C105.953 45.201 106.436 45.0606 106.906 44.945C107.381 44.8377 107.839 44.7345 108.285 44.6355C108.735 44.5571 109.168 44.4828 109.585 44.4126C109.998 44.33 110.407 44.3053 110.786 44.2557C111.166 44.2145 111.533 44.1567 111.868 44.1443C112.202 44.1237 112.516 44.103 112.809 44.0865C113.098 44.0659 113.362 44.0494 113.626 44.0535C114.65 44.0452 115.232 44.0411 115.232 44.0411L115.153 41.4738Z" fill="#00062C"/>
<path opacity="0.1" d="M114.798 41.4738C114.798 41.4738 115.38 41.5027 116.404 41.5481C116.651 41.5522 116.953 41.5852 117.279 41.6182C117.601 41.6512 117.952 41.6884 118.327 41.7255C118.703 41.7544 119.087 41.8329 119.495 41.8906C119.904 41.9608 120.337 42.0062 120.779 42.1135C121.221 42.2085 121.683 42.3075 122.162 42.4107C122.632 42.5345 123.123 42.6666 123.623 42.7987C124.122 42.9432 124.626 43.1124 125.146 43.2775C125.658 43.455 126.178 43.6531 126.706 43.843C127.75 44.2599 128.815 44.7139 129.868 45.2257C130.929 45.7252 131.969 46.27 133.013 46.8024C134.049 47.339 135.077 47.8674 136.096 48.3462C137.112 48.8167 138.14 49.213 139.13 49.4812C140.141 49.7537 141.144 49.9435 142.098 50.0096C143.051 50.0797 143.959 50.0674 144.781 49.96C144.987 49.9394 145.181 49.8899 145.375 49.861C145.474 49.8445 145.569 49.828 145.664 49.8115C145.755 49.7867 145.846 49.7619 145.937 49.7372C146.114 49.6876 146.292 49.6422 146.461 49.5927C146.626 49.5308 146.783 49.4689 146.94 49.4111C147.018 49.3822 147.092 49.3533 147.167 49.3244C147.237 49.2872 147.307 49.2542 147.373 49.2212C147.509 49.151 147.641 49.085 147.769 49.0231C148.009 48.8786 148.219 48.73 148.417 48.6021C148.595 48.4535 148.752 48.3173 148.888 48.2017C149.032 48.0903 149.115 47.9582 149.201 47.8715C149.367 47.6857 149.457 47.5867 149.457 47.5867L150.312 48.2223C150.312 48.2223 150.213 48.3462 150.023 48.5773C149.924 48.6888 149.821 48.8456 149.66 48.9901C149.499 49.1387 149.317 49.3038 149.111 49.4936C148.884 49.6546 148.64 49.8403 148.359 50.022C148.215 50.1045 148.062 50.1871 147.905 50.2737C147.827 50.3191 147.744 50.3604 147.666 50.4058C147.583 50.4471 147.497 50.4801 147.406 50.5173C147.228 50.5916 147.047 50.67 146.861 50.7484C146.671 50.8144 146.473 50.8722 146.271 50.9383C146.168 50.9713 146.064 51.0002 145.961 51.0332C145.854 51.058 145.747 51.0827 145.639 51.1034C145.421 51.1488 145.202 51.2066 144.971 51.2437C144.058 51.4006 143.06 51.4542 142.011 51.4212C140.963 51.3882 139.865 51.2313 138.75 50.9754C137.615 50.7195 136.509 50.3357 135.42 49.8816C134.338 49.4235 133.265 48.9281 132.208 48.4328C131.152 47.9417 130.103 47.4464 129.059 47.0088C128.023 46.5589 126.987 46.1668 125.984 45.8077C125.476 45.6467 124.981 45.4816 124.49 45.333C123.999 45.201 123.516 45.0606 123.045 44.945C122.57 44.8377 122.112 44.7345 121.666 44.6355C121.217 44.5571 120.783 44.4828 120.366 44.4126C119.953 44.33 119.545 44.3053 119.165 44.2557C118.785 44.2145 118.418 44.1567 118.084 44.1443C117.749 44.1237 117.436 44.103 117.143 44.0865C116.854 44.0659 116.59 44.0494 116.325 44.0535C115.302 44.0452 114.72 44.0411 114.72 44.0411L114.798 41.4738Z" fill="white"/>
<path opacity="0.1" d="M115.153 41.4738C115.153 41.4738 114.571 41.5027 113.548 41.5481C113.3 41.5522 112.999 41.5852 112.673 41.6182C112.351 41.6512 112 41.6884 111.624 41.7255C111.249 41.7544 110.865 41.8329 110.456 41.8906C110.047 41.9608 109.614 42.0062 109.172 42.1135C108.731 42.2085 108.268 42.3075 107.79 42.4107C107.319 42.5345 106.828 42.6666 106.329 42.7987C105.829 42.9432 105.326 43.1124 104.805 43.2775C104.294 43.455 103.774 43.6531 103.245 43.843C102.201 44.2599 101.136 44.7139 100.084 45.2257C99.0227 45.7252 97.9826 46.27 96.9383 46.8024C95.9023 47.339 94.8745 47.8674 93.855 48.3462C92.8396 48.8167 91.8119 49.213 90.8212 49.4812C89.81 49.7537 88.807 49.9435 87.8535 50.0096C86.9 50.0797 85.992 50.0674 85.1706 49.96C84.9642 49.9394 84.7702 49.8899 84.5762 49.861C84.4772 49.8445 84.3822 49.828 84.2873 49.8115C84.1965 49.7867 84.1057 49.7619 84.0149 49.7372C83.8374 49.6876 83.6599 49.6422 83.4907 49.5927C83.3256 49.5308 83.1687 49.4689 83.0119 49.4111C82.9334 49.3822 82.8592 49.3533 82.7849 49.3244C82.7147 49.2872 82.6445 49.2542 82.5785 49.2212C82.4423 49.151 82.3102 49.085 82.1822 49.0231C81.9428 48.8786 81.7323 48.73 81.5342 48.6021C81.3567 48.4535 81.1999 48.3173 81.0637 48.2017C80.9192 48.0903 80.8366 47.9582 80.75 47.8715C80.5849 47.6857 80.4941 47.5867 80.4941 47.5867L79.6396 48.2223C79.6396 48.2223 79.7387 48.3462 79.9286 48.5773C80.0276 48.6888 80.1308 48.8456 80.2918 48.9901C80.4528 49.1387 80.6344 49.3038 80.8408 49.4936C81.0678 49.6546 81.3113 49.8403 81.592 50.022C81.7365 50.1045 81.8892 50.1871 82.046 50.2737C82.1244 50.3191 82.207 50.3604 82.2854 50.4058C82.368 50.4471 82.4546 50.4801 82.5455 50.5173C82.7229 50.5916 82.9046 50.67 83.0903 50.7484C83.2802 50.8144 83.4783 50.8722 83.6805 50.9383C83.7837 50.9713 83.8869 51.0002 83.9901 51.0332C84.0974 51.058 84.2047 51.0827 84.3121 51.1034C84.5308 51.1488 84.7496 51.2066 84.9807 51.2437C85.8929 51.4006 86.8918 51.4542 87.9402 51.4212C88.9886 51.3882 90.0865 51.2313 91.201 50.9754C92.3361 50.7195 93.4422 50.3357 94.5319 49.8816C95.6133 49.4235 96.6865 48.9281 97.7432 48.4328C98.7998 47.9417 99.8482 47.4464 100.893 47.0088C101.933 46.5589 102.965 46.1668 103.968 45.8077C104.475 45.6467 104.971 45.4816 105.462 45.333C105.953 45.201 106.436 45.0606 106.906 44.945C107.381 44.8377 107.839 44.7345 108.285 44.6355C108.735 44.5571 109.168 44.4828 109.585 44.4126C109.998 44.33 110.407 44.3053 110.786 44.2557C111.166 44.2145 111.533 44.1567 111.868 44.1443C112.202 44.1237 112.516 44.103 112.809 44.0865C113.098 44.0659 113.362 44.0494 113.626 44.0535C114.65 44.0452 115.232 44.0411 115.232 44.0411L115.153 41.4738Z" fill="white"/>
<path d="M149.713 48.9694C150.301 48.9694 150.778 48.4926 150.778 47.9045C150.778 47.3164 150.301 46.8396 149.713 46.8396C149.125 46.8396 148.648 47.3164 148.648 47.9045C148.648 48.4926 149.125 48.9694 149.713 48.9694Z" fill="#00062C"/>
<path d="M79.8955 46.8396C79.3094 46.8396 78.8306 47.3143 78.8306 47.9045C78.8306 48.4906 79.3052 48.9694 79.8955 48.9694C80.4816 48.9694 80.9604 48.4948 80.9604 47.9045C80.9563 47.3184 80.4816 46.8396 79.8955 46.8396Z" fill="#00062C"/>
<path d="M118.15 39.4596C118.15 37.6393 116.672 36.1616 114.852 36.1616C113.032 36.1616 111.554 37.6393 111.554 39.4596C111.554 40.2066 111.806 40.7969 112.227 41.35L112.507 47.7064H117.2L117.481 41.35C117.898 40.7969 118.15 40.2108 118.15 39.4596Z" fill="#00062C"/>
<path opacity="0.1" d="M112.223 41.5811H117.477V41.577C117.898 41.0239 118.15 40.4089 118.15 39.6577C118.15 37.8374 116.672 36.3597 114.852 36.3597C113.032 36.3597 111.554 37.8374 111.554 39.6577C111.554 40.4048 111.806 41.0239 112.227 41.577L112.223 41.5811Z" fill="white"/>
</svg>
