<svg width="41" height="40" viewBox="0 0 41 40" fill="none" xmlns="http://www.w3.org/2000/svg">
<path fill-rule="evenodd" clip-rule="evenodd" d="M19.1935 0.119206C18.0875 0.515432 17.3923 1.41497 17.3142 2.55096C17.2824 3.01378 17.4771 4.0362 17.8099 5.15382C17.8443 5.26951 17.7742 5.29015 17.2787 5.31016L16.7078 5.33322L16.6852 5.97809L16.6624 6.62296H17.33H17.9976V7.27862V7.93428L14.695 7.97508C11.1047 8.0194 10.8878 8.04152 9.55107 8.50052C9.15883 8.6352 8.82967 8.73392 8.81951 8.71985C8.80935 8.70586 8.72368 8.56555 8.6291 8.40812C8.44142 8.09593 8.14111 7.95155 7.8368 8.02722C7.66429 8.07021 7.51835 8.23545 7.24751 8.69445C7.17419 8.81873 7.10446 8.79911 6.44787 8.46941C6.05227 8.27071 5.71076 8.10812 5.68895 8.10812C5.64924 8.10812 5.10012 9.16274 5.10012 9.23888C5.10012 9.26108 5.44835 9.45391 5.87397 9.66754L6.64774 10.0558L3.32387 17.3065L0 24.5572L0.0504955 25.1C0.154222 26.2164 0.740314 27.3807 1.57529 28.129C2.07242 28.5747 3.05724 29.0782 3.69313 29.212C3.9968 29.2759 5.33923 29.295 8.26586 29.2773C12.3346 29.2526 12.417 29.249 12.8724 29.0772C14.0426 28.6356 14.982 27.8088 15.4945 26.7692C15.8394 26.0696 16.0788 25.1137 16.0179 24.6794C15.9967 24.5289 14.4975 21.1728 12.6864 17.2214C10.8752 13.2699 9.42108 10.0118 9.45493 9.98107C9.56639 9.88007 10.3792 9.60751 10.9693 9.47322C11.4439 9.36535 12.1331 9.3344 14.7732 9.30266L17.9976 9.26381V21.5258V33.7878L16.8827 34.9007L15.7679 36.0135H14.3588C12.8208 36.0135 12.3598 36.0887 11.7272 36.4429C10.9173 36.8964 10.2841 37.793 10.1044 38.7408C9.98325 39.3795 10.0039 39.5223 10.2531 39.7715L10.4816 40H20.0299H29.5782L29.8067 39.7715C30.0559 39.5223 30.0765 39.3795 29.9554 38.7408C29.7757 37.793 29.1425 36.8964 28.3326 36.4429C27.6997 36.0886 27.2392 36.0135 25.6991 36.0135H24.2879L23.1751 34.8986L22.0622 33.7838V21.5238V9.26381L25.2866 9.30266C27.9267 9.3344 28.6159 9.36535 29.0905 9.47322C29.6837 9.60821 30.4937 9.88023 30.606 9.98224C30.6405 10.0136 29.1857 13.2717 27.373 17.2226C25.5603 21.1733 24.0607 24.5289 24.0404 24.6794C23.9815 25.1163 24.2216 26.0721 24.5653 26.7692C25.0778 27.8088 26.0172 28.6356 27.1874 29.0772C27.6428 29.249 27.7252 29.2526 31.7939 29.2773C34.7206 29.295 36.063 29.2759 36.3667 29.212C36.9875 29.0814 37.9808 28.5777 38.4705 28.1452C39.3592 27.3603 39.9882 26.0462 39.9969 24.956L40.0014 24.4058L36.7067 17.2308L33.412 10.0559L34.1858 9.66754C34.6114 9.45391 34.9597 9.26108 34.9597 9.23888C34.9597 9.16274 34.4106 8.10812 34.3708 8.10812C34.349 8.10812 34.016 8.26641 33.6308 8.45987C33.2456 8.65333 32.9129 8.81162 32.8914 8.81162C32.8699 8.81162 32.7793 8.66834 32.69 8.49333C32.3914 7.90809 31.7556 7.84681 31.4352 8.3724C31.3534 8.50646 31.2762 8.64669 31.2636 8.68397C31.251 8.72134 30.9155 8.6402 30.5181 8.50372C29.1709 8.04113 28.9591 8.0194 25.3648 7.97508L22.0622 7.93428V7.27862V6.62296H22.7298H23.3974L23.3746 5.97809L23.352 5.33322L22.7811 5.31016C22.2849 5.29015 22.2156 5.26967 22.2514 5.15382C22.274 5.0805 22.4031 4.56359 22.5383 4.00509C22.7273 3.22413 22.7752 2.87871 22.7456 2.50906C22.6354 1.13756 21.5672 0.0978671 20.1779 0.0101644C19.7401 -0.0175065 19.5015 0.00891374 19.1935 0.119206ZM20.3816 1.39512C20.829 1.51901 21.1208 1.75265 21.288 2.12066C21.4917 2.56925 21.4787 2.75318 21.148 4.1021L20.8557 5.29413H20.0299H19.2041L18.9118 4.1021C18.5811 2.75318 18.5681 2.56925 18.7718 2.12066C18.9334 1.76492 19.2327 1.51682 19.642 1.39942C20.0041 1.29553 20.0216 1.29538 20.3816 1.39512ZM20.717 7.30692L20.7397 7.95179H20.033H19.3264V7.33951C19.3264 7.00269 19.3512 6.70246 19.3814 6.67221C19.4117 6.64188 19.7194 6.62726 20.0654 6.63961L20.6943 6.66204L20.717 7.30692ZM20.6943 21.3182V33.3168H20.0299H19.3655L19.3454 21.3964C19.3344 14.8402 19.3426 9.43062 19.3637 9.37512C19.3918 9.30133 19.5754 9.28038 20.0482 9.29695L20.6943 9.3197V21.3182ZM11.2421 17.2731L14.2959 23.9368L11.189 23.9572C9.48017 23.9685 6.65759 23.9685 4.91643 23.9572L1.75077 23.9368L4.80457 17.2731C7.44582 11.5096 7.88066 10.6094 8.02339 10.6094C8.16604 10.6094 8.60088 11.5096 11.2421 17.2731ZM35.2552 17.2731L38.309 23.9368L35.1434 23.9572C33.4022 23.9685 30.5796 23.9685 28.8708 23.9572L25.7639 23.9368L28.8177 17.2731C31.4589 11.5096 31.8938 10.6094 32.0364 10.6094C32.1791 10.6094 32.614 11.5096 35.2552 17.2731ZM14.597 25.4806C14.3346 26.4054 13.4869 27.3793 12.6384 27.7309L12.1742 27.9233L8.16995 27.9456C3.68484 27.9704 3.70485 27.9724 2.85596 27.4237C2.21477 27.0093 1.64439 26.2228 1.47508 25.5197L1.42333 25.3047H8.03511H14.647L14.597 25.4806ZM38.5847 25.5197C38.4154 26.2228 37.845 27.0093 37.2038 27.4237C36.3549 27.9724 36.375 27.9704 31.8898 27.9456L27.8856 27.9233L27.4214 27.7309C26.5729 27.3793 25.7252 26.4054 25.4628 25.4806L25.4128 25.3047H32.0247H38.6365L38.5847 25.5197ZM21.7496 35.3491L22.4105 36.0135H20.0299H17.6493L18.3102 35.3491L18.9712 34.6847H20.0299H21.0886L21.7496 35.3491ZM27.3073 37.4326C27.8248 37.6085 28.344 38.0821 28.515 38.5344C28.5641 38.6641 28.1279 38.6712 20.0299 38.6712C11.9319 38.6712 11.4957 38.6641 11.5448 38.5344C11.7122 38.0916 12.1958 37.6409 12.7126 37.446C13.0582 37.3156 26.9255 37.3029 27.3073 37.4326Z" fill="#B68C5A"/>
</svg>
