<svg width="32" height="40" viewBox="0 0 32 40" fill="none" xmlns="http://www.w3.org/2000/svg">
<path fill-rule="evenodd" clip-rule="evenodd" d="M14.1919 0.0515893C11.0532 0.545228 8.50651 2.44746 7.156 5.30711C6.96029 5.72133 6.73772 6.30335 6.66137 6.60037C6.53306 7.0995 6.499 7.15116 6.2128 7.28143C5.81851 7.46093 5.33196 8.01648 5.21052 8.42577C5.08893 8.83547 5.08893 10.4686 5.21052 10.8783C5.32533 11.2652 5.82371 11.8538 6.15308 11.9916L6.39564 12.093V12.8003V13.5077L5.9549 13.5632C5.35499 13.6389 4.49373 14.0883 4.07986 14.5417C3.89502 14.7441 3.62992 15.1524 3.49082 15.4488C3.26201 15.9364 3.23779 16.0613 3.23779 16.7548C3.23779 17.4482 3.26201 17.5731 3.49082 18.0607C4.00663 19.1599 4.98116 19.8598 6.13158 19.9573L6.7035 20.0057L6.9108 20.6769C7.19501 21.5972 7.89749 22.9845 8.48797 23.7913C8.75818 24.1606 9.31652 24.7945 9.72864 25.1999L10.478 25.9369L10.0957 25.9913C9.0308 26.143 7.3027 26.7576 6.25221 27.3585C3.28376 29.0562 1.13403 31.9055 0.364951 35.1616C0.0942556 36.3076 0 37.167 0 38.4882C0 39.565 0.00679552 39.6106 0.196266 39.8018L0.392452 40H15.9891H31.5857L31.7929 39.7909L32 39.5817L31.9543 38.0354C31.9211 36.9114 31.8623 36.2686 31.7387 35.6819C31.2135 33.1879 30.1466 31.1965 28.3859 29.4239C26.6249 27.6509 24.5059 26.4954 22.2122 26.0573L21.52 25.9251L22.2599 25.194C22.6669 24.7918 23.2236 24.1541 23.4971 23.7768C24.0975 22.9483 24.7852 21.5909 25.0674 20.6769L25.2747 20.0057L25.8466 19.9573C26.997 19.8598 27.9715 19.1599 28.4874 18.0607C28.7162 17.5731 28.7404 17.4482 28.7404 16.7548C28.7404 16.0613 28.7162 15.9364 28.4874 15.4488C28.3483 15.1524 28.0832 14.7441 27.8983 14.5417C27.4844 14.0883 26.6232 13.6389 26.0233 13.5632L25.5825 13.5077V12.796C25.5825 12.1477 25.5972 12.0796 25.7477 12.0314C26.0438 11.9364 26.4833 11.4779 26.6737 11.0651C26.8358 10.7136 26.8602 10.5361 26.8609 9.70176C26.8613 9.17422 26.8194 8.60003 26.7677 8.42577C26.6462 8.01648 26.1597 7.46093 25.7654 7.28143C25.479 7.15107 25.4452 7.09966 25.3173 6.60037C25.1343 5.88607 24.5068 4.59297 23.978 3.84073C22.7127 2.04035 20.7315 0.707541 18.5629 0.197679C18.0213 0.0703147 17.5146 0.0278598 16.2689 0.00534093C15.3895 -0.0105595 14.4549 0.0102644 14.1919 0.0515893ZM18.4014 1.4865C21.0111 2.18959 23.0758 4.05478 23.9335 6.48407L24.1401 7.06923H15.9929H7.84585L7.91012 6.84727C8.23006 5.74232 8.92695 4.5899 9.83041 3.67179C10.8605 2.62495 11.8858 1.99644 13.231 1.58747C14.1208 1.31684 14.6501 1.26583 16.2689 1.29432C17.4851 1.31579 17.9102 1.35413 18.4014 1.4865ZM25.3863 8.55878C25.571 8.74531 25.5825 8.80924 25.5825 9.65204C25.5825 10.4948 25.571 10.5588 25.3863 10.7453L25.1901 10.9434H15.9891H6.78809L6.5919 10.7453C6.40715 10.5588 6.39564 10.4948 6.39564 9.65204C6.39564 8.80924 6.40715 8.74531 6.5919 8.55878L6.78809 8.36063H15.9891H25.1901L25.3863 8.55878ZM24.3034 12.8805V13.5262H15.9891H7.67476V12.8805V12.2348H15.9891H24.3034V12.8805ZM6.39651 16.4521C6.39699 17.351 6.4197 18.2228 6.44696 18.3892C6.49205 18.6646 6.48022 18.6919 6.31545 18.6919C5.40551 18.6919 4.47694 17.7135 4.47694 16.7548C4.47694 15.8321 5.34819 14.8656 6.21576 14.8259L6.39564 14.8176L6.39651 16.4521ZM24.2889 16.6397L24.2634 18.4618L23.464 19.248C22.9315 19.7716 22.5178 20.1036 22.2248 20.2422C20.7347 20.9472 18.9872 20.6416 17.6492 19.4418C17.0818 18.933 16.6302 18.7429 15.9891 18.7429C15.348 18.7429 14.8964 18.933 14.3289 19.4418C12.991 20.6416 11.2434 20.9472 9.75334 20.2422C9.46042 20.1036 9.04671 19.7716 8.51419 19.248L7.71473 18.4618L7.68923 16.6397L7.66381 14.8176H15.9891H24.3144L24.2889 16.6397ZM26.1729 14.9158C26.8599 15.1207 27.5012 16.0086 27.5012 16.7548C27.5012 17.7135 26.5727 18.6919 25.6627 18.6919C25.498 18.6919 25.4861 18.6646 25.5312 18.3892C25.5585 18.2228 25.5812 17.351 25.5817 16.4521C25.5826 14.6249 25.543 14.7279 26.1729 14.9158ZM9.78972 15.6615C9.60928 15.8436 9.59345 15.9205 9.59345 16.6154C9.59345 17.6793 9.74047 18.1244 10.2678 18.6567C11.1727 19.5703 12.4912 19.5703 13.3961 18.6567C13.8723 18.1759 14.0704 17.6711 14.0704 16.9382C14.0704 16.2368 14.0059 16.2015 11.9918 15.8032C11.0465 15.6162 10.2084 15.4633 10.1295 15.4633C10.0505 15.4633 9.89764 15.5525 9.78972 15.6615ZM19.8701 15.826C17.9468 16.2238 17.9078 16.2462 17.9078 16.9508C17.9078 17.6712 18.1083 18.1784 18.5821 18.6567C19.487 19.5703 20.8055 19.5703 21.7104 18.6567C22.2377 18.1244 22.3847 17.6793 22.3847 16.6154C22.3847 15.9205 22.3689 15.8436 22.1885 15.6615C22.0669 15.5387 21.9074 15.4664 21.7687 15.4714C21.6459 15.4759 20.7915 15.6354 19.8701 15.826ZM11.8519 17.0888C12.8193 17.2833 12.8886 17.3602 12.4662 17.7687C12.263 17.9653 12.154 18.0058 11.8282 18.0058C11.4968 18.0058 11.3971 17.9673 11.1915 17.7596C10.9584 17.5243 10.7643 16.9163 10.9221 16.9161C10.9608 16.9161 11.3793 16.9938 11.8519 17.0888ZM21.0785 17.2148C21.0497 17.394 20.933 17.612 20.7867 17.7596C20.5811 17.9673 20.4814 18.0058 20.1499 18.0058C19.8242 18.0058 19.7152 17.9653 19.512 17.7687C19.0975 17.3678 19.1639 17.2908 20.0863 17.1025C21.2065 16.8736 21.1347 16.8654 21.0785 17.2148ZM16.3334 20.0772C16.429 20.1289 16.7104 20.3418 16.9584 20.5502C17.9286 21.3654 19.0297 21.8141 20.2468 21.8903C21.2221 21.9514 21.9752 21.7907 22.8844 21.3276C23.2692 21.1316 23.5839 20.9883 23.5839 21.0092C23.5839 21.0301 23.4167 21.3742 23.2122 21.7737C22.4697 23.2252 21.6558 24.1445 20.0263 25.372C18.2652 26.6986 17.4743 27.0282 16.0291 27.0376C14.5976 27.047 13.747 26.7062 12.0449 25.4417C10.376 24.2018 9.51575 23.2395 8.76594 21.7737C8.56152 21.3742 8.39427 21.0301 8.39427 21.0092C8.39427 20.9883 8.7091 21.1316 9.09379 21.3276C10.003 21.7907 10.7561 21.9514 11.7314 21.8903C12.9472 21.8142 14.0475 21.3662 15.019 20.5516C15.7309 19.9548 15.9563 19.8735 16.3334 20.0772ZM11.7102 27.6913C12.115 29.1341 13.2657 30.3213 14.6862 30.7617C16.2117 31.2346 17.9809 30.7927 19.105 29.6578C19.695 29.0622 19.9622 28.6175 20.2356 27.7766L20.4448 27.1329L20.8352 27.1548C21.5305 27.1938 22.8042 27.4932 23.6638 27.8196C26.1833 28.7763 28.2749 30.6699 29.5039 33.1071C30.2235 34.5339 30.6018 36.0089 30.6769 37.6795L30.7232 38.7086H28.1529H25.5825V36.4486V34.1887H24.943H24.3034V36.4486V38.7086H15.9891H7.67476V36.4486V34.1887H7.0352H6.39564V36.4486V38.7086H3.82507H1.2545L1.30575 37.6392C1.36347 36.4365 1.54806 35.4598 1.91973 34.3905C3.11531 30.9512 6.0932 28.2532 9.62959 27.4052C10.3651 27.2288 11.4425 27.0904 11.5233 27.1618C11.5514 27.1867 11.6355 27.425 11.7102 27.6913ZM13.9123 28.0208C15.3036 28.5223 17.0939 28.4702 18.4367 27.8891C18.6419 27.8003 18.8271 27.7451 18.8482 27.7664C18.9237 27.8427 18.47 28.5177 18.1419 28.8169C17.9581 28.9846 17.5693 29.2358 17.278 29.3751C16.8001 29.6037 16.6746 29.6284 15.9891 29.6284C15.3054 29.6284 15.1774 29.6034 14.7062 29.378C14.0827 29.0797 13.6446 28.7093 13.3369 28.2203C13.0763 27.8063 13.054 27.6903 13.251 27.7736C13.3279 27.8062 13.6256 27.9174 13.9123 28.0208Z" fill="#B68C5A"/>
</svg>
