<svg width="42" height="50" viewBox="0 0 42 50" fill="none" xmlns="http://www.w3.org/2000/svg">
<path fill-rule="evenodd" clip-rule="evenodd" d="M12.0703 0.158944C11.1174 0.492039 10.2991 1.38453 10.082 2.32763C10.0262 2.56946 9.98065 3.69069 9.98045 4.81925C9.98026 7.20788 10.0508 7.48968 10.7683 7.96397L11.1846 8.23912L17.0628 8.26902C21.0766 8.28944 23.0559 8.26531 23.3035 8.1931C23.7423 8.0651 24.2161 7.68266 24.4173 7.29416C24.4989 7.13665 24.5921 6.63481 24.6243 6.17899L24.6829 5.3504L28.6288 5.37796L32.5748 5.40551L32.8317 5.6621C33.0397 5.86993 33.0912 6.01845 33.1029 6.44379C33.1144 6.86638 33.0886 6.96165 32.9705 6.93175C32.8898 6.91133 32.2733 6.87401 31.6006 6.84889C28.9985 6.75157 26.8139 7.57127 24.9281 9.35263C21.0359 13.0291 20.9326 18.9502 24.6952 22.7073C26.7655 24.7748 29.6107 25.7341 32.5562 25.3578L33.1694 25.2796L33.1433 36.6271L33.1173 47.9745L32.7977 48.2596L32.4781 48.5447H17.3572C0.915608 48.5447 1.83823 48.576 1.58 48.0101C1.49047 47.814 1.46307 42.8693 1.46307 26.9412C1.46307 4.29836 1.42726 5.73333 1.99851 5.47342C2.17737 5.39203 3.0632 5.35666 4.92429 5.35666C7.58784 5.35666 7.59391 5.35617 7.80624 5.13056C8.09001 4.82883 8.07748 4.42909 7.77464 4.12668L7.53031 3.88269L4.66499 3.91123C1.81044 3.93976 1.79782 3.94083 1.31425 4.18951C0.767758 4.47052 0.248864 5.08395 0.0976874 5.6278C0.0292909 5.87355 -0.00231456 12.8163 0.000131674 26.9996C0.00326285 44.2953 0.02704 48.0721 0.134968 48.3739C0.328122 48.9144 0.724998 49.3847 1.24624 49.6907L1.7077 49.9615L17.1145 49.9871C34.2216 50.0156 33.0781 50.0583 33.7925 49.3654C33.9872 49.1767 34.2451 48.8379 34.3656 48.6125L34.585 48.2027L34.6117 36.5222L34.6385 24.8416L35.3945 24.4691C37.2693 23.5456 38.8683 21.9251 39.726 20.0795C40.1268 19.217 40.4776 17.9258 40.5555 17.0261C40.6163 16.3218 40.6031 16.227 40.4098 15.9827C40.2535 15.7851 40.1102 15.714 39.8689 15.714C39.3944 15.714 39.1788 16.0352 39.1017 16.8568C38.8442 19.6007 37.1019 22.0759 34.6075 23.2415C33.0518 23.9685 30.9781 24.1641 29.3554 23.7371C27.4279 23.2298 25.751 22.034 24.708 20.4229C23.8149 19.0435 23.4484 17.7901 23.4453 16.1048C23.4414 13.9227 24.147 12.2306 25.7297 10.6263C26.7012 9.64146 27.5368 9.11744 28.8608 8.6626C29.7425 8.35979 29.8636 8.34328 31.2092 8.34191C32.8429 8.34035 33.4387 8.466 34.6829 9.07464C36.0643 9.75041 36.2125 9.39816 33.3395 12.2671L30.8271 14.776L29.4258 13.4052C28.2845 12.2887 27.9355 12.0041 27.5446 11.8711C26.3709 11.4718 25.1925 11.9093 24.6304 12.9533C24.2736 13.616 24.2128 14.127 24.41 14.8065C24.5671 15.3482 24.675 15.4735 26.9841 17.7923C28.5013 19.316 29.5425 20.2842 29.7944 20.406C30.3358 20.6677 31.2992 20.6681 31.8388 20.4069C32.1014 20.2797 33.8537 18.5946 36.9952 15.4481C42.1215 10.3135 42.0018 10.4577 41.9994 9.41673C41.9965 8.10164 40.9652 7.08584 39.6242 7.07705C38.827 7.07187 38.348 7.30647 37.5045 8.11522L36.8976 8.69719L36.4752 8.40777C36.2429 8.2486 35.7399 7.96123 35.3575 7.76933L34.6622 7.4204L34.6111 6.60833C34.5321 5.35138 34.131 4.64562 33.2151 4.1511C32.8345 3.94562 32.712 3.93907 28.7522 3.91142L24.6807 3.88299L24.6164 3.17859C24.581 2.79117 24.4837 2.26666 24.4001 2.013C24.2053 1.42176 23.495 0.632645 22.8537 0.294761L22.3539 0.0314315L17.4614 0.00798093C12.981 -0.0134177 12.527 -0.000715304 12.0703 0.158944ZM22.3713 1.7015C22.5231 1.81397 22.7473 2.05248 22.8694 2.23168C23.0856 2.54885 23.0908 2.61343 23.0651 4.66545L23.0388 6.77346L17.3745 6.79867C13.2725 6.81694 11.6735 6.79349 11.577 6.71347C11.4727 6.62699 11.4437 6.18309 11.4437 4.6761C11.4437 2.85312 11.4558 2.72629 11.669 2.32372C11.8239 2.03127 12.0291 1.82706 12.3255 1.67053L12.7567 1.44286L17.4259 1.46993C21.9885 1.4965 22.1014 1.50178 22.3713 1.7015ZM40.2231 8.73832C40.4702 8.96169 40.5829 9.3668 40.4917 9.70478C40.4363 9.91026 39.043 11.3641 35.833 14.5659L31.2532 19.1339H30.8203H30.3873L28.157 16.9145C25.8625 14.6312 25.6305 14.3259 25.8172 13.8355C25.9487 13.4903 26.3878 13.1735 26.735 13.1735C26.9842 13.1735 27.2925 13.4331 28.7657 14.8834C30.3107 16.4044 30.5384 16.5934 30.8264 16.5934C31.1222 16.5934 31.4985 16.2471 35.1671 12.5987C37.3764 10.4016 39.25 8.57866 39.3307 8.54779C39.5534 8.46249 40.0307 8.5644 40.2231 8.73832ZM4.22134 11.0277C4.08162 11.1576 4.00715 11.3431 4.00715 11.5613C4.00715 11.7795 4.08162 11.9649 4.22134 12.0949C4.42614 12.2855 4.55335 12.2941 7.16122 12.2941H9.88701L10.1271 12.0542C10.2592 11.9223 10.3673 11.7005 10.3673 11.5613C10.3673 11.422 10.2592 11.2002 10.1271 11.0683L9.88701 10.8285H7.16122C4.55335 10.8285 4.42614 10.837 4.22134 11.0277ZM5.40874 17.9006C4.51333 18.1932 3.95793 18.6916 3.56037 19.5596C3.32916 20.0644 3.30342 20.2212 3.34217 20.8898C3.39697 21.8347 3.74981 22.5269 4.44747 23.0581C5.95817 24.2085 8.02024 23.7101 8.9592 21.9675C9.10079 21.7048 9.14345 21.4215 9.14316 20.7461C9.14277 19.7807 8.99609 19.3752 8.40303 18.7008C7.75595 17.9647 6.3569 17.5909 5.40874 17.9006ZM10.5129 18.6466C10.2687 18.9162 10.2858 19.389 10.5493 19.6523C10.7632 19.8659 10.781 19.8668 15.238 19.8957C17.6987 19.9116 19.8552 19.8986 20.0303 19.8668C20.4073 19.7982 20.7394 19.4753 20.7394 19.1774C20.7394 19.0605 20.6481 18.8489 20.5365 18.7073L20.3338 18.4499H15.5125C10.8052 18.4499 10.687 18.4546 10.5129 18.6466ZM6.98138 19.453C7.61426 19.8154 7.9221 20.7187 7.61563 21.3144C7.0986 22.3193 5.94985 22.515 5.18624 21.7282C4.91206 21.4457 4.84787 21.2961 4.81108 20.8528C4.77517 20.4203 4.80815 20.2512 4.98359 19.9677C5.41207 19.2754 6.28038 19.0518 6.98138 19.453ZM10.8042 21.8651C10.3291 22.0574 10.1772 22.6705 10.5129 23.041C10.687 23.233 10.8052 23.2377 15.5125 23.2377H20.3338L20.5365 22.9802C20.8659 22.5622 20.7684 22.1449 20.281 21.8857C20.0292 21.7517 11.1321 21.7324 10.8042 21.8651ZM5.62166 26.8405C4.71744 27.0765 4.02594 27.6274 3.6227 28.4334C2.87005 29.9375 3.52485 31.7482 5.0785 32.459C5.40189 32.607 5.7248 32.6632 6.25768 32.6647C7.45223 32.668 8.33786 32.1239 8.9228 31.0274C9.10382 30.6879 9.14296 30.459 9.14355 29.7354C9.14413 28.9426 9.11566 28.8046 8.85401 28.3327C8.53101 27.7506 8.08952 27.3444 7.45663 27.0473C6.98646 26.8266 6.0703 26.7233 5.62166 26.8405ZM10.5129 27.5382C10.2435 27.8356 10.2833 28.3055 10.6011 28.5784L10.8676 28.8072H17.07H23.2725L23.5379 28.5792C23.8742 28.2904 23.8908 27.7711 23.572 27.5133C23.3742 27.3534 22.9229 27.3415 17.0254 27.3415C10.802 27.3415 10.6881 27.345 10.5129 27.5382ZM7.03196 28.4915C7.99059 29.2003 7.94421 30.4981 6.94135 31.0277C6.43362 31.2958 6.14124 31.3038 5.61237 31.0639C5.03369 30.8016 4.75452 30.3097 4.80932 29.6495C4.8603 29.0357 5.08721 28.6905 5.62166 28.4134C6.0839 28.1738 6.64429 28.2048 7.03196 28.4915ZM10.8912 30.7313C10.3556 30.836 10.1527 31.5674 10.5493 31.9638C10.7595 32.1738 10.8255 32.1788 13.7701 32.2085C15.4236 32.2251 16.9197 32.2121 17.0949 32.1796C17.9321 32.0239 18.0553 31.0612 17.2758 30.7652C17.0198 30.6681 11.3688 30.638 10.8912 30.7313ZM5.76061 35.7521C4.87008 35.8898 4.02467 36.5095 3.60098 37.3351C3.30871 37.9043 3.24393 38.9765 3.46223 39.6326C3.67163 40.2623 4.28358 40.957 4.92468 41.2929C5.35434 41.5182 5.54475 41.5557 6.25768 41.5559C6.93186 41.5561 7.16768 41.5146 7.50252 41.3368C8.16838 40.9834 8.61741 40.526 8.91488 39.8982C9.92752 37.7607 8.12151 35.3867 5.76061 35.7521ZM10.6311 36.3418C10.1952 36.5949 10.2505 37.3744 10.7193 37.5877C10.8909 37.6658 12.346 37.6989 15.6114 37.6989H20.259L20.4991 37.459C20.6312 37.3271 20.7394 37.1053 20.7394 36.966C20.7394 36.8268 20.6312 36.605 20.4991 36.4731L20.259 36.2332L15.5333 36.2361C12.4146 36.2381 10.7476 36.274 10.6311 36.3418ZM6.74693 37.2627C7.30751 37.4181 7.72542 38.0344 7.72542 38.7055C7.72542 39.7698 6.55123 40.4605 5.5747 39.9704C4.60305 39.483 4.5102 38.1423 5.40141 37.4685C5.84133 37.1359 6.13038 37.0917 6.74693 37.2627ZM10.5576 39.8332C10.2351 40.094 10.2556 40.5931 10.6011 40.8899L10.8676 41.1187H17.07H23.2725L23.5379 40.8908C23.8742 40.6019 23.8908 40.0826 23.572 39.8248C23.3742 39.6649 22.9249 39.6531 17.07 39.6531C11.1034 39.6531 10.769 39.6624 10.5576 39.8332Z" fill="#B68C5A"/>
</svg>
