<svg width="40" height="40" viewBox="0 0 40 40" fill="none" xmlns="http://www.w3.org/2000/svg">
<path fill-rule="evenodd" clip-rule="evenodd" d="M18.5383 0.151596C18.1952 0.314913 17.943 0.677377 17.8689 1.114C17.8212 1.3948 17.7612 1.45538 17.2904 1.69727C17.0015 1.84576 16.7446 1.95883 16.7195 1.94858C16.6944 1.93833 16.5062 1.87201 16.3012 1.80118C15.835 1.64003 15.3853 1.73752 15.0613 2.07007C14.688 2.45311 13.8519 3.86272 13.8073 4.18427C13.7521 4.58148 13.9895 5.05669 14.3582 5.28733C14.6349 5.46048 14.6452 5.48631 14.6452 6.00851C14.6452 6.5307 14.6349 6.55653 14.3582 6.72968C13.9895 6.96033 13.7521 7.43561 13.8075 7.83241C13.8593 8.20428 14.8168 9.75404 15.1741 10.0445C15.5097 10.3175 16.1006 10.3564 16.5399 10.1345C16.7279 10.0395 16.8073 10.0581 17.2675 10.3046C17.7328 10.5537 17.7938 10.6181 17.8818 10.953C18.1179 11.8515 18.431 12.0079 19.9939 12.0079C21.5567 12.0079 21.8698 11.8515 22.1059 10.953C22.194 10.6181 22.2549 10.5537 22.7203 10.3046C23.2143 10.0399 23.2478 10.0335 23.4896 10.1559C23.8112 10.3187 24.4236 10.3117 24.6912 10.1423C24.9689 9.96644 25.2368 9.61073 25.7624 8.72007C26.0123 8.29636 26.2028 7.86949 26.2028 7.73275C26.2028 7.37054 25.9517 6.93116 25.6295 6.72968C25.3528 6.55653 25.3426 6.5307 25.3426 6.00851C25.3426 5.48631 25.3528 5.46048 25.6295 5.28733C25.9982 5.05669 26.2356 4.58148 26.1804 4.18427C26.1358 3.86272 25.2997 2.45311 24.9265 2.07007C24.6024 1.73752 24.1527 1.64003 23.6865 1.80118C23.4815 1.87201 23.2934 1.93833 23.2683 1.94858C23.2432 1.95883 22.9863 1.84576 22.6973 1.69727C22.2266 1.45538 22.1665 1.3948 22.1189 1.114C22.0435 0.670461 21.7886 0.310164 21.4355 0.148263C21.0007 -0.0511331 18.9592 -0.0488001 18.5383 0.151596ZM20.77 1.60328C20.77 2.03849 21.0754 2.4032 21.7062 2.72125C22.0213 2.88007 22.4143 3.08472 22.5795 3.17604C22.9345 3.37219 23.3352 3.38802 23.7461 3.22204L24.0434 3.10205L24.3885 3.65866L24.7335 4.21527L24.4747 4.411C24.0398 4.73988 23.9607 4.98578 23.9607 6.00851C23.9607 7.03124 24.0398 7.27713 24.4747 7.60601L24.7335 7.80174L24.3885 8.35835L24.0434 8.91496L23.7461 8.79498C23.3352 8.62899 22.9345 8.64482 22.5795 8.84097C22.4143 8.93229 22.0159 9.13961 21.6942 9.30159C21.0503 9.62606 20.7708 9.95944 20.7703 10.4039L20.77 10.6747H19.9939H19.2178V10.4137C19.2178 9.97852 18.9123 9.61381 18.2815 9.29576C17.9664 9.13694 17.5734 8.93229 17.4082 8.84097C17.0533 8.64482 16.6525 8.62899 16.2416 8.79498L15.9443 8.91496L15.5993 8.35835L15.2543 7.80174L15.513 7.60601C15.9479 7.27713 16.0271 7.03124 16.0271 6.00851C16.0271 4.98578 15.9479 4.73988 15.513 4.411L15.2543 4.21527L15.5993 3.65866L15.9443 3.10205L16.2416 3.22204C16.6525 3.38802 17.0533 3.37219 17.4082 3.17604C17.5734 3.08472 17.9664 2.88007 18.2815 2.72125C18.9123 2.4032 19.2178 2.03849 19.2178 1.60328V1.34231H19.9939H20.77V1.60328ZM27.8412 3.31903L27.4531 3.34927L27.4776 3.82481C27.523 4.7108 27.3708 4.63264 29.0662 4.64106C32.2596 4.65689 34.5757 5.4034 36.2818 6.96674C37.3406 7.93681 38.0148 9.06703 38.3792 10.483C38.6508 11.5377 38.6516 13.4288 38.3811 14.7273C37.8279 17.3834 36.4732 20.1209 34.3742 22.8239C34.0431 23.2504 33.7862 23.6092 33.8033 23.6214C33.8204 23.6336 34.0612 23.819 34.3384 24.0335L34.8421 24.4235L35.2312 23.9443C36.5703 22.2943 38.082 19.7595 38.8318 17.9065C39.5209 16.2036 40.0007 13.9932 40 12.5244C39.9983 8.5575 37.8021 5.46064 34.0188 4.09037C32.2375 3.44518 29.9263 3.15663 27.8412 3.31903ZM19.132 3.47601C17.8975 3.90947 17.1453 5.01119 17.2616 6.21549C17.3549 7.18089 17.838 7.88873 18.7154 8.34594C19.213 8.60516 19.3252 8.63024 19.9939 8.63141C20.6737 8.63258 20.7675 8.61108 21.2874 8.33477C23.2768 7.27738 23.2019 4.5359 21.158 3.59875C20.5951 3.34061 19.6762 3.28495 19.132 3.47601ZM20.5396 4.78896C21.4324 5.14943 21.6402 6.2509 20.9425 6.92508C20.372 7.47627 19.5996 7.48027 19.0351 6.93491C17.9687 5.90443 19.1454 4.2261 20.5396 4.78896ZM11.6291 9.64597C9.33021 11.3152 6.7086 13.7296 5.12896 15.6325C2.91299 18.302 1.20262 21.4104 0.506704 24.033C0.076049 25.656 -0.0401087 26.5679 0.0113733 27.9214C0.0608718 29.2242 0.197122 29.8738 0.667445 31.0502C1.4539 33.0175 3.05829 34.6716 5.11102 35.6316C5.79986 35.9537 7.31146 36.4501 7.38873 36.3795C7.42469 36.3467 7.74669 35.1403 7.72315 35.1268C7.7134 35.1213 7.31741 34.9991 6.84312 34.8553C5.39921 34.4176 3.96013 33.5044 3.07502 32.4642C2.54097 31.8366 1.86662 30.515 1.60818 29.5895C1.3255 28.5773 1.32688 26.528 1.61102 25.2566C2.45845 21.4647 4.91768 17.4866 8.61489 13.9268C9.84684 12.7407 11.5148 11.3611 12.6808 10.5639C13.0944 10.2812 13.4345 10.0196 13.4364 9.98269C13.4416 9.88637 12.7557 8.9248 12.6823 8.92538C12.6485 8.92571 12.1746 9.24993 11.6291 9.64597ZM12.0763 14.1329C10.1825 14.6458 9.39851 16.9194 10.6344 18.3146L10.9274 18.6453L10.4839 18.7551C9.92411 18.8938 9.21957 19.539 9.06073 20.0584C8.98872 20.2939 8.95587 21.1755 8.95587 22.8706V25.3399H7.44288H5.92981L5.70552 25.5566C5.48286 25.7718 5.48165 25.7803 5.53658 26.7101C5.84142 31.8671 8.9062 36.3489 13.6572 38.5854C19.2182 41.2032 25.8532 40.1219 30.2153 35.887C32.8202 33.3582 34.2401 30.2821 34.4512 26.7101C34.5061 25.7803 34.5049 25.7718 34.2822 25.5566L34.0579 25.3399H32.5449H31.0319V22.8706C31.0319 21.2191 30.9983 20.2931 30.9305 20.0743C30.8032 19.6639 30.2721 19.0732 29.8606 18.8845C29.6883 18.8055 29.3711 18.7164 29.1558 18.6866L28.7645 18.6322L28.9945 18.3683C29.427 17.8717 29.6064 17.3627 29.6064 16.6324C29.6064 15.808 29.4108 15.3497 28.8117 14.7709C27.4985 13.502 25.2406 13.8715 24.4182 15.4897C24.2143 15.891 24.1762 16.0706 24.1763 16.6324C24.1763 17.1818 24.2164 17.3796 24.4042 17.7573C24.5296 18.0094 24.7349 18.3188 24.8604 18.4448L25.0887 18.6739H24.7963C24.4379 18.6739 23.9962 18.8131 23.6804 19.0256C23.4465 19.183 23.44 19.1829 23.2061 19.0223C22.9693 18.8596 22.4636 18.6955 22.0718 18.6541L21.8645 18.6322L22.0951 18.3683C22.5278 17.8728 22.7077 17.3632 22.7077 16.6324C22.7077 15.808 22.512 15.3497 21.9129 14.7709C20.5998 13.502 18.3419 13.8715 17.5195 15.4897C17.3155 15.891 17.2775 16.0706 17.2776 16.6324C17.2776 17.1818 17.3177 17.3796 17.5055 17.7573C17.6309 18.0094 17.8361 18.3188 17.9617 18.4448L18.1899 18.6739H17.8975C17.5391 18.6739 17.0974 18.8131 16.7816 19.0256C16.548 19.1828 16.541 19.1828 16.3074 19.0256C15.9601 18.7919 15.5404 18.6739 15.0567 18.6739H14.6295L14.9096 18.3657C15.3652 17.8641 15.5443 17.387 15.5443 16.6741C15.5443 15.9226 15.352 15.4501 14.8183 14.8906C14.1367 14.1762 13.0378 13.8725 12.0763 14.1329ZM13.5146 15.5685C14.5677 16.3221 14.1831 17.8447 12.9045 17.984C11.8013 18.1041 11.0341 16.8962 11.6259 15.9709C12.0073 15.3746 12.96 15.1717 13.5146 15.5685ZM20.5396 15.4546C21.4324 15.815 21.6402 16.9165 20.9425 17.5907C20.372 18.1419 19.5996 18.1459 19.0351 17.6005C17.9687 16.57 19.1454 14.8917 20.5396 15.4546ZM27.4384 15.4546C28.3312 15.815 28.5389 16.9165 27.8412 17.5907C27.2708 18.1419 26.4984 18.1459 25.9339 17.6005C24.8675 16.57 26.0442 14.8917 27.4384 15.4546ZM15.6429 20.2117L15.8546 20.4161V22.8781V25.3399H13.0951H10.3356V22.8781V20.4161L10.5473 20.2117L10.7589 20.0071H13.0951H15.4313L15.6429 20.2117ZM22.5417 20.2117L22.7534 20.4161V22.8781V25.3399H19.9939H17.2344V22.8781V20.4161L17.4461 20.2117L17.6577 20.0071H19.9939H22.33L22.5417 20.2117ZM29.4404 20.2117L29.6521 20.4161V22.8781V25.3399H26.8926H24.1331V22.8781V20.4161L24.3448 20.2117L24.5564 20.0071H26.8926H29.2288L29.4404 20.2117ZM12.1779 27.6522C12.2097 28.1906 12.3137 29.1374 12.409 29.7561C12.5044 30.3748 12.5911 30.9512 12.6017 31.0369C12.618 31.17 12.4884 31.2215 11.7154 31.3896C11.2174 31.4979 10.3262 31.7396 9.73508 31.9268C8.48839 32.3216 8.61593 32.368 8.12129 31.3393C7.53834 30.1267 7.08932 28.5387 6.93729 27.1522L6.88477 26.6731H9.50251H12.1202L12.1779 27.6522ZM26.4615 27.1346C26.4615 27.7044 26.3231 28.9677 26.1517 29.9644C25.9582 31.089 26.0668 30.9912 25.1457 30.8707C23.6765 30.6785 22.0442 30.5894 19.9939 30.5894C17.9436 30.5894 16.3112 30.6785 14.8421 30.8707C13.9209 30.9912 14.0296 31.089 13.836 29.9644C13.6646 28.9677 13.5263 27.7044 13.5263 27.1346V26.6731H19.9939H26.4615V27.1346ZM33.0436 27.1522C32.9702 27.9247 32.6793 29.2419 32.4098 30.0219C32.1584 30.7496 31.4997 32.1408 31.3698 32.2184C31.3315 32.2412 30.8421 32.1134 30.2822 31.9343C29.7222 31.7552 28.876 31.5245 28.4017 31.4216C27.9274 31.3187 27.4882 31.2208 27.4256 31.204C27.3574 31.1857 27.3325 31.1108 27.3634 31.0168C27.4782 30.6673 27.7557 28.5772 27.8096 27.6565L27.8671 26.6731H30.4781H33.089L33.0436 27.1522ZM23.4582 32.046C24.2489 32.1134 25.0561 32.1933 25.2518 32.2235C25.5974 32.2769 25.606 32.286 25.5495 32.538C25.441 33.0222 24.8242 34.4607 24.4023 35.2139C24.0177 35.9007 23.9614 35.9629 23.7344 35.9527C23.598 35.9467 22.7005 35.8949 21.7401 35.8377C20.3457 35.7548 19.642 35.7548 18.2476 35.8377C17.2872 35.8949 16.3898 35.9467 16.2534 35.9527C16.0263 35.9629 15.9701 35.9007 15.5854 35.2139C15.1635 34.4607 14.5468 33.0222 14.4382 32.5379L14.3801 32.2784L15.182 32.179C17.4067 31.9033 21.0897 31.8441 23.4582 32.046ZM13.2881 33.4227C13.4654 33.9269 13.8109 34.7522 14.0559 35.2569C14.3008 35.7615 14.4856 36.1852 14.4665 36.1985C14.4474 36.2117 14.0631 36.301 13.6125 36.3969L12.7933 36.5713L12.2328 36.1867C11.5398 35.7114 10.323 34.5877 9.7857 33.9268L9.38299 33.4315L10.1826 33.184C11.179 32.8757 12.3497 32.5862 12.8795 32.5173C12.927 32.5112 13.1108 32.9185 13.2881 33.4227ZM28.0571 32.708C28.5316 32.8191 29.2994 33.0275 29.7635 33.1711L30.6072 33.4322L30.3268 33.7815C29.4788 34.8379 27.3603 36.6521 27.0911 36.5523C27.0256 36.528 26.6438 36.4429 26.2424 36.363C25.8412 36.2832 25.5129 36.1944 25.5129 36.1656C25.5129 36.1369 25.7065 35.7169 25.943 35.2323C26.1796 34.7477 26.5191 33.936 26.6976 33.4287C26.876 32.9212 27.0608 32.5061 27.1082 32.5061C27.1556 32.5061 27.5827 32.5969 28.0571 32.708ZM22.0218 37.1762C23.3375 37.2598 25.1559 37.4658 25.2327 37.5402C25.3429 37.6466 23.6854 38.1841 22.473 38.4352C21.2085 38.697 18.7863 38.6985 17.5306 38.4382C16.6443 38.2546 15.6523 37.964 15.0354 37.7073L14.6905 37.5637L14.9338 37.4985C15.204 37.426 17.504 37.1859 18.3123 37.1459C19.544 37.0848 20.7355 37.0945 22.0218 37.1762Z" fill="#B68C5A"/>
</svg>
