<svg width="40" height="40" viewBox="0 0 40 40" fill="none" xmlns="http://www.w3.org/2000/svg">
<path fill-rule="evenodd" clip-rule="evenodd" d="M10.8984 4.93298C6 7.64368 1.78125 9.93847 1.52344 10.0325C0.869141 10.271 0.753438 10.3427 0.449141 10.6982C-0.15875 11.4086 -0.146406 12.3654 0.479844 13.077C0.642656 13.262 0.882578 13.4575 1.01297 13.5115L1.25 13.6097V15.3687C1.25 16.4909 1.28328 17.2388 1.34188 17.4344C1.45406 17.8089 1.94109 18.3787 2.26297 18.5121L2.5 18.6103V26.2484V33.8866L2.26297 33.9848C1.94109 34.1182 1.45406 34.688 1.34188 35.0625C1.29133 35.2312 1.25 35.5982 1.25 35.878C1.25 36.3711 1.24266 36.3899 1.01297 36.4851C0.691094 36.6184 0.204062 37.1883 0.091875 37.5628C0.0413281 37.7315 0 38.2625 0 38.7429C0 39.5662 0.0110156 39.6275 0.191797 39.8082L0.383516 40H20H39.6165L39.8082 39.8082C39.989 39.6275 40 39.5662 40 38.7429C40 38.2625 39.9587 37.7315 39.9081 37.5628C39.7959 37.1883 39.3089 36.6184 38.987 36.4851C38.7573 36.3899 38.75 36.3711 38.75 35.878C38.75 35.5982 38.7087 35.2312 38.6581 35.0625C38.5459 34.688 38.0589 34.1182 37.737 33.9848L37.5 33.8866V26.2442V18.6019L37.6614 18.5506C37.9508 18.4587 38.3802 18.0149 38.5663 17.6152C38.7405 17.2411 38.7485 17.1449 38.7492 15.4168L38.75 13.6097L38.987 13.5115C39.5122 13.294 40 12.5043 40 11.8718C40 11.0388 39.3526 10.251 38.4997 10.0461C38.3835 10.0182 34.2109 7.74541 29.2274 4.99541C24.2439 2.24549 20.085 -0.0024982 19.9855 2.08365e-06C19.8861 0.00242423 15.7969 2.22229 10.8984 4.93298ZM27.8474 5.66017L35.632 9.95754L27.816 9.97746C23.5172 9.9884 16.4848 9.9884 12.1884 9.97746L4.37672 9.95754L12.1688 5.64877C16.4545 3.27897 19.9838 1.34515 20.0119 1.35141C20.0398 1.35766 23.5659 3.29663 27.8474 5.66017ZM15.5133 5.38506C11.0041 7.75447 10.937 7.79753 11.0502 8.24828C11.1181 8.51917 11.3729 8.74646 11.6085 8.74646C11.722 8.74646 13.6112 7.80253 15.9074 6.59864L20.0039 4.45082L24.0997 6.59864C26.3523 7.77995 28.2851 8.74646 28.3946 8.74646C28.6274 8.74646 28.8822 8.51792 28.9498 8.24828C29.0638 7.79417 29.0008 7.75377 24.4695 5.37835C22.1009 4.13672 20.0823 3.12293 19.9838 3.12543C19.8853 3.12801 17.8736 4.14477 15.5133 5.38506ZM38.5582 11.4386C38.812 11.6923 38.812 12.0514 38.5582 12.3051L38.3665 12.4969H35.625H32.8835L32.6918 12.6887C32.438 12.9424 32.438 13.3015 32.6918 13.5552L32.8835 13.747H35.1918H37.5V14.3721V14.9972H20H2.5V14.3721V13.747H16.6832H30.8665L31.0582 13.5552C31.312 13.3015 31.312 12.9424 31.0582 12.6887L30.8665 12.4969H16.25H1.63352L1.4418 12.3051C1.32086 12.1842 1.25 12.024 1.25 11.8718C1.25 11.7196 1.32086 11.5594 1.4418 11.4386L1.63352 11.2467H20H38.3665L38.5582 11.4386ZM6.25 16.6806C6.25 17.0365 6.2157 17.1482 6.0582 17.3056C5.86805 17.4959 5.85438 17.4975 4.375 17.4975C2.89562 17.4975 2.88195 17.4959 2.6918 17.3056C2.5343 17.1482 2.5 17.0365 2.5 16.6806V16.2473H4.375H6.25V16.6806ZM8.75 16.6875C8.75 16.9297 8.79133 17.2657 8.84188 17.4344C8.95406 17.8089 9.44109 18.3787 9.76297 18.5121L10 18.6103V26.2484V33.8866L9.76297 33.9848C9.44109 34.1182 8.95406 34.688 8.84188 35.0625C8.79133 35.2312 8.75 35.5672 8.75 35.8094V36.2496H8.125H7.5V35.8094C7.5 35.5672 7.45867 35.2312 7.40812 35.0625C7.29594 34.688 6.80891 34.1182 6.48703 33.9848L6.25 33.8866V32.7596C6.25 31.6672 6.24414 31.6267 6.0582 31.4408C5.80453 31.187 5.44547 31.187 5.1918 31.4408C5.00703 31.6255 5 31.6714 5 32.691V33.7493H4.375H3.75V26.2484V18.7476H4.375H5V24.1814V29.6153L5.1918 29.8071C5.31266 29.928 5.47281 29.9989 5.625 29.9989C5.77719 29.9989 5.93734 29.928 6.0582 29.8071L6.25 29.6153V24.1086C6.25 18.6121 6.25031 18.6018 6.41141 18.5506C6.70078 18.4587 7.13023 18.0149 7.31633 17.6152C7.44547 17.3377 7.49867 17.0819 7.49922 16.7356L7.5 16.2473H8.125H8.75V16.6875ZM13.75 16.6806C13.75 17.0365 13.7157 17.1482 13.5582 17.3056C13.368 17.4959 13.3544 17.4975 11.875 17.4975C10.3956 17.4975 10.382 17.4959 10.1918 17.3056C10.0343 17.1482 10 17.0365 10 16.6806V16.2473H11.875H13.75V16.6806ZM25 16.6875C25 16.9297 25.0413 17.2657 25.0919 17.4344C25.2041 17.8089 25.6911 18.3787 26.013 18.5121L26.25 18.6103V26.2484V33.8866L26.013 33.9848C25.6911 34.1182 25.2041 34.688 25.0919 35.0625C25.0413 35.2312 25 35.5672 25 35.8094V36.2496H24.6875H24.375V29.9302V23.6109L24.612 23.5127C25.1372 23.2951 25.625 22.5054 25.625 21.8729C25.625 21.1506 24.9983 20.2911 24.3269 20.0927C23.8695 19.9577 16.1305 19.9577 15.6731 20.0927C15.0017 20.2911 14.375 21.1506 14.375 21.8729C14.375 22.5054 14.8628 23.2951 15.388 23.5127L15.625 23.6109V29.9302V36.2496H15.3125H15V35.8094C15 35.5672 14.9587 35.2312 14.9081 35.0625C14.7959 34.688 14.3089 34.1182 13.987 33.9848L13.75 33.8866V26.2442V18.6019L13.9114 18.5506C14.2008 18.4587 14.6302 18.0149 14.8163 17.6152C14.9455 17.3377 14.9987 17.0819 14.9992 16.7356L15 16.2473H20H25V16.6875ZM30 16.6806C30 17.0365 29.9657 17.1482 29.8082 17.3056C29.618 17.4959 29.6044 17.4975 28.125 17.4975C26.6456 17.4975 26.632 17.4959 26.4418 17.3056C26.2843 17.1482 26.25 17.0365 26.25 16.6806V16.2473H28.125H30V16.6806ZM32.5 16.6875C32.5 16.9297 32.5413 17.2657 32.5919 17.4344C32.7041 17.8089 33.1911 18.3787 33.513 18.5121L33.75 18.6103V19.7373C33.75 20.8297 33.7559 20.8702 33.9418 21.0561C34.0627 21.177 34.2228 21.2479 34.375 21.2479C34.5272 21.2479 34.6873 21.177 34.8082 21.0561C34.993 20.8714 35 20.8255 35 19.8059V18.7476H35.625H36.25V26.2484V33.7493H35.625H35V28.3155V22.8816L34.8082 22.6898C34.6873 22.5689 34.5272 22.498 34.375 22.498C34.2228 22.498 34.0627 22.5689 33.9418 22.6898L33.75 22.8816V28.3841V33.8866L33.513 33.9848C33.1911 34.1182 32.7041 34.688 32.5919 35.0625C32.5413 35.2312 32.5 35.5672 32.5 35.8094V36.2496H31.875H31.25V35.8094C31.25 35.5672 31.2087 35.2312 31.1581 35.0625C31.0459 34.688 30.5589 34.1182 30.237 33.9848L30 33.8866V26.2442V18.6019L30.1614 18.5506C30.4508 18.4587 30.8802 18.0149 31.0663 17.6152C31.1955 17.3377 31.2487 17.0819 31.2492 16.7356L31.25 16.2473H31.875H32.5V16.6875ZM37.5 16.6806C37.5 17.0365 37.4657 17.1482 37.3082 17.3056C37.118 17.4959 37.1044 17.4975 35.625 17.4975C34.1456 17.4975 34.132 17.4959 33.9418 17.3056C33.7843 17.1482 33.75 17.0365 33.75 16.6806V16.2473H35.625H37.5V16.6806ZM12.5 26.2484V33.7493H11.875H11.25V26.2484V18.7476H11.875H12.5V26.2484ZM28.75 26.2484V33.7493H28.125H27.5V26.2484V18.7476H28.125H28.75V26.2484ZM24.1832 21.4397C24.3041 21.5606 24.375 21.7207 24.375 21.8729C24.375 22.0252 24.3041 22.1853 24.1832 22.3062C24.0027 22.4868 23.9408 22.498 23.125 22.498C22.3092 22.498 22.2473 22.5093 22.0668 22.6898C21.9459 22.8107 21.875 22.9709 21.875 23.1231C21.875 23.522 22.1705 23.7482 22.6918 23.7482H23.125V29.9989V36.2496H20H16.875V29.9989V23.7482H18.5582C20.2412 23.7482 20.2415 23.7482 20.4332 23.5563C20.687 23.3026 20.687 22.9435 20.4332 22.6898L20.2415 22.498H18.125H16.0085L15.8168 22.3062C15.6959 22.1853 15.625 22.0252 15.625 21.8729C15.625 21.7207 15.6959 21.5606 15.8168 21.4397L16.0085 21.2479H20H23.9915L24.1832 21.4397ZM6.0582 35.1913C6.2157 35.3487 6.25 35.4604 6.25 35.8163V36.2496H4.375H2.5V35.8163C2.5 35.4604 2.5343 35.3487 2.6918 35.1913C2.88195 35.001 2.89562 34.9994 4.375 34.9994C5.85438 34.9994 5.86805 35.001 6.0582 35.1913ZM13.5582 35.1913C13.7157 35.3487 13.75 35.4604 13.75 35.8163V36.2496H11.875H10V35.8163C10 35.4604 10.0343 35.3487 10.1918 35.1913C10.382 35.001 10.3956 34.9994 11.875 34.9994C13.3544 34.9994 13.368 35.001 13.5582 35.1913ZM29.8082 35.1913C29.9657 35.3487 30 35.4604 30 35.8163V36.2496H28.125H26.25V35.8163C26.25 35.4604 26.2843 35.3487 26.4418 35.1913C26.632 35.001 26.6456 34.9994 28.125 34.9994C29.6044 34.9994 29.618 35.001 29.8082 35.1913ZM37.3082 35.1913C37.4657 35.3487 37.5 35.4604 37.5 35.8163V36.2496H35.625H33.75V35.8163C33.75 35.4604 33.7843 35.3487 33.9418 35.1913C34.132 35.001 34.1456 34.9994 35.625 34.9994C37.1044 34.9994 37.118 35.001 37.3082 35.1913ZM38.5582 37.6915C38.7157 37.849 38.75 37.9607 38.75 38.3166V38.7499H20H1.25V38.3166C1.25 37.9607 1.2843 37.849 1.4418 37.6915L1.63352 37.4997H20H38.3665L38.5582 37.6915Z" fill="#B68C5A"/>
</svg>
