<svg width="36" height="40" viewBox="0 0 36 40" fill="none" xmlns="http://www.w3.org/2000/svg">
<path fill-rule="evenodd" clip-rule="evenodd" d="M22.5215 0.105482C22.1265 0.234545 21.4529 0.957696 21.3318 1.38268C21.2699 1.59992 21.234 2.31373 21.234 3.32612C21.234 4.91375 21.2355 4.92785 21.4315 5.131C21.5937 5.29919 21.7087 5.33581 22.0753 5.33581H22.5215V6.21964V7.10339L21.8891 7.82563C19.5954 10.4451 18.0143 13.611 17.2163 17.1825C16.8594 18.7801 16.7914 19.5546 16.7498 22.5011L16.7094 25.3584H16.0748H15.4402V21.4944C15.4402 19.1168 15.4071 17.4399 15.3542 17.1353C15.2303 16.4218 14.7213 15.3862 14.239 14.8658C13.4235 13.9861 12.418 13.4872 11.2295 13.3726C10.471 13.2996 10.2902 13.1264 10.2902 12.4726V12.01H10.7364C11.1029 12.01 11.218 11.9734 11.3801 11.8052C11.5762 11.6021 11.5777 11.588 11.5777 10.0003C11.5777 8.98794 11.5417 8.27413 11.4798 8.05689C11.3492 7.59862 10.6826 6.9075 10.2406 6.7721C9.78171 6.63153 5.64867 6.63153 5.18976 6.7721C4.74774 6.9075 4.08114 7.59862 3.95054 8.05689C3.88866 8.27413 3.85269 8.98794 3.85269 10.0003C3.85269 11.588 3.85421 11.6021 4.05024 11.8052C4.21238 11.9734 4.32745 12.01 4.69399 12.01H5.14019V12.4726C5.14019 13.1204 4.96348 13.2898 4.15766 13.414C2.24154 13.7095 0.887086 14.7798 0.234886 16.5139L0.0304143 17.0574L0.00667613 24.3156C-0.0116708 29.8973 0.00595162 31.6605 0.0826385 31.9492C0.212435 32.4374 0.860451 33.1231 1.32725 33.2661C1.53212 33.3288 2.1972 33.3675 3.07125 33.3675H4.48404L4.51036 35.437L4.53667 37.5065L4.83722 38.1366C5.19917 38.8956 5.66541 39.3687 6.4132 39.7359L6.95074 40H18.0152H29.0797L29.6172 39.7359C30.3449 39.3785 30.8278 38.8966 31.1711 38.1853C31.3264 37.8633 31.4535 37.553 31.4535 37.4956C31.4535 37.4191 31.7374 37.3825 32.5197 37.3584C33.5127 37.3277 33.6229 37.3075 34.1235 37.0638C34.8698 36.7007 35.3369 36.2273 35.6994 35.4665L36 34.836V27.3233C36 20.5147 35.9865 19.7206 35.8559 18.8511C35.2013 14.4951 33.4576 10.703 30.677 7.58928L30.2465 7.10723V6.22148V5.33581H30.6927C31.0592 5.33581 31.1743 5.29919 31.3364 5.131C31.5324 4.92785 31.534 4.91375 31.534 3.32612C31.534 2.31373 31.498 1.59992 31.4361 1.38268C31.3055 0.924408 30.6389 0.233293 30.1969 0.0978901C29.756 -0.0371792 22.9373 -0.0304216 22.5215 0.105482ZM30.0489 1.5361C30.2392 1.73332 30.2465 1.78229 30.2465 2.87094V4.00097H26.384H22.5215V2.87094C22.5215 1.78229 22.5287 1.73332 22.719 1.5361L22.9165 1.33128H26.384H29.8515L30.0489 1.5361ZM28.959 6.00323V6.67065H26.384H23.809V6.00323V5.33581H26.384H28.959V6.00323ZM10.0926 8.21031C10.283 8.40753 10.2902 8.45651 10.2902 9.54515V10.6752H7.71519H5.14019V9.54515C5.14019 8.45651 5.14743 8.40753 5.33774 8.21031L5.53521 8.0055H7.71519H9.89517L10.0926 8.21031ZM30.1385 8.96858C30.5741 9.49827 31.1591 10.2772 31.4385 10.6997C31.9064 11.4069 32.7488 12.8848 32.8686 13.208C32.9152 13.3342 32.4084 13.3449 26.384 13.3449C20.3595 13.3449 19.8527 13.3342 19.8994 13.208C20.0191 12.8848 20.8616 11.4069 21.3294 10.6997C21.6089 10.2772 22.1939 9.49827 22.6295 8.96858L23.4215 8.0055H26.384H29.3464L30.1385 8.96858ZM9.00269 12.4801C9.00269 13.1518 9.14448 13.555 9.54192 14.0133C9.91561 14.4442 10.4066 14.6797 10.9314 14.6797C11.3035 14.6797 12.0602 14.8838 12.4452 15.0879C13.0142 15.3896 13.4899 15.9095 13.8089 16.5786L14.1125 17.2152L14.1361 21.2868L14.1599 25.3584H12.8687H11.5777V22.2262V19.0938L11.3801 18.889L11.1827 18.6842H6.21903H1.25539L1.29675 17.9311C1.33095 17.3103 1.38221 17.0853 1.58886 16.6501C2.06475 15.6479 3.05226 14.9465 4.25503 14.7565C5.11822 14.6202 5.48942 14.4649 5.8533 14.0876C6.23553 13.6913 6.42769 13.1587 6.42769 12.4957V12.01H7.71519H9.00269V12.4801ZM33.7203 15.3471C33.8384 15.6913 34.0463 16.4421 34.1822 17.0157C34.6274 18.8951 34.6871 19.4963 34.7308 22.5428L34.7712 25.3584H26.384H17.9967L18.0371 22.5428C18.0798 19.5685 18.1411 18.917 18.5409 17.1825C18.7421 16.31 19.0978 15.1039 19.2362 14.8253C19.3047 14.687 19.7079 14.68 26.4071 14.7001L33.5055 14.7214L33.7203 15.3471ZM24.6503 16.2194C24.4681 16.4082 24.4527 16.4862 24.4527 17.2205V18.0168H23.6846C22.9764 18.0168 22.9011 18.0327 22.719 18.2216C22.5231 18.4247 22.5215 18.4393 22.5215 20.0191C22.5215 21.5989 22.5231 21.6135 22.719 21.8165C22.9011 22.0054 22.9764 22.0213 23.6846 22.0213H24.4527V22.8177C24.4527 23.552 24.4681 23.63 24.6503 23.8188C24.8461 24.0219 24.8602 24.0236 26.384 24.0236C27.9077 24.0236 27.9218 24.0219 28.1177 23.8188C28.2999 23.63 28.3152 23.552 28.3152 22.8177V22.0213H29.0833C29.7916 22.0213 29.8668 22.0054 30.0489 21.8165C30.2449 21.6135 30.2465 21.5989 30.2465 20.0191C30.2465 18.4393 30.2449 18.4247 30.0489 18.2216C29.8668 18.0327 29.7916 18.0168 29.0833 18.0168H28.3152V17.2205C28.3152 16.4862 28.2999 16.4082 28.1177 16.2194C27.9218 16.0162 27.9077 16.0145 26.384 16.0145C24.8602 16.0145 24.8461 16.0162 24.6503 16.2194ZM27.0277 18.1457C27.0277 18.88 27.0431 18.958 27.2253 19.1468C27.4074 19.3357 27.4826 19.3517 28.1909 19.3517H28.959V20.0191V20.6865H28.1909C27.4826 20.6865 27.4074 20.7024 27.2253 20.8913C27.0431 21.0801 27.0277 21.1581 27.0277 21.8924V22.6888H26.384H25.7402V21.8924C25.7402 21.1581 25.7248 21.0801 25.5427 20.8913C25.3606 20.7024 25.2853 20.6865 24.577 20.6865H23.809V20.0191V19.3517H24.577C25.2853 19.3517 25.3606 19.3357 25.5427 19.1468C25.7248 18.958 25.7402 18.88 25.7402 18.1457V17.3494H26.384H27.0277V18.1457ZM10.2902 22.6815V25.3438L8.62047 25.372L6.95074 25.4002L6.4132 25.6642C5.68552 26.0216 5.20263 26.5036 4.85935 27.2149C4.70405 27.5368 4.57691 27.8515 4.57691 27.9142C4.57691 28.0068 4.26782 28.0281 2.92729 28.0281H1.27768V24.0236V20.0191H5.78394H10.2902V22.6815ZM2.11898 21.5587C1.99442 21.6878 1.92143 21.8588 1.92143 22.0213C1.92143 22.1839 1.99442 22.3549 2.11898 22.4839L2.31645 22.6888H5.46206H8.60767L8.80514 22.4839C8.92971 22.3549 9.00269 22.1839 9.00269 22.0213C9.00269 21.8588 8.92971 21.6878 8.80514 21.5587L8.60767 21.3539H5.46206H2.31645L2.11898 21.5587ZM2.11898 24.2284C1.99442 24.3575 1.92143 24.5285 1.92143 24.691C1.92143 24.8535 1.99442 25.0246 2.11898 25.1536L2.31645 25.3584H4.17456H6.03267L6.23014 25.1536C6.4915 24.8827 6.4915 24.4993 6.23014 24.2284L6.03267 24.0236H4.17456H2.31645L2.11898 24.2284ZM28.9094 26.7947C29.3514 26.9301 30.018 27.6213 30.1486 28.0795C30.2878 28.5679 30.2878 36.8323 30.1486 37.3206C30.018 37.7789 29.3514 38.47 28.9094 38.6054C28.4298 38.7523 7.6006 38.7523 7.12101 38.6054C6.67899 38.47 6.01239 37.7789 5.88179 37.3206C5.74266 36.8323 5.74266 28.5679 5.88179 28.0795C6.00289 27.6545 6.6765 26.9314 7.07144 26.8023C7.49583 26.6637 28.4577 26.6563 28.9094 26.7947ZM34.7527 30.5004C34.7527 33.2457 34.7255 34.4033 34.6549 34.651C34.5243 35.1092 33.8577 35.8003 33.4157 35.9357C33.2335 35.9916 32.7372 36.0372 32.3128 36.0372H31.5411L31.5174 31.9646L31.4937 27.8921L31.2067 27.2926L30.9196 26.6933H32.8362H34.7527V30.5004ZM9.64644 28.1372C9.2515 28.2662 8.5779 28.9894 8.45679 29.4144C8.23389 30.1966 8.39105 30.8202 8.95972 31.4098C9.37647 31.8419 9.78405 32.0327 10.2902 32.0327C10.7963 32.0327 11.2039 31.8419 11.6207 31.4098C12.407 30.5945 12.4305 29.5574 11.6822 28.6946C11.1614 28.094 10.409 27.888 9.64644 28.1372ZM14.7965 28.1372C14.4015 28.2662 13.7279 28.9894 13.6068 29.4144C13.3839 30.1966 13.5411 30.8202 14.1097 31.4098C14.5265 31.8419 14.9341 32.0327 15.4402 32.0327C15.9464 32.0327 16.3539 31.8419 16.7707 31.4098C17.557 30.5945 17.5805 29.5574 16.8322 28.6946C16.3114 28.094 15.5591 27.888 14.7965 28.1372ZM19.9465 28.1372C19.5515 28.2662 18.8779 28.9894 18.7568 29.4144C18.5339 30.1966 18.6911 30.8202 19.2597 31.4098C19.6765 31.8419 20.0841 32.0327 20.5902 32.0327C21.0964 32.0327 21.5039 31.8419 21.9207 31.4098C22.707 30.5945 22.7305 29.5574 21.9822 28.6946C21.4614 28.094 20.7091 27.888 19.9465 28.1372ZM25.0965 28.1372C24.7015 28.2662 24.0279 28.9894 23.9068 29.4144C23.6839 30.1966 23.8411 30.8202 24.4097 31.4098C24.8265 31.8419 25.2341 32.0327 25.7402 32.0327C26.2464 32.0327 26.6539 31.8419 27.0707 31.4098C27.857 30.5945 27.8805 29.5574 27.1323 28.6946C26.6115 28.094 25.8591 27.888 25.0965 28.1372ZM4.49644 30.6978V32.0327H3.08461C1.69282 32.0327 1.66989 32.0297 1.47523 31.8278C1.28492 31.6306 1.27768 31.5817 1.27768 30.493V29.363H2.88706H4.49644V30.6978ZM10.7364 29.5678C11.1356 29.9816 10.8528 30.6978 10.2902 30.6978C9.95939 30.6978 9.64644 30.3734 9.64644 30.0304C9.64644 29.6874 9.95939 29.363 10.2902 29.363C10.4469 29.363 10.6119 29.4386 10.7364 29.5678ZM15.8864 29.5678C16.2856 29.9816 16.0028 30.6978 15.4402 30.6978C15.1094 30.6978 14.7965 30.3734 14.7965 30.0304C14.7965 29.6874 15.1094 29.363 15.4402 29.363C15.597 29.363 15.7619 29.4386 15.8864 29.5678ZM21.0364 29.5678C21.161 29.6969 21.234 29.8679 21.234 30.0304C21.234 30.1929 21.161 30.3639 21.0364 30.493C20.9119 30.6221 20.747 30.6978 20.5902 30.6978C20.4335 30.6978 20.2685 30.6221 20.144 30.493C20.0194 30.3639 19.9465 30.1929 19.9465 30.0304C19.9465 29.8679 20.0194 29.6969 20.144 29.5678C20.2685 29.4386 20.4335 29.363 20.5902 29.363C20.747 29.363 20.9119 29.4386 21.0364 29.5678ZM26.1864 29.5678C26.311 29.6969 26.384 29.8679 26.384 30.0304C26.384 30.1929 26.311 30.3639 26.1864 30.493C26.0619 30.6221 25.897 30.6978 25.7402 30.6978C25.5835 30.6978 25.4185 30.6221 25.294 30.493C25.1695 30.3639 25.0965 30.1929 25.0965 30.0304C25.0965 29.8679 25.1695 29.6969 25.294 29.5678C25.4185 29.4386 25.5835 29.363 25.7402 29.363C25.897 29.363 26.0619 29.4386 26.1864 29.5678ZM9.64644 33.4765C9.2515 33.6056 8.5779 34.3288 8.45679 34.7537C8.23389 35.536 8.39105 36.1596 8.95972 36.7492C9.37647 37.1812 9.78405 37.372 10.2902 37.372C10.7963 37.372 11.2039 37.1812 11.6207 36.7492C12.407 35.9339 12.4305 34.8968 11.6822 34.0339C11.1614 33.4334 10.409 33.2273 9.64644 33.4765ZM14.7965 33.4765C14.4015 33.6056 13.7279 34.3288 13.6068 34.7537C13.3839 35.536 13.5411 36.1596 14.1097 36.7492C14.5265 37.1812 14.9341 37.372 15.4402 37.372C15.9464 37.372 16.3539 37.1812 16.7707 36.7492C17.557 35.9339 17.5805 34.8968 16.8322 34.0339C16.3114 33.4334 15.5591 33.2273 14.7965 33.4765ZM19.9465 33.4765C19.5515 33.6056 18.8779 34.3288 18.7568 34.7537C18.5339 35.536 18.6911 36.1596 19.2597 36.7492C19.6765 37.1812 20.0841 37.372 20.5902 37.372C21.0964 37.372 21.5039 37.1812 21.9207 36.7492C22.707 35.9339 22.7305 34.8968 21.9822 34.0339C21.4614 33.4334 20.7091 33.2273 19.9465 33.4765ZM25.0965 33.4765C24.7015 33.6056 24.0279 34.3288 23.9068 34.7537C23.6839 35.536 23.8411 36.1596 24.4097 36.7492C24.8265 37.1812 25.2341 37.372 25.7402 37.372C26.2464 37.372 26.6539 37.1812 27.0707 36.7492C27.857 35.9339 27.8805 34.8968 27.1323 34.0339C26.6115 33.4334 25.8591 33.2273 25.0965 33.4765ZM10.7364 34.9072C11.1356 35.321 10.8528 36.0372 10.2902 36.0372C9.95939 36.0372 9.64644 35.7127 9.64644 35.3698C9.64644 35.0268 9.95939 34.7023 10.2902 34.7023C10.4469 34.7023 10.6119 34.778 10.7364 34.9072ZM15.8864 34.9072C16.2856 35.321 16.0028 36.0372 15.4402 36.0372C15.1094 36.0372 14.7965 35.7127 14.7965 35.3698C14.7965 35.0268 15.1094 34.7023 15.4402 34.7023C15.597 34.7023 15.7619 34.778 15.8864 34.9072ZM21.0364 34.9072C21.161 35.0362 21.234 35.2072 21.234 35.3698C21.234 35.5323 21.161 35.7033 21.0364 35.8324C20.9119 35.9615 20.747 36.0372 20.5902 36.0372C20.4335 36.0372 20.2685 35.9615 20.144 35.8324C20.0194 35.7033 19.9465 35.5323 19.9465 35.3698C19.9465 35.2072 20.0194 35.0362 20.144 34.9072C20.2685 34.778 20.4335 34.7023 20.5902 34.7023C20.747 34.7023 20.9119 34.778 21.0364 34.9072ZM26.1864 34.9072C26.311 35.0362 26.384 35.2072 26.384 35.3698C26.384 35.5323 26.311 35.7033 26.1864 35.8324C26.0619 35.9615 25.897 36.0372 25.7402 36.0372C25.5835 36.0372 25.4185 35.9615 25.294 35.8324C25.1695 35.7033 25.0965 35.5323 25.0965 35.3698C25.0965 35.2072 25.1695 35.0362 25.294 34.9072C25.4185 34.778 25.5835 34.7023 25.7402 34.7023C25.897 34.7023 26.0619 34.778 26.1864 34.9072Z" fill="#B68C5A"/>
</svg>
