<svg width="30" height="40" viewBox="0 0 30 40" fill="none" xmlns="http://www.w3.org/2000/svg">
<path fill-rule="evenodd" clip-rule="evenodd" d="M13.5544 0.102323C10.9285 0.531505 8.76438 2.03708 7.62488 4.22722C7.06276 5.30768 6.92672 5.95622 6.87528 7.80142L6.83059 9.40343L6.52407 9.96093C6.23716 10.4829 6.21972 10.5577 6.25035 11.1331C6.28869 11.8551 6.49119 12.2905 7.01843 12.7847C7.42733 13.168 7.71129 13.313 8.33492 13.4567L8.78789 13.5611L8.94129 14.123C9.23505 15.1997 9.968 16.2907 10.8386 16.9472L11.269 17.2717V18.0312V18.7907L7.2997 20.1757C5.11657 20.9374 3.12196 21.6738 2.86715 21.812C1.75654 22.4142 0.774593 23.4742 0.379576 24.4972C0.0128427 25.447 -0.020213 26.1797 0.00755015 32.7364L0.0335783 38.8772L0.293857 39.2557C0.464774 39.5042 0.685404 39.6966 0.936487 39.816C1.31797 39.9975 1.32682 39.9979 4.71591 39.9979C8.0146 39.9979 8.11837 39.9933 8.30273 39.8386C8.55798 39.6243 8.55798 39.1992 8.30273 38.985C8.13989 38.8484 7.99812 38.8257 7.305 38.8257H6.49718V32.9612V27.0966L6.28418 26.9048C5.9944 26.6437 5.61067 26.6496 5.37563 26.9189C5.19734 27.123 5.19578 27.1748 5.19578 32.9752V38.8257L3.39552 38.8245C2.40542 38.8238 1.53669 38.7899 1.46511 38.7492C1.35111 38.6842 1.33497 37.8668 1.33497 32.1665C1.33497 26.0843 1.34539 25.6272 1.49366 25.1891C1.81007 24.2539 2.46459 23.4638 3.35778 22.9388C3.9808 22.5726 8.52675 20.9379 8.645 21.0375C8.68048 21.0675 9.17805 21.9435 9.75067 22.9842C10.6132 24.5519 10.8424 24.9067 11.0866 25.0523C11.4529 25.2708 11.9143 25.2782 12.2905 25.0715C12.4467 24.9857 12.5913 24.9156 12.6117 24.9156C12.632 24.9156 12.763 25.0652 12.9027 25.2481L13.1568 25.5806L12.1628 30.8551C11.3169 35.3428 11.1825 36.1704 11.2617 36.4031C11.3201 36.5748 11.7597 37.0766 12.4429 37.7512L13.5311 38.8257H12.1515C10.887 38.8257 10.7527 38.8392 10.5432 38.9877C10.2264 39.2121 10.2271 39.6119 10.5447 39.837L10.7748 40L19.8126 39.9794L28.8506 39.9588L29.2112 39.7438C29.4095 39.6256 29.6605 39.3794 29.7687 39.1968C29.9613 38.8721 29.9663 38.8026 29.9934 36.0534C30.0086 34.5072 29.9967 33.125 29.9668 32.9819C29.8628 32.4824 29.3373 32.26 28.9246 32.5407C28.7577 32.6541 28.7494 32.7741 28.7077 35.6669C28.6708 38.2267 28.6449 38.6863 28.5341 38.7493C28.4626 38.79 27.5939 38.8238 26.6037 38.8245L24.8035 38.8257V32.9752C24.8035 27.1748 24.8019 27.123 24.6236 26.9189C24.3886 26.6496 24.0049 26.6437 23.7151 26.9048L23.5021 27.0966V32.9612V38.8257H19.9825H16.4628L17.5536 37.7512C18.2457 37.0693 18.6777 36.5767 18.7359 36.4031C18.8137 36.1716 18.6752 35.3202 17.8342 30.8562L16.8408 25.5829L17.0957 25.2492C17.2358 25.0657 17.3672 24.9156 17.3876 24.9156C17.408 24.9156 17.5525 24.9857 17.7088 25.0715C18.0698 25.2698 18.5219 25.2706 18.8807 25.0735C19.1127 24.946 19.3502 24.5794 20.252 22.9558C21.1749 21.2942 21.3678 20.9981 21.506 21.0307C21.5958 21.0519 22.6576 21.4133 23.8654 21.8338C26.7526 22.839 27.3976 23.2194 28.0979 24.3295C28.6055 25.1341 28.6409 25.3592 28.6859 28.0622L28.7271 30.5446L28.946 30.6997C29.2339 30.9036 29.4264 30.8953 29.7222 30.6662L29.9657 30.4777L29.9924 28.5367C30.0229 26.3286 29.9273 25.2941 29.6197 24.4972C29.2318 23.4927 28.3593 22.5298 27.2535 21.886C26.9294 21.6974 25.2786 21.0777 22.7365 20.1905L18.7303 18.7922L18.7308 18.0052L18.7314 17.2181L19.3706 16.6147C20.232 15.8015 20.7281 14.9345 21.0207 13.7312C21.0616 13.5628 21.1337 13.5173 21.4266 13.4751C22.1805 13.3666 22.9741 12.8393 23.3184 12.2183C23.4289 12.0189 23.5617 11.6337 23.6133 11.3622C23.6969 10.9221 23.6859 10.8105 23.5115 10.3314C23.4039 10.0359 23.2503 9.72907 23.1703 9.64951C23.0472 9.52698 23.0168 9.23932 22.9722 7.77399C22.9294 6.36962 22.8852 5.92965 22.7383 5.44154C22.026 3.07596 20.0667 1.16715 17.558 0.394826C16.2901 0.00448337 14.8132 -0.103359 13.5544 0.102323ZM16.7193 1.38963C18.7353 1.90908 20.3347 3.17466 21.1453 4.89194C21.5351 5.7174 21.6801 6.46394 21.6801 7.64333V8.66401L21.4415 8.61266C21.0997 8.53905 21.0728 8.5167 21.0728 8.3068C21.0728 8.10643 20.5398 7.51447 19.4127 6.46285C18.8788 5.96482 18.7144 5.85783 18.4135 5.81259C18.021 5.75358 18.0381 5.74765 16.5613 6.45691C14.6491 7.37521 12.7603 7.80111 10.5972 7.80173C9.44935 7.80205 9.07897 7.92114 8.90042 8.3472C8.8101 8.56273 8.62704 8.65768 8.29744 8.65994C8.16244 8.66088 8.14587 8.5721 8.1483 7.86003C8.14978 7.41944 8.18665 6.81216 8.2302 6.51044C8.61602 3.83735 10.8661 1.71832 13.8294 1.23733C14.5154 1.12605 15.9997 1.20419 16.7193 1.38963ZM19.0123 7.78165L19.7714 8.52975L19.7704 10.9984C19.7696 12.9137 19.741 13.5633 19.6426 13.8962C19.1999 15.3945 17.8757 16.5864 16.2104 16.9856C15.5846 17.1356 14.3318 17.1314 13.6673 16.9771C12.155 16.6259 10.914 15.6029 10.3266 14.2234C10.109 13.7123 10.1037 13.6525 10.0726 11.3376L10.041 8.97362L10.8502 8.97222C13.021 8.96839 15.6023 8.34298 17.4289 7.37833C17.7868 7.1893 18.1186 7.03441 18.1664 7.0341C18.2141 7.03371 18.5948 7.37013 19.0123 7.78165ZM8.75293 11.0445C8.75293 12.4701 8.75059 12.4749 8.2256 12.1562C7.36434 11.6335 7.28391 10.5862 8.06631 10.0829C8.22916 9.97812 8.59477 9.80135 8.73124 9.76142C8.74313 9.75798 8.75293 10.3353 8.75293 11.0445ZM21.7758 9.99524C22.0607 10.178 22.3749 10.7334 22.3723 11.0497C22.3678 11.591 21.8734 12.1699 21.3061 12.2981L21.0728 12.3509V11.0445V9.73813L21.3061 9.79088C21.4344 9.81987 21.6458 9.91185 21.7758 9.99524ZM14.7027 18.2536C15.5673 18.2845 15.8705 18.2634 16.4378 18.1327C16.8159 18.0456 17.1936 17.95 17.2771 17.92C17.4133 17.8713 17.4289 17.924 17.4289 18.4332V19.0009L16.2492 20.3171C15.6004 21.041 15.0378 21.6334 14.9989 21.6334C14.9601 21.6334 14.398 21.0443 13.75 20.3244L12.5717 19.0155L12.5711 18.4571L12.5704 17.8988L13.1126 18.0574C13.4856 18.1666 13.9819 18.2278 14.7027 18.2536ZM12.8979 21.243C13.5317 21.9453 14.0198 22.5439 13.9826 22.5733C13.7806 22.7331 11.7684 23.9845 11.7473 23.9636C11.6167 23.8343 9.88419 20.5883 9.92566 20.5504C10.0183 20.466 11.5669 19.9272 11.6591 19.9473C11.7068 19.9576 12.2642 20.5408 12.8979 21.243ZM19.1641 20.1975C19.6174 20.3537 20.0203 20.5074 20.0595 20.5393C20.1123 20.5822 18.4073 23.8107 18.2501 23.9653C18.2352 23.9799 17.7132 23.6647 17.0902 23.2649C16.0801 22.6167 15.9689 22.5229 16.0641 22.3996C16.2887 22.1088 18.2553 19.9231 18.2965 19.9185C18.3204 19.9159 18.7108 20.0414 19.1641 20.1975ZM15.6937 23.8075C16.0039 24.0014 16.2703 24.1686 16.2858 24.179C16.3014 24.1894 16.2083 24.3418 16.0791 24.5176L15.8441 24.8374H14.9996H14.1551L13.917 24.5133C13.7279 24.2559 13.7032 24.1765 13.797 24.1277C13.8619 24.0939 14.1494 23.9103 14.4357 23.7196C14.722 23.5289 14.9953 23.3914 15.043 23.414C15.0907 23.4365 15.3835 23.6136 15.6937 23.8075ZM15.6414 26.2245C15.6679 26.3427 16.083 28.5494 16.5636 31.1282C17.0444 33.7071 17.4541 35.8698 17.474 35.9343C17.5085 36.0453 15.1422 38.474 14.9996 38.474C14.9646 38.474 14.3861 37.929 13.7141 37.2628C12.8073 36.3637 12.5023 36.0112 12.5312 35.8952C12.5527 35.8092 12.9612 33.6465 13.4392 31.0892C13.9172 28.5318 14.3303 26.3427 14.3572 26.2245C14.4048 26.0153 14.4218 26.0096 14.9996 26.0096C15.5776 26.0096 15.5945 26.0152 15.6414 26.2245Z" fill="#B68C5A"/>
</svg>
