<svg width="40" height="40" viewBox="0 0 40 40" fill="none" xmlns="http://www.w3.org/2000/svg">
<path fill-rule="evenodd" clip-rule="evenodd" d="M31.2962 0.127599C29.6863 0.526751 28.4092 1.72022 27.993 3.21444C27.3874 5.38871 28.9252 7.72298 31.3425 8.29869C31.968 8.44766 32.9903 8.44766 33.6158 8.29869C35.2151 7.91775 36.5512 6.69614 36.9678 5.23381C37.5587 3.15981 36.2184 0.923715 33.9496 0.197863C33.2178 -0.0362193 32.0785 -0.0663883 31.2962 0.127599ZM33.2758 1.26323C33.9676 1.42799 34.3626 1.63026 34.8341 2.0613C36.5616 3.64095 35.8654 6.37061 33.5525 7.0856C31.528 7.71141 29.3732 6.43204 29.1744 4.4863C29.0238 3.011 30.0561 1.65754 31.6264 1.27167C32.2361 1.12185 32.6729 1.11966 33.2758 1.26323ZM5.57229 3.68237C4.46285 3.92802 3.23244 4.78237 2.65186 5.71018C1.86339 6.97016 1.88091 8.67087 2.69546 9.94164C3.07653 10.5363 3.96492 11.2798 4.64851 11.5763C6.49736 12.3783 8.47743 12.0677 9.92828 10.748C11.3734 9.43338 11.6977 7.52125 10.7627 5.82757C10.4289 5.22318 9.5237 4.39259 8.83593 4.05972C7.88616 3.60007 6.61028 3.45251 5.57229 3.68237ZM7.97677 4.99996C8.91038 5.39083 9.54114 6.02336 9.85682 6.88536C10.4334 8.45993 9.36522 10.2447 7.55903 10.7248C5.28705 11.3287 2.96677 9.42932 3.39631 7.31726C3.64736 6.08315 4.51764 5.19293 5.80933 4.84888C6.4194 4.68647 7.38918 4.754 7.97677 4.99996ZM28.8035 9.08378C27.125 9.49614 25.7655 10.6857 25.1909 12.2448C25.0067 12.7445 25.0032 12.8411 24.9737 18.1066C24.9405 24.0476 24.9439 24.0945 25.4447 24.6012C25.835 24.9962 26.3611 25.1408 27.4087 25.1408H28.2052V31.7413C28.2052 36.2458 28.235 38.4691 28.2992 38.7426C28.4114 39.2211 28.7827 39.6414 29.2729 39.8451C29.78 40.0557 31.6011 40.0503 32.1159 39.8366C32.4747 39.6876 32.4836 39.6876 32.8425 39.8366C33.1372 39.9589 33.404 39.9877 34.2556 39.9891C35.4061 39.991 35.7557 39.9091 36.1838 39.5373C36.7446 39.0502 36.708 39.5506 36.734 32.0087L36.7576 25.16L37.7598 25.1256C38.4605 25.1015 38.8417 25.0528 39.0271 24.9637C39.4073 24.7808 39.8086 24.333 39.9145 23.9733C39.9753 23.7669 39.9979 22.2685 39.9822 19.4864C39.9598 15.5049 39.9511 15.3015 39.7959 15.1448C39.5732 14.9199 39.1449 14.9278 38.9051 15.1612L38.7192 15.3421V19.4989C38.7192 24.4297 38.8383 23.9685 37.5652 23.9685H36.7532V18.7671C36.7532 14.355 36.7342 13.5321 36.6281 13.3446C36.4198 12.9764 35.9608 12.9114 35.6568 13.2072L35.471 13.3882V25.9296C35.471 37.1541 35.457 38.4893 35.3379 38.6447C35.2144 38.806 35.1388 38.8185 34.2799 38.8185C33.6191 38.8185 33.3282 38.7891 33.2615 38.7155C33.1967 38.6442 33.1607 37.1236 33.1442 33.7546L33.1203 28.8966L32.9327 28.7252C32.7024 28.5147 32.2887 28.501 32.0529 28.6961C31.8841 28.8358 31.8808 28.9283 31.8795 33.6135C31.8786 37.3064 31.8538 38.4329 31.7702 38.584C31.6644 38.7752 31.6415 38.7794 30.6841 38.7794C29.7267 38.7794 29.7038 38.7752 29.598 38.584C29.5121 38.4289 29.4896 35.8048 29.4886 25.8638C29.4874 13.444 29.4859 13.3377 29.3164 13.1827C28.9911 12.8852 28.4573 13.0135 28.2996 13.4272C28.2344 13.5984 28.2052 15.2656 28.2052 18.8217V23.9685H27.3931C26.1106 23.9685 26.2388 24.5618 26.2408 18.6342C26.2418 15.8723 26.2777 13.3907 26.3205 13.1197C26.4243 12.4633 26.8198 11.7137 27.3205 11.2242C27.7903 10.765 28.2246 10.5133 28.9305 10.2912C29.3928 10.1458 29.6476 10.1346 32.4712 10.1354C34.834 10.136 35.6019 10.1607 35.9086 10.2458C37.4551 10.675 38.4729 11.8107 38.6805 13.339C38.7533 13.8744 38.8404 14.029 39.1248 14.1279C39.5749 14.2843 40.0036 13.9439 40 13.433C39.9966 12.9672 39.7299 12.0939 39.4101 11.5023C38.8481 10.4628 37.7868 9.60087 36.5585 9.1864C36.0412 9.0118 35.9338 9.00633 32.6501 8.98757C29.8904 8.97178 29.1878 8.98937 28.8035 9.08378ZM3.62958 12.6741C2.26515 12.9516 1.0462 13.8285 0.465875 14.9502C0.0165904 15.8186 -0.000420178 16.042 7.2235e-06 21.0766C0.000434625 25.421 0.0107777 25.7478 0.157376 26.0429C0.356973 26.4447 0.769586 26.7628 1.24092 26.878C1.57148 26.9589 1.6061 26.9891 1.57225 27.1683C1.49796 27.5622 1.1934 30.3278 1.1934 30.6084C1.1934 31.0978 1.33743 31.1927 2.14795 31.2371L2.86026 31.2762L2.903 35.145C2.94053 38.5428 2.96292 39.0425 3.08661 39.2485C3.42597 39.814 3.88996 39.9908 5.03428 39.9908C5.57648 39.9908 6.02961 39.9471 6.274 39.8712C6.62327 39.7628 6.69901 39.7636 7.08735 39.8798C7.41208 39.9769 7.75153 40.0009 8.49281 39.9794C9.43754 39.952 9.48096 39.943 9.79809 39.7087C10.4575 39.2213 10.468 39.1788 10.468 36.9945V35.0533L10.2662 34.9038C10.0046 34.7099 9.61559 34.713 9.3995 34.9106C9.2388 35.0575 9.22854 35.1711 9.22854 36.8105C9.22854 38.094 9.19999 38.5898 9.12032 38.6894C9.02835 38.8044 8.88987 38.8213 8.20141 38.8021L7.39072 38.7794L7.34797 35.4577C7.32447 33.6307 7.27429 32.0791 7.23642 32.0097C7.16428 31.8775 6.82142 31.7061 6.62891 31.7061C6.56694 31.7061 6.41487 31.779 6.29101 31.8681L6.06577 32.0301V35.2921C6.06577 37.8007 6.04081 38.5854 5.95755 38.6894C5.86558 38.8044 5.7271 38.8213 5.03864 38.8021L4.22795 38.7794L4.20572 35.0071L4.18358 31.2348L6.68465 31.2555L9.1858 31.2762L9.20931 32.4968C9.23051 33.6002 9.24905 33.731 9.40275 33.8581C9.63654 34.0516 10.0508 34.0371 10.2805 33.8275C10.4546 33.6684 10.47 33.5699 10.4954 32.4497L10.5227 31.2433L11.2131 31.2207C11.8354 31.2003 11.919 31.1788 12.0625 31.0027C12.2181 30.8115 12.2169 30.769 12.0079 29.0487C11.7364 26.8143 11.7321 26.9624 12.0708 26.8984C12.5209 26.8135 12.9539 26.5081 13.1503 26.1373C13.329 25.7998 13.3316 25.727 13.3303 21.0324C13.3289 15.7767 13.3224 15.7002 12.7952 14.7951C12.4216 14.1536 11.5141 13.3374 10.8361 13.0329C9.91213 12.6181 9.38523 12.5596 6.62139 12.565C4.88563 12.5684 3.98869 12.6011 3.62958 12.6741ZM9.25598 13.8052C10.3795 13.9735 11.248 14.5712 11.7353 15.5117L12.0066 16.0355V20.8336C12.0066 25.2667 11.9956 25.6382 11.8612 25.7157C11.7812 25.7619 11.6915 25.7776 11.662 25.7506C11.6325 25.7236 11.3428 23.4951 11.0183 20.7982C10.61 17.4056 10.3898 15.8413 10.3035 15.7208C10.0556 15.3749 9.54465 15.4085 9.27231 15.7886C9.15742 15.9489 9.22281 16.6117 9.95256 22.6832C10.3966 26.3777 10.7832 29.55 10.8115 29.7326L10.8632 30.0648H6.68721H2.51133L3.35639 23.0501C3.9268 18.3145 4.17726 15.972 4.12716 15.8402C4.02074 15.5602 3.64155 15.4096 3.3351 15.5256C3.20364 15.5754 3.0555 15.6977 3.00583 15.7974C2.95617 15.897 2.65331 18.1676 2.33285 20.843C1.91938 24.2951 1.71867 25.7185 1.64166 25.7455C1.58199 25.7665 1.47591 25.7402 1.40599 25.6871C1.29623 25.6038 1.27888 24.9812 1.27888 21.1168C1.27888 18.422 1.31333 16.4756 1.36555 16.2219C1.61481 15.0114 2.70494 14.008 3.98433 13.8118C4.5744 13.7213 8.66129 13.7162 9.25598 13.8052ZM19.5829 22.2542C17.3846 22.6542 16.5658 25.1039 18.1452 26.5554C18.9606 27.3047 20.3298 27.5003 21.3684 27.0158C21.7615 26.8325 22.3621 26.2833 22.5626 25.924C22.9388 25.2497 22.9381 24.2491 22.5609 23.573C22.0422 22.6435 20.7031 22.0504 19.5829 22.2542ZM20.7766 23.5425C21.2978 23.7889 21.6927 24.4937 21.5719 24.9621C21.2957 26.0328 20.0227 26.4691 19.1451 25.7938C18.7828 25.5151 18.6116 25.1801 18.6116 24.75C18.6116 23.7213 19.7784 23.0705 20.7766 23.5425ZM14.4349 25.5573C13.8904 25.8202 13.5472 26.3534 13.5511 26.9303C13.5529 27.1919 13.6141 27.4719 13.7033 27.6255C13.7853 27.767 14.495 28.5027 15.2803 29.2604L16.7081 30.638L16.7508 34.7997L16.7935 38.9616L17.05 39.2944C17.191 39.4773 17.4795 39.7109 17.6911 39.8133C18.0711 39.9972 18.1013 39.9992 20.2203 39.9756L22.3649 39.9517L22.7055 39.7357C22.8929 39.6169 23.1395 39.3707 23.2536 39.1886C23.4578 38.8625 23.461 38.8281 23.461 36.9162V34.975L23.2592 34.8255C22.986 34.6232 22.6343 34.6362 22.4074 34.8569C22.228 35.0316 22.2215 35.0984 22.2215 36.7988C22.2215 38.8824 22.2495 38.8185 21.3386 38.8185H20.7684V36.4006C20.7684 34.917 20.734 33.9003 20.6796 33.7692C20.4974 33.3312 19.9974 33.2116 19.672 33.5283C19.489 33.7064 19.4862 33.7485 19.4862 36.2638V38.8185H18.8939C18.4695 38.8185 18.2636 38.7837 18.1673 38.6957C18.0486 38.587 18.033 38.0892 18.033 34.3996V30.2266L16.484 28.7218C15.6321 27.8941 14.8951 27.1369 14.8463 27.039C14.7762 26.8982 14.7901 26.8281 14.9126 26.7043C15.2251 26.3887 15.3865 26.4857 16.7 27.7787C17.3878 28.4557 18.071 29.0887 18.2182 29.1855C18.4737 29.3535 18.559 29.3612 20.1186 29.3586C21.2401 29.3567 21.807 29.3261 21.9288 29.2609C22.0264 29.2087 22.7125 28.5768 23.4537 27.8568C24.8668 26.4839 25.0628 26.3638 25.3273 26.7091C25.3953 26.7978 25.4335 26.931 25.4123 27.0052C25.3911 27.0793 24.6646 27.8349 23.7977 28.6843L22.2215 30.2286V31.8322C22.2215 32.8131 22.2568 33.496 22.3122 33.5908C22.5408 33.9813 23.249 33.9141 23.412 33.4864C23.463 33.3529 23.5037 32.6731 23.5037 31.9578V30.6696L24.7229 29.488C25.3933 28.838 26.0816 28.1609 26.2523 27.9831C26.8682 27.342 26.84 26.4198 26.1863 25.8221C25.8018 25.4704 25.4146 25.3472 24.833 25.3913C24.2364 25.4365 23.98 25.6193 22.5313 27.0322L21.3453 28.189H20.1264H18.9076L17.5995 26.9326C16.88 26.2415 16.1462 25.6085 15.9688 25.5258C15.5211 25.3168 14.9066 25.3295 14.4349 25.5573Z" fill="#B68C5A"/>
</svg>
