<svg width="40" height="34" viewBox="0 0 40 34" fill="none" xmlns="http://www.w3.org/2000/svg">
<path fill-rule="evenodd" clip-rule="evenodd" d="M19.2061 0.0498593C18.9183 0.0942886 18.4081 0.244597 18.0723 0.383995C17.2264 0.734977 1.10279 9.34727 0.782688 9.61908C0.390729 9.95191 0.0786776 10.4872 0.0194106 10.9284C-0.109992 11.8919 0.400815 12.6124 1.75614 13.3784L2.64428 13.8803L2.64467 17.9463L2.64499 22.0122L2.26632 22.2861C1.45339 22.8742 1.06221 23.9957 1.31523 25.0125C1.44338 25.5272 1.84027 26.1354 2.21276 26.3878C2.40479 26.5178 2.56297 26.6588 2.5643 26.7011C2.56648 26.7675 0.668611 33.5594 0.557974 33.8814C0.52404 33.98 1.00631 34 3.42687 34C6.0193 34 6.3315 33.9852 6.29022 33.8651C6.16692 33.5063 4.28695 26.7792 4.28695 26.6966C4.28695 26.6445 4.38789 26.5551 4.51127 26.498C5.26806 26.1481 5.79341 24.7524 5.5486 23.7424C5.41029 23.1718 5.02614 22.5828 4.59916 22.2865L4.20876 22.0155V18.4062C4.20876 16.421 4.23425 14.7968 4.26537 14.7968C4.29649 14.7968 4.84185 15.0786 5.47729 15.4231L6.63261 16.0493L6.63292 21.4677C6.63316 26.8334 6.6348 26.8891 6.79892 27.1916C7.05663 27.6666 8.78319 29.5324 9.56468 30.1801C11.9097 32.1241 14.628 33.3511 17.5784 33.7972C18.7665 33.9769 21.1612 33.9769 22.3485 33.7972C25.3344 33.3454 27.9797 32.152 30.3629 30.1817C31.2119 29.4797 32.9728 27.5343 33.1601 27.0911C33.2831 26.8003 33.2949 26.3057 33.2949 21.4364V16.1003L36.1516 14.5369C37.7228 13.6771 39.1459 12.8519 39.3141 12.7031C39.7509 12.3169 40.0542 11.5924 39.9919 11.0842C39.9261 10.5491 39.6922 10.0705 39.3258 9.72164C38.856 9.27438 22.5859 0.432701 21.8416 0.220157C21.1352 0.0185229 19.9185 -0.0601227 19.2061 0.0498593ZM21.5587 1.83838C21.7909 1.91632 25.0455 3.6516 28.7911 5.69464C32.5368 7.7376 36.2395 9.75621 37.0192 10.1803C37.799 10.6043 38.4596 11.017 38.4871 11.0973C38.5162 11.1818 38.4789 11.3173 38.3986 11.4192C38.2611 11.5938 32.746 14.6628 32.3914 14.7621C32.2898 14.7906 32.1695 14.8639 32.1241 14.9251C32.0786 14.9862 29.711 16.2951 26.8627 17.8337C23.0221 19.9082 21.5641 20.6554 21.22 20.7253C20.5671 20.858 19.583 20.8403 18.9938 20.6853C18.6662 20.599 16.5976 19.5381 13.0124 17.6178C9.99808 16.0033 7.19752 14.5059 6.78899 14.2903C6.38045 14.0747 6.08138 13.8845 6.12438 13.8674C6.16739 13.8505 9.35162 13.4244 13.2005 12.9204C20.7292 11.9346 20.4933 11.9812 20.663 11.4491C20.76 11.1449 20.6481 10.8046 20.3765 10.579L20.1639 10.4021L12.0494 11.4673C7.58659 12.0531 3.84714 12.5383 3.73963 12.5455C3.47426 12.5632 1.58584 11.5336 1.51563 11.3331C1.47646 11.2209 1.51579 11.1275 1.64972 11.0145C1.84613 10.8489 17.4131 2.46501 18.2436 2.07754C18.9978 1.72578 19.5702 1.61396 20.3938 1.65752C20.8024 1.67916 21.3265 1.76052 21.5587 1.83838ZM12.8649 19.3006C15.4362 20.6734 17.7041 21.8696 17.9048 21.9586C18.1055 22.0477 18.562 22.1868 18.9193 22.2676C19.7416 22.4536 21.2151 22.395 21.9185 22.1481C22.1765 22.0576 24.4831 20.8379 27.0442 19.4376C29.6053 18.0373 31.7252 16.8917 31.7551 16.8917C31.785 16.8917 31.8094 19.048 31.8094 21.6837V26.4756L31.2517 27.1422C29.5369 29.1921 27.0515 30.8556 24.4665 31.6838C21.7638 32.5496 18.5109 32.5944 15.8589 31.8024C14.2963 31.3356 12.4636 30.4203 11.2022 29.4765C10.3296 28.8236 8.98015 27.5432 8.48959 26.9026L8.11819 26.4177V21.611C8.11819 18.9674 8.13438 16.8044 8.15408 16.8044C8.17386 16.8044 10.2937 17.9276 12.8649 19.3006Z" fill="#B68C5A"/>
</svg>
