<svg width="24" height="24" viewBox="0 0 24 24" fill="none" xmlns="http://www.w3.org/2000/svg">
<path fill-rule="evenodd" clip-rule="evenodd" d="M6.96774 0.0606242C6.73026 0.135487 6.32521 0.554952 6.25239 0.801463C6.22002 0.911024 6.19355 1.12332 6.19355 1.27329V1.54593H5.8066H5.41969L5.4074 8.47684L5.39516 15.4077L3.72581 16.3158C2.40939 17.0319 2.01494 17.2688 1.86015 17.4366C1.45006 17.881 1.44421 18.4833 1.84558 18.9393C1.94642 19.0539 2.09502 19.175 2.17577 19.2085L2.32258 19.2693V21.2475V23.2257H1.93548H1.54839V23.6129V24H12H22.4516V23.6129V23.2257H22.0645H21.6774V21.2475V19.2693L21.8242 19.2085C21.905 19.175 22.0536 19.0539 22.1544 18.9393C22.5558 18.4833 22.5499 17.8816 22.1399 17.4361C21.9849 17.2677 21.5923 17.0313 20.2742 16.3126L18.6048 15.4024L18.5926 8.47417L18.5803 1.54593H18.1934H17.8065V1.27329C17.8065 0.883634 17.7212 0.649753 17.4822 0.383934C17.1117 -0.0282727 17.4722 -0.00330218 11.9793 0.00231134C8.59674 0.0057472 7.08605 0.023362 6.96774 0.0606242ZM16.9135 0.890457C17.011 0.987968 17.0323 1.05717 17.0323 1.2776V1.54593H12H6.96774V1.2776C6.96774 1.05717 6.98898 0.987968 7.08653 0.890457L7.20527 0.771654H12H16.7947L16.9135 0.890457ZM17.8065 2.90092V3.48163H12H6.19355V2.90092V2.32021H12H17.8065V2.90092ZM17.8065 9.60326C17.8065 12.5443 17.7986 14.9506 17.7889 14.9506C17.7794 14.9506 17.6106 14.8614 17.4139 14.7523L17.0565 14.554L16.696 14.7402C16.4977 14.8426 16.3181 14.9337 16.2968 14.9425C16.2755 14.9514 16.2581 14.622 16.2581 14.2105V13.4622L16.4049 13.4014C16.6042 13.3188 16.9059 12.9659 16.9754 12.7339C17.1004 12.3165 17.0133 11.9505 16.708 11.611C16.3414 11.2032 16.5992 11.2244 12.0091 11.2244C8.97997 11.2244 7.92116 11.2391 7.77174 11.2833C7.3559 11.4061 6.96774 11.9384 6.96774 12.3858C6.96774 12.7776 7.26987 13.2667 7.59513 13.4014L7.74194 13.4622V14.2064C7.74194 14.6157 7.73405 14.9506 7.72442 14.9506C7.71484 14.9506 7.54606 14.8614 7.34942 14.7523L6.99194 14.554L6.63145 14.7402C6.43321 14.8426 6.25355 14.9337 6.23226 14.9425C6.21097 14.9514 6.19355 12.5506 6.19355 9.60728V4.25591H12H17.8065V9.60326ZM6.96774 5.41732V5.80446H7.35484H7.74194V5.41732V5.03018H7.35484H6.96774V5.41732ZM8.51613 5.41732V5.80446H8.90323H9.29032V5.41732V5.03018H8.90323H8.51613V5.41732ZM10.0645 5.41732V5.80446H10.4516H10.8387V5.41732V5.03018H10.4516H10.0645V5.41732ZM11.6129 5.41732V5.80446H12H12.3871V5.41732V5.03018H12H11.6129V5.41732ZM13.1613 5.41732V5.80446H13.5484H13.9355V5.41732V5.03018H13.5484H13.1613V5.41732ZM14.7097 5.41732V5.80446H15.0968H15.4839V5.41732V5.03018H15.0968H14.7097V5.41732ZM16.2581 5.41732V5.80446H16.6452H17.0323V5.41732V5.03018H16.6452H16.2581V5.41732ZM6.96774 6.96588V7.35302H7.35484H7.74194V6.96588V6.57874H7.35484H6.96774V6.96588ZM8.51613 6.96588V7.35302H8.90323H9.29032V6.96588V6.57874H8.90323H8.51613V6.96588ZM10.0645 6.96588V7.35302H10.4516H10.8387V6.96588V6.57874H10.4516H10.0645V6.96588ZM11.6129 6.96588V7.35302H12H12.3871V6.96588V6.57874H12H11.6129V6.96588ZM13.1613 6.96588V7.35302H13.5484H13.9355V6.96588V6.57874H13.5484H13.1613V6.96588ZM14.7097 6.96588V7.35302H15.0968H15.4839V6.96588V6.57874H15.0968H14.7097V6.96588ZM16.2581 6.96588V7.35302H16.6452H17.0323V6.96588V6.57874H16.6452H16.2581V6.96588ZM6.96774 8.51444V8.90157H7.35484H7.74194V8.51444V8.1273H7.35484H6.96774V8.51444ZM8.51613 8.51444V8.90157H8.90323H9.29032V8.51444V8.1273H8.90323H8.51613V8.51444ZM10.0645 8.51444V8.90157H10.4516H10.8387V8.51444V8.1273H10.4516H10.0645V8.51444ZM11.6129 8.51444V8.90157H12H12.3871V8.51444V8.1273H12H11.6129V8.51444ZM13.1613 8.51444V8.90157H13.5484H13.9355V8.51444V8.1273H13.5484H13.1613V8.51444ZM14.7097 8.51444V8.90157H15.0968H15.4839V8.51444V8.1273H15.0968H14.7097V8.51444ZM16.2581 8.51444V8.90157H16.6452H17.0323V8.51444V8.1273H16.6452H16.2581V8.51444ZM6.96774 10.063V10.4501H7.35484H7.74194V10.063V9.67585H7.35484H6.96774V10.063ZM8.51613 10.063V10.4501H8.90323H9.29032V10.063V9.67585H8.90323H8.51613V10.063ZM10.0645 10.063V10.4501H10.4516H10.8387V10.063V9.67585H10.4516H10.0645V10.063ZM11.6129 10.063V10.4501H12H12.3871V10.063V9.67585H12H11.6129V10.063ZM13.1613 10.063V10.4501H13.5484H13.9355V10.063V9.67585H13.5484H13.1613V10.063ZM14.7097 10.063V10.4501H15.0968H15.4839V10.063V9.67585H15.0968H14.7097V10.063ZM16.2581 10.063V10.4501H16.6452H17.0323V10.063V9.67585H16.6452H16.2581V10.063ZM16.1393 12.1175C16.2142 12.1924 16.2581 12.2916 16.2581 12.3858C16.2581 12.4801 16.2142 12.5793 16.1393 12.6542L16.0205 12.773H12H7.97947L7.86073 12.6542C7.78582 12.5793 7.74194 12.4801 7.74194 12.3858C7.74194 12.2916 7.78582 12.1924 7.86073 12.1175L7.97947 11.9987H12H16.0205L16.1393 12.1175ZM15.4728 14.4778L15.4597 15.4085L13.86 16.2804C12.9802 16.7601 12.2003 17.1921 12.1269 17.2404C12.0229 17.309 11.9785 17.3158 11.9251 17.2716C11.8875 17.2404 11.1106 16.8071 10.1985 16.3087L8.54032 15.4025L8.52716 14.4749L8.51405 13.5472H12H15.486L15.4728 14.4778ZM9.26173 16.6743C10.4617 17.3279 11.4816 17.9068 11.5282 17.9606C11.7166 18.1783 11.5371 18.5801 11.2513 18.5801C11.1808 18.5801 10.2308 18.0906 9.04964 17.4457L6.972 16.3114L4.89097 17.4457C3.74642 18.0696 2.77544 18.5801 2.73324 18.5801C2.58402 18.5801 2.37218 18.4324 2.34053 18.3062C2.26321 17.9982 2.2529 18.0054 4.67008 16.6822C5.9205 15.9977 6.97423 15.4485 7.01173 15.4617C7.04927 15.475 8.06177 16.0206 9.26173 16.6743ZM19.3262 16.6743C20.5262 17.3279 21.5462 17.9068 21.5927 17.9606C21.775 18.1712 21.6495 18.5053 21.3682 18.558C21.2239 18.5851 20.9871 18.4683 19.1196 17.4487L17.0323 16.3091L14.9525 17.4446C13.8086 18.0691 12.8386 18.5801 12.7969 18.5801C12.6484 18.5801 12.4366 18.432 12.405 18.3062C12.3277 17.9982 12.3174 18.0054 14.7346 16.6822C15.985 15.9977 17.0387 15.4485 17.0762 15.4617C17.1138 15.475 18.1263 16.0206 19.3262 16.6743ZM8.7735 18.179C9.7364 18.7036 10.595 19.1655 10.6815 19.2053L10.8387 19.2777V21.2517V23.2257H9.87097H8.90323V21.7917C8.90323 20.8237 8.88455 20.2952 8.84569 20.1656C8.7614 19.8842 8.41776 19.5246 8.14403 19.4313C7.85811 19.3339 6.1501 19.3205 5.83626 19.4132C5.57047 19.4917 5.16963 19.8926 5.0911 20.1584C5.05069 20.2952 5.03226 20.8072 5.03226 21.7917V23.2257H4.06452H3.09677V21.2416C3.09677 20.0441 3.11468 19.2575 3.14197 19.2575C3.16684 19.2575 4.0215 18.801 5.04116 18.243C6.06087 17.685 6.9239 17.2277 6.95898 17.2268C6.99411 17.2258 7.81065 17.6543 8.7735 18.179ZM18.9539 18.2413C19.9795 18.8002 20.8377 19.2575 20.8609 19.2575C20.8844 19.2575 20.9032 20.1422 20.9032 21.2416V23.2257H19.9355H18.9677V21.7917C18.9677 20.8237 18.9491 20.2952 18.9102 20.1656C18.8259 19.8842 18.4823 19.5246 18.2085 19.4313C17.9226 19.3339 16.2146 19.3205 15.9008 19.4132C15.635 19.4917 15.2341 19.8926 15.1556 20.1584C15.1152 20.2952 15.0968 20.8072 15.0968 21.7917V23.2257H14.129H13.1613V21.2416C13.1613 20.0441 13.1792 19.2575 13.2065 19.2575C13.2314 19.2575 14.086 18.801 15.1057 18.243C16.1254 17.685 16.9888 17.2277 17.0243 17.2268C17.0599 17.2258 17.9282 17.6824 18.9539 18.2413ZM12.2056 19.1831L12.3871 19.2755V21.2506V23.2257H12H11.6129L11.613 21.2537L11.6131 19.2817L11.7945 19.1784C11.8942 19.1216 11.9867 19.0786 12 19.0829C12.0133 19.0872 12.1059 19.1323 12.2056 19.1831ZM8.01024 20.2474L8.12903 20.3662V21.796V23.2257H6.96774H5.80645V21.796V20.3662L5.92524 20.2474C6.04302 20.1296 6.05148 20.1286 6.96774 20.1286C7.884 20.1286 7.89247 20.1296 8.01024 20.2474ZM18.0748 20.2474L18.1935 20.3662V21.796V23.2257H17.0323H15.871V21.796V20.3662L15.9898 20.2474C16.1075 20.1296 16.116 20.1286 17.0323 20.1286C17.9485 20.1286 17.957 20.1296 18.0748 20.2474ZM0 23.6129V24H0.387097H0.774194V23.6129V23.2257H0.387097H0V23.6129ZM23.2258 23.6129V24H23.6129H24V23.6129V23.2257H23.6129H23.2258V23.6129Z" fill="#B68C5A"/>
</svg>
