<svg width="36" height="40" viewBox="0 0 36 40" fill="none" xmlns="http://www.w3.org/2000/svg">
<path fill-rule="evenodd" clip-rule="evenodd" d="M17.9622 0.190394L17.7659 0.382194V3.772V7.1618L17.9652 7.34477C18.2245 7.58284 18.5871 7.58284 18.8464 7.34477L19.0457 7.1618V3.772V0.382194L18.8494 0.190394C18.5896 -0.0634646 18.222 -0.0634646 17.9622 0.190394ZM12.9227 3.47304L12.7264 3.66484V5.41332V7.1618L12.9257 7.34477C13.185 7.58284 13.5476 7.58284 13.8069 7.34477L14.0062 7.1618V5.41332V3.66484L13.8099 3.47304C13.6861 3.35205 13.5221 3.28116 13.3663 3.28116C13.2105 3.28116 13.0465 3.35205 12.9227 3.47304ZM23.0017 3.47304L22.8054 3.66484L22.8079 5.40746C22.8106 7.27904 22.8241 7.34524 23.2312 7.49648C23.4775 7.58792 23.653 7.54204 23.9053 7.32015C24.0817 7.16493 24.0852 7.12757 24.0852 5.41332V3.66484L23.8889 3.47304C23.7651 3.35205 23.6011 3.28116 23.4453 3.28116C23.2895 3.28116 23.1255 3.35205 23.0017 3.47304ZM16.806 8.86769C13.7507 9.37415 11.0632 11.3229 9.69298 14.0254C8.99017 15.4115 8.69716 16.6528 8.69612 18.2485C8.69452 20.7799 9.58443 22.9777 11.3427 24.7842C14.6391 28.1713 19.8456 28.7253 23.8853 26.1188C24.1932 25.9201 24.8101 25.4045 25.2561 24.973C26.7273 23.5498 27.621 21.8899 28.0142 19.8507C28.1408 19.194 28.1404 17.2962 28.0135 16.6574C27.3055 13.0949 24.8781 10.3407 21.4602 9.22182C20.0994 8.7764 18.2198 8.63337 16.806 8.86769ZM19.8109 10.1636C21.6096 10.4768 23.1664 11.2924 24.451 12.5947C25.4694 13.6271 26.1569 14.8248 26.5431 16.2393C26.725 16.9054 26.7502 17.1505 26.7502 18.2485C26.7502 19.3545 26.7257 19.5891 26.5376 20.2788C25.4639 24.2167 21.7779 26.7497 17.6211 26.4063C13.2062 26.0415 9.79905 22.2069 10.0303 17.8634C10.2308 14.0996 12.9529 11.0068 16.766 10.2106C17.4285 10.0723 19.1351 10.0459 19.8109 10.1636ZM18.0458 12.1252C17.7647 12.2754 17.6859 12.4449 17.6859 12.8989V13.3423L17.3316 13.4746C16.3019 13.8588 15.5261 14.9729 15.5261 16.0672C15.5261 16.901 16.085 17.9142 16.7872 18.3534C17.3157 18.6839 17.5546 18.7628 18.272 18.8442C18.9826 18.9247 19.2592 19.0401 19.5493 19.377C20.3897 20.3528 19.7058 21.8047 18.4058 21.8047C17.6021 21.8047 17.0259 21.2972 16.8923 20.4716C16.774 19.7404 16.2209 19.4724 15.7599 19.9229C15.4894 20.1871 15.4701 20.3867 15.6487 21.0653C15.8688 21.9014 16.6193 22.7112 17.4259 22.9829C17.6766 23.0674 17.6859 23.0858 17.6859 23.4979C17.6859 24.0155 17.7647 24.1758 18.0828 24.3045C18.278 24.3835 18.3736 24.3835 18.5688 24.3045C18.883 24.1773 18.9657 24.0153 18.9657 23.5268C18.9657 23.2167 18.9968 23.1185 19.1057 23.0834C20.6703 22.5799 21.55 21.1368 21.1718 19.6942C20.8565 18.4919 19.9685 17.743 18.6669 17.5818C17.8893 17.4855 17.7866 17.4542 17.4572 17.2129C16.4724 16.4916 16.8369 14.9378 18.0658 14.6183C18.9445 14.3899 19.9179 15.1175 19.9239 16.0074C19.9261 16.3351 20.2963 16.7244 20.6056 16.7244C20.8961 16.7244 21.2855 16.3344 21.2855 16.0434C21.2855 15.6142 21.0383 14.8849 20.7562 14.4816C20.4127 13.9907 20.0458 13.7063 19.4521 13.4711L19.0057 13.2943L18.9841 12.9186C18.9574 12.4578 18.8483 12.2352 18.5932 12.1217C18.3532 12.0149 18.251 12.0155 18.0458 12.1252ZM0.499816 26.9512C0.407345 27.0415 0.314075 27.1955 0.292637 27.2934C0.206805 27.6849 -0.0599683 38.9432 0.0122645 39.1287C0.15361 39.4918 0.408625 39.5261 3.40729 39.5859L6.20701 39.6417L6.39499 39.4441C6.51874 39.3139 6.60065 39.1071 6.63497 38.8383L6.68696 38.4301L7.60727 37.9638C8.97297 37.2717 8.67292 37.2381 13.8494 38.6651C16.205 39.3146 18.434 39.889 18.803 39.9417C19.5312 40.0457 20.8744 40.006 21.6055 39.8587C22.9349 39.5909 23.4423 39.3525 25.6667 37.9511C33.854 32.7927 35.5891 31.6883 35.7841 31.5109C36.0808 31.2409 36.0721 30.9201 35.7554 30.4528C35.4398 29.9873 34.9628 29.605 34.3586 29.3333C33.7392 29.0546 32.6363 28.9856 32.0168 29.1867C31.7945 29.2587 30.396 29.8805 28.9088 30.5684C26.5096 31.6782 26.196 31.8041 26.125 31.6863C25.5243 30.6896 24.4185 29.9345 23.213 29.6978C23.0108 29.6582 21.5626 29.5889 19.9948 29.544C16.7078 29.4499 16.4458 29.4078 15.1317 28.7635C13.4814 27.9543 12.2989 27.6974 10.5397 27.7657C9.37669 27.8108 8.67028 27.9608 7.54832 28.401L6.86486 28.6691L6.91222 28.1176C6.97293 27.41 6.85078 27.0915 6.47474 26.9766C6.32644 26.9312 4.97129 26.8707 3.43744 26.8408C0.693557 26.7874 0.66636 26.7884 0.499816 26.9512ZM5.56635 28.2342C5.57203 28.2445 5.51412 30.363 5.43765 32.9422C5.36117 35.5215 5.29598 37.7868 5.29286 37.9763L5.2871 38.3208L3.31138 38.2668C2.22468 38.2372 1.32837 38.2052 1.31949 38.1959C1.30678 38.1824 1.58659 28.2667 1.60323 28.1425C1.60755 28.1097 5.54747 28.2009 5.56635 28.2342ZM12.7913 29.2758C13.2347 29.384 13.9794 29.6636 14.6311 29.9663C16.165 30.6789 16.3447 30.7162 18.6458 30.8013C22.9706 30.9613 23.1209 30.9734 23.6193 31.1988C24.2327 31.4762 24.7511 31.9621 25.043 32.5328C25.4277 33.285 25.4957 33.2471 23.8653 33.1891C23.0844 33.1612 21.4015 33.1159 20.1256 33.0882C17.8732 33.0396 17.8001 33.0427 17.6077 33.1967C17.337 33.4135 17.3261 33.9481 17.5882 34.1554C17.8258 34.3434 18.1957 34.3669 22.6015 34.4736L26.2773 34.5626L26.5086 34.3097C26.7213 34.0771 26.7377 34.0164 26.7124 33.5557L26.685 33.0546L29.4621 31.7684C30.9894 31.0609 32.396 30.4477 32.5878 30.4057C32.7796 30.3637 33.0778 30.3507 33.2504 30.3769C33.6256 30.4338 34.3453 30.771 34.3095 30.873C34.2813 30.9535 23.4158 37.8368 22.9511 38.0686C22.7894 38.1493 22.3394 38.31 21.9512 38.4258C21.308 38.6175 21.1286 38.6362 19.9256 38.6372L18.6058 38.6383L14.3262 37.4426C8.9629 35.9441 8.78563 35.9236 7.31554 36.6338C6.99293 36.7897 6.71584 36.9021 6.69984 36.8837C6.66096 36.839 6.8535 30.252 6.8947 30.2137C7.03597 30.0831 8.08914 29.5839 8.53902 29.4343C9.92016 28.9753 11.3434 28.9222 12.7913 29.2758Z" fill="#B68C5A"/>
</svg>
