<svg width="24" height="20" viewBox="0 0 24 20" fill="none" xmlns="http://www.w3.org/2000/svg">
<path fill-rule="evenodd" clip-rule="evenodd" d="M2.68573 2.4171H20.1913V0.560406H2.68573V2.4171ZM5.6495 9.81499H0.000677086C0.0439683 11.6074 1.47765 13.0465 3.24042 13.0465C5.00284 13.0465 6.43686 11.6074 6.47981 9.81499H6.43989H5.6495ZM1.41982 8.44124L3.25934 5.18336L5.09855 8.44124H1.41982ZM8.67515 18.1433H11.0436V17.2504V16.9818C11.6541 16.7519 12.2609 16.5573 12.8595 16.3745V18.1433H14.9422V15.7425C15.5635 15.5421 16.1703 15.3239 16.7578 15.0571V18.1433H20.1913V20H16.7578H14.9422H12.8595H11.0436H2.68573V18.1433H7.14542H8.65621H8.67515ZM18.3774 8.01077C13.5982 9.41232 9.59948 12.7571 7.30504 17.2508H7.1816L7.19952 17.1827L7.1816 17.2508H7.14575V4.14349H3.77512L3.81029 4.20673L6.20045 8.44159H6.43989V8.86545V8.95926V9.41857H5.64983C3.76396 9.41857 1.8808 9.41857 0 9.41857V8.44194H0.318247L2.70841 4.20707L2.74424 4.14384H2.68641V3.16824H20.192V4.14384H16.7584V5.85147C16.1361 6.00365 15.5294 6.20412 14.9429 6.45184V4.14384H12.8602V7.57856C12.2118 8.01494 11.6037 8.51594 11.0443 9.07392V4.14384H8.96161V12.9148C12.8338 7.57995 17.8299 6.77495 20.9962 4.32276H20.9973V4.32172C22.3058 3.30756 23.3022 2.01268 23.777 0C24.1227 1.92582 24.0618 3.87944 23.6269 5.7389L22.1238 5.88205L23.4885 6.28195C23.0086 8.02015 22.1972 9.66456 21.0808 11.1113L18.2946 11.3771L20.3435 11.9774C17.814 14.6488 15.9163 14.7357 12.616 15.0487L13.8525 15.4121C12.3678 15.8645 10.9341 16.3249 9.67963 17.2511H8.29466C10.4355 13.076 13.9915 9.76879 18.3774 8.01077Z" fill="#B68C5A"/>
</svg>
