<svg width="30" height="40" viewBox="0 0 30 40" fill="none" xmlns="http://www.w3.org/2000/svg">
<path fill-rule="evenodd" clip-rule="evenodd" d="M11.2931 0.0920785C10.1135 0.452647 9.34689 1.38764 9.25884 2.57307C9.22151 3.07503 9.20552 3.11192 9.00685 3.15249C7.87684 3.38331 7.21014 4.07701 7.08135 5.15598L7.02811 5.60284L3.92025 5.62496C0.906198 5.64645 0.805564 5.65208 0.583441 5.81169C0.135298 6.13357 0.0297953 6.42246 0.0298765 7.32767C0.0299576 8.06342 0.0534928 8.19693 0.257681 8.61737C0.591069 9.30372 1.10308 9.72408 2.29924 10.2934C3.41432 10.8242 3.84347 11.1936 3.93088 11.698C4.05334 12.4042 4.25339 12.7011 4.72182 12.872C4.84745 12.9179 5.42268 12.9554 6.00003 12.9554H7.04978V13.5807V14.2061H3.95514C0.994089 14.2061 0.849064 14.2129 0.595776 14.3636C0.234795 14.5785 0.0617708 14.9709 0.0105614 15.6908C-0.0538763 16.5961 0.174091 17.2565 0.762065 17.8682C1.13084 18.2518 1.38445 18.4172 2.2348 18.8286C3.39265 19.3889 3.75444 19.6812 3.88932 20.1652C4.10804 20.9505 4.21817 21.1551 4.51909 21.3353C4.78529 21.4947 4.94021 21.5173 5.93388 21.5414L7.04978 21.5684V22.1436V22.7189L3.93112 22.7419C0.906685 22.7642 0.805483 22.77 0.583441 22.9295C0.136272 23.2507 0.0307689 23.5401 0.030282 24.447C0.0297951 25.219 0.0461079 25.301 0.296555 25.7912C0.643172 26.4696 1.07565 26.8297 2.20915 27.3839C2.70664 27.6272 3.23277 27.9117 3.37821 28.0163C3.68286 28.2352 3.92146 28.6512 3.99118 29.0849C4.05253 29.4668 4.22921 29.7269 4.55862 29.9204C4.78204 30.0516 4.97089 30.0727 5.92212 30.0729L7.02624 30.0732L7.07291 30.6097C7.13231 31.2922 7.37513 31.7896 7.84235 32.1856C8.16746 32.4612 8.80615 32.7308 9.13402 32.7308C9.21331 32.7308 9.24107 32.8875 9.24147 33.3366C9.24204 34.1264 9.34827 34.4693 9.71307 34.859C10.1959 35.3748 10.4897 35.4628 11.7365 35.4648L12.8118 35.4665V37.5712V39.676L13.0257 39.838C13.2922 40.0399 13.5487 40.0442 13.797 39.8507L13.9886 39.7013L14.0126 37.584L14.0366 35.4665H15.0068H15.9769V37.5414V39.6163L16.1762 39.8081C16.2857 39.9136 16.4699 40 16.5856 40C16.7012 40 16.8855 39.9136 16.995 39.8081L17.1943 39.6163V37.5414V35.4665L18.2696 35.4648C19.5229 35.4628 19.8303 35.3696 20.29 34.8524C20.6515 34.4457 20.7651 34.0809 20.7651 33.3275C20.7651 32.8857 20.7929 32.7308 20.8721 32.7308C21.1992 32.7308 21.8386 32.4613 22.1622 32.1869C22.6044 31.812 22.848 31.3025 22.9233 30.5946L22.9787 30.0732H24.0672C25.2432 30.0732 25.4796 30.0139 25.7829 29.6426C25.8724 29.533 25.9713 29.2949 26.0027 29.1135C26.0825 28.6517 26.3174 28.2394 26.6279 28.0163C26.7733 27.9117 27.2995 27.6272 27.7969 27.3839C28.9302 26.8298 29.3629 26.4696 29.7096 25.7914C29.9545 25.3122 29.9763 25.2087 29.9763 24.5254C29.9763 23.6259 29.8578 23.2649 29.4689 22.979L29.1777 22.765L26.0669 22.7419L22.9563 22.7189V22.1361V21.5534L23.9099 21.553C24.4343 21.5527 24.9959 21.5172 25.1578 21.4739C25.5465 21.3698 25.857 21.0596 25.9689 20.6634C26.1774 19.9254 26.2308 19.8118 26.4842 19.5678C26.6302 19.4271 27.1791 19.1094 27.7039 18.8618C29.0998 18.2031 29.6473 17.6624 29.9073 16.686C30.0624 16.1037 30.0176 15.2166 29.812 14.7994C29.7367 14.6464 29.5558 14.4502 29.4103 14.3636C29.157 14.2129 29.012 14.2061 26.051 14.2061H22.9563V13.5807V12.9554H24.014C25.5333 12.9554 25.8331 12.7893 26.0381 11.834C26.1839 11.1546 26.4923 10.8715 27.7258 10.2844C29.4774 9.45075 29.9729 8.78964 29.9724 7.28679C29.9721 6.42199 29.8624 6.12747 29.4227 5.81169C29.2005 5.65208 29.1 5.64645 26.084 5.62496L22.9743 5.60284L22.92 5.15598C22.7878 4.06966 22.13 3.38331 21.0002 3.15273C20.8028 3.11247 20.7857 3.07331 20.7409 2.5579C20.6503 1.51723 20.0975 0.72106 19.1555 0.274199L18.6183 0.0193865L15.1267 0.00344116C12.3992 -0.00898683 11.5603 0.0103977 11.2931 0.0920785ZM18.8235 1.42633C19.2463 1.71405 19.4846 2.13879 19.532 2.68945L19.5679 3.10684H18.3849C17.1172 3.10684 16.8622 3.1625 16.7163 3.47085C16.5901 3.73778 16.6026 3.83845 16.7904 4.06849L16.9546 4.2696L19.0019 4.29399C21.206 4.32025 21.2452 4.32744 21.5639 4.76063C21.6876 4.92907 21.7001 5.97075 21.7199 17.7724C21.7369 27.9486 21.7202 30.6631 21.6388 30.901C21.5746 31.0883 21.4325 31.268 21.2603 31.3796L20.9846 31.5583H15.0031H9.02154L8.74577 31.3797C8.33788 31.1156 8.27685 30.8452 8.27166 29.2778L8.26712 27.896L8.05327 27.734C7.76216 27.5135 7.56747 27.5303 7.287 27.8005C7.08151 27.9984 7.04978 28.0873 7.04978 28.4649V28.9008H6.12614H5.20243L5.10634 28.5295C4.87269 27.6273 4.29056 27.0656 2.91724 26.4175C1.56924 25.7814 1.20826 25.3706 1.20704 24.4714C1.20615 23.853 0.971041 23.8983 4.17743 23.8983H7.04978V24.5275C7.04978 24.9269 7.09311 25.2375 7.16851 25.3778C7.36101 25.7363 7.70552 25.7975 8.05213 25.535L8.26476 25.3739L8.28619 15.1588C8.30591 5.79137 8.31889 4.92852 8.44225 4.76063C8.76906 4.31619 8.74123 4.32025 11.6059 4.29493C14.1183 4.27265 14.2623 4.26358 14.399 4.11804C14.5982 3.90599 14.5823 3.52666 14.3652 3.31742C14.1938 3.15226 14.118 3.14507 12.3119 3.12224L10.4366 3.09856L10.4815 2.6216C10.5371 2.03022 10.8293 1.5961 11.3497 1.33144L11.7136 1.14643L15.0963 1.16909L18.479 1.19184L18.8235 1.42633ZM14.1509 5.71914C12.4839 6.12083 11.351 7.51487 11.351 9.16451C11.351 10.9204 12.6044 12.3331 14.443 12.6496C16.6057 13.0218 18.6551 11.3256 18.6551 9.16326C18.6551 6.8819 16.4195 5.17247 14.1509 5.71914ZM7.04978 9.28176V11.783H6.11649C5.35167 11.783 5.18319 11.7624 5.18319 11.6687C5.18319 11.6058 5.10447 11.3517 5.00822 11.104C4.7245 10.3737 4.20989 9.92027 2.98233 9.31904C1.85499 8.76697 1.44872 8.43962 1.30086 7.96455C1.19868 7.63595 1.17312 6.91692 1.26069 6.83266C1.29039 6.80398 2.60511 6.78053 4.1823 6.78053H7.04978V9.28176ZM16.0935 7.04824C16.5742 7.27475 16.9303 7.61906 17.2135 8.13103C17.3636 8.40257 17.3961 8.58571 17.3966 9.16451C17.3971 9.79873 17.3735 9.90918 17.1564 10.2866C16.6999 11.0803 15.9559 11.4993 15.0031 11.4993C14.0123 11.4993 13.2566 11.0522 12.8176 10.2061C12.3739 9.35093 12.5095 8.33707 13.1679 7.586C13.8505 6.80741 15.0965 6.5784 16.0935 7.04824ZM28.7679 6.9825C28.8423 7.26803 28.7513 7.89959 28.5932 8.19403C28.3797 8.59142 28.0973 8.79331 27.0084 9.32662C25.6311 10.0011 25.0346 10.6032 24.8611 11.4942L24.8048 11.783H23.8806H22.9563V9.28176V6.78053H25.8358H28.7153L28.7679 6.9825ZM14.0793 14.8353C13.121 15.0667 12.1758 15.8354 11.6934 16.7755C11.3978 17.3516 11.3916 17.382 11.3916 18.2665C11.3916 19.1424 11.4004 19.1872 11.6844 19.76C12.0669 20.5314 12.6505 21.0921 13.4611 21.4672C14.0518 21.7405 14.0974 21.7488 15.0073 21.7488C15.9256 21.7488 15.9572 21.7429 16.5553 21.4582C17.3486 21.0806 17.9207 20.5296 18.3128 19.7656C18.6086 19.1891 18.6145 19.1597 18.6145 18.2706C18.6145 17.3824 18.6082 17.3515 18.315 16.7814C17.9273 16.0277 17.3347 15.4539 16.566 15.088C16.0314 14.8335 15.9037 14.8053 15.1857 14.7834C14.7504 14.7701 14.2526 14.7935 14.0793 14.8353ZM7.04978 17.8797V20.381H6.12549H5.20129L5.14521 20.0934C4.96147 19.1499 4.39574 18.5764 2.93298 17.8507C1.78463 17.2811 1.43639 16.9931 1.29258 16.4944C1.19722 16.1638 1.17766 15.5105 1.26069 15.4306C1.29039 15.402 2.60511 15.3785 4.1823 15.3785H7.04978V17.8797ZM28.7836 15.7848C28.8475 16.7414 28.5132 17.1492 27.0957 17.8434C26.5272 18.1218 25.8948 18.4914 25.6905 18.6646C25.2995 18.9961 24.9492 19.5955 24.8587 20.0879L24.8048 20.381H23.8806H22.9563V17.8787V15.3766L25.8576 15.397L28.759 15.4176L28.7836 15.7848ZM15.861 16.0567C16.4049 16.2348 17.1168 16.9204 17.3017 17.4442C17.6237 18.3562 17.4124 19.2445 16.7133 19.9178C16.1927 20.4192 15.7116 20.6155 15.0031 20.6155C14.2945 20.6155 13.8134 20.4192 13.2928 19.9178C12.5937 19.2445 12.3824 18.3562 12.7044 17.4442C12.8814 16.9429 13.6017 16.2349 14.1107 16.062C14.5952 15.8973 15.3674 15.8949 15.861 16.0567ZM13.8303 23.2037C12.8161 23.5396 12.1404 24.134 11.6585 25.1143C11.4049 25.63 11.3916 25.7018 11.3916 26.5559C11.3916 27.4051 11.406 27.4839 11.6514 27.9831C11.9438 28.5775 12.5935 29.2857 13.118 29.5817C14.2584 30.2255 15.7477 30.2255 16.8881 29.5817C17.3221 29.3369 18.0152 28.6392 18.2329 28.2283C18.7505 27.2511 18.7936 26.0386 18.3437 25.1126C17.8722 24.1422 17.1722 23.53 16.1577 23.2009C15.4851 22.9826 14.4942 22.9838 13.8303 23.2037ZM28.7503 24.022C28.8312 24.225 28.8064 24.7573 28.7001 25.0989C28.5489 25.5848 28.1247 25.9287 27.0521 26.4349C25.8697 26.9928 25.2741 27.5107 24.9985 28.2204C24.9019 28.4689 24.8229 28.7236 24.8229 28.7865C24.8229 28.8802 24.6544 28.9008 23.8896 28.9008H22.9563V26.3996V23.8983H25.8287C28.373 23.8983 28.7066 23.9125 28.7503 24.022ZM16.1078 24.4276C16.5595 24.6528 17.1508 25.3039 17.3085 25.7495C17.8379 27.2459 16.7913 28.7695 15.156 28.883C14.3674 28.9378 13.8641 28.7543 13.2923 28.2036C12.7132 27.6458 12.5316 27.1742 12.5862 26.3699C12.6465 25.4797 13.1361 24.7893 13.9886 24.3921C14.342 24.2275 14.4834 24.2068 15.0842 24.2321C15.5845 24.2532 15.8657 24.3069 16.1078 24.4276ZM19.5478 33.3205C19.5478 33.8425 19.5249 33.9324 19.3485 34.1022L19.1494 34.2941H14.9721H10.7947L10.6266 34.0881C10.4909 33.9221 10.4583 33.7705 10.4583 33.3065V32.7308H15.0031H19.5478V33.3205Z" fill="#B68C5A"/>
</svg>
