<svg width="20" height="40" viewBox="0 0 20 40" fill="none" xmlns="http://www.w3.org/2000/svg">
<path d="M0 0H20V16.5079C20 17.2839 19.8004 18.0071 19.401 18.6772C19.0017 19.3474 18.4549 19.8942 17.7604 20.3175L10.5729 24.6032L11.9792 29.7354H18.2813L13.125 33.545L15.1563 40L10 36.0847L4.84375 40L6.82292 33.545L1.71875 29.7354H8.02083L9.375 24.6032L2.23958 20.3704C1.51042 19.9471 0.954861 19.4003 0.572917 18.7302C0.190972 18.06 0 17.3192 0 16.5079V0ZM2.34375 2.38095V16.5079C2.34375 16.8959 2.4566 17.2575 2.68229 17.5926C2.90799 17.9277 3.21181 18.2011 3.59375 18.4127L8.95833 21.4815V2.38095H2.34375ZM17.6563 2.38095H11.3542V21.4815L16.4063 18.4127C16.7882 18.2011 17.092 17.9277 17.3177 17.5926C17.5434 17.2575 17.6563 16.8959 17.6563 16.5079V2.38095Z" fill="#B68C5A"/>
</svg>
