 <svg width="26" height="26" viewBox="0 0 26 26" fill="none"
                                            xmlns="http://www.w3.org/2000/svg">
                                            <path
                                                d="M22.75 2.16667H19.5V0H17.3333V2.16667H8.66667V0H6.5V2.16667H3.25C2.38805 2.16667 1.5614 2.50908 0.951903 3.11857C0.34241 3.72806 0 4.55471 0 5.41667L0 26H26V5.41667C26 4.55471 25.6576 3.72806 25.0481 3.11857C24.4386 2.50908 23.612 2.16667 22.75 2.16667ZM2.16667 5.41667C2.16667 5.12935 2.2808 4.8538 2.48397 4.65063C2.68713 4.44747 2.96268 4.33333 3.25 4.33333H22.75C23.0373 4.33333 23.3129 4.44747 23.516 4.65063C23.7192 4.8538 23.8333 5.12935 23.8333 5.41667V8.66667H2.16667V5.41667ZM2.16667 23.8333V10.8333H23.8333V23.8333H2.16667Z"
                                                fill="#B68C5A" />
                                            <path d="M18.4167 14.0834H16.25V16.2501H18.4167V14.0834Z" fill="#B68C5A" />
                                            <path d="M14.0833 14.0834H11.9166V16.2501H14.0833V14.0834Z"
                                                fill="#B68C5A" />
                                            <path d="M9.75004 14.0834H7.58337V16.2501H9.75004V14.0834Z"
                                                fill="#B68C5A" />
                                            <path d="M18.4167 18.4166H16.25V20.5833H18.4167V18.4166Z" fill="#B68C5A" />
                                            <path d="M14.0833 18.4166H11.9166V20.5833H14.0833V18.4166Z"
                                                fill="#B68C5A" />
                                            <path d="M9.75004 18.4166H7.58337V20.5833H9.75004V18.4166Z"
                                                fill="#B68C5A" />
                                        </svg>