 <svg width="26" height="26" viewBox="0 0 26 26" fill="none"
                                            xmlns="http://www.w3.org/2000/svg">
                                            <path
                                                d="M1.47711 3.83898C1.49482 3.81482 1.51142 3.78987 1.52689 3.76422C1.66821 3.52978 2.28739 2.77891 3.10152 2.08893C3.49838 1.7526 3.90712 1.46078 4.28936 1.26174C4.66959 1.06375 4.94718 0.997644 5.12345 1.00006C5.29007 1.02115 5.52483 1.1401 5.81542 1.42395C5.82442 1.43274 5.83357 1.44135 5.84286 1.44977C6.21469 1.82215 6.96684 2.7279 7.66845 3.65875C8.02206 4.12789 8.34663 4.58202 8.58704 4.95089C8.70779 5.13616 8.79981 5.28849 8.86199 5.40369C8.89542 5.46562 8.91215 5.50226 8.91913 5.51787C8.97795 5.86253 8.83184 6.15018 8.43465 6.84298L8.43164 6.84824C8.0771 7.46662 7.49853 8.47578 7.96026 9.75183C7.96489 9.76461 7.96977 9.7773 7.97492 9.78989C9.56345 13.6768 12.3229 16.436 16.2118 18.023C16.2239 18.0279 16.2362 18.0326 16.2485 18.0371C17.5243 18.5002 18.5337 17.922 19.1522 17.5677L19.1569 17.565C19.8487 17.1687 20.137 17.022 20.4817 17.08C20.4976 17.0871 20.5344 17.104 20.5963 17.1374C20.7117 17.1998 20.8642 17.2919 21.0496 17.4128C21.4187 17.6533 21.8731 17.9779 22.3423 18.3314C23.297 19.0507 24.2239 19.8223 24.5766 20.1834L24.5767 20.1835C24.8592 20.4727 24.9783 20.7061 25 20.8693C25 21.0671 24.923 21.3628 24.713 21.7547C24.5005 22.1513 24.1934 22.5694 23.8468 22.9692C23.5031 23.3658 23.1394 23.7228 22.832 23.9969C22.6786 24.1336 22.5433 24.2461 22.4359 24.3299C22.3821 24.3717 22.3381 24.4044 22.3043 24.4282C22.268 24.4537 22.2534 24.4621 22.2567 24.4602C22.2274 24.477 22.199 24.4952 22.1715 24.5149C21.3088 25.1329 20.07 25.2368 18.2157 24.3747C18.2033 24.369 18.1908 24.3635 18.1782 24.3582C15.5298 23.2564 11.9686 20.5598 8.73909 17.3517C5.50881 14.1428 2.76438 10.5747 1.64261 7.82776C1.63765 7.81563 1.63246 7.80359 1.62703 7.79166C0.776793 5.92314 0.856386 4.6862 1.47711 3.83898Z"
                                                stroke="#B68C5A" stroke-width="2" stroke-linecap="round"
                                                stroke-linejoin="round" />
                                            <path d="M13 4C17.2062 4.46758 20.5273 7.78953 21 12" stroke="#B68C5A"
                                                stroke-width="2" stroke-linecap="round" stroke-linejoin="round" />
                                            <path d="M13 8C15.024 8.39451 16.6055 9.97599 17 12" stroke="#B68C5A"
                                                stroke-width="2" stroke-linecap="round" stroke-linejoin="round" />
                                        </svg>