<svg width="32" height="40" viewBox="0 0 32 40" fill="none" xmlns="http://www.w3.org/2000/svg">
<path d="M28.9067 40H3.09333C2.24 40 1.51111 39.7018 0.906667 39.1053C0.302223 38.5088 0 37.7895 0 36.9474V3.05263C0 2.21053 0.302223 1.49123 0.906667 0.894737C1.51111 0.298246 2.24 0 3.09333 0H21.6L32 10.2632V36.9474C32 37.7895 31.6978 38.5088 31.0933 39.1053C30.4889 39.7018 29.76 40 28.9067 40ZM20.4267 11.3158V2.36842H3.09333C2.91556 2.36842 2.75556 2.4386 2.61333 2.57895C2.47111 2.7193 2.4 2.87719 2.4 3.05263V36.9474C2.4 37.1228 2.47111 37.2807 2.61333 37.4211C2.75556 37.5614 2.91556 37.6316 3.09333 37.6316H28.9067C29.0844 37.6316 29.2444 37.5614 29.3867 37.4211C29.5289 37.2807 29.6 37.1228 29.6 36.9474V11.3158H20.4267ZM13.6 30.8421L25.0667 19.5789L23.4667 18L13.6 27.7368L8.32 22.5789L6.77333 24.1053L13.6 30.8421ZM2.4 2.36842V11.3158V2.36842V11.3158V36.9474C2.4 37.1228 2.4 37.2807 2.4 37.4211C2.4 37.5614 2.4 37.6316 2.4 37.6316C2.4 37.6316 2.4 37.5614 2.4 37.4211C2.4 37.2807 2.4 37.1228 2.4 36.9474V3.05263C2.4 2.87719 2.4 2.7193 2.4 2.57895C2.4 2.4386 2.4 2.36842 2.4 2.36842Z" fill="#B68C5A"/>
</svg>
