<svg width="40" height="40" viewBox="0 0 40 40" fill="none" xmlns="http://www.w3.org/2000/svg">
<path d="M27.4211 17C28.1228 17 28.7105 16.7632 29.1842 16.2895C29.6579 15.8158 29.8947 15.2105 29.8947 14.4737C29.8947 13.7368 29.6579 13.1316 29.1842 12.6579C28.7105 12.1842 28.1228 11.9474 27.4211 11.9474C26.6842 11.9474 26.0789 12.1842 25.6053 12.6579C25.1316 13.1316 24.8947 13.7368 24.8947 14.4737C24.8947 15.2105 25.1316 15.8158 25.6053 16.2895C26.0789 16.7632 26.6842 17 27.4211 17ZM12.5789 17C13.3158 17 13.9211 16.7632 14.3947 16.2895C14.8684 15.8158 15.1053 15.2105 15.1053 14.4737C15.1053 13.7368 14.8684 13.1316 14.3947 12.6579C13.9211 12.1842 13.3158 11.9474 12.5789 11.9474C11.8772 11.9474 11.2895 12.1842 10.8158 12.6579C10.3421 13.1316 10.1053 13.7368 10.1053 14.4737C10.1053 15.2105 10.3421 15.8158 10.8158 16.2895C11.2895 16.7632 11.8772 17 12.5789 17ZM20 30.8947C22.0702 30.8947 24.0175 30.3509 25.8421 29.2632C27.6667 28.1754 29.0351 26.5789 29.9474 24.4737H27.7368C26.9298 25.8421 25.8509 26.9035 24.5 27.6579C23.1491 28.4123 21.6491 28.7895 20 28.7895C18.386 28.7895 16.8947 28.4211 15.5263 27.6842C14.1579 26.9474 13.0877 25.8772 12.3158 24.4737H10.0526C11 26.5789 12.3772 28.1754 14.1842 29.2632C15.9912 30.3509 17.9298 30.8947 20 30.8947ZM20 40C17.2281 40 14.6316 39.4737 12.2105 38.4211C9.78947 37.3684 7.67544 35.9386 5.86842 34.1316C4.0614 32.3246 2.63158 30.2105 1.57895 27.7895C0.526316 25.3684 0 22.7719 0 20C0 17.2281 0.526316 14.6228 1.57895 12.1842C2.63158 9.74562 4.0614 7.63158 5.86842 5.84211C7.67544 4.05263 9.78947 2.63158 12.2105 1.57895C14.6316 0.526316 17.2281 0 20 0C22.7719 0 25.3772 0.526316 27.8158 1.57895C30.2544 2.63158 32.3684 4.05263 34.1579 5.84211C35.9474 7.63158 37.3684 9.74562 38.4211 12.1842C39.4737 14.6228 40 17.2281 40 20C40 22.7719 39.4737 25.3684 38.4211 27.7895C37.3684 30.2105 35.9474 32.3246 34.1579 34.1316C32.3684 35.9386 30.2544 37.3684 27.8158 38.4211C25.3772 39.4737 22.7719 40 20 40ZM20 37.6316C24.9123 37.6316 29.0789 35.9123 32.5 32.4737C35.9211 29.0351 37.6316 24.8772 37.6316 20C37.6316 15.0877 35.9211 10.9211 32.5 7.5C29.0789 4.07895 24.9298 2.36842 20.0526 2.36842C15.1404 2.36842 10.9649 4.07895 7.52632 7.5C4.08772 10.9211 2.36842 15.0702 2.36842 19.9474C2.36842 24.8597 4.08772 29.0351 7.52632 32.4737C10.9649 35.9123 15.1228 37.6316 20 37.6316Z" fill="#B68C5A"/>
</svg>
