<svg width="30" height="30" viewBox="0 0 30 30" fill="none" xmlns="http://www.w3.org/2000/svg">
<path fill-rule="evenodd" clip-rule="evenodd" d="M13.9144 0.123449C12.4916 0.544413 11.5181 1.70099 11.3167 3.20974C11.08 4.98273 12.1214 7.15521 13.5802 7.93178C14.8579 8.61186 16.1561 8.33283 17.2452 7.14406C17.6539 6.69786 17.7942 6.48096 18.0669 5.87325C18.628 4.62312 18.7257 3.53639 18.3724 2.47406C18.0093 1.38185 17.3151 0.651775 16.2218 0.211947C15.6174 -0.0311777 14.5724 -0.0712192 13.9144 0.123449ZM15.3789 1.18206C16.2615 1.33571 16.968 1.87336 17.2956 2.64067C17.6103 3.37769 17.5556 4.5004 17.1638 5.34878C16.7029 6.34681 15.7189 7.12843 14.9139 7.13614C13.9411 7.14547 12.8942 6.11827 12.5117 4.77894C11.9549 2.82959 12.958 1.26881 14.865 1.11699C14.918 1.11278 15.1493 1.14209 15.3789 1.18206ZM13.4196 8.4451C12.4241 8.53129 11.3839 8.69314 11.0735 8.81011C9.84406 9.27343 8.95788 10.113 8.43311 11.3116C8.04292 12.2026 7.99429 12.4752 7.76335 15.0633C7.70656 15.6997 7.57602 16.9935 7.47318 17.9384C7.37039 18.8834 7.28592 19.7132 7.28553 19.7824C7.28508 19.8516 7.35575 19.9857 7.44247 20.0804C7.6553 20.3128 7.98144 20.3127 8.18148 20.0803C8.31581 19.9242 8.3496 19.7255 8.54238 17.959C8.65936 16.887 8.8012 15.4419 8.8576 14.7477C8.98781 13.1448 9.09747 12.5711 9.40704 11.8726C9.82434 10.9308 10.449 10.2976 11.3058 9.94768C12.3918 9.50407 16.6592 9.43941 18.1734 9.84362C19.3258 10.1512 20.2222 11.0228 20.6217 12.2243C20.7813 12.704 20.8365 13.0971 21.0354 15.1685C21.1753 16.6251 21.531 19.6521 21.5859 19.8517C21.6419 20.0559 21.8787 20.2526 22.0684 20.2526C22.1657 20.2526 22.3261 20.1768 22.4247 20.0842C22.65 19.8726 22.6529 19.9563 22.3246 17.167C22.1817 15.9521 22.0333 14.5636 21.9948 14.0815C21.9054 12.9582 21.7355 12.1747 21.4265 11.4604C20.9529 10.3659 20.2486 9.56332 19.3312 9.07273C18.4576 8.60562 17.6092 8.47182 15.3147 8.43949C14.4491 8.42729 13.5963 8.42982 13.4196 8.4451ZM10.9024 13.3807C10.8253 13.4147 10.7286 13.5107 10.6878 13.5941C10.6257 13.7207 10.2439 18.916 10.2407 19.6772C10.2387 20.1714 10.7589 20.422 11.1071 20.0948L11.275 19.937L11.4734 16.8659C11.6874 13.5517 11.6875 13.554 11.3539 13.388C11.1718 13.2974 11.0947 13.2962 10.9024 13.3807ZM18.3632 13.4823C18.1606 13.7035 18.1611 13.7831 18.3876 17.2172C18.5589 19.8147 18.5691 19.9026 18.7173 20.0749C18.97 20.3684 19.4324 20.2875 19.5577 19.9279C19.6345 19.7074 19.2661 13.8367 19.1617 13.6159C19.0081 13.2913 18.6006 13.223 18.3632 13.4823ZM14.7186 17.5245C14.6557 17.5644 14.2304 18.413 13.7733 19.4101C13.2377 20.579 12.9017 21.2356 12.8277 21.258C12.7646 21.2772 11.9469 21.4124 11.0107 21.5586C9.40036 21.8101 9.29873 21.8347 9.13165 22.0149C8.77839 22.3957 8.81283 22.4549 10.314 24.0489L11.6768 25.496L11.3759 27.4199C11.2103 28.4781 11.0749 29.4141 11.0749 29.4999C11.0749 29.716 11.3528 30 11.5643 30C11.6629 30 12.4282 29.605 13.3305 29.0884C14.2063 28.587 14.956 28.1767 14.9965 28.1767C15.037 28.1767 15.7851 28.587 16.6589 29.0884C17.5644 29.6079 18.3227 30 18.4222 30C18.6342 30 18.9121 29.7163 18.9121 29.4999C18.9121 29.4141 18.7766 28.4774 18.6109 27.4183L18.3097 25.4926L19.6382 24.0822C20.532 23.1333 20.9797 22.6086 21.0065 22.4785C21.0497 22.2682 20.9196 21.9874 20.7267 21.8747C20.6647 21.8385 19.877 21.6942 18.9762 21.554C18.0753 21.4139 17.273 21.284 17.1933 21.2653C17.077 21.2381 16.8832 20.8712 16.2148 19.4128C15.7313 18.3577 15.3287 17.5634 15.2559 17.5208C15.098 17.4285 14.867 17.4301 14.7186 17.5245ZM15.6513 20.7759C16.0265 21.5964 16.3337 22.1817 16.4214 22.2435C16.502 22.3004 17.0991 22.428 17.7558 22.5289C18.4094 22.6293 19.0275 22.7296 19.1293 22.7518C19.3097 22.7912 19.2882 22.8208 18.2674 23.9367C17.0418 25.2763 17.1336 24.9317 17.4595 26.9706C17.6001 27.8509 17.6504 28.3166 17.6034 28.303C17.5635 28.2914 16.9929 27.9743 16.3353 27.5982C15.6777 27.2221 15.0746 26.9145 14.9952 26.9145C14.9157 26.9145 14.3119 27.2221 13.6533 27.5982C12.9948 27.9743 12.4188 28.2924 12.3732 28.3051C12.3164 28.3211 12.3014 28.277 12.3256 28.1649C12.4229 27.7134 12.745 25.5154 12.7451 25.3024C12.7451 25.0798 12.6516 24.9555 11.7089 23.925C10.6991 22.8211 10.6774 22.7912 10.8577 22.7525C10.9595 22.7306 11.5776 22.6294 12.2312 22.5277C12.8848 22.426 13.4853 22.2973 13.5656 22.2417C13.6543 22.1803 13.9564 21.6054 14.3357 20.7759C14.679 20.0252 14.975 19.411 14.9935 19.411C15.012 19.411 15.308 20.0252 15.6513 20.7759ZM4.4369 20.3421C4.28754 20.3965 4.16086 20.6225 3.62709 21.7867L2.99433 23.1668L1.66188 23.3692C0.135995 23.601 0 23.6648 0 24.1495C0 24.4043 0.0513917 24.4721 1.00291 25.4734L2.00588 26.5288L1.78759 27.9313C1.66753 28.7027 1.56886 29.4062 1.56834 29.4947C1.56712 29.7138 1.84284 30 2.05515 30C2.1499 30 2.75504 29.7002 3.39994 29.3338C4.04478 28.9674 4.60764 28.6676 4.65075 28.6676C4.69379 28.6676 5.2246 28.9532 5.83025 29.3021C7.02421 29.9901 7.21481 30.0646 7.44209 29.9318C7.75262 29.7504 7.75731 29.6107 7.50639 28.0105L7.27403 26.5288L8.27508 25.4632C9.17141 24.5091 9.27619 24.3731 9.27619 24.1639C9.27619 23.8536 9.13004 23.6409 8.87463 23.5795C8.75983 23.5519 8.13112 23.4468 7.47748 23.346L6.28905 23.1628L5.67877 21.856C5.34312 21.1374 5.0315 20.5019 4.98621 20.4438C4.87719 20.3039 4.65505 20.2627 4.4369 20.3421ZM25.2283 20.3066C25.0251 20.3422 24.9794 20.4191 24.3082 21.8551L23.698 23.1609L22.3187 23.3836C20.7978 23.6292 20.7108 23.6702 20.7108 24.1426C20.7108 24.3436 20.8288 24.498 21.7139 25.455L22.717 26.5394L22.4824 28.0241C22.2362 29.5823 22.2373 29.6867 22.5039 29.9101C22.7103 30.083 22.9692 29.9903 24.1034 29.337C24.7364 28.9723 25.2801 28.6647 25.3115 28.6532C25.3428 28.6419 25.906 28.9402 26.563 29.3163C27.2199 29.6924 27.8354 30 27.9308 30C28.16 30 28.4199 29.7119 28.4183 29.4597C28.4177 29.3519 28.3188 28.6483 28.1985 27.8962L27.9797 26.5288L28.9631 25.4963C29.5137 24.9182 29.9639 24.3879 29.9862 24.2915C30.0385 24.0637 29.938 23.7905 29.7554 23.6643C29.6738 23.6079 29.0239 23.4732 28.2996 23.3626L26.9912 23.1628L26.3598 21.7859C25.8206 20.6102 25.7021 20.3999 25.5483 20.3456C25.4493 20.3106 25.3052 20.2931 25.2283 20.3066ZM5.06073 23.1102C5.28666 23.6019 5.52537 24.0568 5.59122 24.121C5.67113 24.1989 6.01873 24.2866 6.63793 24.385C7.14787 24.466 7.57423 24.5423 7.58547 24.5546C7.59671 24.5669 7.28797 24.9146 6.89932 25.3273C6.08438 26.1925 6.12261 26.0551 6.32791 27.3817C6.4023 27.8622 6.44901 28.2709 6.43173 28.2898C6.41444 28.3086 6.04044 28.1174 5.60059 27.8647C5.16075 27.6121 4.73098 27.4055 4.64561 27.4056C4.56024 27.4058 4.129 27.6108 3.68735 27.8612C3.2457 28.1116 2.86213 28.3166 2.83495 28.3167C2.80778 28.3168 2.80039 28.246 2.81844 28.1592C2.89258 27.8039 3.10919 26.3892 3.10919 26.2603C3.10919 26.1777 2.81819 25.7996 2.39003 25.3259C1.99451 24.8883 1.68944 24.5302 1.71198 24.5302C1.97903 24.5302 3.55431 24.2229 3.65266 24.1516C3.72474 24.0994 3.97071 23.6425 4.19927 23.1363C4.42784 22.6302 4.6228 22.2161 4.63244 22.2161C4.64214 22.2161 4.83486 22.6185 5.06073 23.1102ZM26.3585 24.1764C26.4545 24.2325 28.0671 24.5302 28.275 24.5302C28.2976 24.5302 27.9925 24.8883 27.597 25.3259C27.1864 25.7802 26.8779 26.1789 26.8781 26.255C26.8783 26.3284 26.9482 26.8146 27.0333 27.3352C27.1185 27.8559 27.1777 28.2934 27.1648 28.3075C27.1519 28.3216 26.7781 28.1244 26.3339 27.8692C25.8897 27.6141 25.4498 27.4054 25.3562 27.4054C25.2627 27.4054 24.8263 27.6121 24.3864 27.8647C23.9466 28.1174 23.5726 28.3086 23.5553 28.2898C23.538 28.2709 23.5847 27.8622 23.6591 27.3817C23.8654 26.0484 23.9034 26.1851 23.0874 25.3238C22.6986 24.9134 22.3898 24.5674 22.4012 24.555C22.4127 24.5425 22.8391 24.466 23.3491 24.385C23.9683 24.2866 24.3159 24.1989 24.3958 24.121C24.4616 24.0568 24.7038 23.5945 24.9339 23.0936L25.3521 22.183L25.7929 23.1433C26.0352 23.6713 26.2898 24.1362 26.3585 24.1764Z" fill="white"/>
</svg>
