<svg width="30" height="30" viewBox="0 0 30 30" fill="none" xmlns="http://www.w3.org/2000/svg">
<path fill-rule="evenodd" clip-rule="evenodd" d="M5.70638 0.10289C4.85584 0.408415 4.2257 1.1745 4.05438 2.11142C4.0162 2.32009 3.99535 6.02452 3.99535 12.5978V22.7615H2.1752H0.355046L0.177523 22.9456L0 23.1297L0.0252433 24.0235C0.044571 24.7065 0.0760226 24.9819 0.158429 25.1907C0.463808 25.9641 1.04926 26.5438 1.75221 26.7689C2.12617 26.8888 2.28489 26.8911 10.0603 26.8911H17.9872L18.0049 28.2831C18.0225 29.661 18.0241 29.6766 18.1646 29.8317C18.4394 30.1346 18.6088 30.0711 19.6136 29.2891L20.5118 28.5901L21.41 29.2891C22.1025 29.8281 22.3496 29.9882 22.4888 29.9882C22.9937 29.9882 23.0303 29.8693 23.0303 28.2301V26.8911H23.4714C23.9527 26.8911 24.4676 26.7444 24.8359 26.5023C25.3806 26.1443 25.835 25.4422 25.9583 24.768C25.9965 24.5593 26.0173 20.8549 26.0173 14.2817V4.11789H27.8375H29.6576L29.8288 3.94038C29.9996 3.7633 30 3.76093 30 3.01184C30 2.14015 29.908 1.69058 29.6315 1.21131C29.3877 0.788697 29.0104 0.443091 28.5358 0.207586L28.1551 0.0187202L17.0855 0.00517777C6.48898 -0.00775739 6.00274 -0.00356717 5.70638 0.10289ZM25.2598 1.45713L25.0509 1.89353L25.0216 13.284C24.9939 24.0866 24.9869 24.687 24.8869 24.9174C24.5958 25.5878 23.8084 26 23.1621 25.8204L23.0303 25.7838V23.9422C23.0303 22.7627 23.0517 22.087 23.0897 22.0626C23.2055 21.9884 23.376 21.56 23.4169 21.2403C23.4461 21.0124 23.5149 20.8394 23.6489 20.6573C23.8955 20.3223 23.9917 20.019 23.9847 19.5984C23.9786 19.2324 23.7885 18.7572 23.5637 18.5467C23.4877 18.4754 23.4403 18.3572 23.4403 18.2389C23.4403 17.4339 22.8237 16.7259 22.052 16.6448C21.7817 16.6164 21.6663 16.5684 21.486 16.4093C20.9145 15.905 20.1091 15.905 19.5376 16.4093C19.3573 16.5684 19.2419 16.6164 18.9716 16.6448C18.2 16.7259 17.5834 17.4339 17.5834 18.2389C17.5834 18.3572 17.5359 18.4754 17.4599 18.5467C17.2352 18.7572 17.045 19.2324 17.0389 19.5984C17.0319 20.019 17.1281 20.3223 17.3747 20.6573C17.5087 20.8394 17.5776 21.0124 17.6067 21.2403C17.6476 21.56 17.8181 21.9884 17.934 22.0626C17.9666 22.0836 17.9933 22.2494 17.9933 22.4311V22.7615H11.4915H4.98967L5.00502 12.4832L5.0203 2.20495L5.14301 1.93167C5.294 1.59541 5.58854 1.28539 5.89884 1.13612C6.12404 1.02778 6.50784 1.02335 15.8009 1.02208L25.4688 1.02074L25.2598 1.45713ZM28.1729 1.17803C28.723 1.46224 29.0043 1.98821 29.0043 2.73219V3.08551H27.5108H26.0173L26.0186 2.64523C26.0207 1.92553 26.296 1.44517 26.8666 1.16546C27.2792 0.96323 27.7662 0.967906 28.1729 1.17803ZM11.4922 4.63487V5.15186L13.4982 5.13588L15.5042 5.11991L15.5211 4.6189L15.5382 4.11789H13.5152H11.4922V4.63487ZM16.5291 4.63408V5.15028H17.5248H18.5205V4.63408V4.11789H17.5248H16.5291V4.63408ZM10.028 7.21504V7.7616H15.0063H19.9847V7.21504V6.66849H15.0063H10.028V7.21504ZM7.50949 10.3438V10.8612L8.75408 10.8448L9.99867 10.8284L10.0157 10.3274L10.0327 9.82637H8.77106H7.50949V10.3438ZM11.0236 10.3426V10.8588H16.7634H22.5032V10.3426V9.82637H16.7634H11.0236V10.3426ZM7.50949 12.8932V13.4093H10.2622H13.015V12.8932V12.377H10.2622H7.50949V12.8932ZM14.0107 12.8932V13.4093H18.2569H22.5032V12.8932V12.377H18.2569H14.0107V12.8932ZM7.50949 15.5045V16.0207H12.5171H17.5248V15.5045V14.9883H12.5171H7.50949V15.5045ZM20.7108 17.1114C20.7922 17.1435 20.9267 17.2812 21.0097 17.4174C21.2008 17.7313 21.3723 17.8026 21.7105 17.7087C22.2012 17.5727 22.5064 17.8983 22.3792 18.4221C22.2942 18.7726 22.364 18.9512 22.6561 19.1299C23.0416 19.3657 23.1021 19.7974 22.7844 20.0454C22.3465 20.3873 22.3101 20.4444 22.3562 20.7166C22.4254 21.1249 22.4099 21.2975 22.2919 21.4333C22.1262 21.6241 21.9691 21.6638 21.6656 21.5918C21.3237 21.5107 21.142 21.5851 21.0034 21.8632C20.8729 22.1251 20.7575 22.2107 20.5313 22.213C20.2519 22.216 20.1666 22.162 20.0384 21.9014C19.8827 21.5849 19.7116 21.5078 19.3544 21.5929C18.8212 21.72 18.5125 21.4136 18.6404 20.8844C18.7284 20.5202 18.6489 20.3042 18.3773 20.1699C18.2583 20.1111 18.1348 19.9855 18.0815 19.8689C18.0006 19.6921 17.9998 19.6445 18.0749 19.4581C18.1232 19.3383 18.2373 19.2058 18.3396 19.151C18.4385 19.098 18.5636 18.9846 18.6176 18.8991C18.7033 18.7635 18.7065 18.7058 18.6428 18.448C18.5558 18.0962 18.6305 17.8718 18.8831 17.725C19.0151 17.6483 19.0841 17.6453 19.3059 17.7068C19.6519 17.8028 19.8217 17.7332 20.0143 17.4169C20.2149 17.0874 20.4208 16.9971 20.7108 17.1114ZM7.50949 18.1158V18.632H11.7557H16.002V18.1158V17.5996H11.7557H7.50949V18.1158ZM19.5423 22.9078C19.8594 23.1588 20.1408 23.2614 20.5118 23.2614C20.8828 23.2614 21.1642 23.1588 21.4813 22.9078C21.6251 22.794 21.8084 22.7008 21.8887 22.7008H22.0346V25.555C22.0346 27.1249 22.0172 28.4093 21.9958 28.4093C21.9745 28.4093 21.7175 28.2226 21.4247 27.9944C21.132 27.7662 20.8349 27.5476 20.7645 27.5086C20.512 27.3685 20.3559 27.43 19.7139 27.9235C19.3662 28.1907 19.0608 28.4093 19.0353 28.4093C19.0099 28.4093 18.989 27.1249 18.989 25.555V22.7008H19.1349C19.2152 22.7008 19.3985 22.794 19.5423 22.9078ZM17.9933 24.8263V25.8587H10.1245C4.31414 25.8587 2.20366 25.8403 2.05665 25.7883C1.42088 25.5636 1.06274 25.0382 1.01969 24.2669L0.993272 23.7939H9.49334H17.9933V24.8263Z" fill="white"/>
</svg>
