<svg width="30" height="22" viewBox="0 0 30 22" fill="none" xmlns="http://www.w3.org/2000/svg">
<path fill-rule="evenodd" clip-rule="evenodd" d="M5.56906 0.0527743C5.0316 0.159809 4.30535 0.69279 3.70299 1.42225C3.12273 2.12499 0.939637 4.94894 0.695853 5.31221C-0.0525002 6.42734 -0.186118 7.25524 0.241412 8.12804C0.48672 8.62868 0.591902 8.73595 1.78467 9.70134C2.28965 10.1101 2.7822 10.5577 2.87912 10.6959L3.05536 10.9474L2.64319 11.3771C2.05273 11.9928 1.95118 12.2121 1.95065 12.8731C1.9503 13.3242 1.97369 13.4568 2.10274 13.7347C2.29686 14.1528 2.57231 14.4695 2.96009 14.7202C3.3114 14.9474 3.90649 15.1208 4.18088 15.0757L4.36832 15.045L4.39652 15.4399C4.4694 16.4615 5.36908 17.3362 6.40612 17.3938L6.81653 17.4166L6.83295 17.7511C6.88325 18.7785 7.83675 19.6901 8.93536 19.7614C9.29254 19.7846 9.36694 19.8068 9.36694 19.8906C9.36694 19.9463 9.44761 20.1549 9.54623 20.3542C10.1234 21.5212 11.6203 21.8769 12.4743 21.0501L12.6795 20.8514L13.3398 21.3747C13.8922 21.8126 14.0529 21.9091 14.3245 21.9661C15.2841 22.1674 16.3547 21.4481 16.591 20.4433L16.6602 20.1488L16.9333 20.1753C17.9217 20.2713 19.0336 19.3176 19.1393 18.2831L19.1719 17.9633L19.7073 17.9646C20.1668 17.9657 20.2906 17.9433 20.5791 17.8073C21.2003 17.5144 21.7517 16.8036 21.8352 16.1882C21.8551 16.0409 21.8947 15.9059 21.9231 15.8882C21.9515 15.8705 22.0731 15.8889 22.1934 15.9292C23.067 16.2216 24.167 15.6888 24.623 14.7521C24.8002 14.3881 24.8159 14.3097 24.8159 13.7921C24.8159 13.2665 24.8032 13.2058 24.6272 12.8921L24.4385 12.5557L24.9204 12.32C25.7806 11.8994 26.469 11.3985 27.1684 10.6845C27.5271 10.3183 28.087 9.81234 28.4125 9.56019C30.0386 8.30095 30.3528 7.3759 29.6401 5.94589C29.3904 5.44484 29.2786 5.28597 27.7222 3.2195C26.1473 1.12845 25.6483 0.581431 25.03 0.268976C24.4988 0.000471403 24.1058 -0.0531936 23.6102 0.0750464C23.0967 0.207966 22.6779 0.458344 21.6348 1.2561C21.1119 1.65604 20.6491 1.96465 20.5208 1.999C20.1597 2.09573 19.5883 2.17208 18.6879 2.24393L17.8366 2.31187L17.1342 2.01357C15.5059 1.32208 14.9452 1.25734 12.6502 1.49564C11.8279 1.58099 10.6803 1.68139 10.0998 1.71871L9.04447 1.78659L8.2107 1.12898C7.34198 0.443892 6.85523 0.165969 6.32996 0.0553217C5.98235 -0.0178906 5.92506 -0.0181279 5.56906 0.0527743ZM6.58201 0.958332C7.02227 1.16571 8.0942 1.99983 8.028 2.08359C7.99828 2.12114 6.75468 3.72453 5.26442 5.64664C3.77416 7.56876 2.53725 9.16036 2.51573 9.18352C2.47539 9.22694 1.62432 8.59113 1.2971 8.27317C1.19591 8.17478 1.04154 7.96154 0.954119 7.7993C0.650767 7.23611 0.770665 6.61357 1.34764 5.7567C1.78004 5.11443 4.31303 1.89647 4.67642 1.52774C5.35395 0.840103 5.95174 0.661515 6.58201 0.958332ZM24.6655 0.949862C25.1065 1.16523 25.6782 1.81526 27.2078 3.84039C28.8433 6.00578 29.1913 6.58703 29.1958 7.16094C29.2006 7.7528 28.9338 8.13894 28.0244 8.85632C27.5441 9.23523 27.5284 9.24252 27.4254 9.13418C27.2235 8.92189 22.031 2.05646 22.031 2.00179C22.031 1.91098 23.0916 1.13473 23.4381 0.971838C23.8549 0.775953 24.2934 0.768135 24.6655 0.949862ZM15.6556 2.30938C15.9059 2.37667 16.1231 2.45208 16.1382 2.4769C16.1535 2.50177 16.0674 2.53832 15.9471 2.55816C15.8267 2.57801 14.884 2.90326 13.8521 3.28099C12.3365 3.83571 11.8484 3.98876 11.3121 4.07738C10.1995 4.26118 9.80162 4.57121 9.73572 5.30552C9.65974 6.15179 10.3072 7.02411 11.2859 7.39403C11.9029 7.62723 12.4729 7.66158 13.4226 7.5228C13.8846 7.45521 14.6324 7.35357 15.0845 7.29688C15.8704 7.19832 15.9207 7.19844 16.2278 7.29937C16.4045 7.35742 16.6942 7.49449 16.8716 7.60395C17.0489 7.71341 18.6847 8.98373 20.5066 10.4269C24.1859 13.3413 24.1202 13.2773 24.063 13.8873C24.027 14.2703 23.8585 14.6066 23.5778 14.8556C23.2844 15.1158 23.0351 15.213 22.6632 15.212L22.3535 15.2111L20.7412 13.9385C19.0387 12.5946 18.9347 12.5362 18.6891 12.7843C18.5489 12.9259 18.5402 13.0677 18.6612 13.2421C18.7103 13.313 19.2209 13.7441 19.7958 14.2C20.3707 14.6561 20.8897 15.1038 20.9492 15.195C21.2047 15.5868 21.1018 16.2769 20.7198 16.7334C20.4253 17.0854 19.8165 17.2748 19.4056 17.1423C19.332 17.1186 18.767 16.7014 18.1498 16.2152C17.5132 15.7137 16.9743 15.3313 16.9041 15.3313C16.6831 15.3313 16.5198 15.4962 16.5198 15.7194C16.5198 15.9108 16.5712 15.9644 17.3637 16.6008C18.0941 17.1873 18.2212 17.3147 18.3098 17.5491C18.4913 18.0291 18.3611 18.5611 17.9642 18.9621C17.6928 19.2364 17.4062 19.3592 17.0386 19.3589C16.6624 19.3587 16.6 19.3232 15.647 18.5671C15.2515 18.2534 14.876 17.9968 14.8124 17.9968C14.6733 17.9968 14.4091 18.2498 14.4091 18.383C14.4091 18.5655 14.5192 18.6821 15.1632 19.1821C15.5193 19.4587 15.8278 19.7342 15.8486 19.7944C15.975 20.1604 15.6434 20.8059 15.1979 21.0608C14.9398 21.2085 14.5153 21.2366 14.3168 21.1193C14.1812 21.0391 13.2365 20.3014 13.2365 20.2757C13.2365 20.2668 13.3022 20.1168 13.3825 19.9425C13.5553 19.5674 13.5783 19.0484 13.4398 18.6441C13.2483 18.0845 12.7366 17.5627 12.1851 17.3647L11.9173 17.2686L11.9159 16.6997C11.914 15.9938 11.7915 15.7029 11.2753 15.178C10.8777 14.7738 10.4767 14.5838 9.89062 14.5219L9.54758 14.4857L9.51123 14.2125C9.3592 13.0712 8.44076 12.1919 7.40061 12.1919H7.08037V11.9954C7.08037 11.6982 6.91532 11.1891 6.71633 10.8725C6.07838 9.85748 4.70961 9.52239 3.82265 10.1642L3.59188 10.3312L3.3464 10.0229L3.10091 9.71449L5.8968 6.12454L8.69269 2.53459L9.74803 2.5109C10.5919 2.492 12.7259 2.31554 13.9987 2.15952C14.3816 2.11255 15.1987 2.18647 15.6556 2.30938ZM24.1317 6.11802C25.6528 8.12028 26.8973 9.78344 26.8973 9.814C26.8973 9.91813 25.952 10.7683 25.5006 11.0702C25.0433 11.3759 23.9136 11.9555 23.7769 11.9544C23.7357 11.9541 22.3696 10.8977 20.7412 9.60692C19.1127 8.31611 17.6089 7.14827 17.3993 7.01173C16.4813 6.41372 16.0605 6.35667 14.3505 6.59829C12.739 6.82598 12.2219 6.8441 11.7266 6.69027C10.9796 6.45826 10.4155 5.8398 10.5061 5.35202C10.5283 5.23207 10.6008 5.10531 10.6753 5.05603C10.7469 5.00858 11.1217 4.91659 11.508 4.8515C12.0868 4.754 12.5409 4.6119 14.0867 4.0445C16.1232 3.29692 16.3742 3.2317 17.6045 3.13024C19.6277 2.96344 20.4853 2.82572 21.0343 2.57937C21.1472 2.52878 21.268 2.48513 21.3028 2.48252C21.3377 2.47986 22.6107 4.11582 24.1317 6.11802ZM5.41369 10.7389C6.13402 11.042 6.49383 11.9994 6.10693 12.5834C5.93286 12.8462 4.76589 14.0802 4.58859 14.189C4.42918 14.2868 3.83713 14.2836 3.60038 14.1836C2.96988 13.9175 2.55747 13.141 2.74374 12.5708C2.84488 12.2613 4.26062 10.7344 4.51964 10.6555C4.73452 10.5901 5.15267 10.6291 5.41369 10.7389ZM7.87228 13.1012C8.38653 13.3431 8.72201 13.8382 8.72201 14.355C8.72201 14.7416 8.61354 14.9128 7.85106 15.7299C7.34649 16.2706 7.10875 16.4812 6.92148 16.5534C6.32897 16.7821 5.58466 16.4295 5.28436 15.778C5.12635 15.4352 5.10864 15.1206 5.23065 14.8256C5.34222 14.5559 6.55798 13.2663 6.86197 13.0952C7.16691 12.9236 7.49899 12.9256 7.87228 13.1012ZM10.3366 15.4425C10.6506 15.5866 11.0335 16.0346 11.125 16.365C11.2478 16.808 11.1663 17.1118 10.8186 17.5072C10.2542 18.1489 9.63095 18.7753 9.47247 18.86C9.38535 18.9065 9.15998 18.9445 8.97148 18.9445C8.68923 18.9445 8.57291 18.9106 8.31113 18.752C7.74388 18.4084 7.46006 17.692 7.68262 17.1657C7.7807 16.9337 9.00754 15.6074 9.27835 15.4405C9.51052 15.2975 10.0225 15.2984 10.3366 15.4425ZM12.0653 18.1893C12.3703 18.3451 12.6879 18.7419 12.7423 19.0348C12.8158 19.4308 12.7291 19.6334 12.2833 20.1075C12.0529 20.3526 11.7918 20.591 11.7032 20.6373C11.2329 20.883 10.5365 20.5787 10.241 19.9983C10.0251 19.5742 10.0641 19.479 10.7594 18.733C11.4711 17.9693 11.5614 17.9317 12.0653 18.1893Z" fill="white"/>
</svg>
