<svg width="22" height="21" viewBox="0 0 22 21" fill="none" xmlns="http://www.w3.org/2000/svg">
<path d="M19.5938 0.617188L1.50781 11.0859C1.14323 11.2682 0.973958 11.5547 1 11.9453C1.02604 12.3359 1.22135 12.6094 1.58594 12.7656L5.72656 14.4844L16.9375 4.60156C17.0417 4.52344 17.1458 4.53646 17.25 4.64062C17.3542 4.71875 17.3672 4.8099 17.2891 4.91406L7.875 16.3984V19.5234C7.875 19.8359 7.96615 20.0703 8.14844 20.2266C8.35677 20.4089 8.59115 20.5 8.85156 20.5C9.13802 20.5 9.3724 20.3828 9.55469 20.1484L12.0156 17.1406L16.8984 19.1719C17.1589 19.3021 17.4193 19.2891 17.6797 19.1328C17.9661 18.9766 18.1354 18.7552 18.1875 18.4688L21 1.59375C21.0521 1.20312 20.9089 0.903646 20.5703 0.695312C20.2578 0.460938 19.9323 0.434896 19.5938 0.617188Z" fill="white"/>
</svg>
