<svg width="26" height="19" viewBox="0 0 26 19" fill="none" xmlns="http://www.w3.org/2000/svg">
<path d="M5.90941 7.57715C5.62037 7.57715 5.34299 7.62031 5.06691 7.65965C5.15635 7.3652 5.24837 7.06566 5.39613 6.79659C5.54389 6.40568 5.77461 6.0668 6.00402 5.72538C6.19585 5.35605 6.53415 5.10601 6.78301 4.78998C7.04353 4.48283 7.39867 4.27849 7.67994 4.02338C7.95601 3.75685 8.31764 3.62358 8.60538 3.43574C8.90609 3.26693 9.16791 3.08036 9.44787 2.99152L10.1465 2.70975L10.7609 2.45972L10.1322 0L9.35844 0.182765C9.11088 0.243687 8.80888 0.314762 8.4654 0.399799C8.11414 0.463259 7.73956 0.637141 7.3222 0.795791C6.91003 0.976018 6.43305 1.09786 5.98977 1.38724C5.54389 1.66393 5.02933 1.89492 4.57568 2.26553C4.13628 2.64756 3.60616 2.97882 3.21473 3.46493C2.787 3.91931 2.36446 4.39653 2.03653 4.93975C1.65676 5.45758 1.39883 6.02618 1.12664 6.58844C0.880375 7.1507 0.682065 7.72565 0.520048 8.2841C0.212862 9.40354 0.0754708 10.4671 0.022329 11.3772C-0.0217399 12.2884 0.00418298 13.0462 0.0586209 13.5945C0.0780631 13.8534 0.114355 14.1047 0.140278 14.2786L0.172681 14.4918L0.206381 14.4842C0.436914 15.5387 0.96761 16.5077 1.73708 17.2792C2.50654 18.0507 3.48334 18.5931 4.55447 18.8437C5.6256 19.0942 6.74729 19.0428 7.78979 18.6952C8.83229 18.3476 9.75299 17.7181 10.4454 16.8795C11.1378 16.0409 11.5736 15.0275 11.7024 13.9566C11.8312 12.8856 11.6477 11.8008 11.1732 10.8276C10.6987 9.85447 9.95251 9.03276 9.02099 8.45754C8.08947 7.88231 7.01068 7.57708 5.90941 7.57715ZM20.167 7.57715C19.8779 7.57715 19.6006 7.62031 19.3245 7.65965C19.4139 7.3652 19.5059 7.06566 19.6537 6.79659C19.8015 6.40568 20.0322 6.0668 20.2616 5.72538C20.4534 5.35605 20.7917 5.10601 21.0406 4.78998C21.3011 4.48283 21.6562 4.27849 21.9375 4.02338C22.2136 3.75685 22.5752 3.62358 22.8629 3.43574C23.1636 3.26693 23.4255 3.08036 23.7054 2.99152L24.4041 2.70975L25.0184 2.45972L24.3898 0L23.616 0.182765C23.3684 0.243687 23.0664 0.314762 22.723 0.399799C22.3717 0.463259 21.9971 0.637141 21.5798 0.795791C21.1689 0.977288 20.6906 1.09786 20.2473 1.38851C19.8015 1.6652 19.2869 1.89619 18.8332 2.2668C18.3938 2.64883 17.8637 2.98009 17.4723 3.46493C17.0446 3.91931 16.622 4.39653 16.2941 4.93975C15.9143 5.45758 15.6564 6.02618 15.3842 6.58844C15.1379 7.1507 14.9396 7.72565 14.7776 8.2841C14.4704 9.40354 14.333 10.4671 14.2799 11.3772C14.2358 12.2884 14.2617 13.0462 14.3162 13.5945C14.3356 13.8534 14.3719 14.1047 14.3978 14.2786L14.4302 14.4918L14.4639 14.4842C14.6945 15.5387 15.2252 16.5077 15.9946 17.2792C16.7641 18.0507 17.7409 18.5931 18.812 18.8437C19.8832 19.0942 21.0049 19.0428 22.0473 18.6952C23.0898 18.3476 24.0106 17.7181 24.703 16.8795C25.3954 16.0409 25.8312 15.0275 25.96 13.9566C26.0888 12.8856 25.9053 11.8008 25.4308 10.8276C24.9563 9.85447 24.2101 9.03276 23.2786 8.45754C22.347 7.88231 21.2682 7.57708 20.167 7.57715Z" fill="white"/>
</svg>
