<svg width="50" height="50" viewBox="0 0 50 50" fill="none" xmlns="http://www.w3.org/2000/svg">
<path fill-rule="evenodd" clip-rule="evenodd" d="M19.3164 1.26865C17.4963 2.71934 17.943 2.58779 15.3329 2.44209C13.9465 2.36465 13.6906 2.37305 13.4938 2.50186C13.3683 2.58428 12.7826 3.38438 12.1925 4.27988L11.1195 5.9082L9.29512 6.41084C7.12637 7.0083 7.15361 6.99814 7.01172 7.2625C6.9502 7.37695 6.6751 8.29434 6.40029 9.30098L5.90068 11.1313L4.27734 12.1965C3.38447 12.7824 2.58613 13.3654 2.50312 13.4921C2.37275 13.691 2.36445 13.9416 2.44209 15.3329C2.58779 17.943 2.71934 17.4963 1.26865 19.3164C0.570898 20.1919 0 20.993 0 21.0967C0 21.2003 0.312988 22.121 0.695508 23.1426L1.39102 25L0.695508 26.8574C0.312988 27.879 0 28.7997 0 28.9033C0 29.007 0.570898 29.8081 1.26865 30.6836C2.71934 32.5037 2.58779 32.057 2.44209 34.6671C2.36445 36.0584 2.37275 36.309 2.50312 36.5079C2.58613 36.6346 3.38447 37.2176 4.27734 37.8035L5.90068 38.8687L6.40527 40.699C6.99805 42.8495 6.99668 42.8457 7.25146 42.9821C7.35996 43.0401 8.27471 43.3136 9.28418 43.5897L11.1195 44.0918L12.1925 45.7201C12.7826 46.6156 13.3683 47.4157 13.4938 47.4981C13.6906 47.627 13.9465 47.6354 15.3329 47.5579C17.943 47.4122 17.4963 47.2807 19.3164 48.7313C20.1935 49.4304 20.9983 50 21.109 50C21.2194 50 22.1403 49.6871 23.1555 49.3047L25.0011 48.6094L26.858 49.3047C27.8793 49.6871 28.7997 50 28.9033 50C29.007 50 29.8081 49.4291 30.6836 48.7313C32.5037 47.2807 32.057 47.4122 34.6671 47.5579C36.0535 47.6354 36.3094 47.627 36.5062 47.4981C36.6317 47.4157 37.217 46.6168 37.8065 45.7226L38.8785 44.0967L40.7039 43.5984C41.7079 43.3243 42.623 43.0498 42.7375 42.9883C43.0018 42.8465 42.9916 42.8736 43.591 40.7093L44.0951 38.8892L45.7238 37.8087C46.6196 37.2145 47.419 36.6269 47.5002 36.5029C47.6265 36.3102 47.6349 36.0449 47.5579 34.6671C47.4122 32.057 47.2807 32.5037 48.7313 30.6836C49.4291 29.8081 50 29.007 50 28.9033C50 28.7997 49.687 27.879 49.3045 26.8574L48.609 25L49.3045 23.1426C49.687 22.121 50 21.2003 50 21.0967C50 20.993 49.4291 20.1919 48.7313 19.3164C47.2807 17.4963 47.4122 17.943 47.5579 15.3329C47.6349 13.9551 47.6265 13.6898 47.5002 13.4971C47.419 13.3731 46.6196 12.7855 45.7238 12.1913L44.0951 11.1108L43.591 9.29072C42.9916 7.12637 43.0018 7.15352 42.7375 7.01172C42.623 6.9502 41.7079 6.67568 40.7039 6.40156L38.8785 5.90332L37.8065 4.27744C37.217 3.3832 36.6317 2.58428 36.5062 2.50186C36.3094 2.37305 36.0535 2.36465 34.6671 2.44209C32.0486 2.58818 32.4885 2.71484 30.7596 1.31758C29.9282 0.645703 29.1451 0.0686523 29.0192 0.0351562C28.863 -0.00644531 28.1893 0.19873 26.8949 0.682129L24.9994 1.39004L23.1546 0.69502C22.1399 0.312793 21.2194 0 21.109 0C20.9983 0 20.1935 0.569629 19.3164 1.26865ZM23.6084 2.54209L25 3.05908L26.3916 2.54209C27.1569 2.25771 27.9882 1.94502 28.2387 1.84736L28.6941 1.66963L30.2336 2.8957L31.773 4.12178L33.7512 4.05117L35.7293 3.98057L36.7219 5.48145C37.2679 6.30703 37.7766 7.05225 37.8523 7.1376C37.9281 7.22295 38.7772 7.50391 39.7393 7.76182C40.7014 8.01982 41.541 8.26338 41.6053 8.30303C41.6694 8.34277 41.9478 9.20439 42.2239 10.2179L42.7259 12.0605L44.3726 13.1699L46.0191 14.2793L45.9486 16.2531L45.8782 18.227L47.1043 19.7664L48.3304 21.3059L48.1526 21.7613C48.055 22.0118 47.7423 22.8431 47.4579 23.6084L46.9409 25L47.4579 26.3916C47.7423 27.157 48.0557 27.99 48.1543 28.2428L48.3336 28.7022L47.2611 30.0305C45.7193 31.9399 45.8668 31.5189 45.9492 33.7763L46.0202 35.72L44.373 36.8298L42.7259 37.9395L42.2239 39.7821C41.9478 40.7956 41.6694 41.6572 41.6053 41.697C41.541 41.7366 40.7014 41.9802 39.7393 42.2382C38.7772 42.4961 37.9281 42.7771 37.8523 42.8624C37.7766 42.9478 37.2679 43.693 36.7219 44.5186L35.7293 46.0194L33.7512 45.9488L31.773 45.8782L30.2336 47.1043L28.6941 48.3304L28.2387 48.1526C27.9882 48.055 27.157 47.7423 26.3916 47.4579L25 46.9409L23.6084 47.4579C22.8431 47.7423 22.0139 48.0542 21.7658 48.1509L21.3147 48.3269L19.9104 47.2022C19.1379 46.5837 18.4237 46.0329 18.3234 45.9784C18.2046 45.9138 17.4659 45.9038 16.2056 45.9499L14.2702 46.0205L13.2337 44.4536C12.6636 43.5919 12.1443 42.8437 12.08 42.7909C12.0156 42.7382 11.154 42.4733 10.1652 42.2023C9.17656 41.9314 8.3374 41.6609 8.30059 41.6012C8.26367 41.5415 8.02441 40.7151 7.76895 39.7648C7.51348 38.8146 7.25781 37.9801 7.20088 37.9104C7.14395 37.8407 6.396 37.3224 5.53887 36.7584L3.98037 35.7332L4.05107 33.7531L4.12178 31.773L2.8957 30.2336L1.66963 28.6941L1.84736 28.2387C1.94502 27.9882 2.25771 27.157 2.54209 26.3916L3.05908 25L2.54209 23.6084C2.25771 22.8431 1.94502 22.0118 1.84736 21.7613L1.66963 21.3059L2.8957 19.7664L4.12178 18.227L4.05107 16.2469L3.98037 14.2668L5.53887 13.2416C6.396 12.6776 7.14395 12.1593 7.20088 12.0896C7.25781 12.0199 7.51348 11.1854 7.76895 10.2352C8.02441 9.28486 8.26367 8.4585 8.30059 8.39883C8.3374 8.33906 9.17656 8.06855 10.1652 7.79766C11.154 7.52666 12.0156 7.26182 12.08 7.20908C12.1443 7.15635 12.6636 6.40811 13.2337 5.54639L14.2702 3.97949L16.2056 4.0501C17.4659 4.09619 18.2046 4.08623 18.3234 4.02158C18.4237 3.96709 19.1379 3.41631 19.9104 2.79775L21.3147 1.67314L21.7658 1.84912C22.0139 1.9458 22.843 2.25771 23.6084 2.54209ZM23.5352 5.04072C17.1994 5.621 11.8552 8.73975 8.36025 13.8963C3.62705 20.88 3.93613 30.4272 9.11279 37.1391C9.75605 37.9731 9.90195 38.0859 10.3381 38.0859C10.6813 38.0859 11.0352 37.7031 11.0352 37.3319C11.0352 37.1857 10.7531 36.7181 10.311 36.1313C7.21455 32.0206 5.96494 26.9021 6.82939 21.8701C8.58672 11.6409 18.4937 4.86992 28.6621 6.94853C30.5771 7.33994 32.4633 8.05283 34.1836 9.03545C34.6986 9.32959 35.2181 9.57031 35.3379 9.57031C35.6718 9.57031 36.0352 9.14883 36.0352 8.76172C36.0352 8.3373 35.8439 8.16465 34.6191 7.4832C32.6753 6.40166 30.1918 5.57002 27.8822 5.22705C26.8195 5.06924 24.3698 4.96426 23.5352 5.04072ZM37.4644 10.261C37.2712 10.4129 37.207 10.5514 37.207 10.8162C37.207 11.1282 37.3011 11.2632 38.0189 11.9811C38.9474 12.9095 39.1794 12.9841 39.656 12.5075C40.1353 12.0282 40.0056 11.6887 38.97 10.7118C38.2035 9.98877 37.9188 9.90352 37.4644 10.261ZM28.9779 11.3321C27.7982 11.6249 26.7578 12.8 26.7578 13.8396C26.7578 14.795 24.8783 16.4789 23.0185 17.1898C21.9322 17.6052 21.653 17.7802 20.8008 18.5803L20.0684 19.268L16.7969 19.2775C13.5351 19.2871 13.5244 19.2878 13.2065 19.5146C12.5151 20.0077 12.5519 19.5877 12.5212 27.3438C12.4967 33.5598 12.5108 34.3714 12.6503 34.7385C12.8354 35.2257 13.2445 35.598 13.7481 35.7379C14.2436 35.8755 19.0761 35.8702 19.5755 35.7315C19.7878 35.6727 20.1108 35.4751 20.2933 35.2927L20.625 34.9609H27.1713C32.0655 34.9609 33.819 34.9307 34.1195 34.8409C34.7343 34.6573 35.4908 33.8687 35.6842 33.2098C35.8783 32.5481 35.8758 32.3979 35.6597 31.7725L35.4858 31.2696L35.7982 31.0203C36.5028 30.4582 36.8245 29.1915 36.4751 28.3554L36.3292 28.0061L36.7672 27.5189C37.2034 27.0336 37.5036 26.3216 37.4968 25.7879C37.495 25.65 37.4098 25.2954 37.3072 25L37.1209 24.4629L37.4485 24.1211C38.2688 23.2656 38.5211 21.975 38.0631 20.9786C37.7227 20.2381 37.3822 19.8782 36.6992 19.5369L36.1017 19.2383H33.1391H30.1766L30.7716 18.4358C31.9397 16.8604 32.4742 15.4479 32.4018 14.128C32.3539 13.2573 32.162 12.767 31.6333 12.1648C31.0522 11.503 29.8315 11.1202 28.9779 11.3321ZM30.2537 13.049C30.9862 13.5229 31.0558 14.6607 30.4325 15.9732C29.9366 17.0175 29.3082 17.8683 28.299 18.862C27.6126 19.5379 27.442 19.762 27.4445 19.9851C27.448 20.3026 27.5906 20.523 27.8988 20.6872C28.0506 20.768 29.2205 20.8009 31.9516 20.8012C35.5873 20.8015 35.8076 20.8116 36.1036 20.9922C37.1616 21.6372 36.734 23.3398 35.5141 23.3398C34.6554 23.3398 34.2773 23.6065 34.2773 24.2123C34.2773 24.6012 34.5505 24.8653 35.0376 24.9477C35.4911 25.0242 35.8117 25.3232 35.8969 25.7491C35.9455 25.9923 35.9022 26.1105 35.6695 26.371C35.4002 26.6725 35.3315 26.6964 34.5751 26.752C33.8871 26.8025 33.7408 26.8449 33.5833 27.0395C33.1875 27.5282 33.5107 28.1759 34.2059 28.287C34.9947 28.4132 35.3184 29.1793 34.825 29.7528C34.6132 29.9991 34.5199 30.0278 33.824 30.0611C32.8928 30.1056 32.6172 30.2901 32.6172 30.8693C32.6172 31.2881 32.9609 31.6406 33.3692 31.6406C33.7346 31.6406 33.9874 31.8192 34.1404 32.1855C34.2613 32.475 34.2613 32.5641 34.1404 32.8535C34.0637 33.0371 33.9122 33.2349 33.8037 33.293C33.6683 33.3654 31.6044 33.3984 27.2068 33.3984H20.8071L20.7796 29.4347L20.752 25.4709L20.5214 25.2843C20.2132 25.0348 19.6758 25.0407 19.457 25.2961C19.3027 25.4763 19.2826 25.8958 19.2383 29.8615L19.1895 34.2285H16.6504H14.1113L14.0862 27.5146L14.0611 20.8008H16.6497H19.2383V21.7955C19.2383 22.6823 19.2613 22.8146 19.4506 23.0162C19.7142 23.2967 20.2013 23.3146 20.5214 23.0557C20.7342 22.8836 20.755 22.7838 20.7911 21.7617L20.8304 20.6543L21.7417 19.8448C22.5314 19.1433 22.7888 18.9792 23.6713 18.6145C24.9832 18.0724 26.153 17.2892 27.0299 16.3661C27.8239 15.5302 28.1585 14.942 28.3118 14.1125C28.5144 13.0168 29.4293 12.5157 30.2537 13.049ZM40.8691 13.9776C40.3867 14.2473 40.2892 14.7825 40.6311 15.2832C41.3895 16.3938 42.4835 19.0143 42.8781 20.6657C43.5432 23.4486 43.5189 26.8503 42.8146 29.5607C41.1049 36.1415 35.9127 41.2785 29.3735 42.8591C27.7466 43.2523 26.6927 43.3733 24.9023 43.3725C22.0523 43.3711 19.6416 42.8301 17.041 41.6082C15.9891 41.1139 14.358 40.0952 13.5015 39.3975C13.0834 39.0569 12.8924 38.9648 12.6038 38.9648C12.1376 38.9648 11.875 39.2361 11.875 39.7178C11.875 40.1447 12.23 40.4849 13.732 41.4972C19.8399 45.6137 27.5208 46.1063 34.018 42.7982C39.6617 39.9247 43.4979 34.7277 44.6824 28.3508C44.8953 27.2048 44.9809 24.0476 44.8331 22.791C44.5487 20.3726 43.8955 18.1858 42.8103 16.0192C41.851 14.1044 41.4315 13.6632 40.8691 13.9776ZM16.354 30.9502C16.001 31.0971 15.8735 31.3563 15.9067 31.8604C15.926 32.1533 16.2817 32.4219 16.6504 32.4219C17.1809 32.4219 17.4441 32.09 17.3863 31.4941C17.3462 31.0801 16.7707 30.7769 16.354 30.9502Z" fill="#B68C5A"/>
</svg>
