<svg width="50" height="50" viewBox="0 0 50 50" fill="none" xmlns="http://www.w3.org/2000/svg">
<path fill-rule="evenodd" clip-rule="evenodd" d="M23.6423 0.030078C23.4573 0.0560205 22.8266 0.130829 22.2408 0.196356C17.3423 0.743833 12.4154 2.75673 8.83817 5.67191C4.09774 9.53522 1.03249 15.208 0.139674 21.7707C-0.0465579 23.1392 -0.0465579 26.8879 0.139674 28.2563C0.798603 33.0996 2.69085 37.5886 5.53837 41.0641C9.42759 45.8111 15.0104 48.8005 21.8484 49.7978C23.6915 50.0666 26.9092 50.0675 28.5756 49.7996C33.9684 48.9324 38.6089 46.6402 42.4052 42.9681C46.3132 39.1881 48.7317 34.5613 49.7251 28.9645C50.0656 27.046 50.095 23.2644 49.7841 21.3793C49.3587 18.8003 48.6596 16.5036 47.6398 14.3346C47.1043 13.1957 46.8334 12.8996 46.3274 12.8996C45.9401 12.8996 45.4496 13.3519 45.4496 13.7093C45.4496 13.8198 45.7052 14.4504 46.0173 15.1106C47.6699 18.6047 48.4632 22.714 48.1622 26.2204C47.6222 32.5078 45.3929 37.6063 41.4754 41.5132C38.0609 44.9187 33.6302 47.1006 28.5195 47.8933C26.9585 48.1354 23.1133 48.1697 21.7362 47.9538C18.9007 47.5092 16.7604 46.8755 14.5899 45.8382C7.38319 42.3939 3.00737 36.1396 1.81901 27.5854C1.60654 26.0558 1.63592 22.6539 1.8735 21.2675C2.98091 14.8068 6.54543 9.38673 12.0939 5.72648C14.9088 3.86957 17.9793 2.64949 21.3999 2.029C22.953 1.74721 26.3657 1.68839 27.9944 1.91539C30.4629 2.25935 32.9667 3.02096 35.0483 4.06112C36.1266 4.59999 36.3094 4.63454 36.6864 4.3712C37.0462 4.11983 37.1692 3.73617 37.0235 3.3193C36.9219 3.02857 36.7247 2.88935 35.7665 2.43189C33.5321 1.365 31.1254 0.621725 28.6877 0.24567C27.5914 0.076484 24.3102 -0.0636283 23.6423 0.030078ZM42.3663 1.41655C42.243 1.46877 40.5843 3.07151 38.6803 4.97806L35.2185 8.44463L35.2872 9.15313C35.3249 9.54283 35.4122 10.5859 35.4813 11.471L35.6068 13.0801L29.8876 18.7953C26.742 21.9386 24.1337 24.6273 24.0913 24.7702C23.9126 25.3733 24.571 26.0299 25.1756 25.8516C25.3189 25.8094 28.0149 23.2081 31.1665 20.0708L36.897 14.3668L38.5104 14.492C39.3978 14.5609 40.4437 14.648 40.8344 14.6856L41.5448 14.7541L45.0203 11.3016C46.9318 9.40261 48.5416 7.73334 48.5977 7.59199C48.6673 7.41688 48.6491 7.21437 48.5407 6.95562C48.3376 6.47087 48.0721 6.40255 45.7339 6.23392C44.7493 6.16292 43.9302 6.09135 43.9136 6.0748C43.8971 6.05825 43.813 5.13763 43.7268 4.02881C43.6406 2.9201 43.5147 1.90979 43.4471 1.78377C43.3564 1.6147 42.7022 1.2515 42.6019 1.31446C42.5956 1.31837 42.4897 1.36433 42.3663 1.41655ZM42.0791 5.94341C42.2359 7.76834 42.2317 7.76431 44.2058 7.92902L45.6916 8.05303L43.2723 10.4678L40.8529 12.8825L39.165 12.7544C38.2365 12.6841 37.4474 12.597 37.4114 12.5611C37.3754 12.5252 37.2864 11.7522 37.2136 10.8433L37.0813 9.19081L39.4996 6.75647C40.8296 5.41763 41.9283 4.38608 41.941 4.46413C41.9536 4.54229 42.0157 5.20796 42.0791 5.94341ZM23.6983 8.08412C20.7089 8.44664 18.2709 9.20546 16.1302 10.4396C13.4571 11.9809 11.2167 14.3646 9.80151 17.1735C9.20167 18.364 8.52031 20.4008 8.26356 21.7707C7.98483 23.2576 7.98483 26.7695 8.26356 28.2563C9.42512 34.4542 13.7078 39.2991 19.6186 41.1025C24.1155 42.4744 28.1787 42.2387 32.2112 40.372C33.9565 39.5638 35.3625 38.5564 36.9359 36.9865C39.5352 34.393 41.0426 31.5476 41.7091 27.9768C41.9904 26.4701 41.9915 23.4818 41.7114 22.0503C41.3096 19.996 40.2426 17.1583 39.6705 16.6222C39.2855 16.2616 38.7595 16.2819 38.4244 16.6704C38.0677 17.0841 38.0895 17.2712 38.6172 18.3178C40.5344 22.1209 40.6823 26.5342 39.0281 30.5888C37.0502 35.437 32.9709 38.8911 27.9589 39.9617C26.6175 40.2483 23.4873 40.2425 22.0726 39.9507C17.326 38.9722 13.4103 36.0057 11.2761 31.7713C10.7999 30.8266 10.2021 29.0597 9.95455 27.865C9.66203 26.454 9.6562 23.3322 9.94356 21.9944C10.5857 19.0043 11.8609 16.6911 14.1096 14.4384C16.3347 12.209 18.9876 10.7693 22.1287 10.0864C23.4257 9.80449 25.9884 9.7459 27.342 9.9673C28.6922 10.1881 30.4143 10.7473 31.6453 11.3645C32.6946 11.8907 32.8823 11.9125 33.2971 11.5567C33.6657 11.2405 33.7056 10.708 33.3874 10.3491C32.8975 9.79655 30.1383 8.73011 28.1946 8.3422C27.1568 8.135 24.5243 7.98393 23.6983 8.08412ZM23.3322 16.2449C19.8154 16.879 17.2018 19.2829 16.2908 22.7212C15.9643 23.9531 15.9589 26.0542 16.2791 27.2604C17.2153 30.7875 19.8129 33.1614 23.4234 33.7893C24.6405 34.0009 25.4633 34.0041 26.5195 33.8011C30.409 33.0534 33.2417 30.0973 33.8072 26.1959C33.982 24.9899 33.8005 22.9902 33.4508 22.2699C33.0516 21.4474 32.2811 21.3433 31.8174 22.0493C31.6385 22.3215 31.6397 22.3804 31.8395 23.0886C32.1619 24.2318 32.1153 26.0227 31.7326 27.194C30.9569 29.5683 29.1611 31.2736 26.7816 31.8952C25.8861 32.1292 23.9642 32.127 23.0817 31.8911C21.7944 31.547 20.7954 30.9754 19.8761 30.057C17.0931 27.2769 17.0722 22.786 19.8293 20.0368C21.6837 18.1877 24.0928 17.4836 26.5535 18.0713C27.7111 18.3479 28.0739 18.2781 28.2993 17.7355C28.4065 17.4773 28.4044 17.3369 28.289 17.0591C28.0979 16.599 27.4994 16.3391 26.2796 16.1866C25.0736 16.0357 24.4203 16.0487 23.3322 16.2449Z" fill="#B68C5A"/>
</svg>
