<svg width="50" height="50" viewBox="0 0 50 50" fill="none" xmlns="http://www.w3.org/2000/svg">
<path fill-rule="evenodd" clip-rule="evenodd" d="M23.3267 0.10495C22.7575 0.318497 22.2246 0.67746 21.9931 1.00324L21.7853 1.29584L20.4606 1.2455C19.4846 1.20836 18.9311 1.23853 18.3577 1.36012C16.8527 1.67914 15.4493 2.59398 14.945 3.58484C14.3387 4.77594 14.4533 6.93108 15.2016 8.41124C15.3814 8.76677 15.4519 9.07788 15.4519 9.51476C15.4519 11.1539 16.0164 12.5246 17.1531 13.646C18.289 14.7665 19.4631 15.2569 21.004 15.2545C22.5478 15.252 23.6578 14.8078 24.7868 13.7402C25.9355 12.6542 26.551 11.2172 26.5544 9.61326C26.5558 8.99082 26.6087 8.8037 27.0103 8.001C27.2602 7.50161 27.6192 6.62485 27.8079 6.05275C28.1054 5.15145 28.1521 4.86675 28.1579 3.9204C28.1641 2.89947 28.1446 2.79213 27.8587 2.27496C27.4254 1.49087 26.4007 0.562209 25.6549 0.277618C24.9071 -0.00770095 23.8384 -0.086962 23.3267 0.10495ZM25.1589 1.6701C25.7996 1.96904 26.515 2.7576 26.6703 3.33583C26.7647 3.68699 26.7485 3.91031 26.5788 4.59953C26.3807 5.40348 25.8812 6.79866 25.7319 6.96446C25.6926 7.00826 25.4586 6.76517 25.2122 6.4242C24.5299 5.48004 24.5328 5.48066 20.827 5.48066C17.9033 5.48066 17.6683 5.49449 17.2657 5.68984C16.961 5.83765 16.7562 6.04194 16.567 6.38686L16.2994 6.8747L16.2278 6.49212C16.1884 6.2817 16.1731 5.73717 16.1936 5.28209C16.236 4.34823 16.3658 4.09827 17.1029 3.53127C17.7755 3.01389 18.8264 2.73149 20.07 2.73377C20.6407 2.73481 21.3518 2.79088 21.6501 2.85839C22.3593 3.01868 22.6176 2.91123 22.9693 2.3098C23.4875 1.42337 24.1904 1.21804 25.1589 1.6701ZM24.29 7.97749L24.9022 8.86205L24.919 9.74578C24.9324 10.4466 24.8873 10.7532 24.7009 11.2273C24.3736 12.0597 23.5977 12.8803 22.7363 13.3055C22.0958 13.6215 21.9712 13.646 21.0061 13.646C20.0808 13.646 19.902 13.6144 19.3829 13.3588C18.4833 12.9161 17.8966 12.336 17.467 11.4649C17.1517 10.8253 17.0817 10.5585 17.0358 9.81932L16.9808 8.93715L17.4871 7.98747L17.9934 7.03769L20.8355 7.06536L23.6777 7.09293L24.29 7.97749ZM41.1884 8.18511C40.8967 8.4775 40.919 8.99321 41.2379 9.3268L41.495 9.59579L39.1204 11.9742L36.7458 14.3527L36.4625 14.1294C36.0706 13.8204 35.6512 13.8402 35.3845 14.1801C34.9461 14.7387 34.9986 14.8172 37.4829 17.3143C39.5264 19.3683 39.8361 19.6408 40.1363 19.6494C40.8425 19.6695 41.1664 18.857 40.6653 18.3222L40.4189 18.0594L41.3545 17.1216L42.29 16.1839L45.0341 19.0683C46.5434 20.6548 48.0135 22.2018 48.3009 22.5062C48.903 23.1436 49.2385 23.2177 49.6509 22.8042C50.1978 22.2561 50.1936 22.2501 46.5937 18.4731L43.2818 14.9982L44.1729 14.094L45.0641 13.1897L45.3654 13.4439C45.9402 13.9287 46.6886 13.6489 46.6886 12.9492C46.6886 12.6544 46.4252 12.3515 44.3826 10.2968C42.3127 8.21465 42.0418 7.97707 41.7363 7.97707C41.5343 7.97707 41.3116 8.06164 41.1884 8.18511ZM43.3439 11.4374L43.9884 12.0894L41.6037 14.4779L39.2191 16.8664L38.5953 16.2477C38.2521 15.9073 37.9714 15.5809 37.9714 15.5224C37.9714 15.4159 42.5383 10.7855 42.6435 10.7855C42.6741 10.7855 42.9893 11.0789 43.3439 11.4374ZM7.44891 11.7002C6.80902 12.0352 6.27541 12.6746 6.10345 13.3123C5.962 13.8371 6.03392 14.7011 6.25475 15.1291L6.41478 15.4394L4.89726 16.882C3.60908 18.1066 3.33138 18.4268 3.05948 19.0017L2.73934 19.679L2.70685 23.7617L2.67437 27.8443H1.54695C0.452522 27.8443 0.413087 27.8524 0.204393 28.1184C-0.0809914 28.482 -0.0672929 28.8373 0.244036 29.1492C0.478466 29.3843 0.576639 29.4046 1.47814 29.4046H2.45748L2.4993 30.5748C2.54621 31.8881 2.72055 32.3761 3.32567 32.8864C3.92301 33.3901 4.03083 33.4057 7.28577 33.4609L10.3793 33.5133L10.6842 34.2379L10.9891 34.9624L9.22981 36.7363C8.15064 37.8245 7.40864 38.6588 7.31016 38.8948C7.0859 39.4329 7.10603 40.2742 7.35561 40.7909C7.4843 41.0571 8.44817 42.1 9.92408 43.5698C11.9909 45.6278 12.3453 45.9382 12.7537 46.0482C13.3389 46.2056 14.12 46.1188 14.551 45.8484C14.7326 45.7345 15.6224 44.8955 16.5284 43.984L18.1757 42.3267L18.9412 42.6469L19.7067 42.9672L19.709 45.5734C19.7115 48.4822 19.7507 48.6826 20.4469 49.3454C21.0912 49.9591 21.3641 50 24.8188 50C28.2619 50 28.4933 49.9675 29.1652 49.391C29.9371 48.7288 29.9757 48.5451 29.9783 45.5264L29.9806 42.8732L30.4216 42.7035C30.6642 42.6102 31.0151 42.4713 31.2014 42.395L31.5402 42.256L33.2769 43.9853C34.2322 44.9365 35.1632 45.7896 35.3458 45.881C35.8207 46.1188 36.8649 46.0993 37.3937 45.8425C37.6518 45.7173 38.6697 44.7781 40.0148 43.4241C42.3585 41.065 42.6367 40.6811 42.6367 39.8063C42.6367 38.9743 42.3307 38.5218 40.5596 36.7348C39.6497 35.8167 38.9053 35.0206 38.9053 34.9656C38.9053 34.9105 39.0325 34.573 39.1878 34.2154L39.4704 33.5653L42.379 33.5647C44.0072 33.5644 45.4528 33.5181 45.663 33.4596C46.2031 33.3092 46.6863 32.9523 47.0479 32.4366C47.3488 32.0075 47.3648 31.9314 47.3997 30.757L47.4363 29.5269L48.5247 29.4918C49.5215 29.4595 49.6297 29.436 49.8112 29.211C50.0859 28.8708 50.0595 28.4401 49.7407 28.0604L49.472 27.7403H47.3539H45.2357L45.2351 26.5181C45.2348 25.846 45.1834 25.1087 45.121 24.8799C44.9611 24.2942 44.1716 23.546 43.5471 23.3885C43.2302 23.3085 41.879 23.2676 39.5528 23.2676C35.5503 23.2676 35.2685 23.3075 34.6278 23.9666C34.0278 24.5837 33.9241 24.9478 33.9241 26.4368V27.7403H29.2231H24.5222L23.98 24.6458L23.4378 21.5513L23.8633 20.4591C24.0974 19.8584 24.4288 19.0041 24.5998 18.5608L24.9106 17.7547H26.243C28.2531 17.7547 29.2654 18.1572 30.184 19.322C30.9244 20.261 31.048 20.759 31.0983 23.0075C31.148 25.23 31.1856 25.3491 31.8387 25.3464C32.5969 25.3431 32.6792 25.1219 32.677 23.0924C32.6749 21.1876 32.5323 20.3536 32.035 19.3371C31.5855 18.4181 30.4696 17.2732 29.5922 16.8309C28.3179 16.1884 28.3976 16.1944 21.1948 16.1944C16.86 16.1944 14.4452 16.2329 14.082 16.3079C12.5876 16.6163 10.9763 17.8507 10.2863 19.2158C9.67636 20.4226 9.64305 20.6899 9.6417 24.3858L9.64045 27.7403H6.93656H4.23278L4.26433 23.7617C4.29193 20.2983 4.31819 19.7426 4.46731 19.471C4.56154 19.2993 5.29514 18.5609 6.09764 17.8302L7.55663 16.5014L8.03234 16.6214C8.98625 16.8622 9.94338 16.5384 10.6473 15.7369C11.1107 15.2093 11.3013 14.6859 11.2998 13.946C11.2987 13.344 10.9451 12.5262 10.5097 12.1179C9.70417 11.3625 8.42679 11.1881 7.44891 11.7002ZM9.2103 13.1181C9.80297 13.4253 9.91608 14.2301 9.44141 14.7625C8.84708 15.4293 7.76927 15.121 7.60374 14.2368C7.43407 13.3301 8.3665 12.6807 9.2103 13.1181ZM18.053 19.627C18.4426 20.6282 18.7637 21.5643 18.7664 21.7073C18.7692 21.8504 18.5385 23.278 18.2539 24.8799C17.9692 26.4817 17.736 27.8047 17.7357 27.8198C17.7353 27.835 16.2757 27.835 14.492 27.8198L11.249 27.7923V24.3598V20.9272L11.582 20.2225C12.1772 18.9632 13.3649 18.0658 14.7015 17.8657C15.0286 17.8168 15.7571 17.7834 16.3203 17.7917L17.3445 17.8067L18.053 19.627ZM23.1314 17.866C23.1314 17.9271 22.8863 18.6059 22.5869 19.3742L22.0423 20.7712H21.1012H20.1601L19.5822 19.3202C19.2644 18.5222 19.0301 17.8435 19.0616 17.812C19.1753 17.6979 23.1314 17.7504 23.1314 17.866ZM22.1491 23.7617C22.3056 24.6056 22.5373 25.846 22.6641 26.5181L22.8945 27.7403H21.0572H19.2199L19.6664 25.3219C19.9119 23.9919 20.1403 22.7514 20.1739 22.5655L20.2351 22.2274H21.0498H21.8647L22.1491 23.7617ZM43.4807 25.1254C43.65 25.335 43.6791 25.5444 43.6791 26.5557V27.7403H39.5799H35.4807V26.5394C35.4807 25.3982 35.4936 25.3256 35.7392 25.0794L35.9978 24.8202L39.6402 24.85L43.2825 24.8799L43.4807 25.1254ZM35.4263 29.6386C35.1905 31.0709 34.2868 33.0882 33.409 34.1418C32.6516 35.0511 32.5565 35.2494 32.6919 35.6385C32.8121 35.9844 33.0539 36.1657 33.3947 36.1657C34.0147 36.1657 35.469 34.1748 36.2822 32.2131C36.6332 31.3664 37.0374 29.8957 37.0374 29.4652V29.1966H41.4479H45.8584V30.0722C45.8584 30.5538 45.8859 31.0198 45.9196 31.1078C45.9557 31.2021 45.8725 31.3762 45.7167 31.5324L45.4527 31.797H42.3674C38.358 31.797 38.4653 31.7537 37.7283 33.6693C37.3139 34.7462 37.2708 35.0926 37.4973 35.5208C37.5791 35.6753 38.3994 36.5506 39.3205 37.4659C41.0418 39.1767 41.338 39.5517 41.2259 39.8778C41.1902 39.9815 40.1753 41.0611 38.9704 42.2767C37.1066 44.1574 36.7341 44.4871 36.4741 44.4871C36.217 44.4871 35.8784 44.1984 34.3457 42.6727C33.3433 41.6749 32.3916 40.8089 32.231 40.7484C31.7711 40.5753 31.2685 40.6182 30.6261 40.8853C30.2996 41.021 29.8657 41.1857 29.6618 41.2513C29.4579 41.3169 29.131 41.5359 28.9354 41.7381L28.5796 42.1058L28.5277 45.0742C28.4759 48.0395 28.4756 48.0426 28.2308 48.2411C28.0022 48.4265 27.7833 48.4397 24.9499 48.4397C22.0579 48.4397 21.9014 48.4298 21.6466 48.229L21.3793 48.0182L21.3473 45.1865C21.3073 41.6467 21.3633 41.7901 19.7798 41.1758C19.1974 40.9499 18.6147 40.7331 18.4851 40.694C17.909 40.5205 17.6321 40.7144 15.6508 42.679C14.0438 44.2722 13.6722 44.5911 13.4223 44.5911C13.1701 44.5911 12.7706 44.2385 10.9144 42.378C8.90271 40.3617 8.70647 40.1334 8.70647 39.8102C8.70647 39.4898 8.88227 39.2779 10.5166 37.6285C11.5122 36.6237 12.3761 35.6699 12.4365 35.5089C12.62 35.0192 12.5644 34.6711 12.1186 33.5184C11.774 32.6269 11.6198 32.3581 11.3228 32.1309L10.9543 31.849L7.69361 31.797L4.43296 31.745L4.23475 31.4994C4.0711 31.2967 4.03654 31.0834 4.03654 30.2772V29.3006L8.47297 29.3007L12.9094 29.3008L12.9276 29.7948C12.9545 30.5306 13.4228 32.0248 13.9998 33.216C16.4641 38.3043 22.4054 41.0345 27.9154 39.6106C28.9755 39.3366 30.2736 38.8136 30.8827 38.415C31.3271 38.1243 31.385 38.0426 31.4125 37.6678C31.4734 36.8389 30.8633 36.6552 29.8104 37.1856C25.6443 39.2842 20.6736 38.5029 17.4158 35.2375C15.8868 33.705 14.8626 31.7368 14.4751 29.5866L14.4047 29.1966H24.9519H35.499L35.4263 29.6386Z" fill="#B68C5A"/>
</svg>
