<svg width="80" height="72" viewBox="0 0 80 72" fill="none" xmlns="http://www.w3.org/2000/svg">
<path d="M2.75806 12.5603C3.30326 12.5603 3.82789 12.3442 4.2085 11.9533C4.58912 11.5727 4.81543 11.0378 4.81543 10.5029C4.81543 9.95773 4.5994 9.43309 4.2085 9.05248C3.82789 8.67186 3.29297 8.44556 2.75806 8.44556C2.22314 8.44556 1.68822 8.66158 1.30761 9.05248C0.926995 9.43309 0.700684 9.96801 0.700684 10.5029C0.700684 11.0481 0.916708 11.5727 1.30761 11.9533C1.68822 12.3442 2.21285 12.5603 2.75806 12.5603Z" fill="#00062C"/>
<path d="M23.9694 12.5603C25.1112 12.5603 26.037 11.6345 26.037 10.5029C26.037 9.37137 25.1112 8.44556 23.9796 8.44556H23.9694C22.8378 8.44556 21.912 9.37137 21.912 10.5029C21.912 11.6448 22.8275 12.5603 23.9694 12.5603Z" fill="#00062C"/>
<path d="M13.3633 12.5603C14.5052 12.5603 15.431 11.6345 15.431 10.5029C15.431 9.37137 14.5052 8.44556 13.3736 8.44556H13.3633C12.2318 8.44556 11.306 9.37137 11.306 10.5029C11.306 11.6448 12.2215 12.5603 13.3633 12.5603Z" fill="#00062C"/>
<path d="M34.5858 12.5603C35.131 12.5603 35.6556 12.3442 36.0362 11.9533C36.4168 11.5727 36.6431 11.0378 36.6431 10.5029C36.6431 9.95773 36.4271 9.43309 36.0362 9.05248C35.6556 8.67186 35.1207 8.44556 34.5858 8.44556C34.0405 8.44556 33.5159 8.66158 33.1353 9.05248C32.7547 9.43309 32.5284 9.96801 32.5284 10.5029C32.5284 11.0481 32.7444 11.5727 33.1353 11.9533C33.5056 12.3442 34.0405 12.5603 34.5858 12.5603Z" fill="#00062C"/>
<path d="M45.1909 12.5603C45.7361 12.5603 46.2608 12.3442 46.6414 11.9533C47.022 11.5727 47.2483 11.0378 47.2483 10.5029C47.2483 9.95773 47.0323 9.43309 46.6414 9.05248C46.2608 8.67186 45.7258 8.44556 45.1909 8.44556C44.6457 8.44556 44.1211 8.66158 43.7405 9.05248C43.3599 9.43309 43.1335 9.96801 43.1335 10.5029C43.1335 11.0481 43.3496 11.5727 43.7405 11.9533C44.1211 12.3442 44.6457 12.5603 45.1909 12.5603Z" fill="#00062C"/>
<path d="M66.4029 12.5603C67.5447 12.5603 68.4706 11.6345 68.4706 10.5029C68.4706 9.37137 67.5447 8.44556 66.4132 8.44556H66.4029C65.2713 8.44556 64.3455 9.37137 64.3455 10.5029C64.3455 11.6448 65.2713 12.5603 66.4029 12.5603Z" fill="#00062C"/>
<path d="M55.7969 12.5603C56.9387 12.5603 57.8645 11.6345 57.8645 10.5029C57.8645 9.37137 56.9387 8.44556 55.8072 8.44556H55.7969C54.6653 8.44556 53.7395 9.37137 53.7395 10.5029C53.7395 11.6448 54.655 12.5603 55.7969 12.5603Z" fill="#00062C"/>
<path d="M77.0185 12.5603C77.5637 12.5603 78.0883 12.3442 78.4689 11.9533C78.8496 11.5727 79.0759 11.0378 79.0759 10.5029C79.0759 9.95773 78.8598 9.43309 78.4689 9.05248C78.0883 8.67186 77.5534 8.44556 77.0185 8.44556C76.4733 8.44556 75.9487 8.66158 75.568 9.05248C75.1874 9.43309 74.9611 9.96801 74.9611 10.5029C74.9611 11.0481 75.1771 11.5727 75.568 11.9533C75.9487 12.3442 76.4733 12.5603 77.0185 12.5603Z" fill="#00062C"/>
<path d="M2.75806 4.11474C3.30326 4.11474 3.82789 3.89872 4.2085 3.50782C4.58912 3.12721 4.81543 2.59229 4.81543 2.05737C4.81543 1.51217 4.5994 0.987535 4.2085 0.606921C3.82789 0.226307 3.29297 0 2.75806 0C2.22314 0 1.68822 0.21602 1.30761 0.606921C0.926995 0.987535 0.700684 1.52246 0.700684 2.05737C0.700684 2.60258 0.916708 3.12721 1.30761 3.50782C1.68822 3.88844 2.21285 4.11474 2.75806 4.11474Z" fill="#00062C"/>
<path d="M23.9694 4.11474C25.1112 4.11474 26.037 3.18893 26.037 2.05737C26.037 0.925818 25.1112 0 23.9796 0H23.9694C22.8378 0 21.912 0.925818 21.912 2.05737C21.912 3.18893 22.8275 4.11474 23.9694 4.11474Z" fill="#00062C"/>
<path d="M13.3633 4.11474C14.5052 4.11474 15.431 3.18893 15.431 2.05737C15.431 0.925818 14.5052 0 13.3736 0H13.3633C12.2318 0 11.306 0.925818 11.306 2.05737C11.306 3.18893 12.2215 4.11474 13.3633 4.11474Z" fill="#00062C"/>
<path d="M34.5858 4.11474C35.131 4.11474 35.6556 3.89872 36.0362 3.50782C36.4168 3.12721 36.6431 2.59229 36.6431 2.05737C36.6431 1.51217 36.4271 0.987535 36.0362 0.606921C35.6556 0.226307 35.1207 0 34.5858 0C34.0405 0 33.5159 0.21602 33.1353 0.606921C32.7547 0.987535 32.5284 1.52246 32.5284 2.05737C32.5284 2.60258 32.7444 3.12721 33.1353 3.50782C33.5056 3.88844 34.0405 4.11474 34.5858 4.11474Z" fill="#00062C"/>
<path d="M45.1909 4.11474C45.7361 4.11474 46.2608 3.89872 46.6414 3.50782C47.022 3.12721 47.2483 2.59229 47.2483 2.05737C47.2483 1.51217 47.0323 0.987535 46.6414 0.606921C46.2608 0.226307 45.7258 0 45.1909 0C44.6457 0 44.1211 0.21602 43.7405 0.606921C43.3599 0.987535 43.1335 1.52246 43.1335 2.05737C43.1335 2.60258 43.3496 3.12721 43.7405 3.50782C44.1211 3.88844 44.6457 4.11474 45.1909 4.11474Z" fill="#00062C"/>
<path d="M66.4029 4.11474C67.5447 4.11474 68.4706 3.18893 68.4706 2.05737C68.4706 0.925818 67.5447 0 66.4132 0H66.4029C65.2713 0 64.3455 0.925818 64.3455 2.05737C64.3455 3.18893 65.2713 4.11474 66.4029 4.11474Z" fill="#00062C"/>
<path d="M55.7969 4.11474C56.9387 4.11474 57.8645 3.18893 57.8645 2.05737C57.8645 0.925818 56.9387 0 55.8072 0H55.7969C54.6653 0 53.7395 0.925818 53.7395 2.05737C53.7395 3.18893 54.655 4.11474 55.7969 4.11474Z" fill="#00062C"/>
<path d="M77.0185 4.11474C77.5637 4.11474 78.0883 3.89872 78.4689 3.50782C78.8496 3.12721 79.0759 2.59229 79.0759 2.05737C79.0759 1.51217 78.8598 0.987535 78.4689 0.606921C78.0883 0.226307 77.5534 0 77.0185 0C76.4733 0 75.9487 0.21602 75.568 0.606921C75.1874 0.987535 74.9611 1.52246 74.9611 2.05737C74.9611 2.60258 75.1771 3.12721 75.568 3.50782C75.9487 3.88844 76.4733 4.11474 77.0185 4.11474Z" fill="#00062C"/>
<path d="M2.75806 21.0161C3.30326 21.0161 3.82789 20.8001 4.2085 20.4092C4.58912 20.0285 4.81543 19.4937 4.81543 18.9587C4.81543 18.4135 4.5994 17.8889 4.2085 17.5083C3.8176 17.1277 3.29297 16.9014 2.75806 16.9014C2.22314 16.9014 1.68822 17.1174 1.30761 17.5083C0.926995 17.8889 0.700684 18.4238 0.700684 18.9587C0.700684 19.5039 0.916708 20.0285 1.30761 20.4092C1.68822 20.8001 2.21285 21.0161 2.75806 21.0161Z" fill="#00062C"/>
<path d="M23.9694 21.0161C25.1112 21.0161 26.037 20.0903 26.037 18.9587C26.037 17.8272 25.1112 16.9014 23.9796 16.9014H23.9694C22.8378 16.9014 21.912 17.8272 21.912 18.9587C21.912 20.0903 22.8275 21.0161 23.9694 21.0161Z" fill="#00062C"/>
<path d="M13.3633 21.0161C14.5052 21.0161 15.431 20.0903 15.431 18.9587C15.431 17.8272 14.5052 16.9014 13.3736 16.9014H13.3633C12.2318 16.9014 11.306 17.8272 11.306 18.9587C11.306 20.0903 12.2215 21.0161 13.3633 21.0161Z" fill="#00062C"/>
<path d="M34.5858 21.0161C35.131 21.0161 35.6556 20.8001 36.0362 20.4092C36.4168 20.0285 36.6431 19.4937 36.6431 18.9587C36.6431 18.4135 36.4271 17.8889 36.0362 17.5083C35.6556 17.1277 35.1207 16.9014 34.5858 16.9014C34.0405 16.9014 33.5159 17.1174 33.1353 17.5083C32.7547 17.8889 32.5284 18.4238 32.5284 18.9587C32.5284 19.5039 32.7444 20.0285 33.1353 20.4092C33.5056 20.8001 34.0405 21.0161 34.5858 21.0161Z" fill="#00062C"/>
<path d="M45.1909 21.0161C45.7361 21.0161 46.2608 20.8001 46.6414 20.4092C47.022 20.0285 47.2483 19.4937 47.2483 18.9587C47.2483 18.4135 47.0323 17.8889 46.6414 17.5083C46.2608 17.1277 45.7258 16.9014 45.1909 16.9014C44.6457 16.9014 44.1211 17.1174 43.7405 17.5083C43.3599 17.8992 43.1335 18.4238 43.1335 18.9587C43.1335 19.5039 43.3496 20.0285 43.7405 20.4092C44.1211 20.8001 44.6457 21.0161 45.1909 21.0161Z" fill="#00062C"/>
<path d="M66.4029 21.0161C67.5447 21.0161 68.4706 20.0903 68.4706 18.9587C68.4706 17.8272 67.5447 16.9014 66.4132 16.9014H66.4029C65.2713 16.9014 64.3455 17.8272 64.3455 18.9587C64.3455 20.0903 65.2713 21.0161 66.4029 21.0161Z" fill="#00062C"/>
<path d="M55.7969 21.0161C56.9387 21.0161 57.8645 20.0903 57.8645 18.9587C57.8645 17.8272 56.9387 16.9014 55.8072 16.9014H55.7969C54.6653 16.9014 53.7395 17.8272 53.7395 18.9587C53.7395 20.0903 54.655 21.0161 55.7969 21.0161Z" fill="#00062C"/>
<path d="M77.0185 21.0161C77.5637 21.0161 78.0883 20.8001 78.4689 20.4092C78.8496 20.0285 79.0759 19.4937 79.0759 18.9587C79.0759 18.4135 78.8598 17.8889 78.4689 17.5083C78.0883 17.1277 77.5534 16.9014 77.0185 16.9014C76.4733 16.9014 75.9487 17.1174 75.568 17.5083C75.1874 17.8889 74.9611 18.4238 74.9611 18.9587C74.9611 19.5039 75.1771 20.0285 75.568 20.4092C75.9487 20.8001 76.4733 21.0161 77.0185 21.0161Z" fill="#00062C"/>
<path d="M2.75806 29.4617C3.30326 29.4617 3.82789 29.2456 4.2085 28.8547C4.58912 28.4741 4.81543 27.9392 4.81543 27.4043C4.81543 26.8591 4.5994 26.3345 4.2085 25.9538C3.8176 25.5732 3.29297 25.3469 2.75806 25.3469C2.22314 25.3469 1.68822 25.5629 1.30761 25.9538C0.926995 26.3345 0.700684 26.8694 0.700684 27.4043C0.700684 27.9495 0.916708 28.4741 1.30761 28.8547C1.68822 29.2456 2.21285 29.4617 2.75806 29.4617Z" fill="#00062C"/>
<path d="M23.9694 29.4617C25.1112 29.4617 26.037 28.5359 26.037 27.4043C26.037 26.2727 25.1112 25.3469 23.9796 25.3469H23.9694C22.8378 25.3469 21.912 26.2727 21.912 27.4043C21.912 28.5461 22.8275 29.4617 23.9694 29.4617Z" fill="#00062C"/>
<path d="M13.3633 29.4617C14.5052 29.4617 15.431 28.5359 15.431 27.4043C15.431 26.2727 14.5052 25.3469 13.3736 25.3469H13.3633C12.2318 25.3469 11.306 26.2727 11.306 27.4043C11.306 28.5461 12.2215 29.4617 13.3633 29.4617Z" fill="#00062C"/>
<path d="M34.5858 29.4617C35.131 29.4617 35.6556 29.2456 36.0362 28.8547C36.4168 28.4741 36.6431 27.9392 36.6431 27.4043C36.6431 26.8591 36.4271 26.3345 36.0362 25.9538C35.6556 25.5732 35.1207 25.3469 34.5858 25.3469C34.0405 25.3469 33.5159 25.5629 33.1353 25.9538C32.7547 26.3345 32.5284 26.8694 32.5284 27.4043C32.5284 27.9495 32.7444 28.4741 33.1353 28.8547C33.5056 29.2456 34.0405 29.4617 34.5858 29.4617Z" fill="#00062C"/>
<path d="M45.1909 29.4617C45.7361 29.4617 46.2608 29.2456 46.6414 28.8547C47.022 28.4741 47.2483 27.9392 47.2483 27.4043C47.2483 26.8591 47.0323 26.3345 46.6414 25.9538C46.2608 25.5732 45.7258 25.3469 45.1909 25.3469C44.6457 25.3469 44.1211 25.5629 43.7405 25.9538C43.3599 26.3447 43.1335 26.8694 43.1335 27.4043C43.1335 27.9495 43.3496 28.4741 43.7405 28.8547C44.1211 29.2456 44.6457 29.4617 45.1909 29.4617Z" fill="#00062C"/>
<path d="M66.4029 29.4617C67.5447 29.4617 68.4706 28.5359 68.4706 27.4043C68.4706 26.2727 67.5447 25.3469 66.4132 25.3469H66.4029C65.2713 25.3469 64.3455 26.2727 64.3455 27.4043C64.3455 28.5461 65.2713 29.4617 66.4029 29.4617Z" fill="#00062C"/>
<path d="M55.7969 29.4617C56.9387 29.4617 57.8645 28.5359 57.8645 27.4043C57.8645 26.2727 56.9387 25.3469 55.8072 25.3469H55.7969C54.6653 25.3469 53.7395 26.2727 53.7395 27.4043C53.7395 28.5461 54.655 29.4617 55.7969 29.4617Z" fill="#00062C"/>
<path d="M77.0185 29.4617C77.5637 29.4617 78.0883 29.2456 78.4689 28.8547C78.8496 28.4741 79.0759 27.9392 79.0759 27.4043C79.0759 26.8591 78.8598 26.3345 78.4689 25.9538C78.0883 25.5732 77.5534 25.3469 77.0185 25.3469C76.4733 25.3469 75.9487 25.5629 75.568 25.9538C75.1874 26.3345 74.9611 26.8694 74.9611 27.4043C74.9611 27.9495 75.1771 28.4741 75.568 28.8547C75.9487 29.2456 76.4733 29.4617 77.0185 29.4617Z" fill="#00062C"/>
<path d="M2.75806 37.9174C3.30326 37.9174 3.82789 37.7013 4.2085 37.3104C4.58912 36.9298 4.81543 36.3949 4.81543 35.86C4.81543 35.3148 4.5994 34.7901 4.2085 34.4095C3.8176 34.0289 3.29297 33.8026 2.75806 33.8026C2.22314 33.8026 1.68822 34.0186 1.30761 34.4095C0.926995 34.7901 0.700684 35.3251 0.700684 35.86C0.700684 36.4052 0.916708 36.9298 1.30761 37.3104C1.68822 37.7013 2.21285 37.9174 2.75806 37.9174Z" fill="#00062C"/>
<path d="M23.9694 37.9174C25.1112 37.9174 26.037 36.9915 26.037 35.86C26.037 34.7284 25.1112 33.8026 23.9796 33.8026H23.9694C22.8378 33.8026 21.912 34.7284 21.912 35.86C21.912 36.9915 22.8275 37.9174 23.9694 37.9174Z" fill="#00062C"/>
<path d="M13.3633 37.9174C14.5052 37.9174 15.431 36.9915 15.431 35.86C15.431 34.7284 14.5052 33.8026 13.3736 33.8026H13.3633C12.2318 33.8026 11.306 34.7284 11.306 35.86C11.306 36.9915 12.2215 37.9174 13.3633 37.9174Z" fill="#00062C"/>
<path d="M34.5858 37.9174C35.131 37.9174 35.6556 37.7013 36.0362 37.3104C36.4168 36.9298 36.6431 36.3949 36.6431 35.86C36.6431 35.3148 36.4271 34.7901 36.0362 34.4095C35.6556 34.0289 35.1207 33.8026 34.5858 33.8026C34.0405 33.8026 33.5159 34.0186 33.1353 34.4095C32.7547 34.7901 32.5284 35.3251 32.5284 35.86C32.5284 36.4052 32.7444 36.9298 33.1353 37.3104C33.5056 37.7013 34.0405 37.9174 34.5858 37.9174Z" fill="#00062C"/>
<path d="M45.1909 37.9174C45.7361 37.9174 46.2608 37.7013 46.6414 37.3104C47.022 36.9298 47.2483 36.3949 47.2483 35.86C47.2483 35.3148 47.0323 34.7901 46.6414 34.4095C46.2608 34.0289 45.7258 33.8026 45.1909 33.8026C44.6457 33.8026 44.1211 34.0186 43.7405 34.4095C43.3599 34.8004 43.1335 35.3251 43.1335 35.86C43.1335 36.4052 43.3496 36.9298 43.7405 37.3104C44.1211 37.7013 44.6457 37.9174 45.1909 37.9174Z" fill="#00062C"/>
<path d="M66.4029 37.9174C67.5447 37.9174 68.4706 36.9915 68.4706 35.86C68.4706 34.7284 67.5447 33.8026 66.4132 33.8026H66.4029C65.2713 33.8026 64.3455 34.7284 64.3455 35.86C64.3455 36.9915 65.2713 37.9174 66.4029 37.9174Z" fill="#00062C"/>
<path d="M55.7969 37.9174C56.9387 37.9174 57.8645 36.9915 57.8645 35.86C57.8645 34.7284 56.9387 33.8026 55.8072 33.8026H55.7969C54.6653 33.8026 53.7395 34.7284 53.7395 35.86C53.7395 36.9915 54.655 37.9174 55.7969 37.9174Z" fill="#00062C"/>
<path d="M77.0185 37.9174C77.5637 37.9174 78.0883 37.7013 78.4689 37.3104C78.8496 36.9298 79.0759 36.3949 79.0759 35.86C79.0759 35.3148 78.8598 34.7901 78.4689 34.4095C78.0883 34.0289 77.5534 33.8026 77.0185 33.8026C76.4733 33.8026 75.9487 34.0186 75.568 34.4095C75.1874 34.7901 74.9611 35.3251 74.9611 35.86C74.9611 36.4052 75.1771 36.9298 75.568 37.3104C75.9487 37.7013 76.4733 37.9174 77.0185 37.9174Z" fill="#00062C"/>
<path d="M2.75806 46.3629C3.30326 46.3629 3.82789 46.1469 4.2085 45.756C4.58912 45.3754 4.81543 44.8405 4.81543 44.3055C4.81543 43.7603 4.5994 43.2357 4.2085 42.8551C3.8176 42.4745 3.29297 42.2482 2.75806 42.2482C2.22314 42.2482 1.68822 42.4642 1.30761 42.8551C0.926995 43.2357 0.700684 43.7706 0.700684 44.3055C0.700684 44.8507 0.916708 45.3754 1.30761 45.756C1.68822 46.1469 2.21285 46.3629 2.75806 46.3629Z" fill="#00062C"/>
<path d="M23.9694 46.3629C25.1112 46.3629 26.037 45.4371 26.037 44.3055C26.037 43.174 25.1112 42.2482 23.9796 42.2482H23.9694C22.8378 42.2482 21.912 43.174 21.912 44.3055C21.912 45.4474 22.8275 46.3629 23.9694 46.3629Z" fill="#00062C"/>
<path d="M13.3633 46.3629C14.5052 46.3629 15.431 45.4371 15.431 44.3055C15.431 43.174 14.5052 42.2482 13.3736 42.2482H13.3633C12.2318 42.2482 11.306 43.174 11.306 44.3055C11.306 45.4474 12.2215 46.3629 13.3633 46.3629Z" fill="#00062C"/>
<path d="M34.5858 46.3629C35.131 46.3629 35.6556 46.1469 36.0362 45.756C36.4168 45.3754 36.6431 44.8405 36.6431 44.3055C36.6431 43.7603 36.4271 43.2357 36.0362 42.8551C35.6556 42.4745 35.1207 42.2482 34.5858 42.2482C34.0405 42.2482 33.5159 42.4642 33.1353 42.8551C32.7547 43.2357 32.5284 43.7706 32.5284 44.3055C32.5284 44.8507 32.7444 45.3754 33.1353 45.756C33.5056 46.1469 34.0405 46.3629 34.5858 46.3629Z" fill="#00062C"/>
<path d="M45.1909 46.3629C45.7361 46.3629 46.2608 46.1469 46.6414 45.756C47.022 45.3754 47.2483 44.8405 47.2483 44.3055C47.2483 43.7603 47.0323 43.2357 46.6414 42.8551C46.2608 42.4745 45.7258 42.2482 45.1909 42.2482C44.6457 42.2482 44.1211 42.4642 43.7405 42.8551C43.3599 43.246 43.1335 43.7706 43.1335 44.3055C43.1335 44.8507 43.3496 45.3754 43.7405 45.756C44.1211 46.1469 44.6457 46.3629 45.1909 46.3629Z" fill="#00062C"/>
<path d="M66.4029 46.3629C67.5447 46.3629 68.4706 45.4371 68.4706 44.3055C68.4706 43.174 67.5447 42.2482 66.4132 42.2482H66.4029C65.2713 42.2482 64.3455 43.174 64.3455 44.3055C64.3455 45.4474 65.2713 46.3629 66.4029 46.3629Z" fill="#00062C"/>
<path d="M55.7969 46.3629C56.9387 46.3629 57.8645 45.4371 57.8645 44.3055C57.8645 43.174 56.9387 42.2482 55.8072 42.2482H55.7969C54.6653 42.2482 53.7395 43.174 53.7395 44.3055C53.7395 45.4474 54.655 46.3629 55.7969 46.3629Z" fill="#00062C"/>
<path d="M77.0185 46.3629C77.5637 46.3629 78.0883 46.1469 78.4689 45.756C78.8496 45.3754 79.0759 44.8405 79.0759 44.3055C79.0759 43.7603 78.8598 43.2357 78.4689 42.8551C78.0883 42.4745 77.5534 42.2482 77.0185 42.2482C76.4733 42.2482 75.9487 42.4642 75.568 42.8551C75.1874 43.2357 74.9611 43.7706 74.9611 44.3055C74.9611 44.8507 75.1771 45.3754 75.568 45.756C75.9487 46.1469 76.4733 46.3629 77.0185 46.3629Z" fill="#00062C"/>
<path d="M2.75806 54.8187C3.30326 54.8187 3.82789 54.6027 4.2085 54.2118C4.58912 53.8312 4.81543 53.2963 4.81543 52.7614C4.81543 52.2161 4.5994 51.6915 4.2085 51.3109C3.8176 50.9303 3.29297 50.704 2.75806 50.704C2.22314 50.704 1.68822 50.92 1.30761 51.3109C0.926995 51.6915 0.700684 52.2264 0.700684 52.7614C0.700684 53.3066 0.916708 53.8312 1.30761 54.2118C1.68822 54.6027 2.21285 54.8187 2.75806 54.8187Z" fill="#00062C"/>
<path d="M23.9694 54.8187C25.1112 54.8187 26.037 53.8929 26.037 52.7614C26.037 51.6298 25.1112 50.704 23.9796 50.704H23.9694C22.8378 50.704 21.912 51.6298 21.912 52.7614C21.912 53.8929 22.8275 54.8187 23.9694 54.8187Z" fill="#00062C"/>
<path d="M13.3633 54.8187C14.5052 54.8187 15.431 53.8929 15.431 52.7614C15.431 51.6298 14.5052 50.704 13.3736 50.704H13.3633C12.2318 50.704 11.306 51.6298 11.306 52.7614C11.306 53.8929 12.2215 54.8187 13.3633 54.8187Z" fill="#00062C"/>
<path d="M34.5858 54.8187C35.131 54.8187 35.6556 54.6027 36.0362 54.2118C36.4168 53.8312 36.6431 53.2963 36.6431 52.7614C36.6431 52.2161 36.4271 51.6915 36.0362 51.3109C35.6556 50.9303 35.1207 50.704 34.5858 50.704C34.0405 50.704 33.5159 50.92 33.1353 51.3109C32.7547 51.6915 32.5284 52.2264 32.5284 52.7614C32.5284 53.3066 32.7444 53.8312 33.1353 54.2118C33.5056 54.6027 34.0405 54.8187 34.5858 54.8187Z" fill="#00062C"/>
<path d="M45.1909 54.8187C45.7361 54.8187 46.2608 54.6027 46.6414 54.2118C47.022 53.8312 47.2483 53.2963 47.2483 52.7614C47.2483 52.2161 47.0323 51.6915 46.6414 51.3109C46.2608 50.9303 45.7258 50.704 45.1909 50.704C44.6457 50.704 44.1211 50.92 43.7405 51.3109C43.3599 51.7018 43.1335 52.2264 43.1335 52.7614C43.1335 53.3066 43.3496 53.8312 43.7405 54.2118C44.1211 54.6027 44.6457 54.8187 45.1909 54.8187Z" fill="#00062C"/>
<path d="M66.4029 54.8187C67.5447 54.8187 68.4706 53.8929 68.4706 52.7614C68.4706 51.6298 67.5447 50.704 66.4132 50.704H66.4029C65.2713 50.704 64.3455 51.6298 64.3455 52.7614C64.3455 53.8929 65.2713 54.8187 66.4029 54.8187Z" fill="#00062C"/>
<path d="M55.7969 54.8187C56.9387 54.8187 57.8645 53.8929 57.8645 52.7614C57.8645 51.6298 56.9387 50.704 55.8072 50.704H55.7969C54.6653 50.704 53.7395 51.6298 53.7395 52.7614C53.7395 53.8929 54.655 54.8187 55.7969 54.8187Z" fill="#00062C"/>
<path d="M77.0185 54.8187C77.5637 54.8187 78.0883 54.6027 78.4689 54.2118C78.8496 53.8312 79.0759 53.2963 79.0759 52.7614C79.0759 52.2161 78.8598 51.6915 78.4689 51.3109C78.0883 50.9303 77.5534 50.704 77.0185 50.704C76.4733 50.704 75.9487 50.92 75.568 51.3109C75.1874 51.6915 74.9611 52.2264 74.9611 52.7614C74.9611 53.3066 75.1771 53.8312 75.568 54.2118C75.9487 54.6027 76.4733 54.8187 77.0185 54.8187Z" fill="#00062C"/>
<path d="M2.75806 63.2745C3.30326 63.2745 3.82789 63.0585 4.2085 62.6676C4.58912 62.287 4.81543 61.7521 4.81543 61.2172C4.81543 60.672 4.5994 60.1473 4.2085 59.7667C3.82789 59.3861 3.29297 59.1598 2.75806 59.1598C2.22314 59.1598 1.68822 59.3758 1.30761 59.7667C0.926995 60.1473 0.700684 60.6822 0.700684 61.2172C0.700684 61.7624 0.916708 62.287 1.30761 62.6676C1.68822 63.0482 2.21285 63.2745 2.75806 63.2745Z" fill="#00062C"/>
<path d="M23.9694 63.2745C25.1112 63.2745 26.037 62.3487 26.037 61.2172C26.037 60.0856 25.1112 59.1598 23.9796 59.1598H23.9694C22.8378 59.1598 21.912 60.0856 21.912 61.2172C21.912 62.3487 22.8275 63.2745 23.9694 63.2745Z" fill="#00062C"/>
<path d="M13.3633 63.2745C14.5052 63.2745 15.431 62.3487 15.431 61.2172C15.431 60.0856 14.5052 59.1598 13.3736 59.1598H13.3633C12.2318 59.1598 11.306 60.0856 11.306 61.2172C11.306 62.3487 12.2215 63.2745 13.3633 63.2745Z" fill="#00062C"/>
<path d="M34.5858 63.2745C35.131 63.2745 35.6556 63.0585 36.0362 62.6676C36.4168 62.287 36.6431 61.7521 36.6431 61.2172C36.6431 60.672 36.4271 60.1473 36.0362 59.7667C35.6556 59.3861 35.1207 59.1598 34.5858 59.1598C34.0405 59.1598 33.5159 59.3758 33.1353 59.7667C32.7547 60.1473 32.5284 60.6822 32.5284 61.2172C32.5284 61.7624 32.7444 62.287 33.1353 62.6676C33.5056 63.0482 34.0405 63.2745 34.5858 63.2745Z" fill="#00062C"/>
<path d="M45.1909 63.2745C45.7361 63.2745 46.2608 63.0585 46.6414 62.6676C47.022 62.287 47.2483 61.7521 47.2483 61.2172C47.2483 60.672 47.0323 60.1473 46.6414 59.7667C46.2608 59.3861 45.7258 59.1598 45.1909 59.1598C44.6457 59.1598 44.1211 59.3758 43.7405 59.7667C43.3599 60.1473 43.1335 60.6822 43.1335 61.2172C43.1335 61.7624 43.3496 62.287 43.7405 62.6676C44.1211 63.0482 44.6457 63.2745 45.1909 63.2745Z" fill="#00062C"/>
<path d="M66.4029 63.2745C67.5447 63.2745 68.4706 62.3487 68.4706 61.2172C68.4706 60.0856 67.5447 59.1598 66.4132 59.1598H66.4029C65.2713 59.1598 64.3455 60.0856 64.3455 61.2172C64.3455 62.3487 65.2713 63.2745 66.4029 63.2745Z" fill="#00062C"/>
<path d="M55.7969 63.2745C56.9387 63.2745 57.8645 62.3487 57.8645 61.2172C57.8645 60.0856 56.9387 59.1598 55.8072 59.1598H55.7969C54.6653 59.1598 53.7395 60.0856 53.7395 61.2172C53.7395 62.3487 54.655 63.2745 55.7969 63.2745Z" fill="#00062C"/>
<path d="M77.0185 63.2745C77.5637 63.2745 78.0883 63.0585 78.4689 62.6676C78.8496 62.287 79.0759 61.7521 79.0759 61.2172C79.0759 60.672 78.8598 60.1473 78.4689 59.7667C78.0883 59.3861 77.5534 59.1598 77.0185 59.1598C76.4733 59.1598 75.9487 59.3758 75.568 59.7667C75.1874 60.1473 74.9611 60.6822 74.9611 61.2172C74.9611 61.7624 75.1771 62.287 75.568 62.6676C75.9487 63.0482 76.4733 63.2745 77.0185 63.2745Z" fill="#00062C"/>
<path d="M2.75806 71.72C3.30326 71.72 3.82789 71.5039 4.2085 71.113C4.58912 70.7324 4.81543 70.1975 4.81543 69.6626C4.81543 69.1174 4.5994 68.5928 4.2085 68.2121C3.82789 67.8315 3.29297 67.6052 2.75806 67.6052C2.22314 67.6052 1.68822 67.8212 1.30761 68.2121C0.926995 68.5928 0.700684 69.1277 0.700684 69.6626C0.700684 70.2078 0.916708 70.7324 1.30761 71.113C1.68822 71.5039 2.21285 71.72 2.75806 71.72Z" fill="#00062C"/>
<path d="M23.9694 71.72C25.1112 71.72 26.037 70.7942 26.037 69.6626C26.037 68.531 25.1112 67.6052 23.9796 67.6052H23.9694C22.8378 67.6052 21.912 68.531 21.912 69.6626C21.912 70.8044 22.8275 71.72 23.9694 71.72Z" fill="#00062C"/>
<path d="M13.3633 71.72C14.5052 71.72 15.431 70.7942 15.431 69.6626C15.431 68.531 14.5052 67.6052 13.3736 67.6052H13.3633C12.2318 67.6052 11.306 68.531 11.306 69.6626C11.306 70.8044 12.2215 71.72 13.3633 71.72Z" fill="#00062C"/>
<path d="M34.5858 71.72C35.131 71.72 35.6556 71.5039 36.0362 71.113C36.4168 70.7324 36.6431 70.1975 36.6431 69.6626C36.6431 69.1174 36.4271 68.5928 36.0362 68.2121C35.6556 67.8315 35.1207 67.6052 34.5858 67.6052C34.0405 67.6052 33.5159 67.8212 33.1353 68.2121C32.7547 68.5928 32.5284 69.1277 32.5284 69.6626C32.5284 70.2078 32.7444 70.7324 33.1353 71.113C33.5056 71.5039 34.0405 71.72 34.5858 71.72Z" fill="#00062C"/>
<path d="M45.1909 71.72C45.7361 71.72 46.2608 71.5039 46.6414 71.113C47.022 70.7324 47.2483 70.1975 47.2483 69.6626C47.2483 69.1174 47.0323 68.5928 46.6414 68.2121C46.2608 67.8315 45.7258 67.6052 45.1909 67.6052C44.6457 67.6052 44.1211 67.8212 43.7405 68.2121C43.3599 68.5928 43.1335 69.1277 43.1335 69.6626C43.1335 70.2078 43.3496 70.7324 43.7405 71.113C44.1211 71.5039 44.6457 71.72 45.1909 71.72Z" fill="#00062C"/>
<path d="M66.4029 71.72C67.5447 71.72 68.4706 70.7942 68.4706 69.6626C68.4706 68.531 67.5447 67.6052 66.4132 67.6052H66.4029C65.2713 67.6052 64.3455 68.531 64.3455 69.6626C64.3455 70.8044 65.2713 71.72 66.4029 71.72Z" fill="#00062C"/>
<path d="M55.7969 71.72C56.9387 71.72 57.8645 70.7942 57.8645 69.6626C57.8645 68.531 56.9387 67.6052 55.8072 67.6052H55.7969C54.6653 67.6052 53.7395 68.531 53.7395 69.6626C53.7395 70.8044 54.655 71.72 55.7969 71.72Z" fill="#00062C"/>
<path d="M77.0185 71.72C77.5637 71.72 78.0883 71.5039 78.4689 71.113C78.8496 70.7324 79.0759 70.1975 79.0759 69.6626C79.0759 69.1174 78.8598 68.5928 78.4689 68.2121C78.0883 67.8315 77.5534 67.6052 77.0185 67.6052C76.4733 67.6052 75.9487 67.8212 75.568 68.2121C75.1874 68.5928 74.9611 69.1277 74.9611 69.6626C74.9611 70.2078 75.1771 70.7324 75.568 71.113C75.9487 71.5039 76.4733 71.72 77.0185 71.72Z" fill="#00062C"/>
</svg>
