<svg width="40" height="30" viewBox="0 0 40 30" fill="none" xmlns="http://www.w3.org/2000/svg">
<path d="M0 30V26C0 24.9123 0.268292 23.9386 0.804878 23.0789C1.34146 22.2193 2.0813 21.5614 3.02439 21.1053C5.13821 20.1228 7.06504 19.386 8.80488 18.8947C10.5447 18.4035 12.4878 18.1579 14.6341 18.1579C16.813 18.1579 18.7642 18.4035 20.4878 18.8947C22.2114 19.386 24.1301 20.1228 26.2439 21.1053C27.187 21.5614 27.9268 22.2193 28.4634 23.0789C29 23.9386 29.2683 24.9123 29.2683 26V30H0ZM28.0976 18.3158C29.8211 18.5965 31.4634 18.9649 33.0244 19.4211C34.5854 19.8772 35.8862 20.4035 36.9268 21C37.8699 21.5614 38.6179 22.2807 39.1707 23.1579C39.7236 24.0351 40 25.0175 40 26.1053V30H32.4878V26.1053C32.4878 24.2105 32.0813 22.6404 31.2683 21.3947C30.4553 20.1491 29.3984 19.1228 28.0976 18.3158ZM14.6341 13.9474C12.7805 13.9474 11.2439 13.2895 10.0244 11.9737C8.80488 10.6579 8.19512 8.98246 8.19512 6.94737C8.19512 4.91228 8.80488 3.24561 10.0244 1.94737C11.2439 0.649122 12.7805 0 14.6341 0C16.5203 0 18.0732 0.649122 19.2927 1.94737C20.5122 3.24561 21.122 4.91228 21.122 6.94737C21.122 8.98246 20.5122 10.6579 19.2927 11.9737C18.0732 13.2895 16.5203 13.9474 14.6341 13.9474ZM30.0488 6.94737C30.0488 8.98246 29.4472 10.6579 28.2439 11.9737C27.0407 13.2895 25.4959 13.9474 23.6098 13.9474C23.3821 13.9474 23.1463 13.9298 22.9024 13.8947C22.6585 13.8596 22.4228 13.807 22.1951 13.7368C22.878 12.8947 23.3984 11.9035 23.7561 10.7632C24.1138 9.62281 24.2927 8.35088 24.2927 6.94737C24.2927 5.57895 24.1057 4.35088 23.7317 3.26316C23.3577 2.17544 22.8455 1.15789 22.1951 0.210526C22.3902 0.140351 22.6179 0.0877185 22.8781 0.0526308C23.1382 0.0175431 23.3821 0 23.6098 0C25.4959 0 27.0407 0.649122 28.2439 1.94737C29.4472 3.24561 30.0488 4.91228 30.0488 6.94737ZM2.2439 27.6316H27.0732V26C27.0732 25.4386 26.9268 24.9123 26.6341 24.4211C26.3415 23.9298 25.9187 23.5439 25.3659 23.2632C23.3171 22.2456 21.5122 21.5351 19.9512 21.1316C18.3902 20.7281 16.6179 20.5263 14.6341 20.5263C12.6829 20.5263 10.9268 20.7281 9.36585 21.1316C7.80488 21.5351 6 22.2456 3.95122 23.2632C3.39837 23.5439 2.97561 23.9298 2.68293 24.4211C2.39024 24.9123 2.2439 25.4386 2.2439 26V27.6316ZM14.6341 11.5789C15.8699 11.5789 16.8943 11.1404 17.7073 10.2632C18.5203 9.38597 18.9268 8.2807 18.9268 6.94737C18.9268 5.64912 18.5203 4.5614 17.7073 3.68421C16.8943 2.80702 15.8699 2.36842 14.6341 2.36842C13.4309 2.36842 12.4228 2.80702 11.6098 3.68421C10.7967 4.5614 10.3902 5.64912 10.3902 6.94737C10.3902 8.2807 10.7967 9.38597 11.6098 10.2632C12.4228 11.1404 13.4309 11.5789 14.6341 11.5789Z" fill="#B68C5A"/>
</svg>
