<svg width="159" height="100" viewBox="0 0 159 100" fill="none" xmlns="http://www.w3.org/2000/svg">
<path fill-rule="evenodd" clip-rule="evenodd" d="M59.3715 4.83419H94.3826V1.12081H59.3715V4.83419ZM65.299 19.63H54.0014C54.0879 23.2148 56.9553 26.0929 60.4808 26.0929C64.0057 26.0929 66.8737 23.2148 66.9596 19.63H66.8798H65.299ZM56.8396 16.8825L60.5187 10.3667L64.1971 16.8825H56.8396ZM71.3503 36.2866H76.0873V34.5008V33.9637C77.3082 33.5037 78.5217 33.1146 79.719 32.7491V36.2866H83.8844V31.4851C85.127 31.0842 86.3406 30.6478 87.5155 30.1141V36.2866H94.3826V40H87.5155H83.8844H79.719H76.0873H59.3715V36.2866H68.2908H71.3124H71.3503ZM90.7549 16.0215C81.1963 18.8246 73.199 25.5141 68.6101 34.5015H68.3632H68.2915V8.28698H61.5502L61.6206 8.41345L66.4009 16.8832H66.8798V17.7309V17.9185V18.8371H65.2997C61.5279 18.8371 57.7616 18.8371 54 18.8371V16.8839H54.6365L59.4168 8.41415L59.4885 8.28768H59.3728V6.33649H94.3839V8.28768H87.5169V11.7029C86.2722 12.0073 85.0587 12.4082 83.8858 12.9037V8.28768H79.7204V15.1571C78.4237 16.0299 77.2075 17.0319 76.0886 18.1478V8.28768H71.9232V25.8296C79.6676 15.1599 89.6598 13.5499 95.9925 8.64553H95.9945V8.64344C98.6116 6.61512 100.604 4.02536 101.554 0C102.245 3.85165 102.124 7.75888 101.254 11.4778L98.2476 11.7641L100.977 12.5639C100.017 16.0403 98.3944 19.3291 96.1616 22.2225L90.5892 22.7541L94.687 23.9548C89.628 29.2977 85.8326 29.4714 79.232 30.0975L81.705 30.8243C78.7355 31.729 75.8681 32.6497 73.3593 34.5022H70.5893C74.8711 26.152 81.983 19.5376 90.7549 16.0215Z" fill="#B68C5A"/>
<path d="M1.968 76.22C1.64533 76.22 1.36667 76.1613 1.132 76.044C0.926667 75.956 0.824 75.78 0.824 75.516C0.824 75.2227 0.912 75.0173 1.088 74.9C1.29333 74.7533 1.55733 74.636 1.88 74.548C2.73067 74.3133 3.464 73.9467 4.08 73.448C4.72533 72.9493 5.20933 72.3333 5.532 71.6C6.26533 69.9573 6.95467 68.344 7.6 66.76C8.24533 65.1467 8.876 63.5627 9.492 62.008C10.108 60.424 10.724 58.8253 11.34 57.212C11.956 55.5693 12.572 53.912 13.188 52.24C13.628 51.0373 13.9067 50.172 14.024 49.644C14.1413 49.0867 14.2293 48.764 14.288 48.676C14.816 48.5293 15.3147 48.3973 15.784 48.28C16.2533 48.1627 16.752 48.0013 17.28 47.796C17.808 47.5907 18.248 47.3267 18.6 47.004C18.9813 46.6813 19.26 46.432 19.436 46.256C19.5533 46.168 19.6707 46.124 19.788 46.124C19.9053 46.0947 20.0227 46.1827 20.14 46.388C20.228 46.564 20.3013 46.7547 20.36 46.96C20.448 47.136 20.5213 47.3413 20.58 47.576C21.196 49.5413 21.8267 51.5507 22.472 53.604C23.1173 55.628 23.7627 57.652 24.408 59.676C25.0827 61.7 25.7427 63.7093 26.388 65.704C27.0333 67.6693 27.664 69.5907 28.28 71.468C28.456 72.0547 28.72 72.5533 29.072 72.964C29.4533 73.3747 29.8787 73.6973 30.348 73.932C30.8173 74.1667 31.3453 74.372 31.932 74.548C32.2547 74.636 32.504 74.7533 32.68 74.9C32.8853 75.0173 32.988 75.208 32.988 75.472C32.988 75.6773 32.9 75.8387 32.724 75.956C32.548 76.0733 32.3427 76.132 32.108 76.132C31.5213 76.132 30.788 76.1027 29.908 76.044C29.0573 76.0147 28.192 75.9853 27.312 75.956C26.432 75.9267 25.6547 75.912 24.98 75.912C24.4227 75.912 23.7333 75.9267 22.912 75.956C22.12 75.9853 21.3133 76.0147 20.492 76.044C19.6707 76.0733 18.9667 76.088 18.38 76.088C18.116 76.088 17.8813 76.044 17.676 75.956C17.5 75.8387 17.412 75.6773 17.412 75.472C17.412 75.208 17.5147 75.0027 17.72 74.856C17.9253 74.7093 18.1747 74.6067 18.468 74.548C19.5533 74.3133 20.3453 74.0053 20.844 73.624C21.3427 73.2427 21.504 72.6707 21.328 71.908C21.2107 71.3507 21.064 70.764 20.888 70.148C20.712 69.532 20.536 68.916 20.36 68.3C20.2133 67.6547 20.052 67.0387 19.876 66.452C19.8173 66.2173 19.744 66.0413 19.656 65.924C19.568 65.8067 19.392 65.748 19.128 65.748H11.34C11.1347 65.748 10.9733 65.8067 10.856 65.924C10.7387 66.0413 10.6507 66.232 10.592 66.496C10.4747 66.9067 10.3427 67.3173 10.196 67.728C10.0493 68.1387 9.90267 68.5493 9.756 68.96C9.63867 69.3707 9.52133 69.7813 9.404 70.192C9.28667 70.6027 9.16933 70.9987 9.052 71.38C8.84667 72.26 8.93467 72.9347 9.316 73.404C9.69733 73.8733 10.5187 74.2547 11.78 74.548C12.484 74.6947 12.836 75.0027 12.836 75.472C12.836 75.6773 12.748 75.8387 12.572 75.956C12.4253 76.044 12.176 76.088 11.824 76.088C10.9733 76.088 10.1813 76.0587 9.448 76C8.71467 75.9707 7.908 75.956 7.028 75.956C6.148 75.956 5.312 76 4.52 76.088C3.728 76.176 2.87733 76.22 1.968 76.22ZM12.572 63.372H18.292C18.732 63.372 18.952 63.2693 18.952 63.064C18.952 62.976 18.9373 62.9027 18.908 62.844C18.908 62.7853 18.8933 62.712 18.864 62.624L15.916 52.68C15.828 52.3573 15.74 52.196 15.652 52.196C15.5933 52.196 15.4907 52.3573 15.344 52.68L11.868 62.624C11.8093 62.7413 11.78 62.8587 11.78 62.976C11.78 63.1227 11.8533 63.2253 12 63.284C12.176 63.3427 12.3667 63.372 12.572 63.372ZM47.6895 76.836C47.6015 76.836 47.4695 76.7333 47.2935 76.528C47.1468 76.352 47.0735 76.2053 47.0735 76.088C47.1322 75.648 47.1762 75.2373 47.2055 74.856C47.2642 74.4453 47.2935 74.0787 47.2935 73.756V73.492C46.7068 74.4013 45.8855 75.1493 44.8295 75.736C43.8028 76.3227 42.6882 76.616 41.4855 76.616C39.8428 76.616 38.3762 76.2053 37.0855 75.384C35.8242 74.5627 34.8268 73.448 34.0935 72.04C33.3602 70.632 32.9935 69.092 32.9935 67.42C32.9935 65.4253 33.4335 63.6507 34.3135 62.096C35.1935 60.5413 36.4255 59.324 38.0095 58.444C39.5935 57.5347 41.4268 57.08 43.5095 57.08C43.9495 57.08 44.4042 57.124 44.8735 57.212C45.3722 57.2707 45.8268 57.3587 46.2375 57.476C46.6482 57.564 46.8388 57.608 46.8095 57.608C46.9268 57.608 46.9855 57.4173 46.9855 57.036V51.8C46.9855 50.744 46.8535 49.9813 46.5895 49.512C46.3255 49.0427 45.8855 48.7493 45.2695 48.632C44.9175 48.544 44.7415 48.324 44.7415 47.972C44.7415 47.5907 44.9028 47.3707 45.2255 47.312C46.3108 47.0773 47.4255 46.784 48.5695 46.432C49.7428 46.0507 50.6962 45.6987 51.4295 45.376C51.8108 45.2 52.0748 45.0973 52.2215 45.068C52.3682 45.0093 52.4562 44.98 52.4855 44.98C52.8082 44.98 52.9695 45.156 52.9695 45.508C52.9695 45.42 52.9548 45.5373 52.9255 45.86C52.8962 46.1533 52.8668 46.5493 52.8375 47.048C52.8082 47.5467 52.7788 48.0453 52.7495 48.544L52.5295 70.72C52.5295 71.7173 52.6028 72.436 52.7495 72.876C52.8962 73.316 53.1602 73.536 53.5415 73.536C53.6882 73.536 53.8348 73.5213 53.9815 73.492C54.1575 73.4627 54.5828 73.4333 55.2575 73.404C55.6682 73.3747 55.8735 73.5213 55.8735 73.844C55.8735 74.0787 55.7855 74.328 55.6095 74.592C55.4335 74.856 55.2722 74.988 55.1255 74.988C54.0695 75.1053 52.9548 75.296 51.7815 75.56C50.6375 75.824 49.5228 76.1613 48.4375 76.572C48.2615 76.66 48.1148 76.7187 47.9975 76.748C47.8802 76.8067 47.7775 76.836 47.6895 76.836ZM43.7295 73.624C44.1695 73.624 44.7122 73.5067 45.3575 73.272C46.0322 73.0373 46.5748 72.7 46.9855 72.26L46.9415 62.536C46.9415 62.008 46.7362 61.4947 46.3255 60.996C45.9442 60.468 45.4455 60.028 44.8295 59.676C44.2428 59.324 43.6562 59.148 43.0695 59.148C42.3655 59.148 41.7055 59.4413 41.0895 60.028C40.5028 60.5853 40.0188 61.392 39.6375 62.448C39.2855 63.4747 39.1095 64.736 39.1095 66.232C39.1095 67.4347 39.2268 68.4907 39.4615 69.4C39.7255 70.3093 40.0775 71.0867 40.5175 71.732C40.9575 72.348 41.4562 72.8173 42.0135 73.14C42.5708 73.4627 43.1428 73.624 43.7295 73.624ZM100.467 76.132C99.8801 76.132 99.5868 75.9267 99.5868 75.516C99.5868 75.2813 99.6748 75.1053 99.8508 74.988C100.027 74.8413 100.276 74.724 100.599 74.636C101.039 74.4893 101.42 74.328 101.743 74.152C102.095 73.976 102.271 73.5653 102.271 72.92V51.8C102.271 50.9787 102.168 50.2893 101.963 49.732C101.757 49.1453 101.288 48.7787 100.555 48.632C100.232 48.5733 100.071 48.3533 100.071 47.972C100.071 47.5907 100.217 47.3707 100.511 47.312C101.244 47.1653 102.036 46.96 102.887 46.696C103.767 46.4027 104.603 46.1093 105.395 45.816C106.187 45.4933 106.803 45.2587 107.243 45.112C107.477 45.024 107.668 44.98 107.815 44.98C107.991 44.98 108.108 45.0387 108.167 45.156C108.225 45.244 108.255 45.3613 108.255 45.508C108.255 45.7427 108.211 46.1387 108.123 46.696C108.064 47.2533 108.02 47.8693 107.991 48.544L108.035 65C108.035 65.352 108.167 65.528 108.431 65.528C108.519 65.528 108.621 65.4987 108.739 65.44C108.885 65.352 109.017 65.264 109.135 65.176C110.22 64.2373 111.188 63.284 112.039 62.316C112.889 61.348 113.461 60.644 113.755 60.204C113.872 60.028 113.96 59.8813 114.019 59.764C114.107 59.6467 114.151 59.544 114.151 59.456C114.151 59.3093 114.033 59.1627 113.799 59.016C113.564 58.84 113.212 58.7227 112.743 58.664C112.391 58.6053 112.215 58.444 112.215 58.18C112.215 57.916 112.317 57.7547 112.523 57.696C112.757 57.608 112.977 57.564 113.183 57.564H115.339C115.867 57.564 116.556 57.5493 117.407 57.52C118.257 57.4613 119.093 57.388 119.915 57.3C120.736 57.212 121.323 57.168 121.675 57.168C121.997 57.168 122.159 57.3293 122.159 57.652C122.159 57.8867 122.071 58.092 121.895 58.268C121.719 58.4147 121.469 58.5173 121.147 58.576C120.648 58.6933 120.061 58.8987 119.387 59.192C118.712 59.4853 118.037 59.8227 117.363 60.204C116.864 60.468 116.321 60.8053 115.735 61.216C115.177 61.5973 114.62 62.008 114.063 62.448C113.535 62.888 113.051 63.3133 112.611 63.724C112.464 63.8707 112.391 64.032 112.391 64.208C112.391 64.296 112.42 64.384 112.479 64.472C112.537 64.5307 112.596 64.604 112.655 64.692C113.359 65.6013 114.033 66.496 114.679 67.376C115.324 68.256 115.969 69.1067 116.615 69.928C117.26 70.72 117.92 71.512 118.595 72.304C119.093 72.832 119.695 73.316 120.399 73.756C121.103 74.196 121.689 74.504 122.159 74.68C122.393 74.768 122.643 74.8707 122.907 74.988C123.2 75.1053 123.347 75.2813 123.347 75.516C123.347 75.9267 123.024 76.132 122.379 76.132C120.619 76.132 118.888 76.1027 117.187 76.044C115.515 76.0147 113.945 76 112.479 76C111.892 76 111.599 75.7947 111.599 75.384C111.599 75.1493 111.687 74.9733 111.863 74.856C112.039 74.7387 112.273 74.6213 112.567 74.504C112.831 74.416 113.007 74.3133 113.095 74.196C113.212 74.0787 113.285 73.9467 113.315 73.8C113.315 73.6827 113.256 73.5507 113.139 73.404C113.051 73.228 112.933 73.0373 112.787 72.832L108.519 66.936C108.431 66.8773 108.357 66.848 108.299 66.848C108.123 66.8773 108.035 66.98 108.035 67.156C108.035 67.596 108.035 68.0507 108.035 68.52C108.035 68.9893 108.035 69.444 108.035 69.884C108.035 70.3533 108.035 70.8667 108.035 71.424C108.035 71.952 108.035 72.4653 108.035 72.964C108.035 73.4627 108.137 73.8293 108.343 74.064C108.577 74.2693 108.915 74.4453 109.355 74.592C109.589 74.68 109.795 74.7973 109.971 74.944C110.176 75.0613 110.279 75.2373 110.279 75.472C110.279 75.6773 110.191 75.8387 110.015 75.956C109.868 76.0733 109.692 76.132 109.487 76.132C108.9 76.132 108.357 76.1027 107.859 76.044C107.389 76.0147 106.935 75.9853 106.495 75.956C106.055 75.9267 105.571 75.912 105.043 75.912C104.544 75.912 104.045 75.9267 103.547 75.956C103.077 75.9853 102.593 76.0147 102.095 76.044C101.596 76.1027 101.053 76.132 100.467 76.132ZM131.284 76.616C129.7 76.616 128.277 76.2053 127.016 75.384C125.784 74.5333 124.801 73.3893 124.068 71.952C123.364 70.4853 123.012 68.828 123.012 66.98C123.012 65.132 123.437 63.46 124.288 61.964C125.139 60.4387 126.297 59.236 127.764 58.356C129.231 57.4467 130.844 56.992 132.604 56.992C133.865 56.992 134.995 57.2707 135.992 57.828C136.989 58.356 137.781 59.0747 138.368 59.984C138.984 60.8933 139.292 61.92 139.292 63.064C139.292 64.1787 138.837 64.736 137.928 64.736H129.128C128.717 64.736 128.409 64.8533 128.204 65.088C128.028 65.3227 127.94 65.7187 127.94 66.276C127.94 67.3907 128.189 68.4173 128.688 69.356C129.187 70.2653 129.861 70.984 130.712 71.512C131.563 72.04 132.545 72.304 133.66 72.304C134.511 72.304 135.288 72.1427 135.992 71.82C136.725 71.4973 137.444 71.0573 138.148 70.5C138.265 70.412 138.368 70.3387 138.456 70.28C138.573 70.192 138.676 70.148 138.764 70.148C139.057 70.148 139.204 70.3387 139.204 70.72C139.204 71.0427 139.087 71.4827 138.852 72.04C138.559 72.7733 138.06 73.5067 137.356 74.24C136.681 74.944 135.831 75.516 134.804 75.956C133.777 76.396 132.604 76.616 131.284 76.616ZM129.128 62.888H131.768C132.589 62.888 133.161 62.8733 133.484 62.844C133.807 62.8147 134.1 62.756 134.364 62.668C134.511 62.6093 134.628 62.4627 134.716 62.228C134.804 61.9933 134.848 61.7293 134.848 61.436C134.848 60.644 134.569 59.9987 134.012 59.5C133.484 59.0013 132.824 58.752 132.032 58.752C131.416 58.752 130.829 58.928 130.272 59.28C129.744 59.6027 129.304 60.0427 128.952 60.6C128.629 61.128 128.483 61.6853 128.512 62.272C128.512 62.6827 128.717 62.888 129.128 62.888ZM142.196 76.132C141.961 76.132 141.756 76.088 141.58 76C141.404 75.8827 141.316 75.7213 141.316 75.516C141.316 75.2813 141.404 75.1053 141.58 74.988C141.756 74.8413 142.005 74.724 142.328 74.636C142.973 74.4307 143.398 74.2107 143.604 73.976C143.838 73.7413 143.956 73.404 143.956 72.964V62.844C143.956 62.228 143.868 61.7293 143.692 61.348C143.545 60.9373 143.193 60.6587 142.636 60.512C142.489 60.4533 142.357 60.38 142.24 60.292C142.122 60.1747 142.064 59.984 142.064 59.72C142.064 59.3093 142.24 59.06 142.592 58.972C143.53 58.7373 144.557 58.4293 145.672 58.048C146.816 57.6667 147.784 57.2853 148.576 56.904C148.722 56.7867 148.898 56.684 149.104 56.596C149.338 56.4787 149.5 56.42 149.588 56.42C149.852 56.42 149.984 56.5813 149.984 56.904C149.984 57.0507 149.969 57.3587 149.94 57.828C149.94 58.268 149.925 58.7227 149.896 59.192C149.896 59.6613 149.881 60.0573 149.852 60.38C149.852 60.644 149.91 60.776 150.028 60.776C150.468 60.16 150.981 59.5587 151.568 58.972C152.184 58.3853 152.844 57.9013 153.548 57.52C154.252 57.1387 154.941 56.948 155.616 56.948C156.642 56.948 157.361 57.1387 157.772 57.52C158.212 57.9013 158.432 58.4 158.432 59.016C158.432 59.456 158.3 59.94 158.036 60.468C157.801 60.996 157.493 61.4507 157.112 61.832C156.73 62.2133 156.32 62.404 155.88 62.404C155.616 62.404 155.337 62.3453 155.044 62.228C154.75 62.0813 154.457 61.9347 154.164 61.788C153.87 61.6707 153.577 61.5533 153.284 61.436C153.02 61.2893 152.77 61.216 152.536 61.216C151.773 61.216 151.113 61.4947 150.556 62.052C149.998 62.6093 149.72 63.724 149.72 65.396V72.568C149.72 73.1547 149.896 73.5947 150.248 73.888C150.629 74.152 151.23 74.4013 152.052 74.636C152.374 74.724 152.609 74.8413 152.756 74.988C152.932 75.1053 153.02 75.2813 153.02 75.516C153.02 75.9267 152.77 76.132 152.272 76.132C151.392 76.132 150.482 76.088 149.544 76C148.605 75.9413 147.754 75.912 146.992 75.912C146.493 75.912 145.98 75.9267 145.452 75.956C144.953 75.9853 144.425 76.0147 143.868 76.044C143.34 76.1027 142.782 76.132 142.196 76.132Z" fill="#00062C"/>
<path d="M66.8178 76.924C66.6418 76.924 66.4511 76.7333 66.2458 76.352C66.0698 75.9707 65.8645 75.516 65.6298 74.988C65.3951 74.46 65.1458 73.8733 64.8818 73.228C64.6178 72.5533 64.3685 71.952 64.1338 71.424C63.4005 69.6933 62.6378 68.0067 61.8458 66.364C61.0538 64.7213 60.2765 63.0493 59.5138 61.348C59.2498 60.7027 58.9418 60.16 58.5898 59.72C58.2378 59.2507 57.7978 58.928 57.2698 58.752C56.9765 58.6347 56.7711 58.5173 56.6538 58.4C56.5365 58.2533 56.4778 58.0627 56.4778 57.828C56.4778 57.5933 56.5951 57.4467 56.8298 57.388C57.0938 57.3293 57.3285 57.3 57.5338 57.3C58.2378 57.3 58.7805 57.3293 59.1618 57.388C59.5725 57.4173 59.9685 57.4613 60.3498 57.52C60.7311 57.5493 61.2445 57.564 61.8898 57.564C62.5058 57.564 63.0485 57.5493 63.5178 57.52C64.0165 57.4613 64.5151 57.4173 65.0138 57.388C65.5418 57.3293 66.1431 57.3 66.8178 57.3C67.0231 57.3 67.2431 57.344 67.4778 57.432C67.7418 57.52 67.8738 57.6667 67.8738 57.872C67.8738 58.136 67.7711 58.312 67.5658 58.4C67.3605 58.488 67.1258 58.5907 66.8618 58.708C66.5685 58.8253 66.3191 59.0453 66.1138 59.368C65.9378 59.6907 65.8498 60.1013 65.8498 60.6C65.8498 60.864 65.8498 61.1133 65.8498 61.348C65.8498 61.5533 65.9085 61.7733 66.0258 62.008L68.9738 69.268C69.0031 69.268 69.0178 69.268 69.0178 69.268C69.0471 69.268 69.0765 69.268 69.1058 69.268L71.7018 62.316C71.8191 62.052 71.8925 61.8027 71.9218 61.568C71.9511 61.3333 71.9658 61.1133 71.9658 60.908C71.9658 60.38 71.8485 59.94 71.6138 59.588C71.4085 59.2067 71.0565 58.928 70.5578 58.752C70.2938 58.664 70.0591 58.576 69.8538 58.488C69.6778 58.3707 69.5898 58.18 69.5898 57.916C69.5898 57.7107 69.7071 57.564 69.9418 57.476C70.1765 57.388 70.3965 57.344 70.6018 57.344C71.3938 57.3733 71.9805 57.4027 72.3618 57.432C72.7725 57.4613 73.1978 57.476 73.6378 57.476C74.0778 57.476 74.5031 57.4613 74.9138 57.432C75.3245 57.4027 75.9111 57.3733 76.6738 57.344C76.8791 57.344 77.0991 57.3733 77.3338 57.432C77.5978 57.4907 77.7298 57.6373 77.7298 57.872C77.7298 58.2827 77.4511 58.5907 76.8938 58.796C76.3658 58.972 75.8671 59.3093 75.3978 59.808C74.9578 60.2773 74.5911 60.8493 74.2978 61.524L70.8658 70.148C70.8071 70.3533 70.7045 70.6027 70.5578 70.896C70.4405 71.1893 70.3085 71.4973 70.1618 71.82C70.0445 72.1133 69.9271 72.392 69.8098 72.656C69.6925 72.92 69.5751 73.1547 69.4578 73.36C69.3698 73.5653 69.2231 73.9027 69.0178 74.372C68.8125 74.8413 68.6071 75.3107 68.4018 75.78C68.1965 76.2493 68.0058 76.6307 67.8298 76.924H66.8178ZM87.1819 76.616C85.4219 76.616 83.8379 76.22 82.4299 75.428C81.0219 74.636 79.8926 73.5507 79.0419 72.172C78.2206 70.764 77.8099 69.18 77.8099 67.42C77.8099 66.012 78.0739 64.6773 78.6019 63.416C79.1299 62.1547 79.8632 61.04 80.8019 60.072C81.7406 59.104 82.8406 58.3413 84.1019 57.784C85.3632 57.2267 86.7126 56.948 88.1499 56.948C89.9686 56.948 91.6112 57.3733 93.0779 58.224C94.5446 59.0747 95.7032 60.204 96.5539 61.612C97.4339 62.9907 97.8739 64.5013 97.8739 66.144C97.8739 68.0213 97.4632 69.7667 96.6419 71.38C95.8499 72.964 94.6619 74.24 93.0779 75.208C91.5232 76.1467 89.5579 76.616 87.1819 76.616ZM88.0619 74.68C88.6779 74.68 89.2059 74.5627 89.6459 74.328C90.1152 74.064 90.4966 73.6827 90.7899 73.184C91.1419 72.5973 91.3766 71.8053 91.4939 70.808C91.6406 69.7813 91.7139 68.5787 91.7139 67.2C91.7139 65.616 91.5379 64.208 91.1859 62.976C90.8339 61.7147 90.3352 60.7173 89.6899 59.984C89.0739 59.2507 88.3406 58.884 87.4899 58.884C87.0206 58.884 86.5952 58.972 86.2139 59.148C85.8326 59.2947 85.4952 59.5147 85.2019 59.808C84.7032 60.3947 84.3512 61.2307 84.1459 62.316C83.9699 63.4013 83.8819 64.736 83.8819 66.32C83.8819 67.728 84.0579 69.0773 84.4099 70.368C84.7912 71.6293 85.2899 72.6707 85.9059 73.492C86.5512 74.284 87.2699 74.68 88.0619 74.68Z" fill="#B68C5A"/>
<path d="M28.016 94.112H30.944V95H26.924V86.636H28.016V94.112ZM31.6957 91.688C31.6957 91.016 31.8317 90.428 32.1037 89.924C32.3757 89.412 32.7477 89.016 33.2197 88.736C33.6997 88.456 34.2317 88.316 34.8157 88.316C35.3917 88.316 35.8917 88.44 36.3157 88.688C36.7397 88.936 37.0557 89.248 37.2637 89.624V88.424H38.3677V95H37.2637V93.776C37.0477 94.16 36.7237 94.48 36.2917 94.736C35.8677 94.984 35.3717 95.108 34.8037 95.108C34.2197 95.108 33.6917 94.964 33.2197 94.676C32.7477 94.388 32.3757 93.984 32.1037 93.464C31.8317 92.944 31.6957 92.352 31.6957 91.688ZM37.2637 91.7C37.2637 91.204 37.1637 90.772 36.9637 90.404C36.7637 90.036 36.4917 89.756 36.1477 89.564C35.8117 89.364 35.4397 89.264 35.0317 89.264C34.6237 89.264 34.2517 89.36 33.9157 89.552C33.5797 89.744 33.3117 90.024 33.1117 90.392C32.9117 90.76 32.8117 91.192 32.8117 91.688C32.8117 92.192 32.9117 92.632 33.1117 93.008C33.3117 93.376 33.5797 93.66 33.9157 93.86C34.2517 94.052 34.6237 94.148 35.0317 94.148C35.4397 94.148 35.8117 94.052 36.1477 93.86C36.4917 93.66 36.7637 93.376 36.9637 93.008C37.1637 92.632 37.2637 92.196 37.2637 91.7ZM48.9731 88.424L46.9211 95H45.7931L44.2091 89.78L42.6251 95H41.4971L39.4331 88.424H40.5491L42.0611 93.944L43.6931 88.424H44.8091L46.4051 93.956L47.8931 88.424H48.9731ZM55.7208 88.424L51.7608 98.096H50.6328L51.9288 94.928L49.2768 88.424H50.4888L52.5528 93.752L54.5928 88.424H55.7208ZM62.8185 91.46C62.8185 91.668 62.8065 91.888 62.7825 92.12H57.5265C57.5665 92.768 57.7865 93.276 58.1865 93.644C58.5945 94.004 59.0865 94.184 59.6625 94.184C60.1345 94.184 60.5265 94.076 60.8385 93.86C61.1585 93.636 61.3825 93.34 61.5105 92.972H62.6865C62.5105 93.604 62.1585 94.12 61.6305 94.52C61.1025 94.912 60.4465 95.108 59.6625 95.108C59.0385 95.108 58.4785 94.968 57.9825 94.688C57.4945 94.408 57.1105 94.012 56.8305 93.5C56.5505 92.98 56.4105 92.38 56.4105 91.7C56.4105 91.02 56.5465 90.424 56.8185 89.912C57.0905 89.4 57.4705 89.008 57.9585 88.736C58.4545 88.456 59.0225 88.316 59.6625 88.316C60.2865 88.316 60.8385 88.452 61.3185 88.724C61.7985 88.996 62.1665 89.372 62.4225 89.852C62.6865 90.324 62.8185 90.86 62.8185 91.46ZM61.6905 91.232C61.6905 90.816 61.5985 90.46 61.4145 90.164C61.2305 89.86 60.9785 89.632 60.6585 89.48C60.3465 89.32 59.9985 89.24 59.6145 89.24C59.0625 89.24 58.5905 89.416 58.1985 89.768C57.8145 90.12 57.5945 90.608 57.5385 91.232H61.6905ZM65.3519 89.492C65.5439 89.116 65.8159 88.824 66.1679 88.616C66.5279 88.408 66.9639 88.304 67.4759 88.304V89.432H67.1879C65.9639 89.432 65.3519 90.096 65.3519 91.424V95H64.2599V88.424H65.3519V89.492ZM78.3557 95L77.2637 93.896C76.8557 94.32 76.4197 94.636 75.9557 94.844C75.4917 95.044 74.9677 95.144 74.3837 95.144C73.8077 95.144 73.2957 95.04 72.8477 94.832C72.4077 94.624 72.0637 94.328 71.8157 93.944C71.5757 93.56 71.4557 93.112 71.4557 92.6C71.4557 92.016 71.6197 91.504 71.9477 91.064C72.2837 90.616 72.7757 90.264 73.4237 90.008C73.1677 89.704 72.9837 89.424 72.8717 89.168C72.7597 88.912 72.7037 88.632 72.7037 88.328C72.7037 87.976 72.7917 87.66 72.9677 87.38C73.1517 87.092 73.4117 86.868 73.7477 86.708C74.0837 86.548 74.4717 86.468 74.9117 86.468C75.3437 86.468 75.7197 86.552 76.0397 86.72C76.3597 86.888 76.5997 87.124 76.7597 87.428C76.9197 87.724 76.9917 88.056 76.9757 88.424H75.8837C75.8917 88.096 75.7997 87.84 75.6077 87.656C75.4157 87.464 75.1677 87.368 74.8637 87.368C74.5437 87.368 74.2837 87.46 74.0837 87.644C73.8917 87.82 73.7957 88.048 73.7957 88.328C73.7957 88.568 73.8597 88.8 73.9877 89.024C74.1237 89.248 74.3477 89.524 74.6597 89.852L77.1557 92.36L77.3717 92.024L78.1877 90.656H79.3637L78.3797 92.36C78.2437 92.6 78.0837 92.852 77.8997 93.116L79.7837 95H78.3557ZM74.3837 94.208C74.8157 94.208 75.2037 94.124 75.5477 93.956C75.8997 93.788 76.2317 93.528 76.5437 93.176L74.0837 90.704C73.0597 91.096 72.5477 91.716 72.5477 92.564C72.5477 93.036 72.7157 93.428 73.0517 93.74C73.3957 94.052 73.8397 94.208 74.3837 94.208ZM85.098 94.112H88.026V95H84.006V86.636H85.098V94.112ZM88.7777 91.688C88.7777 91.016 88.9137 90.428 89.1857 89.924C89.4577 89.412 89.8297 89.016 90.3017 88.736C90.7817 88.456 91.3137 88.316 91.8977 88.316C92.4737 88.316 92.9737 88.44 93.3977 88.688C93.8217 88.936 94.1377 89.248 94.3457 89.624V88.424H95.4497V95H94.3457V93.776C94.1297 94.16 93.8057 94.48 93.3737 94.736C92.9497 94.984 92.4537 95.108 91.8857 95.108C91.3017 95.108 90.7737 94.964 90.3017 94.676C89.8297 94.388 89.4577 93.984 89.1857 93.464C88.9137 92.944 88.7777 92.352 88.7777 91.688ZM94.3457 91.7C94.3457 91.204 94.2457 90.772 94.0457 90.404C93.8457 90.036 93.5737 89.756 93.2297 89.564C92.8937 89.364 92.5217 89.264 92.1137 89.264C91.7057 89.264 91.3337 89.36 90.9977 89.552C90.6617 89.744 90.3937 90.024 90.1937 90.392C89.9937 90.76 89.8937 91.192 89.8937 91.688C89.8937 92.192 89.9937 92.632 90.1937 93.008C90.3937 93.376 90.6617 93.66 90.9977 93.86C91.3337 94.052 91.7057 94.148 92.1137 94.148C92.5217 94.148 92.8937 94.052 93.2297 93.86C93.5737 93.66 93.8457 93.376 94.0457 93.008C94.2457 92.632 94.3457 92.196 94.3457 91.7ZM106.055 88.424L104.003 95H102.875L101.291 89.78L99.7071 95H98.5791L96.5151 88.424H97.6311L99.1431 93.944L100.775 88.424H101.891L103.487 93.956L104.975 88.424H106.055ZM109.815 89.324H108.435V95H107.343V89.324H106.491V88.424H107.343V87.956C107.343 87.22 107.531 86.684 107.907 86.348C108.291 86.004 108.903 85.832 109.743 85.832V86.744C109.263 86.744 108.923 86.84 108.723 87.032C108.531 87.216 108.435 87.524 108.435 87.956V88.424H109.815V89.324ZM111.652 87.356C111.444 87.356 111.268 87.284 111.124 87.14C110.98 86.996 110.908 86.82 110.908 86.612C110.908 86.404 110.98 86.228 111.124 86.084C111.268 85.94 111.444 85.868 111.652 85.868C111.852 85.868 112.02 85.94 112.156 86.084C112.3 86.228 112.372 86.404 112.372 86.612C112.372 86.82 112.3 86.996 112.156 87.14C112.02 87.284 111.852 87.356 111.652 87.356ZM112.18 88.424V95H111.088V88.424H112.18ZM115.133 89.492C115.325 89.116 115.597 88.824 115.949 88.616C116.309 88.408 116.745 88.304 117.257 88.304V89.432H116.969C115.745 89.432 115.133 90.096 115.133 91.424V95H114.041V88.424H115.133V89.492ZM126.426 88.304C126.938 88.304 127.394 88.412 127.794 88.628C128.194 88.836 128.51 89.152 128.742 89.576C128.974 90 129.09 90.516 129.09 91.124V95H128.01V91.28C128.01 90.624 127.846 90.124 127.518 89.78C127.198 89.428 126.762 89.252 126.21 89.252C125.642 89.252 125.19 89.436 124.854 89.804C124.518 90.164 124.35 90.688 124.35 91.376V95H123.27V91.28C123.27 90.624 123.106 90.124 122.778 89.78C122.458 89.428 122.022 89.252 121.47 89.252C120.902 89.252 120.45 89.436 120.114 89.804C119.778 90.164 119.61 90.688 119.61 91.376V95H118.518V88.424H119.61V89.372C119.826 89.028 120.114 88.764 120.474 88.58C120.842 88.396 121.246 88.304 121.686 88.304C122.238 88.304 122.726 88.428 123.15 88.676C123.574 88.924 123.89 89.288 124.098 89.768C124.282 89.304 124.586 88.944 125.01 88.688C125.434 88.432 125.906 88.304 126.426 88.304Z" fill="#696E7C"/>
</svg>
