<svg width="232" height="60" viewBox="0 0 232 60" fill="none" xmlns="http://www.w3.org/2000/svg">
<path fill-rule="evenodd" clip-rule="evenodd" d="M6.93815 9.28445H52.1608V4.45706H6.93815V9.28445ZM14.5946 28.519H0.00174914C0.113585 33.1792 3.81727 36.9208 8.37108 36.9208C12.924 36.9208 16.6285 33.1792 16.7395 28.519H16.6364H14.5946ZM3.66786 24.9472L8.41997 16.4767L13.1713 24.9472H3.66786ZM22.4108 50.1726H28.5294V47.8511V47.1528C30.1065 46.5548 31.6739 46.0489 33.2204 45.5738V50.1726H38.6007V43.9306C40.2058 43.4094 41.7732 42.8421 43.2909 42.1484V50.1726H52.1608V55H43.2909H38.6007H33.2204H28.5294H6.93815V50.1726H18.459H22.3619H22.4108ZM47.4751 23.828C35.1286 27.472 24.7987 36.1684 18.8714 47.852H18.5525L18.5988 47.6749L18.5525 47.852H18.4598V13.7731H9.75238L9.84325 13.9375L16.0178 24.9481H16.6364V26.0502V26.2941V27.4883H14.5954C9.72357 27.4883 4.85873 27.4883 0 27.4883V24.949H0.822138L6.99672 13.9384L7.0893 13.774H6.9399V11.2374H52.1626V13.774H43.2926V18.2138C41.685 18.6095 40.1175 19.1307 38.6025 19.7748V13.774H33.2221V22.7043C31.5472 23.8388 29.9763 25.1414 28.5312 26.5922V13.774H23.1508V36.5785C33.154 22.7079 46.0605 20.6149 54.2403 14.2392H54.2429V14.2365C57.6233 11.5997 60.1973 8.23297 61.424 3C62.3169 8.00714 62.1596 13.0865 61.036 17.9211L57.1532 18.2933L60.6787 19.3331C59.4389 23.8524 57.3428 28.1278 54.4587 31.8893L47.261 32.5803L52.554 34.1413C46.0195 41.087 41.1171 41.3128 32.5913 42.1267L35.7857 43.0716C31.95 44.2477 28.2463 45.4446 25.0057 47.8529H21.4279C26.9585 36.9976 36.1447 28.3988 47.4751 23.828Z" fill="#B68C5A"/>
<path d="M74.968 38.22C74.6453 38.22 74.3667 38.1613 74.132 38.044C73.9267 37.956 73.824 37.78 73.824 37.516C73.824 37.2227 73.912 37.0173 74.088 36.9C74.2933 36.7533 74.5573 36.636 74.88 36.548C75.7307 36.3133 76.464 35.9467 77.08 35.448C77.7253 34.9493 78.2093 34.3333 78.532 33.6C79.2653 31.9573 79.9547 30.344 80.6 28.76C81.2453 27.1467 81.876 25.5627 82.492 24.008C83.108 22.424 83.724 20.8253 84.34 19.212C84.956 17.5693 85.572 15.912 86.188 14.24C86.628 13.0373 86.9067 12.172 87.024 11.644C87.1413 11.0867 87.2293 10.764 87.288 10.676C87.816 10.5293 88.3147 10.3973 88.784 10.28C89.2533 10.1627 89.752 10.0013 90.28 9.796C90.808 9.59067 91.248 9.32667 91.6 9.004C91.9813 8.68133 92.26 8.432 92.436 8.256C92.5533 8.168 92.6707 8.124 92.788 8.124C92.9053 8.09467 93.0227 8.18267 93.14 8.388C93.228 8.564 93.3013 8.75466 93.36 8.96C93.448 9.136 93.5213 9.34133 93.58 9.576C94.196 11.5413 94.8267 13.5507 95.472 15.604C96.1173 17.628 96.7627 19.652 97.408 21.676C98.0827 23.7 98.7427 25.7093 99.388 27.704C100.033 29.6693 100.664 31.5907 101.28 33.468C101.456 34.0547 101.72 34.5533 102.072 34.964C102.453 35.3747 102.879 35.6973 103.348 35.932C103.817 36.1667 104.345 36.372 104.932 36.548C105.255 36.636 105.504 36.7533 105.68 36.9C105.885 37.0173 105.988 37.208 105.988 37.472C105.988 37.6773 105.9 37.8387 105.724 37.956C105.548 38.0733 105.343 38.132 105.108 38.132C104.521 38.132 103.788 38.1027 102.908 38.044C102.057 38.0147 101.192 37.9853 100.312 37.956C99.432 37.9267 98.6547 37.912 97.98 37.912C97.4227 37.912 96.7333 37.9267 95.912 37.956C95.12 37.9853 94.3133 38.0147 93.492 38.044C92.6707 38.0733 91.9667 38.088 91.38 38.088C91.116 38.088 90.8813 38.044 90.676 37.956C90.5 37.8387 90.412 37.6773 90.412 37.472C90.412 37.208 90.5147 37.0027 90.72 36.856C90.9253 36.7093 91.1747 36.6067 91.468 36.548C92.5533 36.3133 93.3453 36.0053 93.844 35.624C94.3427 35.2427 94.504 34.6707 94.328 33.908C94.2107 33.3507 94.064 32.764 93.888 32.148C93.712 31.532 93.536 30.916 93.36 30.3C93.2133 29.6547 93.052 29.0387 92.876 28.452C92.8173 28.2173 92.744 28.0413 92.656 27.924C92.568 27.8067 92.392 27.748 92.128 27.748H84.34C84.1347 27.748 83.9733 27.8067 83.856 27.924C83.7387 28.0413 83.6507 28.232 83.592 28.496C83.4747 28.9067 83.3427 29.3173 83.196 29.728C83.0493 30.1387 82.9027 30.5493 82.756 30.96C82.6387 31.3707 82.5213 31.7813 82.404 32.192C82.2867 32.6027 82.1693 32.9987 82.052 33.38C81.8467 34.26 81.9347 34.9347 82.316 35.404C82.6973 35.8733 83.5187 36.2547 84.78 36.548C85.484 36.6947 85.836 37.0027 85.836 37.472C85.836 37.6773 85.748 37.8387 85.572 37.956C85.4253 38.044 85.176 38.088 84.824 38.088C83.9733 38.088 83.1813 38.0587 82.448 38C81.7147 37.9707 80.908 37.956 80.028 37.956C79.148 37.956 78.312 38 77.52 38.088C76.728 38.176 75.8773 38.22 74.968 38.22ZM85.572 25.372H91.292C91.732 25.372 91.952 25.2693 91.952 25.064C91.952 24.976 91.9373 24.9027 91.908 24.844C91.908 24.7853 91.8933 24.712 91.864 24.624L88.916 14.68C88.828 14.3573 88.74 14.196 88.652 14.196C88.5933 14.196 88.4907 14.3573 88.344 14.68L84.868 24.624C84.8093 24.7413 84.78 24.8587 84.78 24.976C84.78 25.1227 84.8533 25.2253 85 25.284C85.176 25.3427 85.3667 25.372 85.572 25.372ZM120.69 38.836C120.602 38.836 120.47 38.7333 120.294 38.528C120.147 38.352 120.074 38.2053 120.074 38.088C120.132 37.648 120.176 37.2373 120.206 36.856C120.264 36.4453 120.294 36.0787 120.294 35.756V35.492C119.707 36.4013 118.886 37.1493 117.83 37.736C116.803 38.3227 115.688 38.616 114.486 38.616C112.843 38.616 111.376 38.2053 110.086 37.384C108.824 36.5627 107.827 35.448 107.094 34.04C106.36 32.632 105.994 31.092 105.994 29.42C105.994 27.4253 106.434 25.6507 107.314 24.096C108.194 22.5413 109.426 21.324 111.01 20.444C112.594 19.5347 114.427 19.08 116.51 19.08C116.95 19.08 117.404 19.124 117.873 19.212C118.372 19.2707 118.827 19.3587 119.238 19.476C119.648 19.564 119.839 19.608 119.81 19.608C119.927 19.608 119.986 19.4173 119.986 19.036V13.8C119.986 12.744 119.854 11.9813 119.59 11.512C119.326 11.0427 118.886 10.7493 118.27 10.632C117.918 10.544 117.742 10.324 117.742 9.972C117.742 9.59067 117.903 9.37067 118.226 9.312C119.311 9.07733 120.426 8.784 121.57 8.432C122.743 8.05066 123.696 7.69866 124.43 7.376C124.811 7.2 125.075 7.09733 125.222 7.068C125.368 7.00933 125.456 6.98 125.486 6.98C125.808 6.98 125.97 7.156 125.97 7.508C125.97 7.42 125.955 7.53733 125.926 7.86C125.896 8.15333 125.867 8.54933 125.838 9.048C125.808 9.54666 125.779 10.0453 125.75 10.544L125.53 32.72C125.53 33.7173 125.603 34.436 125.75 34.876C125.896 35.316 126.16 35.536 126.542 35.536C126.688 35.536 126.835 35.5213 126.982 35.492C127.158 35.4627 127.583 35.4333 128.258 35.404C128.668 35.3747 128.874 35.5213 128.874 35.844C128.874 36.0787 128.786 36.328 128.61 36.592C128.434 36.856 128.272 36.988 128.126 36.988C127.07 37.1053 125.955 37.296 124.782 37.56C123.638 37.824 122.523 38.1613 121.438 38.572C121.262 38.66 121.115 38.7187 120.998 38.748C120.88 38.8067 120.778 38.836 120.69 38.836ZM116.73 35.624C117.17 35.624 117.712 35.5067 118.358 35.272C119.032 35.0373 119.575 34.7 119.986 34.26L119.942 24.536C119.942 24.008 119.736 23.4947 119.326 22.996C118.944 22.468 118.446 22.028 117.83 21.676C117.243 21.324 116.656 21.148 116.07 21.148C115.366 21.148 114.706 21.4413 114.09 22.028C113.503 22.5853 113.019 23.392 112.638 24.448C112.286 25.4747 112.11 26.736 112.11 28.232C112.11 29.4347 112.227 30.4907 112.462 31.4C112.726 32.3093 113.078 33.0867 113.518 33.732C113.958 34.348 114.456 34.8173 115.014 35.14C115.571 35.4627 116.143 35.624 116.73 35.624ZM173.467 38.132C172.88 38.132 172.587 37.9267 172.587 37.516C172.587 37.2813 172.675 37.1053 172.851 36.988C173.027 36.8413 173.276 36.724 173.599 36.636C174.039 36.4893 174.42 36.328 174.743 36.152C175.095 35.976 175.271 35.5653 175.271 34.92V13.8C175.271 12.9787 175.168 12.2893 174.963 11.732C174.757 11.1453 174.288 10.7787 173.555 10.632C173.232 10.5733 173.071 10.3533 173.071 9.972C173.071 9.59067 173.217 9.37067 173.511 9.312C174.244 9.16533 175.036 8.96 175.887 8.696C176.767 8.40266 177.603 8.10933 178.395 7.816C179.187 7.49333 179.803 7.25867 180.243 7.112C180.477 7.024 180.668 6.98 180.815 6.98C180.991 6.98 181.108 7.03866 181.167 7.156C181.225 7.244 181.255 7.36133 181.255 7.508C181.255 7.74266 181.211 8.13866 181.123 8.696C181.064 9.25333 181.02 9.86933 180.991 10.544L181.035 27C181.035 27.352 181.167 27.528 181.431 27.528C181.519 27.528 181.621 27.4987 181.739 27.44C181.885 27.352 182.017 27.264 182.135 27.176C183.22 26.2373 184.188 25.284 185.039 24.316C185.889 23.348 186.461 22.644 186.755 22.204C186.872 22.028 186.96 21.8813 187.019 21.764C187.107 21.6467 187.151 21.544 187.151 21.456C187.151 21.3093 187.033 21.1627 186.799 21.016C186.564 20.84 186.212 20.7227 185.743 20.664C185.391 20.6053 185.215 20.444 185.215 20.18C185.215 19.916 185.317 19.7547 185.523 19.696C185.757 19.608 185.977 19.564 186.183 19.564H188.339C188.867 19.564 189.556 19.5493 190.407 19.52C191.257 19.4613 192.093 19.388 192.915 19.3C193.736 19.212 194.323 19.168 194.675 19.168C194.997 19.168 195.159 19.3293 195.159 19.652C195.159 19.8867 195.071 20.092 194.895 20.268C194.719 20.4147 194.469 20.5173 194.147 20.576C193.648 20.6933 193.061 20.8987 192.387 21.192C191.712 21.4853 191.037 21.8227 190.363 22.204C189.864 22.468 189.321 22.8053 188.735 23.216C188.177 23.5973 187.62 24.008 187.063 24.448C186.535 24.888 186.051 25.3133 185.611 25.724C185.464 25.8707 185.391 26.032 185.391 26.208C185.391 26.296 185.42 26.384 185.479 26.472C185.537 26.5307 185.596 26.604 185.655 26.692C186.359 27.6013 187.033 28.496 187.679 29.376C188.324 30.256 188.969 31.1067 189.615 31.928C190.26 32.72 190.92 33.512 191.595 34.304C192.093 34.832 192.695 35.316 193.399 35.756C194.103 36.196 194.689 36.504 195.159 36.68C195.393 36.768 195.643 36.8707 195.907 36.988C196.2 37.1053 196.347 37.2813 196.347 37.516C196.347 37.9267 196.024 38.132 195.379 38.132C193.619 38.132 191.888 38.1027 190.187 38.044C188.515 38.0147 186.945 38 185.479 38C184.892 38 184.599 37.7947 184.599 37.384C184.599 37.1493 184.687 36.9733 184.863 36.856C185.039 36.7387 185.273 36.6213 185.567 36.504C185.831 36.416 186.007 36.3133 186.095 36.196C186.212 36.0787 186.285 35.9467 186.315 35.8C186.315 35.6827 186.256 35.5507 186.139 35.404C186.051 35.228 185.933 35.0373 185.787 34.832L181.519 28.936C181.431 28.8773 181.357 28.848 181.299 28.848C181.123 28.8773 181.035 28.98 181.035 29.156C181.035 29.596 181.035 30.0507 181.035 30.52C181.035 30.9893 181.035 31.444 181.035 31.884C181.035 32.3533 181.035 32.8667 181.035 33.424C181.035 33.952 181.035 34.4653 181.035 34.964C181.035 35.4627 181.137 35.8293 181.343 36.064C181.577 36.2693 181.915 36.4453 182.355 36.592C182.589 36.68 182.795 36.7973 182.971 36.944C183.176 37.0613 183.279 37.2373 183.279 37.472C183.279 37.6773 183.191 37.8387 183.015 37.956C182.868 38.0733 182.692 38.132 182.487 38.132C181.9 38.132 181.357 38.1027 180.859 38.044C180.389 38.0147 179.935 37.9853 179.495 37.956C179.055 37.9267 178.571 37.912 178.043 37.912C177.544 37.912 177.045 37.9267 176.547 37.956C176.077 37.9853 175.593 38.0147 175.095 38.044C174.596 38.1027 174.053 38.132 173.467 38.132ZM204.284 38.616C202.7 38.616 201.277 38.2053 200.016 37.384C198.784 36.5333 197.801 35.3893 197.068 33.952C196.364 32.4853 196.012 30.828 196.012 28.98C196.012 27.132 196.437 25.46 197.288 23.964C198.139 22.4387 199.297 21.236 200.764 20.356C202.231 19.4467 203.844 18.992 205.604 18.992C206.865 18.992 207.995 19.2707 208.992 19.828C209.989 20.356 210.781 21.0747 211.368 21.984C211.984 22.8933 212.292 23.92 212.292 25.064C212.292 26.1787 211.837 26.736 210.928 26.736H202.128C201.717 26.736 201.409 26.8533 201.204 27.088C201.028 27.3227 200.94 27.7187 200.94 28.276C200.94 29.3907 201.189 30.4173 201.688 31.356C202.187 32.2653 202.861 32.984 203.712 33.512C204.563 34.04 205.545 34.304 206.66 34.304C207.511 34.304 208.288 34.1427 208.992 33.82C209.725 33.4973 210.444 33.0573 211.148 32.5C211.265 32.412 211.368 32.3387 211.456 32.28C211.573 32.192 211.676 32.148 211.764 32.148C212.057 32.148 212.204 32.3387 212.204 32.72C212.204 33.0427 212.087 33.4827 211.852 34.04C211.559 34.7733 211.06 35.5067 210.356 36.24C209.681 36.944 208.831 37.516 207.804 37.956C206.777 38.396 205.604 38.616 204.284 38.616ZM202.128 24.888H204.768C205.589 24.888 206.161 24.8733 206.484 24.844C206.807 24.8147 207.1 24.756 207.364 24.668C207.511 24.6093 207.628 24.4627 207.716 24.228C207.804 23.9933 207.848 23.7293 207.848 23.436C207.848 22.644 207.569 21.9987 207.012 21.5C206.484 21.0013 205.824 20.752 205.032 20.752C204.416 20.752 203.829 20.928 203.272 21.28C202.744 21.6027 202.304 22.0427 201.952 22.6C201.629 23.128 201.483 23.6853 201.512 24.272C201.512 24.6827 201.717 24.888 202.128 24.888ZM215.196 38.132C214.961 38.132 214.756 38.088 214.58 38C214.404 37.8827 214.316 37.7213 214.316 37.516C214.316 37.2813 214.404 37.1053 214.58 36.988C214.756 36.8413 215.005 36.724 215.328 36.636C215.973 36.4307 216.398 36.2107 216.604 35.976C216.838 35.7413 216.956 35.404 216.956 34.964V24.844C216.956 24.228 216.868 23.7293 216.692 23.348C216.545 22.9373 216.193 22.6587 215.636 22.512C215.489 22.4533 215.357 22.38 215.24 22.292C215.122 22.1747 215.064 21.984 215.064 21.72C215.064 21.3093 215.24 21.06 215.592 20.972C216.53 20.7373 217.557 20.4293 218.672 20.048C219.816 19.6667 220.784 19.2853 221.576 18.904C221.722 18.7867 221.898 18.684 222.104 18.596C222.338 18.4787 222.5 18.42 222.588 18.42C222.852 18.42 222.984 18.5813 222.984 18.904C222.984 19.0507 222.969 19.3587 222.94 19.828C222.94 20.268 222.925 20.7227 222.896 21.192C222.896 21.6613 222.881 22.0573 222.852 22.38C222.852 22.644 222.91 22.776 223.028 22.776C223.468 22.16 223.981 21.5587 224.568 20.972C225.184 20.3853 225.844 19.9013 226.548 19.52C227.252 19.1387 227.941 18.948 228.616 18.948C229.642 18.948 230.361 19.1387 230.772 19.52C231.212 19.9013 231.432 20.4 231.432 21.016C231.432 21.456 231.3 21.94 231.036 22.468C230.801 22.996 230.493 23.4507 230.112 23.832C229.73 24.2133 229.32 24.404 228.88 24.404C228.616 24.404 228.337 24.3453 228.044 24.228C227.75 24.0813 227.457 23.9347 227.164 23.788C226.87 23.6707 226.577 23.5533 226.284 23.436C226.02 23.2893 225.77 23.216 225.536 23.216C224.773 23.216 224.113 23.4947 223.556 24.052C222.998 24.6093 222.72 25.724 222.72 27.396V34.568C222.72 35.1547 222.896 35.5947 223.248 35.888C223.629 36.152 224.23 36.4013 225.052 36.636C225.374 36.724 225.609 36.8413 225.756 36.988C225.932 37.1053 226.02 37.2813 226.02 37.516C226.02 37.9267 225.77 38.132 225.272 38.132C224.392 38.132 223.482 38.088 222.544 38C221.605 37.9413 220.754 37.912 219.992 37.912C219.493 37.912 218.98 37.9267 218.452 37.956C217.953 37.9853 217.425 38.0147 216.868 38.044C216.34 38.1027 215.782 38.132 215.196 38.132Z" fill="white"/>
<path d="M139.818 38.924C139.642 38.924 139.451 38.7333 139.246 38.352C139.07 37.9707 138.864 37.516 138.63 36.988C138.395 36.46 138.146 35.8733 137.882 35.228C137.618 34.5533 137.368 33.952 137.134 33.424C136.4 31.6933 135.638 30.0067 134.846 28.364C134.054 26.7213 133.276 25.0493 132.514 23.348C132.25 22.7027 131.942 22.16 131.59 21.72C131.238 21.2507 130.798 20.928 130.27 20.752C129.976 20.6347 129.771 20.5173 129.654 20.4C129.536 20.2533 129.478 20.0627 129.478 19.828C129.478 19.5933 129.595 19.4467 129.83 19.388C130.094 19.3293 130.328 19.3 130.534 19.3C131.238 19.3 131.78 19.3293 132.162 19.388C132.572 19.4173 132.968 19.4613 133.35 19.52C133.731 19.5493 134.244 19.564 134.89 19.564C135.506 19.564 136.048 19.5493 136.518 19.52C137.016 19.4613 137.515 19.4173 138.014 19.388C138.542 19.3293 139.143 19.3 139.818 19.3C140.023 19.3 140.243 19.344 140.478 19.432C140.742 19.52 140.874 19.6667 140.874 19.872C140.874 20.136 140.771 20.312 140.566 20.4C140.36 20.488 140.126 20.5907 139.862 20.708C139.568 20.8253 139.319 21.0453 139.114 21.368C138.938 21.6907 138.85 22.1013 138.85 22.6C138.85 22.864 138.85 23.1133 138.85 23.348C138.85 23.5533 138.908 23.7733 139.026 24.008L141.974 31.268C142.003 31.268 142.018 31.268 142.018 31.268C142.047 31.268 142.076 31.268 142.106 31.268L144.702 24.316C144.819 24.052 144.892 23.8027 144.922 23.568C144.951 23.3333 144.966 23.1133 144.966 22.908C144.966 22.38 144.848 21.94 144.614 21.588C144.408 21.2067 144.056 20.928 143.558 20.752C143.294 20.664 143.059 20.576 142.854 20.488C142.678 20.3707 142.59 20.18 142.59 19.916C142.59 19.7107 142.707 19.564 142.942 19.476C143.176 19.388 143.396 19.344 143.602 19.344C144.394 19.3733 144.98 19.4027 145.362 19.432C145.772 19.4613 146.198 19.476 146.638 19.476C147.078 19.476 147.503 19.4613 147.914 19.432C148.324 19.4027 148.911 19.3733 149.674 19.344C149.879 19.344 150.099 19.3733 150.334 19.432C150.598 19.4907 150.73 19.6373 150.73 19.872C150.73 20.2827 150.451 20.5907 149.894 20.796C149.366 20.972 148.867 21.3093 148.398 21.808C147.958 22.2773 147.591 22.8493 147.298 23.524L143.866 32.148C143.807 32.3533 143.704 32.6027 143.558 32.896C143.44 33.1893 143.308 33.4973 143.162 33.82C143.044 34.1133 142.927 34.392 142.81 34.656C142.692 34.92 142.575 35.1547 142.458 35.36C142.37 35.5653 142.223 35.9027 142.018 36.372C141.812 36.8413 141.607 37.3107 141.402 37.78C141.196 38.2493 141.006 38.6307 140.83 38.924H139.818ZM160.182 38.616C158.422 38.616 156.838 38.22 155.43 37.428C154.022 36.636 152.893 35.5507 152.042 34.172C151.221 32.764 150.81 31.18 150.81 29.42C150.81 28.012 151.074 26.6773 151.602 25.416C152.13 24.1547 152.863 23.04 153.802 22.072C154.741 21.104 155.841 20.3413 157.102 19.784C158.363 19.2267 159.713 18.948 161.15 18.948C162.969 18.948 164.611 19.3733 166.078 20.224C167.545 21.0747 168.703 22.204 169.554 23.612C170.434 24.9907 170.874 26.5013 170.874 28.144C170.874 30.0213 170.463 31.7667 169.642 33.38C168.85 34.964 167.662 36.24 166.078 37.208C164.523 38.1467 162.558 38.616 160.182 38.616ZM161.062 36.68C161.678 36.68 162.206 36.5627 162.646 36.328C163.115 36.064 163.497 35.6827 163.79 35.184C164.142 34.5973 164.377 33.8053 164.494 32.808C164.641 31.7813 164.714 30.5787 164.714 29.2C164.714 27.616 164.538 26.208 164.186 24.976C163.834 23.7147 163.335 22.7173 162.69 21.984C162.074 21.2507 161.341 20.884 160.49 20.884C160.021 20.884 159.595 20.972 159.214 21.148C158.833 21.2947 158.495 21.5147 158.202 21.808C157.703 22.3947 157.351 23.2307 157.146 24.316C156.97 25.4013 156.882 26.736 156.882 28.32C156.882 29.728 157.058 31.0773 157.41 32.368C157.791 33.6293 158.29 34.6707 158.906 35.492C159.551 36.284 160.27 36.68 161.062 36.68Z" fill="#B68C5A"/>
<path d="M76.016 54.112H78.944V55H74.924V46.636H76.016V54.112ZM79.6957 51.688C79.6957 51.016 79.8317 50.428 80.1037 49.924C80.3757 49.412 80.7477 49.016 81.2197 48.736C81.6997 48.456 82.2317 48.316 82.8157 48.316C83.3917 48.316 83.8917 48.44 84.3157 48.688C84.7397 48.936 85.0557 49.248 85.2637 49.624V48.424H86.3677V55H85.2637V53.776C85.0477 54.16 84.7237 54.48 84.2917 54.736C83.8677 54.984 83.3717 55.108 82.8037 55.108C82.2197 55.108 81.6917 54.964 81.2197 54.676C80.7477 54.388 80.3757 53.984 80.1037 53.464C79.8317 52.944 79.6957 52.352 79.6957 51.688ZM85.2637 51.7C85.2637 51.204 85.1637 50.772 84.9637 50.404C84.7637 50.036 84.4917 49.756 84.1477 49.564C83.8117 49.364 83.4397 49.264 83.0317 49.264C82.6237 49.264 82.2517 49.36 81.9157 49.552C81.5797 49.744 81.3117 50.024 81.1117 50.392C80.9117 50.76 80.8117 51.192 80.8117 51.688C80.8117 52.192 80.9117 52.632 81.1117 53.008C81.3117 53.376 81.5797 53.66 81.9157 53.86C82.2517 54.052 82.6237 54.148 83.0317 54.148C83.4397 54.148 83.8117 54.052 84.1477 53.86C84.4917 53.66 84.7637 53.376 84.9637 53.008C85.1637 52.632 85.2637 52.196 85.2637 51.7ZM96.9731 48.424L94.9211 55H93.7931L92.2091 49.78L90.6251 55H89.4971L87.4331 48.424H88.5491L90.0611 53.944L91.6931 48.424H92.8091L94.4051 53.956L95.8931 48.424H96.9731ZM103.721 48.424L99.7608 58.096H98.6328L99.9288 54.928L97.2768 48.424H98.4888L100.553 53.752L102.593 48.424H103.721ZM110.819 51.46C110.819 51.668 110.807 51.888 110.783 52.12H105.527C105.567 52.768 105.787 53.276 106.187 53.644C106.595 54.004 107.087 54.184 107.663 54.184C108.135 54.184 108.527 54.076 108.839 53.86C109.159 53.636 109.383 53.34 109.511 52.972H110.687C110.511 53.604 110.159 54.12 109.631 54.52C109.103 54.912 108.447 55.108 107.663 55.108C107.039 55.108 106.479 54.968 105.983 54.688C105.495 54.408 105.111 54.012 104.831 53.5C104.551 52.98 104.411 52.38 104.411 51.7C104.411 51.02 104.547 50.424 104.819 49.912C105.091 49.4 105.471 49.008 105.959 48.736C106.455 48.456 107.023 48.316 107.663 48.316C108.287 48.316 108.839 48.452 109.319 48.724C109.799 48.996 110.167 49.372 110.423 49.852C110.687 50.324 110.819 50.86 110.819 51.46ZM109.691 51.232C109.691 50.816 109.599 50.46 109.415 50.164C109.231 49.86 108.979 49.632 108.659 49.48C108.347 49.32 107.999 49.24 107.615 49.24C107.063 49.24 106.591 49.416 106.199 49.768C105.815 50.12 105.595 50.608 105.539 51.232H109.691ZM113.352 49.492C113.544 49.116 113.816 48.824 114.168 48.616C114.528 48.408 114.964 48.304 115.476 48.304V49.432H115.188C113.964 49.432 113.352 50.096 113.352 51.424V55H112.26V48.424H113.352V49.492ZM126.356 55L125.264 53.896C124.856 54.32 124.42 54.636 123.956 54.844C123.492 55.044 122.968 55.144 122.384 55.144C121.808 55.144 121.296 55.04 120.848 54.832C120.408 54.624 120.064 54.328 119.816 53.944C119.576 53.56 119.456 53.112 119.456 52.6C119.456 52.016 119.62 51.504 119.948 51.064C120.284 50.616 120.776 50.264 121.424 50.008C121.168 49.704 120.984 49.424 120.872 49.168C120.76 48.912 120.704 48.632 120.704 48.328C120.704 47.976 120.792 47.66 120.968 47.38C121.152 47.092 121.412 46.868 121.748 46.708C122.084 46.548 122.472 46.468 122.912 46.468C123.344 46.468 123.72 46.552 124.04 46.72C124.36 46.888 124.6 47.124 124.76 47.428C124.92 47.724 124.992 48.056 124.976 48.424H123.884C123.892 48.096 123.8 47.84 123.608 47.656C123.416 47.464 123.168 47.368 122.864 47.368C122.544 47.368 122.284 47.46 122.084 47.644C121.892 47.82 121.796 48.048 121.796 48.328C121.796 48.568 121.86 48.8 121.988 49.024C122.124 49.248 122.348 49.524 122.66 49.852L125.156 52.36L125.372 52.024L126.188 50.656H127.364L126.38 52.36C126.244 52.6 126.084 52.852 125.9 53.116L127.784 55H126.356ZM122.384 54.208C122.816 54.208 123.204 54.124 123.548 53.956C123.9 53.788 124.232 53.528 124.544 53.176L122.084 50.704C121.06 51.096 120.548 51.716 120.548 52.564C120.548 53.036 120.716 53.428 121.052 53.74C121.396 54.052 121.84 54.208 122.384 54.208ZM133.098 54.112H136.026V55H132.006V46.636H133.098V54.112ZM136.778 51.688C136.778 51.016 136.914 50.428 137.186 49.924C137.458 49.412 137.83 49.016 138.302 48.736C138.782 48.456 139.314 48.316 139.898 48.316C140.474 48.316 140.974 48.44 141.398 48.688C141.822 48.936 142.138 49.248 142.346 49.624V48.424H143.45V55H142.346V53.776C142.13 54.16 141.806 54.48 141.374 54.736C140.95 54.984 140.454 55.108 139.886 55.108C139.302 55.108 138.774 54.964 138.302 54.676C137.83 54.388 137.458 53.984 137.186 53.464C136.914 52.944 136.778 52.352 136.778 51.688ZM142.346 51.7C142.346 51.204 142.246 50.772 142.046 50.404C141.846 50.036 141.574 49.756 141.23 49.564C140.894 49.364 140.522 49.264 140.114 49.264C139.706 49.264 139.334 49.36 138.998 49.552C138.662 49.744 138.394 50.024 138.194 50.392C137.994 50.76 137.894 51.192 137.894 51.688C137.894 52.192 137.994 52.632 138.194 53.008C138.394 53.376 138.662 53.66 138.998 53.86C139.334 54.052 139.706 54.148 140.114 54.148C140.522 54.148 140.894 54.052 141.23 53.86C141.574 53.66 141.846 53.376 142.046 53.008C142.246 52.632 142.346 52.196 142.346 51.7ZM154.055 48.424L152.003 55H150.875L149.291 49.78L147.707 55H146.579L144.515 48.424H145.631L147.143 53.944L148.775 48.424H149.891L151.487 53.956L152.975 48.424H154.055ZM157.815 49.324H156.435V55H155.343V49.324H154.491V48.424H155.343V47.956C155.343 47.22 155.531 46.684 155.907 46.348C156.291 46.004 156.903 45.832 157.743 45.832V46.744C157.263 46.744 156.923 46.84 156.723 47.032C156.531 47.216 156.435 47.524 156.435 47.956V48.424H157.815V49.324ZM159.652 47.356C159.444 47.356 159.268 47.284 159.124 47.14C158.98 46.996 158.908 46.82 158.908 46.612C158.908 46.404 158.98 46.228 159.124 46.084C159.268 45.94 159.444 45.868 159.652 45.868C159.852 45.868 160.02 45.94 160.156 46.084C160.3 46.228 160.372 46.404 160.372 46.612C160.372 46.82 160.3 46.996 160.156 47.14C160.02 47.284 159.852 47.356 159.652 47.356ZM160.18 48.424V55H159.088V48.424H160.18ZM163.133 49.492C163.325 49.116 163.597 48.824 163.949 48.616C164.309 48.408 164.745 48.304 165.257 48.304V49.432H164.969C163.745 49.432 163.133 50.096 163.133 51.424V55H162.041V48.424H163.133V49.492ZM174.426 48.304C174.938 48.304 175.394 48.412 175.794 48.628C176.194 48.836 176.51 49.152 176.742 49.576C176.974 50 177.09 50.516 177.09 51.124V55H176.01V51.28C176.01 50.624 175.846 50.124 175.518 49.78C175.198 49.428 174.762 49.252 174.21 49.252C173.642 49.252 173.19 49.436 172.854 49.804C172.518 50.164 172.35 50.688 172.35 51.376V55H171.27V51.28C171.27 50.624 171.106 50.124 170.778 49.78C170.458 49.428 170.022 49.252 169.47 49.252C168.902 49.252 168.45 49.436 168.114 49.804C167.778 50.164 167.61 50.688 167.61 51.376V55H166.518V48.424H167.61V49.372C167.826 49.028 168.114 48.764 168.474 48.58C168.842 48.396 169.246 48.304 169.686 48.304C170.238 48.304 170.726 48.428 171.15 48.676C171.574 48.924 171.89 49.288 172.098 49.768C172.282 49.304 172.586 48.944 173.01 48.688C173.434 48.432 173.906 48.304 174.426 48.304Z" fill="white"/>
</svg>
